  0
SECTION
  2
HEADER
  9
$ACADVER
  1
AC1015
  9
$ACADMAINTVER
 70
     6
  9
$DWGCODEPAGE
  3
ANSI_1252
  9
$INSBASE
 10
0.0
 20
0.0
 30
0.0
  9
$EXTMIN
 10
-147.5
 20
-10.0
 30
0.0
  9
$EXTMAX
 10
147.5
 20
195.0
 30
0.0
  9
$LIMMIN
 10
0.0
 20
0.0
  9
$LIMMAX
 10
420.0
 20
297.0
  9
$ORTHOMODE
 70
     0
  9
$REGENMODE
 70
     1
  9
$FILLMODE
 70
     1
  9
$QTEXTMODE
 70
     0
  9
$MIRRTEXT
 70
     1
  9
$LTSCALE
 40
1.0
  9
$ATTMODE
 70
     1
  9
$TEXTSIZE
 40
3.5
  9
$TRACEWID
 40
1.0
  9
$TEXTSTYLE
  7
Standard
  9
$CLAYER
  8
0
  9
$CELTYPE
  6
ByLayer
  9
$CECOLOR
 62
   256
  9
$CELTSCALE
 40
1.0
  9
$DISPSILH
 70
     0
  9
$DIMSCALE
 40
1.0
  9
$DIMASZ
 40
3.302
  9
$DIMEXO
 40
0.0
  9
$DIMDLI
 40
3.75
  9
$DIMRND
 40
0.0
  9
$DIMDLE
 40
0.0
  9
$DIMEXE
 40
1.0
  9
$DIMTP
 40
0.0
  9
$DIMTM
 40
0.0
  9
$DIMTXT
 40
3.5
  9
$DIMCEN
 40
2.5
  9
$DIMTSZ
 40
0.0
  9
$DIMTOL
 70
     0
  9
$DIMLIM
 70
     0
  9
$DIMTIH
 70
     1
  9
$DIMTOH
 70
     1
  9
$DIMSE1
 70
     0
  9
$DIMSE2
 70
     0
  9
$DIMTAD
 70
     1
  9
$DIMZIN
 70
     1
  9
$DIMBLK
  1

  9
$DIMASO
 70
     1
  9
$DIMSHO
 70
     1
  9
$DIMPOST
  1

  9
$DIMAPOST
  1

  9
$DIMALT
 70
     0
  9
$DIMALTD
 70
     3
  9
$DIMALTF
 40
0.0393700787
  9
$DIMLFAC
 40
1.0
  9
$DIMTOFL
 70
     1
  9
$DIMTVP
 40
0.0
  9
$DIMTIX
 70
     0
  9
$DIMSOXD
 70
     0
  9
$DIMSAH
 70
     0
  9
$DIMBLK1
  1

  9
$DIMBLK2
  1

  9
$DIMSTYLE
  2
ISO-25
  9
$DIMCLRD
 70
     0
  9
$DIMCLRE
 70
     0
  9
$DIMCLRT
 70
     0
  9
$DIMTFAC
 40
1.0
  9
$DIMGAP
 40
1.524
  9
$DIMJUST
 70
     0
  9
$DIMSD1
 70
     0
  9
$DIMSD2
 70
     0
  9
$DIMTOLJ
 70
     0
  9
$DIMTZIN
 70
     1
  9
$DIMALTZ
 70
     0
  9
$DIMALTTZ
 70
     0
  9
$DIMUPT
 70
     0
  9
$DIMDEC
 70
     2
  9
$DIMTDEC
 70
     2
  9
$DIMALTU
 70
     2
  9
$DIMALTTD
 70
     3
  9
$DIMTXSTY
  7
Standard
  9
$DIMAUNIT
 70
     0
  9
$DIMADEC
 70
     2
  9
$DIMALTRND
 40
0.0
  9
$DIMAZIN
 70
     0
  9
$DIMDSEP
 70
    44
  9
$DIMATFIT
 70
     3
  9
$DIMFRAC
 70
     0
  9
$DIMLDRBLK
  1

  9
$DIMLUNIT
 70
     2
  9
$DIMLWD
 70
    -2
  9
$DIMLWE
 70
    -2
  9
$DIMTMOVE
 70
     0
  9
$LUNITS
 70
     2
  9
$LUPREC
 70
     2
  9
$SKETCHINC
 40
1.0
  9
$FILLETRAD
 40
0.0
  9
$AUNITS
 70
     0
  9
$AUPREC
 70
     2
  9
$MENU
  1
.
  9
$ELEVATION
 40
0.0
  9
$PELEVATION
 40
0.0
  9
$THICKNESS
 40
0.0
  9
$LIMCHECK
 70
     0
  9
$CHAMFERA
 40
0.0
  9
$CHAMFERB
 40
0.0
  9
$CHAMFERC
 40
0.0
  9
$CHAMFERD
 40
0.0
  9
$SKPOLY
 70
     0
  9
$TDCREATE
 40
2459968.600192592
  9
$TDUCREATE
 40
2459968.558525926
  9
$TDUPDATE
 40
2459968.600221945
  9
$TDUUPDATE
 40
2459968.558555278
  9
$TDINDWG
 40
0.0000000116
  9
$TDUSRTIMER
 40
0.0000000116
  9
$USRTIMER
 70
     1
  9
$ANGBASE
 50
0.0
  9
$ANGDIR
 70
     0
  9
$PDMODE
 70
     0
  9
$PDSIZE
 40
-1.0
  9
$PLINEWID
 40
0.0
  9
$SPLFRAME
 70
     0
  9
$SPLINETYPE
 70
     6
  9
$SPLINESEGS
 70
     8
  9
$HANDSEED
  5
2D2
  9
$SURFTAB1
 70
     6
  9
$SURFTAB2
 70
     6
  9
$SURFTYPE
 70
     6
  9
$SURFU
 70
     6
  9
$SURFV
 70
     6
  9
$UCSBASE
  2

  9
$UCSNAME
  2

  9
$UCSORG
 10
0.0
 20
0.0
 30
0.0
  9
$UCSXDIR
 10
1.0
 20
0.0
 30
0.0
  9
$UCSYDIR
 10
0.0
 20
1.0
 30
0.0
  9
$UCSORTHOREF
  2

  9
$UCSORTHOVIEW
 70
     0
  9
$UCSORGTOP
 10
0.0
 20
0.0
 30
0.0
  9
$UCSORGBOTTOM
 10
0.0
 20
0.0
 30
0.0
  9
$UCSORGLEFT
 10
0.0
 20
0.0
 30
0.0
  9
$UCSORGRIGHT
 10
0.0
 20
0.0
 30
0.0
  9
$UCSORGFRONT
 10
0.0
 20
0.0
 30
0.0
  9
$UCSORGBACK
 10
0.0
 20
0.0
 30
0.0
  9
$PUCSBASE
  2

  9
$PUCSNAME
  2

  9
$PUCSORG
 10
0.0
 20
0.0
 30
0.0
  9
$PUCSXDIR
 10
1.0
 20
0.0
 30
0.0
  9
$PUCSYDIR
 10
0.0
 20
1.0
 30
0.0
  9
$PUCSORTHOREF
  2

  9
$PUCSORTHOVIEW
 70
     0
  9
$PUCSORGTOP
 10
0.0
 20
0.0
 30
0.0
  9
$PUCSORGBOTTOM
 10
0.0
 20
0.0
 30
0.0
  9
$PUCSORGLEFT
 10
0.0
 20
0.0
 30
0.0
  9
$PUCSORGRIGHT
 10
0.0
 20
0.0
 30
0.0
  9
$PUCSORGFRONT
 10
0.0
 20
0.0
 30
0.0
  9
$PUCSORGBACK
 10
0.0
 20
0.0
 30
0.0
  9
$USERI1
 70
     0
  9
$USERI2
 70
     0
  9
$USERI3
 70
     0
  9
$USERI4
 70
     0
  9
$USERI5
 70
     0
  9
$USERR1
 40
0.0
  9
$USERR2
 40
0.0
  9
$USERR3
 40
0.0
  9
$USERR4
 40
0.0
  9
$USERR5
 40
0.0
  9
$WORLDVIEW
 70
     1
  9
$SHADEDGE
 70
     3
  9
$SHADEDIF
 70
    70
  9
$TILEMODE
 70
     1
  9
$MAXACTVP
 70
    64
  9
$PINSBASE
 10
0.0
 20
0.0
 30
0.0
  9
$PLIMCHECK
 70
     0
  9
$PEXTMIN
 10
1.0000000000E+20
 20
1.0000000000E+20
 30
1.0000000000E+20
  9
$PEXTMAX
 10
-1.0000000000E+20
 20
-1.0000000000E+20
 30
-1.0000000000E+20
  9
$PLIMMIN
 10
0.0
 20
0.0
  9
$PLIMMAX
 10
420.0
 20
297.0
  9
$UNITMODE
 70
     0
  9
$VISRETAIN
 70
     1
  9
$PLINEGEN
 70
     0
  9
$PSLTSCALE
 70
     1
  9
$TREEDEPTH
 70
  3020
  9
$CMLSTYLE
  2
Standard
  9
$CMLJUST
 70
     0
  9
$CMLSCALE
 40
20.0
  9
$PROXYGRAPHICS
 70
     1
  9
$MEASUREMENT
 70
     1
  9
$CELWEIGHT
370
    -1
  9
$ENDCAPS
280
     0
  9
$JOINSTYLE
280
     0
  9
$LWDISPLAY
290
     1
  9
$INSUNITS
 70
     4
  9
$HYPERLINKBASE
  1

  9
$STYLESHEET
  1

  9
$XEDIT
290
     1
  9
$CEPSNTYPE
380
     0
  9
$PSTYLEMODE
290
     1
  9
$FINGERPRINTGUID
  2
{6f5eed78-e0c0-48d1-9944-efbf81bb4d97}
  9
$VERSIONGUID
  2
{FAEB1C32-E019-11D5-929B-00C0DF256EC4}
  9
$EXTNAMES
290
     1
  9
$PSVPSCALE
 40
0.0
  9
$OLESTARTUP
290
     0
  0
ENDSEC
  0
SECTION
  2
CLASSES
  0
CLASS
  1
ACDBDICTIONARYWDFLT
  2
AcDbDictionaryWithDefault
  3
ObjectDBX Classes
 90
        0
280
     0
281
     0
  0
CLASS
  1
VISUALSTYLE
  2
AcDbVisualStyle
  3
ObjectDBX Classes
 90
     4095
280
     0
281
     0
  0
CLASS
  1
MATERIAL
  2
AcDbMaterial
  3
ObjectDBX Classes
 90
     1153
280
     0
281
     0
  0
CLASS
  1
SCALE
  2
AcDbScale
  3
ObjectDBX Classes
 90
     1153
280
     0
281
     0
  0
CLASS
  1
TABLESTYLE
  2
AcDbTableStyle
  3
ObjectDBX Classes
 90
     4095
280
     0
281
     0
  0
CLASS
  1
MLEADERSTYLE
  2
AcDbMLeaderStyle
  3
ACDB_MLEADERSTYLE_CLASS
 90
     4095
280
     0
281
     0
  0
CLASS
  1
SUN
  2
AcDbSun
  3
SCENEOE
 90
     1153
280
     0
281
     0
  0
CLASS
  1
ACDBPLACEHOLDER
  2
AcDbPlaceHolder
  3
ObjectDBX Classes
 90
        0
280
     0
281
     0
  0
CLASS
  1
LAYOUT
  2
AcDbLayout
  3
ObjectDBX Classes
 90
        0
280
     0
281
     0
  0
ENDSEC
  0
SECTION
  2
TABLES
  0
TABLE
  2
VPORT
  5
8
330
0
100
AcDbSymbolTable
 70
     1
  0
VPORT
  5
29
330
8
100
AcDbSymbolTableRecord
100
AcDbViewportTableRecord
  2
*Active
 70
     0
 10
0.0
 20
0.0
 11
1.0
 21
1.0
 12
0.0
 22
92.5
 13
0.0
 23
0.0
 14
10.0
 24
10.0
 15
10.0
 25
10.0
 16
0.0
 26
0.0
 36
1.0
 17
0.0
 27
0.0
 37
0.0
 40
209.1
 41
1.4390243902
 42
50.0
 43
0.0
 44
0.0
 50
0.0
 51
0.0
 71
     0
 72
   100
 73
     1
 74
     3
 75
     0
 76
     0
 77
     0
 78
     0
281
     0
 65
     1
110
0.0
120
0.0
130
0.0
111
1.0
121
0.0
131
0.0
112
0.0
122
1.0
132
0.0
 79
     0
146
0.0
  0
ENDTAB
  0
TABLE
  2
LTYPE
  5
5
330
0
100
AcDbSymbolTable
 70
     6
  0
LTYPE
  5
14
330
5
100
AcDbSymbolTableRecord
100
AcDbLinetypeTableRecord
  2
ByBlock
 70
     0
  3

 72
    65
 73
     0
 40
0.0
  0
LTYPE
  5
15
330
5
100
AcDbSymbolTableRecord
100
AcDbLinetypeTableRecord
  2
ByLayer
 70
     0
  3

 72
    65
 73
     0
 40
0.0
  0
LTYPE
  5
16
330
5
100
AcDbSymbolTableRecord
100
AcDbLinetypeTableRecord
  2
Continuous
 70
     0
  3
Solid line
 72
    65
 73
     0
 40
0.0
  0
LTYPE
  5
5E
330
5
100
AcDbSymbolTableRecord
100
AcDbLinetypeTableRecord
  2
HIDDEN
 70
     0
  3
Hidden __ __ __ __ __ __ __ __ __ __ __ __ __ __
 72
    65
 73
     2
 40
1.905
 49
1.27
 74
     0
 49
-0.635
 74
     0
  0
LTYPE
  5
5F
330
5
100
AcDbSymbolTableRecord
100
AcDbLinetypeTableRecord
  2
PHANTOM
 70
     0
  3
Phantom ______  __  __  ______  __  __  ______
 72
    65
 73
     6
 40
12.7
 49
6.35
 74
     0
 49
-1.27
 74
     0
 49
1.27
 74
     0
 49
-1.27
 74
     0
 49
1.27
 74
     0
 49
-1.27
 74
     0
  0
LTYPE
  5
60
330
5
100
AcDbSymbolTableRecord
100
AcDbLinetypeTableRecord
  2
CENTER
 70
     0
  3
Center ____ _ ____ _ ____ _ ____ _ ____ _ ____
 72
    65
 73
     4
 40
10.16
 49
6.35
 74
     0
 49
-1.27
 74
     0
 49
1.27
 74
     0
 49
-1.27
 74
     0
  0
LTYPE
  5
61
330
5
100
AcDbSymbolTableRecord
100
AcDbLinetypeTableRecord
  2
CENTERX2
 70
     0
  3
Center (2x) ________  __  ________  __  _____
 72
    65
 73
     4
 40
20.32
 49
12.7
 74
     0
 49
-2.54
 74
     0
 49
2.54
 74
     0
 49
-2.54
 74
     0
  0
LTYPE
  5
62
330
5
100
AcDbSymbolTableRecord
100
AcDbLinetypeTableRecord
  2
DOT2
 70
     0
  3
Dot (.5x) ........................................
 72
    65
 73
     2
 40
0.635
 49
0.0
 74
     0
 49
-0.635
 74
     0
  0
ENDTAB
  0
TABLE
  2
LAYER
  5
2
330
0
100
AcDbSymbolTable
 70
     1
  0
LAYER
  5
10
330
2
100
AcDbSymbolTableRecord
100
AcDbLayerTableRecord
  2
0
 70
     0
 62
     7
  6
Continuous
370
    -3
390
F
  0
ENDTAB
  0
TABLE
  2
STYLE
  5
3
330
0
100
AcDbSymbolTable
 70
     2
  0
STYLE
  5
11
330
3
100
AcDbSymbolTableRecord
100
AcDbTextStyleTableRecord
  2
Standard
 70
     0
 40
0.0
 41
1.0
 50
0.0
 71
     0
 42
3.5
  3
txt
  4

  0
STYLE
  5
2CF
330
3
100
AcDbSymbolTableRecord
100
AcDbTextStyleTableRecord
  2
SLDTEXTSTYLE0
 70
     0
 40
0.0
 41
0.7
 50
0.0
 71
     0
 42
3.5
  3
TXT
  4
bigfont
  0
ENDTAB
  0
TABLE
  2
VIEW
  5
6
330
0
100
AcDbSymbolTable
 70
     0
  0
ENDTAB
  0
TABLE
  2
UCS
  5
7
330
0
100
AcDbSymbolTable
 70
     0
  0
ENDTAB
  0
TABLE
  2
APPID
  5
9
330
0
100
AcDbSymbolTable
 70
     1
  0
APPID
  5
12
330
9
100
AcDbSymbolTableRecord
100
AcDbRegAppTableRecord
  2
ACAD
 70
     0
  0
ENDTAB
  0
TABLE
  2
DIMSTYLE
  5
A
330
0
100
AcDbSymbolTable
 70
     1
100
AcDbDimStyleTable
  0
DIMSTYLE
105
27
330
A
100
AcDbSymbolTableRecord
100
AcDbDimStyleTableRecord
  2
ISO-25
 70
     0
 41
2.5
 42
0.625
 43
3.75
 44
1.25
 73
     0
 74
     0
 77
     1
 78
     8
140
2.5
141
2.5
143
0.0393700787
147
0.625
171
     3
172
     1
178
     0
271
     2
272
     2
274
     3
278
    44
283
     0
284
     8
340
11
  0
ENDTAB
  0
TABLE
  2
BLOCK_RECORD
  5
1
330
0
100
AcDbSymbolTable
 70
     1
  0
BLOCK_RECORD
  5
1F
330
1
100
AcDbSymbolTableRecord
100
AcDbBlockTableRecord
  2
*Model_Space
340
22
  0
BLOCK_RECORD
  5
1B
330
1
100
AcDbSymbolTableRecord
100
AcDbBlockTableRecord
  2
*Paper_Space
340
1E
  0
BLOCK_RECORD
  5
23
330
1
100
AcDbSymbolTableRecord
100
AcDbBlockTableRecord
  2
*Paper_Space0
340
26
  0
ENDTAB
  0
ENDSEC
  0
SECTION
  2
BLOCKS
  0
BLOCK
  5
20
330
1F
100
AcDbEntity
  8
0
100
AcDbBlockBegin
  2
*Model_Space
 70
     0
 10
0.0
 20
0.0
 30
0.0
  3
*Model_Space
  1

  0
ENDBLK
  5
21
330
1F
100
AcDbEntity
  8
0
100
AcDbBlockEnd
  0
BLOCK
  5
1C
330
1B
100
AcDbEntity
 67
     1
  8
0
100
AcDbBlockBegin
  2
*Paper_Space
 70
     0
 10
0.0
 20
0.0
 30
0.0
  3
*Paper_Space
  1

  0
ENDBLK
  5
1D
330
1B
100
AcDbEntity
 67
     1
  8
0
100
AcDbBlockEnd
  0
BLOCK
  5
24
330
23
100
AcDbEntity
  8
0
100
AcDbBlockBegin
  2
*Paper_Space0
 70
     0
 10
0.0
 20
0.0
 30
0.0
  3
*Paper_Space0
  1

  0
ENDBLK
  5
25
330
23
100
AcDbEntity
  8
0
100
AcDbBlockEnd
  0
ENDSEC
  0
SECTION
  2
ENTITIES
  0
SPLINE
  5
65
330
1F
100
AcDbEntity
  8
0
  6
Continuous
 62
     7
370
    25
100
AcDbSpline
210
0.0
220
0.0
230
1.0
 70
     8
 71
     3
 72
    15
 73
    11
 74
     0
 42
0.00000001
 43
0.00000001
 40
0.0
 40
0.0
 40
0.0
 40
0.0
 40
0.1850705550585271
 40
0.3488299974909507
 40
0.4927231650405032
 40
0.6218668606406341
 40
0.7334354636051867
 40
0.8259157751197864
 40
0.9129578875598883
 40
1.0
 40
1.0
 40
1.0
 40
1.0
 10
33.90279466815366
 20
40.22998613708101
 30
0.0
 10
33.90240459991857
 20
40.207756401407
 30
0.0
 10
33.90166938030773
 20
40.16585671273457
 30
0.0
 10
33.89497248751488
 20
40.10694015947384
 30
0.0
 10
33.88352870237641
 20
40.05567145622953
 30
0.0
 10
33.86823978744134
 20
40.01187081105208
 30
0.0
 10
33.84772752549242
 20
39.97718343826083
 30
0.0
 10
33.82406871390187
 20
39.95109569429281
 30
0.0
 10
33.79538211669888
 20
39.93473017581757
 30
0.0
 10
33.77431278825697
 20
39.93319125783634
 30
0.0
 10
33.76377812403601
 20
39.93242179884572
 30
0.0
  0
SPLINE
  5
66
330
1F
100
AcDbEntity
  8
0
  6
Continuous
 62
     7
370
    25
100
AcDbSpline
210
0.0
220
0.0
230
1.0
 70
     8
 71
     3
 72
    15
 73
    11
 74
     0
 42
0.00000001
 43
0.00000001
 40
0.0
 40
0.0
 40
0.0
 40
0.0
 40
0.0866906437193418
 40
0.174766578527736
 40
0.2719884298763556
 40
0.3768478231227111
 40
0.4961948047321495
 40
0.6395069437874664
 40
0.8061538276303138
 40
1.0
 40
1.0
 40
1.0
 40
1.0
 10
33.7534380505066
 20
40.52065709296336
 30
0.0
 10
33.76397125167934
 20
40.51981794620711
 30
0.0
 10
33.78520597149369
 20
40.5181262433753
 30
0.0
 10
33.81458883985206
 20
40.5023490522053
 30
0.0
 10
33.84302273682808
 20
40.48132588356362
 30
0.0
 10
33.86407513198369
 20
40.44818557688112
 30
0.0
 10
33.88407722570172
 20
40.40839109156548
 30
0.0
 10
33.89313444934303
 20
40.35697402350171
 30
0.0
 10
33.90233738991654
 20
40.29695922176775
 30
0.0
 10
33.90263476311464
 20
40.2534058689869
 30
0.0
 10
33.90279466815366
 20
40.22998613708101
 30
0.0
  0
SPLINE
  5
68
330
1F
100
AcDbEntity
  8
0
  6
Continuous
 62
     7
370
    25
100
AcDbSpline
210
0.0
220
0.0
230
1.0
 70
     8
 71
     3
 72
    15
 73
    11
 74
     0
 42
0.00000001
 43
0.00000001
 40
0.0
 40
0.0
 40
0.0
 40
0.0
 40
0.1508735451694932
 40
0.2872291758674989
 40
0.4051744275808389
 40
0.5169846039870526
 40
0.626021410565963
 40
0.7413409320818846
 40
0.8635828508550625
 40
1.0
 40
1.0
 40
1.0
 40
1.0
 10
31.25573584462424
 20
40.26789974002219
 30
0.0
 10
31.25628283421416
 20
40.28785490766357
 30
0.0
 10
31.25732417893067
 20
40.32584504271006
 30
0.0
 10
31.26802512331464
 20
40.37880699463086
 30
0.0
 10
31.28851117766609
 20
40.42304827710933
 30
0.0
 10
31.31501290463143
 20
40.4595745762151
 30
0.0
 10
31.34960864939303
 20
40.48835339355141
 30
0.0
 10
31.39170949349986
 20
40.5073944322276
 30
0.0
 10
31.44005601797623
 20
40.51930358066719
 30
0.0
 10
31.47433163241585
 20
40.52018973431002
 30
0.0
 10
31.49240863874189
 20
40.52065709296336
 30
0.0
  0
SPLINE
  5
6A
330
1F
100
AcDbEntity
  8
0
  6
Continuous
 62
     7
370
    25
100
AcDbSpline
210
0.0
220
0.0
230
1.0
 70
     8
 71
     3
 72
    15
 73
    11
 74
     0
 42
0.00000001
 43
0.00000001
 40
0.0
 40
0.0
 40
0.0
 40
0.0
 40
0.1365698746182988
 40
0.2537943244270391
 40
0.3550417433051404
 40
0.4498322627786387
 40
0.548635004653876
 40
0.673004047379697
 40
0.8201529666055353
 40
0.9999999999999999
 40
0.9999999999999999
 40
0.9999999999999999
 40
0.9999999999999999
 10
31.45679282991836
 20
37.97470121061043
 30
0.0
 10
31.4398969548268
 20
37.97534720254924
 30
0.0
 10
31.40849854272125
 20
37.9765476802399
 30
0.0
 10
31.36523199274652
 20
37.98551591706045
 30
0.0
 10
31.32928400679179
 20
38.00049898199021
 30
0.0
 10
31.29952207697873
 20
38.02287216306215
 30
0.0
 10
31.27951529006828
 20
38.05752309958771
 30
0.0
 10
31.2649891039453
 20
38.10115692196324
 30
0.0
 10
31.2579180202205
 20
38.15679028195218
 30
0.0
 10
31.2565101629401
 20
38.19719421336529
 30
0.0
 10
31.25573584462425
 20
38.21941628413984
 30
0.0
  0
SPLINE
  5
6B
330
1F
100
AcDbEntity
  8
0
  6
Continuous
 62
     7
370
    25
100
AcDbSpline
210
0.0
220
0.0
230
1.0
 70
     8
 71
     3
 72
    13
 73
     9
 74
     0
 42
0.00000001
 43
0.00000001
 40
0.0
 40
0.0
 40
0.0
 40
0.0
 40
0.1564805423697834
 40
0.3020267586737527
 40
0.436706170797847
 40
0.5608055286067036
 40
0.7880614717529965
 40
0.9999999999999999
 40
0.9999999999999999
 40
0.9999999999999999
 40
0.9999999999999999
 10
32.18174687403602
 20
38.02065709296338
 30
0.0
 10
32.14382510777096
 20
38.02058034708467
 30
0.0
 10
32.07063141880001
 20
38.02043221806726
 30
0.0
 10
31.96493120479153
 20
38.0152695922278
 30
0.0
 10
31.86710344044946
 20
38.00926751585444
 30
0.0
 10
31.75025271573481
 20
37.99448570646659
 30
0.0
 10
31.61462281878656
 20
37.97807562951382
 30
0.0
 10
31.5081652155484
 20
37.97579955668791
 30
0.0
 10
31.45679282991836
 20
37.97470121061043
 30
0.0
  0
SPLINE
  5
6C
330
1F
100
AcDbEntity
  8
0
  6
Continuous
 62
     7
370
    25
100
AcDbSpline
210
0.0
220
0.0
230
1.0
 70
     8
 71
     3
 72
    23
 73
    19
 74
     0
 42
0.00000001
 43
0.00000001
 40
0.0
 40
0.0
 40
0.0
 40
0.0
 40
0.0635377916496334
 40
0.1243748414708958
 40
0.1812933273076028
 40
0.236606596283155
 40
0.2897807009681991
 40
0.3427796502895417
 40
0.3948344848689331
 40
0.4481795385855741
 40
0.5032541451350988
 40
0.5603357604751781
 40
0.6214808962068844
 40
0.6862895393392691
 40
0.7562387371584716
 40
0.831061231186765
 40
0.9128382422283885
 40
1.0
 40
1.0
 40
1.0
 40
1.0
 10
33.46161819756542
 20
37.04179679884572
 30
0.0
 10
33.46072509693736
 20
37.08089125154299
 30
0.0
 10
33.45897685787916
 20
37.15741840538912
 30
0.0
 10
33.44572543712379
 20
37.26843178891514
 30
0.0
 10
33.42094375393271
 20
37.37218453693054
 30
0.0
 10
33.38806315369634
 20
37.46866351773871
 30
0.0
 10
33.34538610573078
 20
37.55870627279547
 30
0.0
 10
33.2913424604077
 20
37.64008541099437
 30
0.0
 10
33.2269539318379
 20
37.71356834837721
 30
0.0
 10
33.15308209571715
 20
37.77948751865512
 30
0.0
 10
33.06861472407456
 20
37.8368395648704
 30
0.0
 10
32.97411953317933
 20
37.88658865467419
 30
0.0
 10
32.86966450737425
 20
37.92927752284173
 30
0.0
 10
32.75344370561027
 20
37.96192924432499
 30
0.0
 10
32.62710510190337
 20
37.98807276434523
 30
0.0
 10
32.48902221815649
 20
38.00778858756763
 30
0.0
 10
32.33933631375892
 20
38.01903417671321
 30
0.0
 10
32.23538117442445
 20
38.02010474644942
 30
0.0
 10
32.18174687403602
 20
38.02065709296338
 30
0.0
  0
SPLINE
  5
6D
330
1F
100
AcDbEntity
  8
0
  6
Continuous
 62
     7
370
    25
100
AcDbSpline
210
0.0
220
0.0
230
1.0
 70
     8
 71
     3
 72
    23
 73
    19
 74
     0
 42
0.00000001
 43
0.00000001
 40
0.0
 40
0.0
 40
0.0
 40
0.0
 40
0.0691339610698878
 40
0.1360700037349295
 40
0.2002780594921874
 40
0.262401964689166
 40
0.3227535355535071
 40
0.3814711250599489
 40
0.4383385466737398
 40
0.4943907629161738
 40
0.5504465647793474
 40
0.6067884769705192
 40
0.6641205324305934
 40
0.7236640936984198
 40
0.7858494388916115
 40
0.8522851646193806
 40
0.9232185421579211
 40
1.0
 40
1.0
 40
1.0
 40
1.0
 10
32.29204099168307
 20
35.9618335635516
 30
0.0
 10
32.33383116803378
 20
35.96221783668913
 30
0.0
 10
32.41608292048831
 20
35.96297416608857
 30
0.0
 10
32.53634470439961
 20
35.97716661399104
 30
0.0
 10
32.65195685842374
 20
35.9940200195243
 30
0.0
 10
32.76129094213708
 20
36.02230510480442
 30
0.0
 10
32.86517239455095
 20
36.05723551414151
 30
0.0
 10
32.96161984140041
 20
36.10230639155151
 30
0.0
 10
33.05118702432131
 20
36.15500158805676
 30
0.0
 10
33.13169858729609
 20
36.2180556875372
 30
0.0
 10
33.20618331432556
 20
36.28771868662329
 30
0.0
 10
33.27035712475453
 20
36.36804294907176
 30
0.0
 10
33.32729428837523
 20
36.45602681611251
 30
0.0
 10
33.3755327371081
 20
36.55306424439707
 30
0.0
 10
33.41544815612225
 20
36.65977747812043
 30
0.0
 10
33.44230862022059
 20
36.7775844662491
 30
0.0
 10
33.45837631639733
 20
36.90616378308609
 30
0.0
 10
33.46050942040628
 20
36.99540805659948
 30
0.0
 10
33.46161819756542
 20
37.04179679884572
 30
0.0
  0
SPLINE
  5
6E
330
1F
100
AcDbEntity
  8
0
  6
Continuous
 62
     7
370
    25
100
AcDbSpline
210
0.0
220
0.0
230
1.0
 70
     8
 71
     3
 72
    17
 73
    13
 74
     0
 42
0.00000001
 43
0.00000001
 40
0.0
 40
0.0
 40
0.0
 40
0.0
 40
0.042389983526752
 40
0.1068015090518345
 40
0.1952641730388172
 40
0.3058362495942676
 40
0.4406532637265192
 40
0.5997350987026865
 40
0.689747500965036
 40
0.7856223973040426
 40
0.8895405456918137
 40
1.0
 40
1.0
 40
1.0
 40
1.0
 10
31.14544172697719
 20
36.25595121061043
 30
0.0
 10
31.16218742575106
 20
36.2528993798335
 30
0.0
 10
31.20437819230438
 20
36.24521029611066
 30
0.0
 10
31.27182989705486
 20
36.20407063740086
 30
0.0
 10
31.36532334383541
 20
36.15688917110127
 30
0.0
 10
31.48813881786464
 20
36.10467965798543
 30
0.0
 10
31.64140665574688
 20
36.05417227866095
 30
0.0
 10
31.78913216086038
 20
36.0133006174586
 30
0.0
 10
31.92420976912019
 20
35.98673050107674
 30
0.0
 10
32.03889677284653
 20
35.97156446560981
 30
0.0
 10
32.16250621353615
 20
35.96434548591554
 30
0.0
 10
32.2479932434366
 20
35.96268773202654
 30
0.0
 10
32.29204099168307
 20
35.9618335635516
 30
0.0
  0
SPLINE
  5
6F
330
1F
100
AcDbEntity
  8
0
  6
Continuous
 62
     7
370
    25
100
AcDbSpline
210
0.0
220
0.0
230
1.0
 70
     8
 71
     3
 72
    15
 73
    11
 74
     0
 42
0.00000001
 43
0.00000001
 40
0.0
 40
0.0
 40
0.0
 40
0.0
 40
0.1930878909709645
 40
0.3678692021376603
 40
0.5178553734374364
 40
0.6423684669366919
 40
0.7463095088119354
 40
0.8346784484792134
 40
0.915952489817699
 40
1.0
 40
1.0
 40
1.0
 40
1.0
 10
31.03514760933013
 20
36.00434275472807
 30
0.0
 10
31.03525437764553
 20
36.02388432261186
 30
0.0
 10
31.0354577916183
 20
36.06111473074245
 30
0.0
 10
31.03997796311072
 20
36.11336641056198
 30
0.0
 10
31.04723207846239
 20
36.15830495428795
 30
0.0
 10
31.05930402099023
 20
36.19495671643336
 30
0.0
 10
31.07693613848649
 20
36.22218357224227
 30
0.0
 10
31.09704601261402
 20
36.24136722393698
 30
0.0
 10
31.11993399487697
 20
36.25447606985686
 30
0.0
 10
31.13684458441756
 20
36.25545402821474
 30
0.0
 10
31.14544172697719
 20
36.25595121061042
 30
0.0
  0
SPLINE
  5
70
330
1F
100
AcDbEntity
  8
0
  6
Continuous
 62
     7
370
    25
100
AcDbSpline
210
0.0
220
0.0
230
1.0
 70
     8
 71
     3
 72
    25
 73
    21
 74
     0
 42
0.00000001
 43
0.00000001
 40
0.0
 40
0.0
 40
0.0
 40
0.0
 40
0.1445656521247229
 40
0.2824885229103281
 40
0.4105330068503604
 40
0.5250895264972957
 40
0.6234380953622721
 40
0.704640732335364
 40
0.7374791397068692
 40
0.764375037133386
 40
0.7853884443240499
 40
0.8006489472268324
 40
0.822953615266424
 40
0.8408575310980629
 40
0.8579153512131871
 40
0.8774015553627773
 40
0.9007085128791574
 40
0.9280899529060623
 40
0.9611243147210954
 40
1.0
 40
1.0
 40
1.0
 40
1.0
 10
32.3276568005066
 20
35.44712768119866
 30
0.0
 10
32.25214920196716
 20
35.4486506238352
 30
0.0
 10
32.10460357362173
 20
35.45162653000343
 30
0.0
 10
31.8912341982823
 20
35.47522569128766
 30
0.0
 10
31.6954850055431
 20
35.5096257441799
 30
0.0
 10
31.52172575532843
 20
35.54937650618778
 30
0.0
 10
31.37552243450603
 20
35.59659171037458
 30
0.0
 10
31.27065075269517
 20
35.63300134727834
 30
0.0
 10
31.20331163736433
 20
35.6627602348157
 30
0.0
 10
31.16525159686576
 20
35.68094727931673
 30
0.0
 10
31.13629794094765
 20
35.69676235253021
 30
0.0
 10
31.11085207084027
 20
35.71399525475397
 30
0.0
 10
31.09131591735262
 20
35.7356812325999
 30
0.0
 10
31.07359372336787
 20
35.75990689526505
 30
0.0
 10
31.0619591256984
 20
35.78597932104388
 30
0.0
 10
31.05099742164352
 20
35.81529243160208
 30
0.0
 10
31.04355342636172
 20
35.85128057550301
 30
0.0
 10
31.0374311596974
 20
35.89461219701296
 30
0.0
 10
31.03616939685554
 20
35.94651666858872
 30
0.0
 10
31.0355061635357
 20
35.98405107386344
 30
0.0
 10
31.03514760933013
 20
36.00434275472806
 30
0.0
  0
SPLINE
  5
71
330
1F
100
AcDbEntity
  8
0
  6
Continuous
 62
     7
370
    25
100
AcDbSpline
210
0.0
220
0.0
230
1.0
 70
     8
 71
     3
 72
    23
 73
    19
 74
     0
 42
0.00000001
 43
0.00000001
 40
0.0
 40
0.0
 40
0.0
 40
0.0
 40
0.0683198844791052
 40
0.1335392020408059
 40
0.1959185697026486
 40
0.2565995453593141
 40
0.3156549344939971
 40
0.3732454737506117
 40
0.4303668416905378
 40
0.4878397290586836
 40
0.5457846398048563
 40
0.6045317167807785
 40
0.6646798295651501
 40
0.7271676118855984
 40
0.7916333062222671
 40
0.858175736744871
 40
0.927635133363165
 40
1.0
 40
1.0
 40
1.0
 40
1.0
 10
34.19691231521248
 20
37.11187951943396
 30
0.0
 10
34.19552642260044
 20
37.04745485960944
 30
0.0
 10
34.19281753345441
 20
36.92152932957805
 30
0.0
 10
34.16706933760986
 20
36.73823423793942
 30
0.0
 10
34.12480599149727
 20
36.56554759074489
 30
0.0
 10
34.06469165007399
 20
36.40435831978321
 30
0.0
 10
33.98993981210284
 20
36.25455436402824
 30
0.0
 10
33.90123958111896
 20
36.116390764045
 30
0.0
 10
33.79666638650561
 20
35.99178805008692
 30
0.0
 10
33.67926445567787
 20
35.87880749038472
 30
0.0
 10
33.54873842474378
 20
35.77872406480321
 30
0.0
 10
33.40665586553992
 20
35.69106513720075
 30
0.0
 10
33.25273510613406
 20
35.61603195706274
 30
0.0
 10
33.08728489154057
 20
35.55425073727797
 30
0.0
 10
32.91110172061512
 20
35.50619877721907
 30
0.0
 10
32.72511240418926
 20
35.47192122850688
 30
0.0
 10
32.5295818016335
 20
35.450892653962
 30
0.0
 10
32.39587817002502
 20
35.44839969603922
 30
0.0
 10
32.3276568005066
 20
35.44712768119866
 30
0.0
  0
SPLINE
  5
72
330
1F
100
AcDbEntity
  8
0
  6
Continuous
 62
     7
370
    25
100
AcDbSpline
210
0.0
220
0.0
230
1.0
 70
     8
 71
     3
 72
    23
 73
    19
 74
     0
 42
0.00000001
 43
0.00000001
 40
0.0
 40
0.0
 40
0.0
 40
0.0
 40
0.0804658617035611
 40
0.1561106611656757
 40
0.226993547470356
 40
0.2940411875500184
 40
0.3576850969811378
 40
0.4181136756463224
 40
0.4766010916723488
 40
0.5331174241232951
 40
0.5889899684790062
 40
0.6439791591568835
 40
0.6997871120855677
 40
0.7568998075235491
 40
0.8151531643434471
 40
0.8745878291283363
 40
0.9358855666528224
 40
1.0
 40
1.0
 40
1.0
 40
1.0
 10
32.56318069756542
 20
38.5353629753163
 30
0.0
 10
32.62908667900935
 20
38.53389248380152
 30
0.0
 10
32.7569499258592
 20
38.53103960435985
 30
0.0
 10
32.94228100248959
 20
38.5133079628428
 30
0.0
 10
33.11443896962696
 20
38.48104453266888
 30
0.0
 10
33.27370608681061
 20
38.4364995002322
 30
0.0
 10
33.41972044383623
 20
38.37961722499351
 30
0.0
 10
33.55488827416114
 20
38.31496501334492
 30
0.0
 10
33.67537145817807
 20
38.23598635654974
 30
0.0
 10
33.78461350069614
 20
38.14816717279871
 30
0.0
 10
33.88151457938511
 20
38.05066476431616
 30
0.0
 10
33.96492916862122
 20
37.9422132908493
 30
0.0
 10
34.03676972030951
 20
37.82456988196783
 30
0.0
 10
34.09484812943494
 20
37.69664395512177
 30
0.0
 10
34.14118378602411
 20
37.56088676006286
 30
0.0
 10
34.17278703295801
 20
37.41749724309437
 30
0.0
 10
34.19297690704239
 20
37.26717104290233
 30
0.0
 10
34.19558101681321
 20
37.16441266153204
 30
0.0
 10
34.19691231521248
 20
37.11187951943396
 30
0.0
  0
SPLINE
  5
73
330
1F
100
AcDbEntity
  8
0
  6
Continuous
 62
     7
370
    25
100
AcDbSpline
210
0.0
220
0.0
230
1.0
 70
     8
 71
     3
 72
    11
 73
     7
 74
     0
 42
0.00000001
 43
0.00000001
 40
0.0
 40
0.0
 40
0.0
 40
0.0
 40
0.2281570481003515
 40
0.4589038902534264
 40
0.7114503229453477
 40
1.0
 40
1.0
 40
1.0
 40
1.0
 10
31.9910299622713
 20
38.50778944590454
 30
0.0
 10
32.03423593521305
 20
38.51389969239167
 30
0.0
 10
32.12113830895181
 20
38.52618954232923
 30
0.0
 10
32.25716635630592
 20
38.53115500652326
 30
0.0
 10
32.40460250010265
 20
38.53489226038722
 30
0.0
 10
32.50802741601594
 20
38.53519926130373
 30
0.0
 10
32.56318069756542
 20
38.5353629753163
 30
0.0
  0
SPLINE
  5
74
330
1F
100
AcDbEntity
  8
0
  6
Continuous
 62
     7
370
    25
100
AcDbSpline
210
0.0
220
0.0
230
1.0
 70
     8
 71
     3
 72
    15
 73
    11
 74
     0
 42
0.00000001
 43
0.00000001
 40
0.0
 40
0.0
 40
0.0
 40
0.0
 40
0.0931220770192782
 40
0.1677436039701244
 40
0.2415415695392037
 40
0.3243172555168337
 40
0.4356412137734081
 40
0.5775370181402527
 40
0.7628490774354764
 40
1.0
 40
1.0
 40
1.0
 40
1.0
 10
38.31800606521249
 20
40.38278944590455
 30
0.0
 10
38.32198931659577
 20
40.39586898823246
 30
0.0
 10
38.32916446736493
 20
40.41942956203614
 30
0.0
 10
38.34271137628954
 20
40.45253257172059
 30
0.0
 10
38.36598831210177
 20
40.47853494673724
 30
0.0
 10
38.40201265359614
 20
40.49576358426673
 30
0.0
 10
38.44962230473044
 20
40.50933768135702
 30
0.0
 10
38.51394096139765
 20
40.51601280871513
 30
0.0
 10
38.59672269006145
 20
40.52057382204638
 30
0.0
 10
38.65883081328542
 20
40.52062715457873
 30
0.0
 10
38.69369540344778
 20
40.52065709296337
 30
0.0
  0
SPLINE
  5
77
330
1F
100
AcDbEntity
  8
0
  6
Continuous
 62
     7
370
    25
100
AcDbSpline
210
0.0
220
0.0
230
1.0
 70
     8
 71
     3
 72
    15
 73
    11
 74
     0
 42
0.00000001
 43
0.00000001
 40
0.0
 40
0.0
 40
0.0
 40
0.0
 40
0.2371519799593042
 40
0.418833984327608
 40
0.5596858792341619
 40
0.6655524930722673
 40
0.751721673761623
 40
0.8286825678867893
 40
0.9076401852114286
 40
1.0
 40
1.0
 40
1.0
 40
1.0
 10
35.12177444756542
 20
40.52065709296337
 30
0.0
 10
35.1543505208306
 20
40.52066568218001
 30
0.0
 10
35.21188310631332
 20
40.52068085159093
 30
0.0
 10
35.2884636555437
 20
40.5158050630441
 30
0.0
 10
35.34732627628387
 20
40.50982610737779
 30
0.0
 10
35.39066666763844
 20
40.49496530597959
 30
0.0
 10
35.42422756682523
 20
40.47833658779938
 30
0.0
 10
35.44676143635078
 20
40.45317412273437
 30
0.0
 10
35.46456345167862
 20
40.42403827076344
 30
0.0
 10
35.4739961322933
 20
40.40246318166418
 30
0.0
 10
35.47908143285954
 20
40.39083172531631
 30
0.0
  0
SPLINE
  5
78
330
1F
100
AcDbEntity
  8
0
  6
Continuous
 62
     7
370
    25
100
AcDbSpline
210
0.0
220
0.0
230
1.0
 70
     8
 71
     3
 72
    15
 73
    11
 74
     0
 42
0.00000001
 43
0.00000001
 40
0.0
 40
0.0
 40
0.0
 40
0.0
 40
0.1431467286889504
 40
0.2518842956426773
 40
0.3358122999274126
 40
0.4094086362080713
 40
0.5018383410514773
 40
0.623480889464626
 40
0.7891467933465754
 40
1.0
 40
1.0
 40
1.0
 40
1.0
 10
34.80008327109483
 20
40.26445304884572
 30
0.0
 10
34.79134603634317
 20
40.28952542763346
 30
0.0
 10
34.77597179592956
 20
40.33364336542272
 30
0.0
 10
34.76408107977782
 20
40.39497976640903
 30
0.0
 10
34.77011014450122
 20
40.44583258630033
 30
0.0
 10
34.80071959618761
 20
40.48335814081456
 30
0.0
 10
34.85067330801055
 20
40.50553500938773
 30
0.0
 10
34.92078891023626
 20
40.51428429410901
 30
0.0
 10
35.01291392488973
 20
40.51942484210835
 30
0.0
 10
35.08269601364468
 20
40.52021474313417
 30
0.0
 10
35.12177444756542
 20
40.52065709296337
 30
0.0
  0
SPLINE
  5
7A
330
1F
100
AcDbEntity
  8
0
  6
Continuous
 62
     7
370
    25
100
AcDbSpline
210
0.0
220
0.0
230
1.0
 70
     8
 71
     3
 72
    19
 73
    15
 74
     0
 42
0.00000001
 43
0.00000001
 40
0.0
 40
0.0
 40
0.0
 40
0.0
 40
0.1546154704939678
 40
0.2913228756377054
 40
0.4080384341226874
 40
0.5097669834700903
 40
0.5941474594824352
 40
0.6680600294767814
 40
0.7297126861272268
 40
0.785867071415682
 40
0.8383707856902683
 40
0.8877193730182346
 40
0.940841078952276
 40
1.0
 40
1.0
 40
1.0
 40
1.0
 10
36.8979693005066
 20
35.52065709296337
 30
0.0
 10
36.87154366774182
 20
35.52058449722102
 30
0.0
 10
36.82175310472126
 20
35.52044771401068
 30
0.0
 10
36.752029380568
 20
35.52133906445189
 30
0.0
 10
36.69133992060408
 20
35.52415322390726
 30
0.0
 10
36.64003485228154
 20
35.5313149948848
 30
0.0
 10
36.59632737543075
 20
35.53943216182411
 30
0.0
 10
36.55980946371825
 20
35.54839796729723
 30
0.0
 10
36.52855762007075
 20
35.55850529683415
 30
0.0
 10
36.50271216020603
 20
35.57236356572785
 30
0.0
 10
36.48194928755293
 20
35.58982538062072
 30
0.0
 10
36.46464189314276
 20
35.61019151621679
 30
0.0
 10
36.45285309744114
 20
35.63534549258399
 30
0.0
 10
36.44489910588889
 20
35.65278357566339
 30
0.0
 10
36.44070827109483
 20
35.66197143119867
 30
0.0
  0
SPLINE
  5
7B
330
1F
100
AcDbEntity
  8
0
  6
Continuous
 62
     7
370
    25
100
AcDbSpline
210
0.0
220
0.0
230
1.0
 70
     8
 71
     3
 72
    15
 73
    11
 74
     0
 42
0.00000001
 43
0.00000001
 40
0.0
 40
0.0
 40
0.0
 40
0.0
 40
0.0878256427957626
 40
0.1712303563855995
 40
0.2550466088899139
 40
0.3515820704879374
 40
0.4695098351157108
 40
0.6141693907145638
 40
0.7892483876081958
 40
0.9999999999999999
 40
0.9999999999999999
 40
0.9999999999999999
 40
0.9999999999999999
 10
37.32535900638896
 20
35.65852474002219
 30
0.0
 10
37.31983845358078
 20
35.64554412516354
 30
0.0
 10
37.30907523916302
 20
35.62023630802046
 30
0.0
 10
37.28273501240985
 20
35.58836220346807
 30
0.0
 10
37.24866928137981
 20
35.56286396685456
 30
0.0
 10
37.20416997485984
 20
35.54452289124284
 30
0.0
 10
37.14779352423879
 20
35.53271704896981
 30
0.0
 10
37.07814136516373
 20
35.52533714516493
 30
0.0
 10
36.99338672819359
 20
35.52086223487861
 30
0.0
 10
36.93167693711498
 20
35.52072956241994
 30
0.0
 10
36.89796930050661
 20
35.52065709296338
 30
0.0
  0
SPLINE
  5
7D
330
1F
100
AcDbEntity
  8
0
  6
Continuous
 62
     7
370
    25
100
AcDbSpline
210
0.0
220
0.0
230
1.0
 70
     8
 71
     3
 72
    15
 73
    11
 74
     0
 42
0.00000001
 43
0.00000001
 40
0.0
 40
0.0
 40
0.0
 40
0.0
 40
0.2088151054643075
 40
0.3672659909470241
 40
0.483626859356394
 40
0.5662802484723817
 40
0.6368277053058281
 40
0.7257760686279909
 40
0.8433807972269406
 40
1.0
 40
1.0
 40
1.0
 40
1.0
 10
38.69369540344779
 20
40.52065709296338
 30
0.0
 10
38.72970059191615
 20
40.52048401072327
 30
0.0
 10
38.79302685939407
 20
40.52017959203533
 30
0.0
 10
38.87633840381889
 20
40.51253381853216
 30
0.0
 10
38.93664289057089
 20
40.50081240713315
 30
0.0
 10
38.98024718186957
 20
40.47938620787559
 30
0.0
 10
38.99995744778087
 20
40.43992327640859
 30
0.0
 10
38.99938556753307
 20
40.39130132487295
 30
0.0
 10
38.98639013518466
 20
40.32991515177482
 30
0.0
 10
38.97047699048782
 20
40.28532468723819
 30
0.0
 10
38.96138841815367
 20
40.25985746061043
 30
0.0
  0
SPLINE
  5
7F
330
1F
100
AcDbEntity
  8
0
  6
Continuous
 62
     7
370
    25
100
AcDbSpline
210
0.0
220
0.0
230
1.0
 70
     8
 71
     3
 72
    15
 73
    11
 74
     0
 42
0.00000001
 43
0.00000001
 40
0.0
 40
0.0
 40
0.0
 40
0.0
 40
0.2428685793941092
 40
0.4423245156238605
 40
0.5987106718953151
 40
0.7200656589965839
 40
0.8116413556311263
 40
0.8819698164109556
 40
0.9408399071045872
 40
1.0
 40
1.0
 40
1.0
 40
1.0
 10
53.40937144327411
 20
40.52065709296336
 30
0.0
 10
53.44117890607302
 20
40.52027361744835
 30
0.0
 10
53.49910826280932
 20
40.51957521248443
 30
0.0
 10
53.57723181145142
 20
40.51347857004256
 30
0.0
 10
53.63951260697545
 20
40.50680447738512
 30
0.0
 10
53.68629502795227
 20
40.49433302821764
 30
0.0
 10
53.72068170246641
 20
40.47906366845503
 30
0.0
 10
53.74156001076521
 20
40.45834725608082
 30
0.0
 10
53.75326727498381
 20
40.43598265983733
 30
0.0
 10
53.75454768165416
 20
40.42044745632296
 30
0.0
 10
53.75518945797999
 20
40.41266076943396
 30
0.0
  0
SPLINE
  5
80
330
1F
100
AcDbEntity
  8
0
  6
Continuous
 62
     7
370
    25
100
AcDbSpline
210
0.0
220
0.0
230
1.0
 70
     8
 71
     3
 72
    15
 73
    11
 74
     0
 42
0.00000001
 43
0.00000001
 40
0.0
 40
0.0
 40
0.0
 40
0.0
 40
0.0676513355339593
 40
0.1415370647963885
 40
0.2338942263744287
 40
0.3429032025799689
 40
0.4714732298648445
 40
0.6156989460715735
 40
0.7907664089018432
 40
1.0
 40
1.0
 40
1.0
 40
1.0
 10
53.0819357815094
 20
40.47240341649277
 30
0.0
 10
53.08833429025084
 20
40.4764465994248
 30
0.0
 10
53.10172096087884
 20
40.48490556390961
 30
0.0
 10
53.12627122722065
 20
40.49425075608323
 30
0.0
 10
53.1561060460572
 20
40.50165103840028
 30
0.0
 10
53.19198620251762
 20
40.50991787181646
 30
0.0
 10
53.23406533987703
 20
40.51750242150058
 30
0.0
 10
53.28417421695823
 20
40.51804800379828
 30
0.0
 10
53.34307657650123
 20
40.52152213379513
 30
0.0
 10
53.38600109217077
 20
40.52096203826217
 30
0.0
 10
53.40937144327411
 20
40.52065709296336
 30
0.0
  0
SPLINE
  5
82
330
1F
100
AcDbEntity
  8
0
  6
Continuous
 62
     7
370
    25
100
AcDbSpline
210
0.0
220
0.0
230
1.0
 70
     8
 71
     3
 72
    15
 73
    11
 74
     0
 42
0.00000001
 43
0.00000001
 40
0.0
 40
0.0
 40
0.0
 40
0.0
 40
0.1879599626250013
 40
0.3457299854367117
 40
0.4805564648672104
 40
0.5908537309073597
 40
0.688698545435282
 40
0.7816479791062789
 40
0.8831244092535854
 40
1.0
 40
1.0
 40
1.0
 40
1.0
 10
51.84342475209763
 20
39.40622694590454
 30
0.0
 10
51.84345291900818
 20
39.42730819277731
 30
0.0
 10
51.84350472868848
 20
39.46608463789106
 30
0.0
 10
51.84858231983112
 20
39.5197271350852
 30
0.0
 10
51.85447084441589
 20
39.5645930716836
 30
0.0
 10
51.86518709162036
 20
39.60161991998129
 30
0.0
 10
51.8788526259446
 20
39.63270422579459
 30
0.0
 10
51.89861031708964
 20
39.6590920914383
 30
0.0
 10
51.92342295306339
 20
39.68378770058106
 30
0.0
 10
51.9431563354057
 20
39.69831380378758
 30
0.0
 10
51.9537188697447
 20
39.70608907825748
 30
0.0
  0
SPLINE
  5
83
330
1F
100
AcDbEntity
  8
0
  6
Continuous
 62
     7
370
    25
100
AcDbSpline
210
0.0
220
0.0
230
1.0
 70
     8
 71
     3
 72
    15
 73
    11
 74
     0
 42
0.00000001
 43
0.00000001
 40
0.0
 40
0.0
 40
0.0
 40
0.0
 40
0.1623060312549675
 40
0.2811277606915123
 40
0.3686601833040122
 40
0.4481435869740116
 40
0.5395254088464269
 40
0.6568891477359743
 40
0.8095010666675982
 40
1.0
 40
1.0
 40
1.0
 40
1.0
 10
52.07435306092117
 20
39.19712768119866
 30
0.0
 10
52.05274929874237
 20
39.186377925988
 30
0.0
 10
52.01532975717096
 20
39.16775844162882
 30
0.0
 10
51.96360026441012
 20
39.14817691858998
 30
0.0
 10
51.91975163199984
 20
39.147649732899
 30
0.0
 10
51.88425278580482
 20
39.16709513341596
 30
0.0
 10
51.86293075055048
 20
39.20597838133811
 30
0.0
 10
51.85019932277094
 20
39.25832979802719
 30
0.0
 10
51.84457812409941
 20
39.32684936567846
 30
0.0
 10
51.84383650642074
 20
39.37788911408109
 30
0.0
 10
51.84342475209763
 20
39.40622694590454
 30
0.0
  0
SPLINE
  5
87
330
1F
100
AcDbEntity
  8
0
  6
Continuous
 62
     7
370
    25
100
AcDbSpline
210
0.0
220
0.0
230
1.0
 70
     8
 71
     3
 72
    15
 73
    11
 74
     0
 42
0.00000001
 43
0.00000001
 40
0.0
 40
0.0
 40
0.0
 40
0.0
 40
0.1914835315432788
 40
0.3562229178272864
 40
0.4996909263085945
 40
0.6201210612205252
 40
0.7271599498592891
 40
0.8200946933007877
 40
0.9103608957273359
 40
1.0
 40
1.0
 40
1.0
 40
1.0
 10
51.84342475209763
 20
35.77456334296336
 30
0.0
 10
51.844159149833
 20
35.795276520881
 30
0.0
 10
51.84552537335117
 20
35.8338099060543
 30
0.0
 10
51.85347862313508
 20
35.8873814660447
 30
0.0
 10
51.86563875560404
 20
35.93231849585909
 30
0.0
 10
51.88215082863423
 20
35.96895363788555
 30
0.0
 10
51.90088188812965
 20
35.99858602746831
 30
0.0
 10
51.92525050428127
 20
36.01888285141705
 30
0.0
 10
51.95204029399765
 20
36.03252309068636
 30
0.0
 10
51.97156438255589
 20
36.03441854944767
 30
0.0
 10
51.98129239915646
 20
36.0353629753163
 30
0.0
  0
SPLINE
  5
88
330
1F
100
AcDbEntity
  8
0
  6
Continuous
 62
     7
370
    25
100
AcDbSpline
210
0.0
220
0.0
230
1.0
 70
     8
 71
     3
 72
    15
 73
    11
 74
     0
 42
0.00000001
 43
0.00000001
 40
0.0
 40
0.0
 40
0.0
 40
0.0
 40
0.0828253303513171
 40
0.1664168687897602
 40
0.2578753444281255
 40
0.3616760709880785
 40
0.4830850916629392
 40
0.6264983234386049
 40
0.7961796331596819
 40
1.0
 40
1.0
 40
1.0
 40
1.0
 10
51.98473909033293
 20
35.52065709296336
 30
0.0
 10
51.97589100309977
 20
35.52145924678852
 30
0.0
 10
51.95811297594459
 20
35.5230709750763
 30
0.0
 10
51.93131297127816
 20
35.53207590657882
 30
0.0
 10
51.90867727118719
 20
35.55224827337841
 30
0.0
 10
51.88579277573406
 20
35.57753585781342
 30
0.0
 10
51.8681412832902
 20
35.61331579592141
 30
0.0
 10
51.85244379225526
 20
35.65736368357501
 30
0.0
 10
51.84573711650256
 20
35.71273496536882
 30
0.0
 10
51.84424111961152
 20
35.75273517487852
 30
0.0
 10
51.84342475209763
 20
35.77456334296336
 30
0.0
  0
SPLINE
  5
8A
330
1F
100
AcDbEntity
  8
0
  6
Continuous
 62
     7
370
    25
100
AcDbSpline
210
0.0
220
0.0
230
1.0
 70
     8
 71
     3
 72
    15
 73
    11
 74
     0
 42
0.00000001
 43
0.00000001
 40
0.0
 40
0.0
 40
0.0
 40
0.0
 40
0.2034405736929024
 40
0.3733673231110002
 40
0.5153996757865186
 40
0.6349465687110525
 40
0.7362601604862336
 40
0.8303577332343077
 40
0.9137935095476358
 40
1.0
 40
1.0
 40
1.0
 40
1.0
 10
54.78460122268587
 20
35.77456334296336
 30
0.0
 10
54.78399472429233
 20
35.75269476841456
 30
0.0
 10
54.78288163914144
 20
35.71256014339201
 30
0.0
 10
54.77377949493818
 20
35.65770932807838
 30
0.0
 10
54.75998887761134
 20
35.61335948447044
 30
0.0
 10
54.74324481448108
 20
35.5778098105143
 30
0.0
 10
54.72160425076444
 20
35.55147968586117
 30
0.0
 10
54.69795667571558
 20
35.53241994981352
 30
0.0
 10
54.67074449148544
 20
35.52287367030349
 30
0.0
 10
54.65253853751481
 20
35.52140395355157
 30
0.0
 10
54.64328688445057
 20
35.52065709296336
 30
0.0
  0
SPLINE
  5
8B
330
1F
100
AcDbEntity
  8
0
  6
Continuous
 62
     7
370
    25
100
AcDbSpline
210
0.0
220
0.0
230
1.0
 70
     8
 71
     3
 72
    15
 73
    11
 74
     0
 42
0.00000001
 43
0.00000001
 40
0.0
 40
0.0
 40
0.0
 40
0.0
 40
0.089258766980703
 40
0.1823348841175102
 40
0.2803541883410064
 40
0.3849971017799592
 40
0.503508764191087
 40
0.6454515667703851
 40
0.8094919664617615
 40
0.9999999999999999
 40
0.9999999999999999
 40
0.9999999999999999
 40
0.9999999999999999
 10
54.64788247268587
 20
36.0353629753163
 30
0.0
 10
54.65761574472045
 20
36.03439617124511
 30
0.0
 10
54.6774985538667
 20
36.03242121557132
 30
0.0
 10
54.70500692542174
 20
36.01850804915858
 30
0.0
 10
54.73178415359245
 20
35.99976174736958
 30
0.0
 10
54.74914239732117
 20
35.96867651334093
 30
0.0
 10
54.76473526214227
 20
35.93227629549813
 30
0.0
 10
54.77528921240673
 20
35.88718049342546
 30
0.0
 10
54.78402394091452
 20
35.83387100246907
 30
0.0
 10
54.78439945126996
 20
35.79529254493613
 30
0.0
 10
54.78460122268588
 20
35.77456334296337
 30
0.0
  0
SPLINE
  5
8E
330
1F
100
AcDbEntity
  8
0
  6
Continuous
 62
     7
370
    25
100
AcDbSpline
210
0.0
220
0.0
230
1.0
 70
     8
 71
     3
 72
    21
 73
    17
 74
     0
 42
0.00000001
 43
0.00000001
 40
0.0
 40
0.0
 40
0.0
 40
0.0
 40
0.0850794130926991
 40
0.1705019794474169
 40
0.2147294146089221
 40
0.2616143016330642
 40
0.3119404234085804
 40
0.3652029271279055
 40
0.4227166401644556
 40
0.4852636787988323
 40
0.5534877947562238
 40
0.6270719791859916
 40
0.7076212424924747
 40
0.7963891273443023
 40
0.8940105466849821
 40
1.0
 40
1.0
 40
1.0
 40
1.0
 10
58.53460122268587
 20
39.29593282825748
 30
0.0
 10
58.53272879583629
 20
39.21655258078237
 30
0.0
 10
58.52897639002365
 20
39.05747191917992
 30
0.0
 10
58.50036311606128
 20
38.85874019596615
 30
0.0
 10
58.46451062228323
 20
38.69794254011396
 30
0.0
 10
58.42471309917597
 20
38.57201839583453
 30
0.0
 10
58.37322829944754
 20
38.44132559508724
 30
0.0
 10
58.3073912758892
 20
38.30617261642479
 30
0.0
 10
58.2307388406336
 20
38.16374567973595
 30
0.0
 10
58.13604021791826
 20
38.01574224217784
 30
0.0
 10
58.02872454250181
 20
37.85819623104246
 30
0.0
 10
57.90312166068712
 20
37.69306958470825
 30
0.0
 10
57.75968095987047
 20
37.51769243249927
 30
0.0
 10
57.5961730336208
 20
37.32988661731996
 30
0.0
 10
57.40983303180337
 20
37.13073710568776
 30
0.0
 10
57.27684954962174
 20
36.99517567661587
 30
0.0
 10
57.20762511974469
 20
36.92460929884572
 30
0.0
  0
SPLINE
  5
8F
330
1F
100
AcDbEntity
  8
0
  6
Continuous
 62
     7
370
    25
100
AcDbSpline
210
0.0
220
0.0
230
1.0
 70
     8
 71
     3
 72
    23
 73
    19
 74
     0
 42
0.00000001
 43
0.00000001
 40
0.0
 40
0.0
 40
0.0
 40
0.0
 40
0.0809219560559323
 40
0.1575690208495784
 40
0.2295427992009313
 40
0.2979116010533446
 40
0.3631842593903471
 40
0.4248675805093675
 40
0.4848280566208952
 40
0.5429060829774499
 40
0.6001265468514773
 40
0.6560047635959544
 40
0.7121970468015567
 40
0.7685659681794261
 40
0.8254449829971939
 40
0.8827920876691566
 40
0.9408516060499851
 40
1.0
 40
1.0
 40
1.0
 40
1.0
 10
57.05941739915646
 20
40.59418650472807
 30
0.0
 10
57.11919873901076
 20
40.5927031661262
 30
0.0
 10
57.23560332986627
 20
40.58981484974733
 30
0.0
 10
57.40453762684869
 20
40.57211167538946
 30
0.0
 10
57.56179725715975
 20
40.53978398641448
 30
0.0
 10
57.70732245084851
 20
40.49519529606212
 30
0.0
 10
57.84015023583641
 20
40.43837872504931
 30
0.0
 10
57.96294450370983
 20
40.37456198171431
 30
0.0
 10
58.07167045301877
 20
40.29784123057011
 30
0.0
 10
58.17071358953943
 20
40.21402414773373
 30
0.0
 10
58.25606178740505
 20
40.12039710499324
 30
0.0
 10
58.33279874080938
 20
40.02125303584688
 30
0.0
 10
58.39367964516051
 20
39.91233599458403
 30
0.0
 10
58.44599597828801
 20
39.79849195506056
 30
0.0
 10
58.48650771964584
 20
39.67880213206488
 30
0.0
 10
58.5131455394651
 20
39.55418522631778
 30
0.0
 10
58.53148439556707
 20
39.42629832407412
 30
0.0
 10
58.53355586557795
 20
39.33965629846768
 30
0.0
 10
58.53460122268587
 20
39.29593282825748
 30
0.0
  0
SPLINE
  5
90
330
1F
100
AcDbEntity
  8
0
  6
Continuous
 62
     7
370
    25
100
AcDbSpline
210
0.0
220
0.0
230
1.0
 70
     8
 71
     3
 72
    25
 73
    21
 74
     0
 42
0.00000001
 43
0.00000001
 40
0.0
 40
0.0
 40
0.0
 40
0.0
 40
0.0328592011194845
 40
0.06038059663025
 40
0.0840848076970523
 40
0.1047387807107302
 40
0.1240428009528723
 40
0.1426351245203754
 40
0.1655682596412514
 40
0.1973354402157057
 40
0.2188005162762666
 40
0.2452219406652936
 40
0.2770244770443188
 40
0.3140516384047423
 40
0.4010561037592271
 40
0.5031769703334947
 40
0.6172452201038247
 40
0.7385607693914921
 40
0.8670804462395031
 40
1.0
 40
1.0
 40
1.0
 40
1.0
 10
55.66695416386234
 20
39.86923246061042
 30
0.0
 10
55.66730289461317
 20
39.88799240262162
 30
0.0
 10
55.66794370662566
 20
39.92246483204151
 30
0.0
 10
55.66931902693944
 20
39.97054629151788
 30
0.0
 10
55.67545028118021
 20
40.01118262981936
 30
0.0
 10
55.68306620256249
 20
40.0468594748513
 30
0.0
 10
55.69533514316186
 20
40.07800161380419
 30
0.0
 10
55.70927134527825
 20
40.11005641353302
 30
0.0
 10
55.73650951274082
 20
40.14238514102981
 30
0.0
 10
55.76769665647623
 20
40.17270022294629
 30
0.0
 10
55.8034116115914
 20
40.20098918155089
 30
0.0
 10
55.84068146743185
 20
40.22711230015492
 30
0.0
 10
55.88503141262283
 20
40.25867251159004
 30
0.0
 10
55.96128047106187
 20
40.30467872064813
 30
0.0
 10
56.07435441911419
 20
40.36744763710667
 30
0.0
 10
56.23445391060434
 20
40.43423993359605
 30
0.0
 10
56.41700662293503
 20
40.49660047106368
 30
0.0
 10
56.6181212772081
 20
40.54950174859455
 30
0.0
 10
56.83390612204524
 20
40.58875927782678
 30
0.0
 10
56.98340829397186
 20
40.59235724516428
 30
0.0
 10
57.05941739915646
 20
40.59418650472807
 30
0.0
  0
SPLINE
  5
91
330
1F
100
AcDbEntity
  8
0
  6
Continuous
 62
     7
370
    25
100
AcDbSpline
210
0.0
220
0.0
230
1.0
 70
     8
 71
     3
 72
    15
 73
    11
 74
     0
 42
0.00000001
 43
0.00000001
 40
0.0
 40
0.0
 40
0.0
 40
0.0
 40
0.075219968322283
 40
0.1501633917071629
 40
0.2299380830088127
 40
0.3279334991328764
 40
0.4492220536194657
 40
0.5996619902640093
 40
0.7840251881430365
 40
1.0
 40
1.0
 40
1.0
 40
1.0
 10
55.78299276680352
 20
39.56477474002219
 30
0.0
 10
55.77409257120786
 20
39.56584961075723
 30
0.0
 10
55.75632490143464
 20
39.56799540048328
 30
0.0
 10
55.73080212641678
 20
39.57964754503033
 30
0.0
 10
55.71042919096582
 20
39.60259380805288
 30
0.0
 10
55.69477379162159
 20
39.63476106485716
 30
0.0
 10
55.68244607629357
 20
39.67709615747628
 30
0.0
 10
55.67372170805881
 20
39.73068360909254
 30
0.0
 10
55.66828528311416
 20
39.79597737018606
 30
0.0
 10
55.66742062865083
 20
39.84356164245175
 30
0.0
 10
55.66695416386234
 20
39.86923246061042
 30
0.0
  0
SPLINE
  5
92
330
1F
100
AcDbEntity
  8
0
  6
Continuous
 62
     7
370
    25
100
AcDbSpline
210
0.0
220
0.0
230
1.0
 70
     8
 71
     3
 72
    19
 73
    15
 74
     0
 42
0.00000001
 43
0.00000001
 40
0.0
 40
0.0
 40
0.0
 40
0.0
 40
0.093486403060758
 40
0.1829257843035619
 40
0.2690145292621094
 40
0.3516317719062079
 40
0.5059015001718655
 40
0.6446176229504574
 40
0.766568013108719
 40
0.8712099176614307
 40
0.9144782453255466
 40
0.9498028061720135
 40
0.9779329217821799
 40
0.9999999999999999
 40
0.9999999999999999
 40
0.9999999999999999
 40
0.9999999999999999
 10
56.9491232815094
 20
40.00595121061042
 30
0.0
 10
56.90964311659338
 20
40.00501163493811
 30
0.0
 10
56.83239188117034
 20
40.00317315777841
 30
0.0
 10
56.71937071087032
 20
39.99046468065384
 30
0.0
 10
56.61222995078985
 20
39.96927099421345
 30
0.0
 10
56.48228742104948
 20
39.92733551553514
 30
0.0
 10
56.33479786326168
 20
39.86852357310283
 30
0.0
 10
56.17787757660317
 20
39.79027047305537
 30
0.0
 10
56.04433643352045
 20
39.71273808432785
 30
0.0
 10
55.95057002599886
 20
39.64795303425291
 30
0.0
 10
55.88605554007714
 20
39.60517543027989
 30
0.0
 10
55.84708271546987
 20
39.5825734519959
 30
0.0
 10
55.81336816496525
 20
39.56862954696998
 30
0.0
 10
55.79226839178605
 20
39.56595186841528
 30
0.0
 10
55.78299276680352
 20
39.56477474002219
 30
0.0
  0
SPLINE
  5
93
330
1F
100
AcDbEntity
  8
0
  6
Continuous
 62
     7
370
    25
100
AcDbSpline
210
0.0
220
0.0
230
1.0
 70
     8
 71
     3
 72
    19
 73
    15
 74
     0
 42
0.00000001
 43
0.00000001
 40
0.0
 40
0.0
 40
0.0
 40
0.0
 40
0.1218149260725098
 40
0.2414949303683432
 40
0.3589788428655719
 40
0.4744756236769699
 40
0.5327406544390622
 40
0.5927343138610465
 40
0.6533944861358189
 40
0.7173946647367324
 40
0.783469124818465
 40
0.8520222328048296
 40
0.9244976051169085
 40
1.0
 40
1.0
 40
1.0
 40
1.0
 10
57.79930710503881
 20
39.18793650472807
 30
0.0
 10
57.79686696069454
 20
39.24187044219175
 30
0.0
 10
57.79202943784325
 20
39.34879307386113
 30
0.0
 10
57.74706097354024
 20
39.50214562771239
 30
0.0
 10
57.68084213145061
 20
39.64404962102975
 30
0.0
 10
57.60038095393006
 20
39.74600946260669
 30
0.0
 10
57.52498336075842
 20
39.8166979045754
 30
0.0
 10
57.46216110940202
 20
39.86493949743543
 30
0.0
 10
57.39197842759162
 20
39.90685496323329
 30
0.0
 10
57.31528223316828
 20
39.9420830307157
 30
0.0
 10
57.23229068671291
 20
39.97097360537548
 30
0.0
 10
57.14304078397898
 20
39.99198626371594
 30
0.0
 10
57.04780925801965
 20
40.00276832847243
 30
0.0
 10
56.98246417180862
 20
40.00487587926194
 30
0.0
 10
56.9491232815094
 20
40.00595121061042
 30
0.0
  0
SPLINE
  5
94
330
1F
100
AcDbEntity
  8
0
  6
Continuous
 62
     7
370
    25
100
AcDbSpline
210
0.0
220
0.0
230
1.0
 70
     8
 71
     3
 72
    21
 73
    17
 74
     0
 42
0.00000001
 43
0.00000001
 40
0.0
 40
0.0
 40
0.0
 40
0.0
 40
0.1058601842156467
 40
0.2031724425875244
 40
0.2927093444574947
 40
0.3739339472426231
 40
0.449050245080941
 40
0.5187542316346857
 40
0.5835803420469244
 40
0.6429855819503483
 40
0.698534429665751
 40
0.7499510714429729
 40
0.7976095863287345
 40
0.8417167434668383
 40
0.9237802593064597
 40
1.0
 40
1.0
 40
1.0
 40
1.0
 10
56.74347070797999
 20
37.26698062237513
 30
0.0
 10
56.79866429528897
 20
37.32402625915368
 30
0.0
 10
56.90459473582068
 20
37.43351125059906
 30
0.0
 10
57.05037032699414
 20
37.59760136500787
 30
0.0
 10
57.18086341894304
 20
37.75051729915099
 30
0.0
 10
57.29316004761557
 20
37.89680506882456
 30
0.0
 10
57.39099637061796
 20
38.03521689233457
 30
0.0
 10
57.47774594637185
 20
38.16632366489066
 30
0.0
 10
57.55262709245503
 20
38.29103954998317
 30
0.0
 10
57.61525578774688
 20
38.4104678624447
 30
0.0
 10
57.66716704542161
 20
38.52397008697529
 30
0.0
 10
57.70859270579902
 20
38.63230736783356
 30
0.0
 10
57.74129022032763
 20
38.73464842183204
 30
0.0
 10
57.77123939330755
 20
38.86157789272912
 30
0.0
 10
57.79287104537588
 20
39.01217056557445
 30
0.0
 10
57.79721521365833
 20
39.1308078775315
 30
0.0
 10
57.79930710503881
 20
39.18793650472807
 30
0.0
  0
SPLINE
  5
96
330
1F
100
AcDbEntity
  8
0
  6
Continuous
 62
     7
370
    25
100
AcDbSpline
210
0.0
220
0.0
230
1.0
 70
     8
 71
     3
 72
    15
 73
    11
 74
     0
 42
0.00000001
 43
0.00000001
 40
0.0
 40
0.0
 40
0.0
 40
0.0
 40
0.155964151035663
 40
0.2906596686676857
 40
0.4121436592956452
 40
0.5206379026507822
 40
0.62793180398161
 40
0.7386318674605376
 40
0.8605179282699276
 40
0.9999999999999999
 40
0.9999999999999999
 40
0.9999999999999999
 40
0.9999999999999999
 10
55.59342475209764
 20
35.8205192253163
 30
0.0
 10
55.59351683110044
 20
35.84542189813293
 30
0.0
 10
55.59368843240928
 20
35.89183129786844
 30
0.0
 10
55.59822938511777
 20
35.95749163808027
 30
0.0
 10
55.6063373001692
 20
36.01527703322058
 30
0.0
 10
55.62295095878347
 20
36.0668560417002
 30
0.0
 10
55.647621554501
 20
36.11285706819138
 30
0.0
 10
55.67368214313316
 20
36.16049990879475
 30
0.0
 10
55.70943562684963
 20
36.20815680698476
 30
0.0
 10
55.73717116261877
 20
36.23932040348146
 30
0.0
 10
55.75197254621528
 20
36.25595121061042
 30
0.0
  0
SPLINE
  5
97
330
1F
100
AcDbEntity
  8
0
  6
Continuous
 62
     7
370
    25
100
AcDbSpline
210
0.0
220
0.0
230
1.0
 70
     8
 71
     3
 72
    15
 73
    11
 74
     0
 42
0.00000001
 43
0.00000001
 40
0.0
 40
0.0
 40
0.0
 40
0.0
 40
0.1195283012162676
 40
0.2256065957463571
 40
0.3228043912598658
 40
0.4205426791449197
 40
0.5278717072981433
 40
0.6561035785162151
 40
0.8116606956622994
 40
0.9999999999999999
 40
0.9999999999999999
 40
0.9999999999999999
 40
0.9999999999999999
 10
55.8163107815094
 20
35.52065709296336
 30
0.0
 10
55.79902890067306
 20
35.52125638578957
 30
0.0
 10
55.7664097948721
 20
35.52238753559258
 30
0.0
 10
55.72047796806188
 20
35.53241069472548
 30
0.0
 10
55.68084984675913
 20
35.55131371271025
 30
0.0
 10
55.64709950649317
 20
35.57994023297091
 30
0.0
 10
55.62097627135988
 20
35.62129240756079
 30
0.0
 10
55.6049605766741
 20
35.6759223838573
 30
0.0
 10
55.59485153730773
 20
35.74354461096032
 30
0.0
 10
55.5939296406665
 20
35.79328064546131
 30
0.0
 10
55.59342475209764
 20
35.8205192253163
 30
0.0
  0
SPLINE
  5
99
330
1F
100
AcDbEntity
  8
0
  6
Continuous
 62
     7
370
    25
100
AcDbSpline
210
0.0
220
0.0
230
1.0
 70
     8
 71
     3
 72
    15
 73
    11
 74
     0
 42
0.00000001
 43
0.00000001
 40
0.0
 40
0.0
 40
0.0
 40
0.0
 40
0.1866283079120037
 40
0.3528226519023676
 40
0.496128724669033
 40
0.6191109361415318
 40
0.7252189266882372
 40
0.819971929997803
 40
0.908992844931652
 40
1.0
 40
1.0
 40
1.0
 40
1.0
 10
58.75518945797999
 20
35.81937032825748
 30
0.0
 10
58.75495441029219
 20
35.79635309088948
 30
0.0
 10
58.75451005032634
 20
35.75283877723308
 30
0.0
 10
58.7458810322536
 20
35.69224271449423
 30
0.0
 10
58.7352886657912
 20
35.63989404794453
 30
0.0
 10
58.71926060884527
 20
35.59680097851877
 30
0.0
 10
58.69914918685241
 20
35.56171561166266
 30
0.0
 10
58.67158823017925
 20
35.5382323477015
 30
0.0
 10
58.64055749198526
 20
35.52312370112463
 30
0.0
 10
58.61825567384792
 20
35.52148532107049
 30
0.0
 10
58.60698173739176
 20
35.52065709296336
 30
0.0
  0
SPLINE
  5
9A
330
1F
100
AcDbEntity
  8
0
  6
Continuous
 62
     7
370
    25
100
AcDbSpline
210
0.0
220
0.0
230
1.0
 70
     8
 71
     3
 72
    15
 73
    11
 74
     0
 42
0.00000001
 43
0.00000001
 40
0.0
 40
0.0
 40
0.0
 40
0.0
 40
0.0866605015703616
 40
0.1775785255407055
 40
0.276768543925525
 40
0.3860179068520886
 40
0.5082036659192689
 40
0.6491248147451852
 40
0.8125676919489209
 40
1.0
 40
1.0
 40
1.0
 40
1.0
 10
58.60238614915647
 20
36.10889238708101
 30
0.0
 10
58.61287778230339
 20
36.10797696889441
 30
0.0
 10
58.63437648945347
 20
36.10610115916699
 30
0.0
 10
58.66490816157392
 20
36.09107494024403
 30
0.0
 10
58.69298882324324
 20
36.06784111757161
 30
0.0
 10
58.71563905601377
 20
36.03454730869915
 30
0.0
 10
58.73447919027515
 20
35.99353478318528
 30
0.0
 10
58.74614066787665
 20
35.94319462687545
 30
0.0
 10
58.75449390382136
 20
35.88437360273171
 30
0.0
 10
58.75494727424124
 20
35.84200370029315
 30
0.0
 10
58.75518945797999
 20
35.81937032825748
 30
0.0
  0
SPLINE
  5
9C
330
1F
100
AcDbEntity
  8
0
  6
Continuous
 62
     7
370
    25
100
AcDbSpline
210
0.0
220
0.0
230
1.0
 70
     8
 71
     3
 72
    15
 73
    11
 74
     0
 42
0.00000001
 43
0.00000001
 40
0.0
 40
0.0
 40
0.0
 40
0.0
 40
0.0931220770192952
 40
0.1677436039701156
 40
0.2415415695391954
 40
0.3243172555168345
 40
0.4356412137734114
 40
0.577537018140259
 40
0.762849077435471
 40
0.9999999999999999
 40
0.9999999999999999
 40
0.9999999999999999
 40
0.9999999999999999
 10
62.87628320797999
 20
40.38278944590454
 30
0.0
 10
62.88026645936328
 20
40.39586898823245
 30
0.0
 10
62.88744161013242
 20
40.41942956203611
 30
0.0
 10
62.90098851905704
 20
40.4525325717206
 30
0.0
 10
62.92426545486927
 20
40.47853494673723
 30
0.0
 10
62.96028979636363
 20
40.49576358426672
 30
0.0
 10
63.00789944749795
 20
40.50933768135701
 30
0.0
 10
63.07221810416515
 20
40.5160128087151
 30
0.0
 10
63.15499983282895
 20
40.52057382204639
 30
0.0
 10
63.21710795605293
 20
40.52062715457873
 30
0.0
 10
63.25197254621528
 20
40.52065709296337
 30
0.0
  0
SPLINE
  5
9F
330
1F
100
AcDbEntity
  8
0
  6
Continuous
 62
     7
370
    25
100
AcDbSpline
210
0.0
220
0.0
230
1.0
 70
     8
 71
     3
 72
    15
 73
    11
 74
     0
 42
0.00000001
 43
0.00000001
 40
0.0
 40
0.0
 40
0.0
 40
0.0
 40
0.2371519799593047
 40
0.4188339843276089
 40
0.559685879234163
 40
0.6655524930722687
 40
0.7517216737616328
 40
0.8286825678867747
 40
0.9076401852114284
 40
1.0
 40
1.0
 40
1.0
 40
1.0
 10
59.68005159033292
 20
40.52065709296337
 30
0.0
 10
59.71262766359811
 20
40.52066568218002
 30
0.0
 10
59.77016024908082
 20
40.52068085159092
 30
0.0
 10
59.8467407983112
 20
40.5158050630441
 30
0.0
 10
59.90560341905137
 20
40.50982610737779
 30
0.0
 10
59.94894381040594
 20
40.49496530597958
 30
0.0
 10
59.98250470959272
 20
40.47833658779936
 30
0.0
 10
60.00503857911828
 20
40.45317412273436
 30
0.0
 10
60.02284059444612
 20
40.42403827076345
 30
0.0
 10
60.0322732750608
 20
40.40246318166417
 30
0.0
 10
60.03735857562704
 20
40.3908317253163
 30
0.0
  0
SPLINE
  5
A0
330
1F
100
AcDbEntity
  8
0
  6
Continuous
 62
     7
370
    25
100
AcDbSpline
210
0.0
220
0.0
230
1.0
 70
     8
 71
     3
 72
    15
 73
    11
 74
     0
 42
0.00000001
 43
0.00000001
 40
0.0
 40
0.0
 40
0.0
 40
0.0
 40
0.1431467286889504
 40
0.2518842956426773
 40
0.3358122999274126
 40
0.4094086362080713
 40
0.5018383410514773
 40
0.623480889464626
 40
0.7891467933465754
 40
1.0
 40
1.0
 40
1.0
 40
1.0
 10
59.35836041386233
 20
40.26445304884572
 30
0.0
 10
59.34962317911066
 20
40.28952542763345
 30
0.0
 10
59.33424893869706
 20
40.33364336542271
 30
0.0
 10
59.32235822254532
 20
40.39497976640904
 30
0.0
 10
59.32838728726872
 20
40.44583258630031
 30
0.0
 10
59.3589967389551
 20
40.48335814081455
 30
0.0
 10
59.40895045077804
 20
40.50553500938772
 30
0.0
 10
59.47906605300376
 20
40.514284294109
 30
0.0
 10
59.57119106765722
 20
40.51942484210835
 30
0.0
 10
59.64097315641217
 20
40.52021474313416
 30
0.0
 10
59.68005159033292
 20
40.52065709296336
 30
0.0
  0
SPLINE
  5
A2
330
1F
100
AcDbEntity
  8
0
  6
Continuous
 62
     7
370
    25
100
AcDbSpline
210
0.0
220
0.0
230
1.0
 70
     8
 71
     3
 72
    19
 73
    15
 74
     0
 42
0.00000001
 43
0.00000001
 40
0.0
 40
0.0
 40
0.0
 40
0.0
 40
0.1546154704939678
 40
0.2913228756377054
 40
0.4080384341226874
 40
0.5097669834700903
 40
0.5941474594824352
 40
0.6680600294767814
 40
0.7297126861272268
 40
0.785867071415682
 40
0.8383707856902683
 40
0.8877193730182346
 40
0.940841078952276
 40
1.0
 40
1.0
 40
1.0
 40
1.0
 10
61.4562464432741
 20
35.52065709296336
 30
0.0
 10
61.42982081050932
 20
35.52058449722102
 30
0.0
 10
61.38003024748878
 20
35.52044771401068
 30
0.0
 10
61.31030652333548
 20
35.52133906445189
 30
0.0
 10
61.2496170633716
 20
35.52415322390725
 30
0.0
 10
61.19831199504902
 20
35.53131499488479
 30
0.0
 10
61.15460451819824
 20
35.53943216182411
 30
0.0
 10
61.11808660648575
 20
35.54839796729721
 30
0.0
 10
61.08683476283822
 20
35.55850529683414
 30
0.0
 10
61.06098930297355
 20
35.57236356572784
 30
0.0
 10
61.04022643032042
 20
35.58982538062072
 30
0.0
 10
61.02291903591026
 20
35.61019151621678
 30
0.0
 10
61.01113024020864
 20
35.63534549258399
 30
0.0
 10
61.00317624865638
 20
35.65278357566338
 30
0.0
 10
60.99898541386233
 20
35.66197143119866
 30
0.0
  0
SPLINE
  5
A3
330
1F
100
AcDbEntity
  8
0
  6
Continuous
 62
     7
370
    25
100
AcDbSpline
210
0.0
220
0.0
230
1.0
 70
     8
 71
     3
 72
    15
 73
    11
 74
     0
 42
0.00000001
 43
0.00000001
 40
0.0
 40
0.0
 40
0.0
 40
0.0
 40
0.0878256427957626
 40
0.1712303563855995
 40
0.2550466088899139
 40
0.3515820704879374
 40
0.4695098351157108
 40
0.6141693907145638
 40
0.7892483876081958
 40
0.9999999999999999
 40
0.9999999999999999
 40
0.9999999999999999
 40
0.9999999999999999
 10
61.88363614915645
 20
35.65852474002219
 30
0.0
 10
61.87811559634827
 20
35.64554412516354
 30
0.0
 10
61.86735238193052
 20
35.62023630802045
 30
0.0
 10
61.84101215517733
 20
35.58836220346807
 30
0.0
 10
61.80694642414731
 20
35.56286396685455
 30
0.0
 10
61.76244711762735
 20
35.54452289124284
 30
0.0
 10
61.70607066700628
 20
35.53271704896979
 30
0.0
 10
61.63641850793123
 20
35.52533714516493
 30
0.0
 10
61.55166387096108
 20
35.52086223487861
 30
0.0
 10
61.48995407988247
 20
35.52072956241994
 30
0.0
 10
61.4562464432741
 20
35.52065709296337
 30
0.0
  0
SPLINE
  5
A5
330
1F
100
AcDbEntity
  8
0
  6
Continuous
 62
     7
370
    25
100
AcDbSpline
210
0.0
220
0.0
230
1.0
 70
     8
 71
     3
 72
    15
 73
    11
 74
     0
 42
0.00000001
 43
0.00000001
 40
0.0
 40
0.0
 40
0.0
 40
0.0
 40
0.2088151054643047
 40
0.3672659909470326
 40
0.483626859356414
 40
0.5662802484723891
 40
0.6368277053058347
 40
0.7257760686279963
 40
0.8433807972269469
 40
1.0
 40
1.0
 40
1.0
 40
1.0
 10
63.25197254621527
 20
40.52065709296336
 30
0.0
 10
63.28797773468363
 20
40.52048401072325
 30
0.0
 10
63.35130400216155
 20
40.5201795920353
 30
0.0
 10
63.43461554658639
 20
40.51253381853216
 30
0.0
 10
63.4949200333384
 20
40.50081240713313
 30
0.0
 10
63.53852432463707
 20
40.47938620787557
 30
0.0
 10
63.55823459054838
 20
40.43992327640859
 30
0.0
 10
63.55766271030054
 20
40.39130132487293
 30
0.0
 10
63.54466727795217
 20
40.32991515177483
 30
0.0
 10
63.52875413325532
 20
40.28532468723819
 30
0.0
 10
63.51966556092116
 20
40.25985746061042
 30
0.0
  0
CIRCLE
  5
A6
330
1F
100
AcDbEntity
  8
0
  6
Continuous
 62
     7
370
    25
100
AcDbCircle
 10
-127.5
 20
70.0
 30
0.0
 40
2.499999999999957
  0
CIRCLE
  5
A7
330
1F
100
AcDbEntity
  8
0
  6
Continuous
 62
     7
370
    25
100
AcDbCircle
 10
127.5
 20
20.0
 30
0.0
 40
2.499999999999986
  0
CIRCLE
  5
A8
330
1F
100
AcDbEntity
  8
0
  6
Continuous
 62
     7
370
    25
100
AcDbCircle
 10
127.5
 20
175.0
 30
0.0
 40
2.500000000000014
  0
CIRCLE
  5
A9
330
1F
100
AcDbEntity
  8
0
  6
Continuous
 62
     7
370
    25
100
AcDbCircle
 10
-2.5
 20
70.0
 30
0.0
 40
2.500000000000024
  0
CIRCLE
  5
19C
330
1F
100
AcDbEntity
  8
0
  6
Continuous
 62
     7
370
    25
100
AcDbCircle
 10
-112.15
 20
137.500081124
 30
0.0
 40
2.5
  0
CIRCLE
  5
19D
330
1F
100
AcDbEntity
  8
0
  6
Continuous
 62
     7
370
    25
100
AcDbCircle
 10
-81.15
 20
106.500081124
 30
0.0
 40
2.5
  0
CIRCLE
  5
19E
330
1F
100
AcDbEntity
  8
0
  6
Continuous
 62
     7
370
    25
100
AcDbCircle
 10
-112.15
 20
106.500081124
 30
0.0
 40
2.5
  0
CIRCLE
  5
19F
330
1F
100
AcDbEntity
  8
0
  6
Continuous
 62
     7
370
    25
100
AcDbCircle
 10
-81.15
 20
137.500081124
 30
0.0
 40
2.499999999999972
  0
CIRCLE
  5
1A8
330
1F
100
AcDbEntity
  8
0
  6
Continuous
 62
     7
370
    25
100
AcDbCircle
 10
46.95
 20
37.0
 30
0.0
 40
2.500000000000007
  0
CIRCLE
  5
1B1
330
1F
100
AcDbEntity
  8
0
  6
Continuous
 62
     7
370
    25
100
AcDbCircle
 10
-16.35
 20
120.0
 30
0.0
 40
18.99999999999998
  0
CIRCLE
  5
1B2
330
1F
100
AcDbEntity
  8
0
  6
Continuous
 62
     7
370
    25
100
AcDbCircle
 10
-0.35
 20
136.0
 30
0.0
 40
2.500000000000024
  0
CIRCLE
  5
1B3
330
1F
100
AcDbEntity
  8
0
  6
Continuous
 62
     7
370
    25
100
AcDbCircle
 10
-32.35
 20
136.0
 30
0.0
 40
2.500000000000025
  0
CIRCLE
  5
1B4
330
1F
100
AcDbEntity
  8
0
  6
Continuous
 62
     7
370
    25
100
AcDbCircle
 10
-32.35
 20
104.0
 30
0.0
 40
2.500000000000004
  0
CIRCLE
  5
1B5
330
1F
100
AcDbEntity
  8
0
  6
Continuous
 62
     7
370
    25
100
AcDbCircle
 10
-0.35
 20
104.0
 30
0.0
 40
2.500000000000024
  0
LINE
  5
1B6
330
1F
100
AcDbEntity
  8
0
  6
Continuous
 62
     7
370
    25
100
AcDbLine
 10
31.9910299623
 20
39.9324217988
 30
0.0
 11
31.9910299623
 21
38.5077894459
 31
0.0
  0
LINE
  5
1B7
330
1F
100
AcDbEntity
  8
0
  6
Continuous
 62
     7
370
    25
100
AcDbLine
 10
33.763778124
 20
39.9324217988
 30
0.0
 11
31.9910299623
 21
39.9324217988
 31
0.0
  0
LINE
  5
1B8
330
1F
100
AcDbEntity
  8
0
  6
Continuous
 62
     7
370
    25
100
AcDbLine
 10
31.4924086387
 20
40.520657093
 30
0.0
 11
33.7534380505
 21
40.520657093
 31
0.0
  0
LINE
  5
1B9
330
1F
100
AcDbEntity
  8
0
  6
Continuous
 62
     7
370
    25
100
AcDbLine
 10
31.2557358446
 20
38.2194162841
 30
0.0
 11
31.2557358446
 21
40.26789974
 31
0.0
  0
LINE
  5
1BA
330
1F
100
AcDbEntity
  8
0
  6
Continuous
 62
     7
370
    25
100
AcDbLine
 10
36.9175005505
 20
36.2214842988
 30
0.0
 11
38.3180060652
 21
40.3827894459
 31
0.0
  0
LINE
  5
1BB
330
1F
100
AcDbEntity
  8
0
  6
Continuous
 62
     7
370
    25
100
AcDbLine
 10
35.4790814329
 20
40.3908317253
 30
0.0
 11
36.9175005505
 21
36.2214842988
 31
0.0
  0
LINE
  5
1BC
330
1F
100
AcDbEntity
  8
0
  6
Continuous
 62
     7
370
    25
100
AcDbLine
 10
36.4407082711
 20
35.6619714312
 30
0.0
 11
34.8000832711
 21
40.2644530488
 31
0.0
  0
LINE
  5
1BD
330
1F
100
AcDbEntity
  8
0
  6
Continuous
 62
     7
370
    25
100
AcDbLine
 10
38.9613884182
 20
40.2598574606
 30
0.0
 11
37.3253590064
 21
35.65852474
 31
0.0
  0
LINE
  5
1BE
330
1F
100
AcDbEntity
  8
0
  6
Continuous
 62
     7
370
    25
100
AcDbLine
 10
53.755189458
 20
40.4126607694
 30
0.0
 11
53.755189458
 21
36.0353629753
 31
0.0
  0
LINE
  5
1BF
330
1F
100
AcDbEntity
  8
0
  6
Continuous
 62
     7
370
    25
100
AcDbLine
 10
51.9537188697
 20
39.7060890783
 30
0.0
 11
53.0819357815
 21
40.4724034165
 31
0.0
  0
LINE
  5
1C0
330
1F
100
AcDbEntity
  8
0
  6
Continuous
 62
     7
370
    25
100
AcDbLine
 10
53.0198953403
 20
39.7853629753
 30
0.0
 11
52.0743530609
 21
39.1971276812
 31
0.0
  0
LINE
  5
1C1
330
1F
100
AcDbEntity
  8
0
  6
Continuous
 62
     7
370
    25
100
AcDbLine
 10
53.0198953403
 20
36.0353629753
 30
0.0
 11
53.0198953403
 21
39.7853629753
 31
0.0
  0
LINE
  5
1C2
330
1F
100
AcDbEntity
  8
0
  6
Continuous
 62
     7
370
    25
100
AcDbLine
 10
51.9812923992
 20
36.0353629753
 30
0.0
 11
53.0198953403
 21
36.0353629753
 31
0.0
  0
LINE
  5
1C3
330
1F
100
AcDbEntity
  8
0
  6
Continuous
 62
     7
370
    25
100
AcDbLine
 10
54.6432868845
 20
35.520657093
 30
0.0
 11
51.9847390903
 21
35.520657093
 31
0.0
  0
LINE
  5
1C4
330
1F
100
AcDbEntity
  8
0
  6
Continuous
 62
     7
370
    25
100
AcDbLine
 10
53.755189458
 20
36.0353629753
 30
0.0
 11
54.6478824727
 21
36.0353629753
 31
0.0
  0
LINE
  5
1C5
330
1F
100
AcDbEntity
  8
0
  6
Continuous
 62
     7
370
    25
100
AcDbLine
 10
57.2076251197
 20
36.9246092988
 30
0.0
 11
56.4022482815
 21
36.1088923871
 31
0.0
  0
LINE
  5
1C6
330
1F
100
AcDbEntity
  8
0
  6
Continuous
 62
     7
370
    25
100
AcDbLine
 10
55.7519725462
 20
36.2559512106
 30
0.0
 11
56.743470708
 21
37.2669806224
 31
0.0
  0
LINE
  5
1C7
330
1F
100
AcDbEntity
  8
0
  6
Continuous
 62
     7
370
    25
100
AcDbLine
 10
58.6069817374
 20
35.520657093
 30
0.0
 11
55.8163107815
 21
35.520657093
 31
0.0
  0
LINE
  5
1C8
330
1F
100
AcDbEntity
  8
0
  6
Continuous
 62
     7
370
    25
100
AcDbLine
 10
56.4022482815
 20
36.1088923871
 30
0.0
 11
58.6023861492
 21
36.1088923871
 31
0.0
  0
LINE
  5
1C9
330
1F
100
AcDbEntity
  8
0
  6
Continuous
 62
     7
370
    25
100
AcDbLine
 10
61.4757776933
 20
36.2214842988
 30
0.0
 11
62.876283208
 21
40.3827894459
 31
0.0
  0
LINE
  5
1CA
330
1F
100
AcDbEntity
  8
0
  6
Continuous
 62
     7
370
    25
100
AcDbLine
 10
60.0373585756
 20
40.3908317253
 30
0.0
 11
61.4757776933
 21
36.2214842988
 31
0.0
  0
LINE
  5
1CB
330
1F
100
AcDbEntity
  8
0
  6
Continuous
 62
     7
370
    25
100
AcDbLine
 10
60.9989854139
 20
35.6619714312
 30
0.0
 11
59.3583604139
 21
40.2644530488
 31
0.0
  0
LINE
  5
1CC
330
1F
100
AcDbEntity
  8
0
  6
Continuous
 62
     7
370
    25
100
AcDbLine
 10
63.5196655609
 20
40.2598574606
 30
0.0
 11
61.8836361492
 21
35.65852474
 31
0.0
  0
LINE
  5
1CD
330
1F
100
AcDbEntity
  8
0
  6
Continuous
 62
     7
370
    25
100
AcDbLine
 10
114.75
 20
0.0
 30
0.0
 11
120.25
 21
0.0
 31
0.0
  0
LINE
  5
1CE
330
1F
100
AcDbEntity
  8
0
  6
Continuous
 62
     7
370
    25
100
AcDbLine
 10
122.5
 20
2.25
 30
0.0
 11
122.5
 21
2.75
 31
0.0
  0
LINE
  5
1CF
330
1F
100
AcDbEntity
  8
0
  6
Continuous
 62
     7
370
    25
100
AcDbLine
 10
120.25
 20
5.0
 30
0.0
 11
114.75
 21
5.0
 31
0.0
  0
LINE
  5
1D0
330
1F
100
AcDbEntity
  8
0
  6
Continuous
 62
     7
370
    25
100
AcDbLine
 10
112.5
 20
2.75
 30
0.0
 11
112.5
 21
2.25
 31
0.0
  0
LINE
  5
1D1
330
1F
100
AcDbEntity
  8
0
  6
Continuous
 62
     7
370
    25
100
AcDbLine
 10
142.5
 20
2.25
 30
0.0
 11
142.5
 21
2.75
 31
0.0
  0
LINE
  5
1D2
330
1F
100
AcDbEntity
  8
0
  6
Continuous
 62
     7
370
    25
100
AcDbLine
 10
140.25
 20
5.0
 30
0.0
 11
134.75
 21
5.0
 31
0.0
  0
LINE
  5
1D3
330
1F
100
AcDbEntity
  8
0
  6
Continuous
 62
     7
370
    25
100
AcDbLine
 10
132.5
 20
2.75
 30
0.0
 11
132.5
 21
2.25
 31
0.0
  0
LINE
  5
1D4
330
1F
100
AcDbEntity
  8
0
  6
Continuous
 62
     7
370
    25
100
AcDbLine
 10
134.75
 20
0.0
 30
0.0
 11
140.25
 21
0.0
 31
0.0
  0
LINE
  5
1D5
330
1F
100
AcDbEntity
  8
0
  6
Continuous
 62
     7
370
    25
100
AcDbLine
 10
92.5
 20
2.75
 30
0.0
 11
92.5
 21
2.25
 31
0.0
  0
LINE
  5
1D6
330
1F
100
AcDbEntity
  8
0
  6
Continuous
 62
     7
370
    25
100
AcDbLine
 10
94.75
 20
0.0
 30
0.0
 11
100.25
 21
0.0
 31
0.0
  0
LINE
  5
1D7
330
1F
100
AcDbEntity
  8
0
  6
Continuous
 62
     7
370
    25
100
AcDbLine
 10
102.5
 20
2.25
 30
0.0
 11
102.5
 21
2.75
 31
0.0
  0
LINE
  5
1D8
330
1F
100
AcDbEntity
  8
0
  6
Continuous
 62
     7
370
    25
100
AcDbLine
 10
100.25
 20
5.0
 30
0.0
 11
94.75
 21
5.0
 31
0.0
  0
LINE
  5
1D9
330
1F
100
AcDbEntity
  8
0
  6
Continuous
 62
     7
370
    25
100
AcDbLine
 10
-117.5
 20
2.25
 30
0.0
 11
-117.5
 21
2.75
 31
0.0
  0
LINE
  5
1DA
330
1F
100
AcDbEntity
  8
0
  6
Continuous
 62
     7
370
    25
100
AcDbLine
 10
-119.75
 20
5.0
 30
0.0
 11
-125.25
 21
5.0
 31
0.0
  0
LINE
  5
1DB
330
1F
100
AcDbEntity
  8
0
  6
Continuous
 62
     7
370
    25
100
AcDbLine
 10
-127.5
 20
2.75
 30
0.0
 11
-127.5
 21
2.25
 31
0.0
  0
LINE
  5
1DC
330
1F
100
AcDbEntity
  8
0
  6
Continuous
 62
     7
370
    25
100
AcDbLine
 10
-125.25
 20
0.0
 30
0.0
 11
-119.75
 21
0.0
 31
0.0
  0
LINE
  5
1DD
330
1F
100
AcDbEntity
  8
0
  6
Continuous
 62
     7
370
    25
100
AcDbLine
 10
-107.5
 20
2.75
 30
0.0
 11
-107.5
 21
2.25
 31
0.0
  0
LINE
  5
1DE
330
1F
100
AcDbEntity
  8
0
  6
Continuous
 62
     7
370
    25
100
AcDbLine
 10
-105.25
 20
0.0
 30
0.0
 11
-99.75
 21
0.0
 31
0.0
  0
LINE
  5
1DF
330
1F
100
AcDbEntity
  8
0
  6
Continuous
 62
     7
370
    25
100
AcDbLine
 10
-97.5
 20
2.25
 30
0.0
 11
-97.5
 21
2.75
 31
0.0
  0
LINE
  5
1E0
330
1F
100
AcDbEntity
  8
0
  6
Continuous
 62
     7
370
    25
100
AcDbLine
 10
-99.75
 20
5.0
 30
0.0
 11
-105.25
 21
5.0
 31
0.0
  0
LINE
  5
1E1
330
1F
100
AcDbEntity
  8
0
  6
Continuous
 62
     7
370
    25
100
AcDbLine
 10
-79.75
 20
5.0
 30
0.0
 11
-85.25
 21
5.0
 31
0.0
  0
LINE
  5
1E2
330
1F
100
AcDbEntity
  8
0
  6
Continuous
 62
     7
370
    25
100
AcDbLine
 10
-87.5
 20
2.75
 30
0.0
 11
-87.5
 21
2.25
 31
0.0
  0
LINE
  5
1E3
330
1F
100
AcDbEntity
  8
0
  6
Continuous
 62
     7
370
    25
100
AcDbLine
 10
-85.25
 20
0.0
 30
0.0
 11
-79.75
 21
0.0
 31
0.0
  0
LINE
  5
1E4
330
1F
100
AcDbEntity
  8
0
  6
Continuous
 62
     7
370
    25
100
AcDbLine
 10
-77.5
 20
2.25
 30
0.0
 11
-77.5
 21
2.75
 31
0.0
  0
LINE
  5
1E5
330
1F
100
AcDbEntity
  8
0
  6
Continuous
 62
     7
370
    25
100
AcDbLine
 10
137.5
 20
195.0
 30
0.0
 11
137.5
 21
192.25
 31
0.0
  0
LINE
  5
1E6
330
1F
100
AcDbEntity
  8
0
  6
Continuous
 62
     7
370
    25
100
AcDbLine
 10
137.5
 20
195.0
 30
0.0
 11
147.5
 21
195.0
 31
0.0
  0
LINE
  5
1E7
330
1F
100
AcDbEntity
  8
0
  6
Continuous
 62
     7
370
    25
100
AcDbLine
 10
147.5
 20
195.0
 30
0.0
 11
147.5
 21
-10.0
 31
0.0
  0
LINE
  5
1E8
330
1F
100
AcDbEntity
  8
0
  6
Continuous
 62
     7
370
    25
100
AcDbLine
 10
147.5
 20
-10.0
 30
0.0
 11
77.5
 21
-10.0
 31
0.0
  0
LINE
  5
1E9
330
1F
100
AcDbEntity
  8
0
  6
Continuous
 62
     7
370
    25
100
AcDbLine
 10
74.75
 20
0.0
 30
0.0
 11
80.25
 21
0.0
 31
0.0
  0
LINE
  5
1EA
330
1F
100
AcDbEntity
  8
0
  6
Continuous
 62
     7
370
    25
100
AcDbLine
 10
82.5
 20
2.25
 30
0.0
 11
82.5
 21
2.75
 31
0.0
  0
LINE
  5
1EB
330
1F
100
AcDbEntity
  8
0
  6
Continuous
 62
     7
370
    25
100
AcDbLine
 10
80.25
 20
5.0
 30
0.0
 11
74.75
 21
5.0
 31
0.0
  0
LINE
  5
1EC
330
1F
100
AcDbEntity
  8
0
  6
Continuous
 62
     7
370
    25
100
AcDbLine
 10
72.5
 20
2.75
 30
0.0
 11
72.5
 21
2.25
 31
0.0
  0
LINE
  5
1ED
330
1F
100
AcDbEntity
  8
0
  6
Continuous
 62
     7
370
    25
100
AcDbLine
 10
67.5
 20
0.0
 30
0.0
 11
62.5
 21
0.0
 31
0.0
  0
LINE
  5
1EE
330
1F
100
AcDbEntity
  8
0
  6
Continuous
 62
     7
370
    25
100
AcDbLine
 10
62.5
 20
0.0
 30
0.0
 11
62.5
 21
2.75
 31
0.0
  0
LINE
  5
1EF
330
1F
100
AcDbEntity
  8
0
  6
Continuous
 62
     7
370
    25
100
AcDbLine
 10
60.25
 20
5.0
 30
0.0
 11
54.75
 21
5.0
 31
0.0
  0
LINE
  5
1F0
330
1F
100
AcDbEntity
  8
0
  6
Continuous
 62
     7
370
    25
100
AcDbLine
 10
52.5
 20
2.75
 30
0.0
 11
52.5
 21
0.0
 31
0.0
  0
LINE
  5
1F1
330
1F
100
AcDbEntity
  8
0
  6
Continuous
 62
     7
370
    25
100
AcDbLine
 10
52.5
 20
0.0
 30
0.0
 11
42.5
 21
0.0
 31
0.0
  0
LINE
  5
1F2
330
1F
100
AcDbEntity
  8
0
  6
Continuous
 62
     7
370
    25
100
AcDbLine
 10
42.5
 20
0.0
 30
0.0
 11
42.5
 21
2.75
 31
0.0
  0
LINE
  5
1F3
330
1F
100
AcDbEntity
  8
0
  6
Continuous
 62
     7
370
    25
100
AcDbLine
 10
40.25
 20
5.0
 30
0.0
 11
34.75
 21
5.0
 31
0.0
  0
LINE
  5
1F4
330
1F
100
AcDbEntity
  8
0
  6
Continuous
 62
     7
370
    25
100
AcDbLine
 10
32.5
 20
2.75
 30
0.0
 11
32.5
 21
0.0
 31
0.0
  0
LINE
  5
1F5
330
1F
100
AcDbEntity
  8
0
  6
Continuous
 62
     7
370
    25
100
AcDbLine
 10
32.5
 20
0.0
 30
0.0
 11
22.5
 21
0.0
 31
0.0
  0
LINE
  5
1F6
330
1F
100
AcDbEntity
  8
0
  6
Continuous
 62
     7
370
    25
100
AcDbLine
 10
22.5
 20
0.0
 30
0.0
 11
22.5
 21
2.75
 31
0.0
  0
LINE
  5
1F7
330
1F
100
AcDbEntity
  8
0
  6
Continuous
 62
     7
370
    25
100
AcDbLine
 10
20.25
 20
5.0
 30
0.0
 11
14.75
 21
5.0
 31
0.0
  0
LINE
  5
1F8
330
1F
100
AcDbEntity
  8
0
  6
Continuous
 62
     7
370
    25
100
AcDbLine
 10
12.5
 20
2.75
 30
0.0
 11
12.5
 21
0.0
 31
0.0
  0
LINE
  5
1F9
330
1F
100
AcDbEntity
  8
0
  6
Continuous
 62
     7
370
    25
100
AcDbLine
 10
12.5
 20
0.0
 30
0.0
 11
2.5
 21
0.0
 31
0.0
  0
LINE
  5
1FA
330
1F
100
AcDbEntity
  8
0
  6
Continuous
 62
     7
370
    25
100
AcDbLine
 10
2.5
 20
0.0
 30
0.0
 11
2.5
 21
2.75
 31
0.0
  0
LINE
  5
1FB
330
1F
100
AcDbEntity
  8
0
  6
Continuous
 62
     7
370
    25
100
AcDbLine
 10
0.25
 20
5.0
 30
0.0
 11
-5.25
 21
5.0
 31
0.0
  0
LINE
  5
1FC
330
1F
100
AcDbEntity
  8
0
  6
Continuous
 62
     7
370
    25
100
AcDbLine
 10
-7.5
 20
2.75
 30
0.0
 11
-7.5
 21
0.0
 31
0.0
  0
LINE
  5
1FD
330
1F
100
AcDbEntity
  8
0
  6
Continuous
 62
     7
370
    25
100
AcDbLine
 10
-7.5
 20
0.0
 30
0.0
 11
-17.5
 21
0.0
 31
0.0
  0
LINE
  5
1FE
330
1F
100
AcDbEntity
  8
0
  6
Continuous
 62
     7
370
    25
100
AcDbLine
 10
-17.5
 20
0.0
 30
0.0
 11
-17.5
 21
2.75
 31
0.0
  0
LINE
  5
1FF
330
1F
100
AcDbEntity
  8
0
  6
Continuous
 62
     7
370
    25
100
AcDbLine
 10
-19.75
 20
5.0
 30
0.0
 11
-25.25
 21
5.0
 31
0.0
  0
LINE
  5
200
330
1F
100
AcDbEntity
  8
0
  6
Continuous
 62
     7
370
    25
100
AcDbLine
 10
-27.5
 20
2.75
 30
0.0
 11
-27.5
 21
0.0
 31
0.0
  0
LINE
  5
201
330
1F
100
AcDbEntity
  8
0
  6
Continuous
 62
     7
370
    25
100
AcDbLine
 10
-27.5
 20
0.0
 30
0.0
 11
-37.5
 21
0.0
 31
0.0
  0
LINE
  5
202
330
1F
100
AcDbEntity
  8
0
  6
Continuous
 62
     7
370
    25
100
AcDbLine
 10
-37.5
 20
0.0
 30
0.0
 11
-37.5
 21
2.75
 31
0.0
  0
LINE
  5
203
330
1F
100
AcDbEntity
  8
0
  6
Continuous
 62
     7
370
    25
100
AcDbLine
 10
-39.75
 20
5.0
 30
0.0
 11
-45.25
 21
5.0
 31
0.0
  0
LINE
  5
204
330
1F
100
AcDbEntity
  8
0
  6
Continuous
 62
     7
370
    25
100
AcDbLine
 10
-47.5
 20
2.75
 30
0.0
 11
-47.5
 21
0.0
 31
0.0
  0
LINE
  5
205
330
1F
100
AcDbEntity
  8
0
  6
Continuous
 62
     7
370
    25
100
AcDbLine
 10
-47.5
 20
0.0
 30
0.0
 11
-57.5
 21
0.0
 31
0.0
  0
LINE
  5
206
330
1F
100
AcDbEntity
  8
0
  6
Continuous
 62
     7
370
    25
100
AcDbLine
 10
-57.5
 20
0.0
 30
0.0
 11
-57.5
 21
2.75
 31
0.0
  0
LINE
  5
207
330
1F
100
AcDbEntity
  8
0
  6
Continuous
 62
     7
370
    25
100
AcDbLine
 10
-59.75
 20
5.0
 30
0.0
 11
-65.25
 21
5.0
 31
0.0
  0
LINE
  5
208
330
1F
100
AcDbEntity
  8
0
  6
Continuous
 62
     7
370
    25
100
AcDbLine
 10
-67.5
 20
2.75
 30
0.0
 11
-67.5
 21
0.0
 31
0.0
  0
LINE
  5
209
330
1F
100
AcDbEntity
  8
0
  6
Continuous
 62
     7
370
    25
100
AcDbLine
 10
-77.5
 20
-10.0
 30
0.0
 11
-147.5
 21
-10.0
 31
0.0
  0
LINE
  5
20A
330
1F
100
AcDbEntity
  8
0
  6
Continuous
 62
     7
370
    25
100
AcDbLine
 10
-147.5
 20
-10.0
 30
0.0
 11
-147.5
 21
20.0
 31
0.0
  0
LINE
  5
20B
330
1F
100
AcDbEntity
  8
0
  6
Continuous
 62
     7
370
    25
100
AcDbLine
 10
-147.5
 20
20.0
 30
0.0
 11
-144.75
 21
20.0
 31
0.0
  0
LINE
  5
20C
330
1F
100
AcDbEntity
  8
0
  6
Continuous
 62
     7
370
    25
100
AcDbLine
 10
-142.5
 20
22.25
 30
0.0
 11
-142.5
 21
27.75
 31
0.0
  0
LINE
  5
20D
330
1F
100
AcDbEntity
  8
0
  6
Continuous
 62
     7
370
    25
100
AcDbLine
 10
-144.75
 20
30.0
 30
0.0
 11
-147.5
 21
30.0
 31
0.0
  0
LINE
  5
20E
330
1F
100
AcDbEntity
  8
0
  6
Continuous
 62
     7
370
    25
100
AcDbLine
 10
-147.5
 20
30.0
 30
0.0
 11
-147.5
 21
40.0
 31
0.0
  0
LINE
  5
20F
330
1F
100
AcDbEntity
  8
0
  6
Continuous
 62
     7
370
    25
100
AcDbLine
 10
-147.5
 20
40.0
 30
0.0
 11
-144.75
 21
40.0
 31
0.0
  0
LINE
  5
210
330
1F
100
AcDbEntity
  8
0
  6
Continuous
 62
     7
370
    25
100
AcDbLine
 10
-142.5
 20
42.25
 30
0.0
 11
-142.5
 21
47.75
 31
0.0
  0
LINE
  5
211
330
1F
100
AcDbEntity
  8
0
  6
Continuous
 62
     7
370
    25
100
AcDbLine
 10
-144.75
 20
50.0
 30
0.0
 11
-147.5
 21
50.0
 31
0.0
  0
LINE
  5
212
330
1F
100
AcDbEntity
  8
0
  6
Continuous
 62
     7
370
    25
100
AcDbLine
 10
-147.5
 20
50.0
 30
0.0
 11
-147.5
 21
60.0
 31
0.0
  0
LINE
  5
213
330
1F
100
AcDbEntity
  8
0
  6
Continuous
 62
     7
370
    25
100
AcDbLine
 10
-147.5
 20
60.0
 30
0.0
 11
-144.75
 21
60.0
 31
0.0
  0
LINE
  5
214
330
1F
100
AcDbEntity
  8
0
  6
Continuous
 62
     7
370
    25
100
AcDbLine
 10
-142.5
 20
62.25
 30
0.0
 11
-142.5
 21
67.75
 31
0.0
  0
LINE
  5
215
330
1F
100
AcDbEntity
  8
0
  6
Continuous
 62
     7
370
    25
100
AcDbLine
 10
-144.75
 20
70.0
 30
0.0
 11
-147.5
 21
70.0
 31
0.0
  0
LINE
  5
216
330
1F
100
AcDbEntity
  8
0
  6
Continuous
 62
     7
370
    25
100
AcDbLine
 10
-147.5
 20
70.0
 30
0.0
 11
-147.5
 21
80.0
 31
0.0
  0
LINE
  5
217
330
1F
100
AcDbEntity
  8
0
  6
Continuous
 62
     7
370
    25
100
AcDbLine
 10
-147.5
 20
80.0
 30
0.0
 11
-144.75
 21
80.0
 31
0.0
  0
LINE
  5
218
330
1F
100
AcDbEntity
  8
0
  6
Continuous
 62
     7
370
    25
100
AcDbLine
 10
-142.5
 20
82.25
 30
0.0
 11
-142.5
 21
87.75
 31
0.0
  0
LINE
  5
219
330
1F
100
AcDbEntity
  8
0
  6
Continuous
 62
     7
370
    25
100
AcDbLine
 10
-144.75
 20
90.0
 30
0.0
 11
-147.5
 21
90.0
 31
0.0
  0
LINE
  5
21A
330
1F
100
AcDbEntity
  8
0
  6
Continuous
 62
     7
370
    25
100
AcDbLine
 10
-147.5
 20
90.0
 30
0.0
 11
-147.5
 21
100.0
 31
0.0
  0
LINE
  5
21B
330
1F
100
AcDbEntity
  8
0
  6
Continuous
 62
     7
370
    25
100
AcDbLine
 10
-147.5
 20
100.0
 30
0.0
 11
-144.75
 21
100.0
 31
0.0
  0
LINE
  5
21C
330
1F
100
AcDbEntity
  8
0
  6
Continuous
 62
     7
370
    25
100
AcDbLine
 10
-142.5
 20
102.25
 30
0.0
 11
-142.5
 21
107.75
 31
0.0
  0
LINE
  5
21D
330
1F
100
AcDbEntity
  8
0
  6
Continuous
 62
     7
370
    25
100
AcDbLine
 10
-144.75
 20
110.0
 30
0.0
 11
-147.5
 21
110.0
 31
0.0
  0
LINE
  5
21E
330
1F
100
AcDbEntity
  8
0
  6
Continuous
 62
     7
370
    25
100
AcDbLine
 10
-147.5
 20
110.0
 30
0.0
 11
-147.5
 21
120.0
 31
0.0
  0
LINE
  5
21F
330
1F
100
AcDbEntity
  8
0
  6
Continuous
 62
     7
370
    25
100
AcDbLine
 10
-147.5
 20
120.0
 30
0.0
 11
-144.75
 21
120.0
 31
0.0
  0
LINE
  5
220
330
1F
100
AcDbEntity
  8
0
  6
Continuous
 62
     7
370
    25
100
AcDbLine
 10
-142.5
 20
122.25
 30
0.0
 11
-142.5
 21
127.75
 31
0.0
  0
LINE
  5
221
330
1F
100
AcDbEntity
  8
0
  6
Continuous
 62
     7
370
    25
100
AcDbLine
 10
-144.75
 20
130.0
 30
0.0
 11
-147.5
 21
130.0
 31
0.0
  0
LINE
  5
222
330
1F
100
AcDbEntity
  8
0
  6
Continuous
 62
     7
370
    25
100
AcDbLine
 10
-147.5
 20
130.0
 30
0.0
 11
-147.5
 21
140.0
 31
0.0
  0
LINE
  5
223
330
1F
100
AcDbEntity
  8
0
  6
Continuous
 62
     7
370
    25
100
AcDbLine
 10
-147.5
 20
140.0
 30
0.0
 11
-144.75
 21
140.0
 31
0.0
  0
LINE
  5
224
330
1F
100
AcDbEntity
  8
0
  6
Continuous
 62
     7
370
    25
100
AcDbLine
 10
-142.5
 20
142.25
 30
0.0
 11
-142.5
 21
147.75
 31
0.0
  0
LINE
  5
225
330
1F
100
AcDbEntity
  8
0
  6
Continuous
 62
     7
370
    25
100
AcDbLine
 10
-144.75
 20
150.0
 30
0.0
 11
-147.5
 21
150.0
 31
0.0
  0
LINE
  5
226
330
1F
100
AcDbEntity
  8
0
  6
Continuous
 62
     7
370
    25
100
AcDbLine
 10
-147.5
 20
150.0
 30
0.0
 11
-147.5
 21
160.0
 31
0.0
  0
LINE
  5
227
330
1F
100
AcDbEntity
  8
0
  6
Continuous
 62
     7
370
    25
100
AcDbLine
 10
-147.5
 20
160.0
 30
0.0
 11
-144.75
 21
160.0
 31
0.0
  0
LINE
  5
228
330
1F
100
AcDbEntity
  8
0
  6
Continuous
 62
     7
370
    25
100
AcDbLine
 10
-142.5
 20
162.25
 30
0.0
 11
-142.5
 21
167.75
 31
0.0
  0
LINE
  5
229
330
1F
100
AcDbEntity
  8
0
  6
Continuous
 62
     7
370
    25
100
AcDbLine
 10
-144.75
 20
170.0
 30
0.0
 11
-147.5
 21
170.0
 31
0.0
  0
LINE
  5
22A
330
1F
100
AcDbEntity
  8
0
  6
Continuous
 62
     7
370
    25
100
AcDbLine
 10
-147.5
 20
170.0
 30
0.0
 11
-147.5
 21
180.0
 31
0.0
  0
LINE
  5
22B
330
1F
100
AcDbEntity
  8
0
  6
Continuous
 62
     7
370
    25
100
AcDbLine
 10
-147.5
 20
180.0
 30
0.0
 11
-144.75
 21
180.0
 31
0.0
  0
LINE
  5
22C
330
1F
100
AcDbEntity
  8
0
  6
Continuous
 62
     7
370
    25
100
AcDbLine
 10
-142.5
 20
182.25
 30
0.0
 11
-142.5
 21
195.0
 31
0.0
  0
LINE
  5
22D
330
1F
100
AcDbEntity
  8
0
  6
Continuous
 62
     7
370
    25
100
AcDbLine
 10
-142.5
 20
195.0
 30
0.0
 11
-132.5
 21
195.0
 31
0.0
  0
LINE
  5
22E
330
1F
100
AcDbEntity
  8
0
  6
Continuous
 62
     7
370
    25
100
AcDbLine
 10
-132.5
 20
195.0
 30
0.0
 11
-132.5
 21
192.25
 31
0.0
  0
LINE
  5
22F
330
1F
100
AcDbEntity
  8
0
  6
Continuous
 62
     7
370
    25
100
AcDbLine
 10
-130.25
 20
190.0
 30
0.0
 11
-124.75
 21
190.0
 31
0.0
  0
LINE
  5
230
330
1F
100
AcDbEntity
  8
0
  6
Continuous
 62
     7
370
    25
100
AcDbLine
 10
-122.5
 20
195.0
 30
0.0
 11
-122.5
 21
192.25
 31
0.0
  0
LINE
  5
231
330
1F
100
AcDbEntity
  8
0
  6
Continuous
 62
     7
370
    25
100
AcDbLine
 10
-122.5
 20
195.0
 30
0.0
 11
-112.5
 21
195.0
 31
0.0
  0
LINE
  5
232
330
1F
100
AcDbEntity
  8
0
  6
Continuous
 62
     7
370
    25
100
AcDbLine
 10
-112.5
 20
195.0
 30
0.0
 11
-112.5
 21
192.25
 31
0.0
  0
LINE
  5
233
330
1F
100
AcDbEntity
  8
0
  6
Continuous
 62
     7
370
    25
100
AcDbLine
 10
-110.25
 20
190.0
 30
0.0
 11
-104.75
 21
190.0
 31
0.0
  0
LINE
  5
234
330
1F
100
AcDbEntity
  8
0
  6
Continuous
 62
     7
370
    25
100
AcDbLine
 10
-102.5
 20
195.0
 30
0.0
 11
-102.5
 21
192.25
 31
0.0
  0
LINE
  5
235
330
1F
100
AcDbEntity
  8
0
  6
Continuous
 62
     7
370
    25
100
AcDbLine
 10
-102.5
 20
195.0
 30
0.0
 11
-92.5
 21
195.0
 31
0.0
  0
LINE
  5
236
330
1F
100
AcDbEntity
  8
0
  6
Continuous
 62
     7
370
    25
100
AcDbLine
 10
-92.5
 20
195.0
 30
0.0
 11
-92.5
 21
192.25
 31
0.0
  0
LINE
  5
237
330
1F
100
AcDbEntity
  8
0
  6
Continuous
 62
     7
370
    25
100
AcDbLine
 10
-90.25
 20
190.0
 30
0.0
 11
-84.75
 21
190.0
 31
0.0
  0
LINE
  5
238
330
1F
100
AcDbEntity
  8
0
  6
Continuous
 62
     7
370
    25
100
AcDbLine
 10
-82.5
 20
195.0
 30
0.0
 11
-82.5
 21
192.25
 31
0.0
  0
LINE
  5
239
330
1F
100
AcDbEntity
  8
0
  6
Continuous
 62
     7
370
    25
100
AcDbLine
 10
-82.5
 20
195.0
 30
0.0
 11
-72.5
 21
195.0
 31
0.0
  0
LINE
  5
23A
330
1F
100
AcDbEntity
  8
0
  6
Continuous
 62
     7
370
    25
100
AcDbLine
 10
-72.5
 20
195.0
 30
0.0
 11
-72.5
 21
192.25
 31
0.0
  0
LINE
  5
23B
330
1F
100
AcDbEntity
  8
0
  6
Continuous
 62
     7
370
    25
100
AcDbLine
 10
-70.25
 20
190.0
 30
0.0
 11
-64.75
 21
190.0
 31
0.0
  0
LINE
  5
23C
330
1F
100
AcDbEntity
  8
0
  6
Continuous
 62
     7
370
    25
100
AcDbLine
 10
-62.5
 20
195.0
 30
0.0
 11
-62.5
 21
192.25
 31
0.0
  0
LINE
  5
23D
330
1F
100
AcDbEntity
  8
0
  6
Continuous
 62
     7
370
    25
100
AcDbLine
 10
-62.5
 20
195.0
 30
0.0
 11
-52.5
 21
195.0
 31
0.0
  0
LINE
  5
23E
330
1F
100
AcDbEntity
  8
0
  6
Continuous
 62
     7
370
    25
100
AcDbLine
 10
-52.5
 20
195.0
 30
0.0
 11
-52.5
 21
192.25
 31
0.0
  0
LINE
  5
23F
330
1F
100
AcDbEntity
  8
0
  6
Continuous
 62
     7
370
    25
100
AcDbLine
 10
-50.25
 20
190.0
 30
0.0
 11
-44.75
 21
190.0
 31
0.0
  0
LINE
  5
240
330
1F
100
AcDbEntity
  8
0
  6
Continuous
 62
     7
370
    25
100
AcDbLine
 10
-42.5
 20
195.0
 30
0.0
 11
-42.5
 21
192.25
 31
0.0
  0
LINE
  5
241
330
1F
100
AcDbEntity
  8
0
  6
Continuous
 62
     7
370
    25
100
AcDbLine
 10
-42.5
 20
195.0
 30
0.0
 11
-32.5
 21
195.0
 31
0.0
  0
LINE
  5
242
330
1F
100
AcDbEntity
  8
0
  6
Continuous
 62
     7
370
    25
100
AcDbLine
 10
-32.5
 20
195.0
 30
0.0
 11
-32.5
 21
192.25
 31
0.0
  0
LINE
  5
243
330
1F
100
AcDbEntity
  8
0
  6
Continuous
 62
     7
370
    25
100
AcDbLine
 10
-30.25
 20
190.0
 30
0.0
 11
-24.75
 21
190.0
 31
0.0
  0
LINE
  5
244
330
1F
100
AcDbEntity
  8
0
  6
Continuous
 62
     7
370
    25
100
AcDbLine
 10
-22.5
 20
195.0
 30
0.0
 11
-22.5
 21
192.25
 31
0.0
  0
LINE
  5
245
330
1F
100
AcDbEntity
  8
0
  6
Continuous
 62
     7
370
    25
100
AcDbLine
 10
-22.5
 20
195.0
 30
0.0
 11
-12.5
 21
195.0
 31
0.0
  0
LINE
  5
246
330
1F
100
AcDbEntity
  8
0
  6
Continuous
 62
     7
370
    25
100
AcDbLine
 10
-12.5
 20
195.0
 30
0.0
 11
-12.5
 21
192.25
 31
0.0
  0
LINE
  5
247
330
1F
100
AcDbEntity
  8
0
  6
Continuous
 62
     7
370
    25
100
AcDbLine
 10
-10.25
 20
190.0
 30
0.0
 11
-4.75
 21
190.0
 31
0.0
  0
LINE
  5
248
330
1F
100
AcDbEntity
  8
0
  6
Continuous
 62
     7
370
    25
100
AcDbLine
 10
-2.5
 20
195.0
 30
0.0
 11
-2.5
 21
192.25
 31
0.0
  0
LINE
  5
249
330
1F
100
AcDbEntity
  8
0
  6
Continuous
 62
     7
370
    25
100
AcDbLine
 10
-2.5
 20
195.0
 30
0.0
 11
7.5
 21
195.0
 31
0.0
  0
LINE
  5
24A
330
1F
100
AcDbEntity
  8
0
  6
Continuous
 62
     7
370
    25
100
AcDbLine
 10
7.5
 20
195.0
 30
0.0
 11
7.5
 21
192.25
 31
0.0
  0
LINE
  5
24B
330
1F
100
AcDbEntity
  8
0
  6
Continuous
 62
     7
370
    25
100
AcDbLine
 10
9.75
 20
190.0
 30
0.0
 11
15.25
 21
190.0
 31
0.0
  0
LINE
  5
24C
330
1F
100
AcDbEntity
  8
0
  6
Continuous
 62
     7
370
    25
100
AcDbLine
 10
17.5
 20
195.0
 30
0.0
 11
17.5
 21
192.25
 31
0.0
  0
LINE
  5
24D
330
1F
100
AcDbEntity
  8
0
  6
Continuous
 62
     7
370
    25
100
AcDbLine
 10
17.5
 20
195.0
 30
0.0
 11
27.5
 21
195.0
 31
0.0
  0
LINE
  5
24E
330
1F
100
AcDbEntity
  8
0
  6
Continuous
 62
     7
370
    25
100
AcDbLine
 10
27.5
 20
195.0
 30
0.0
 11
27.5
 21
192.25
 31
0.0
  0
LINE
  5
24F
330
1F
100
AcDbEntity
  8
0
  6
Continuous
 62
     7
370
    25
100
AcDbLine
 10
29.75
 20
190.0
 30
0.0
 11
35.25
 21
190.0
 31
0.0
  0
LINE
  5
250
330
1F
100
AcDbEntity
  8
0
  6
Continuous
 62
     7
370
    25
100
AcDbLine
 10
37.5
 20
195.0
 30
0.0
 11
37.5
 21
192.25
 31
0.0
  0
LINE
  5
251
330
1F
100
AcDbEntity
  8
0
  6
Continuous
 62
     7
370
    25
100
AcDbLine
 10
37.5
 20
195.0
 30
0.0
 11
47.5
 21
195.0
 31
0.0
  0
LINE
  5
252
330
1F
100
AcDbEntity
  8
0
  6
Continuous
 62
     7
370
    25
100
AcDbLine
 10
47.5
 20
195.0
 30
0.0
 11
47.5
 21
192.25
 31
0.0
  0
LINE
  5
253
330
1F
100
AcDbEntity
  8
0
  6
Continuous
 62
     7
370
    25
100
AcDbLine
 10
49.75
 20
190.0
 30
0.0
 11
55.25
 21
190.0
 31
0.0
  0
LINE
  5
254
330
1F
100
AcDbEntity
  8
0
  6
Continuous
 62
     7
370
    25
100
AcDbLine
 10
57.5
 20
195.0
 30
0.0
 11
57.5
 21
192.25
 31
0.0
  0
LINE
  5
255
330
1F
100
AcDbEntity
  8
0
  6
Continuous
 62
     7
370
    25
100
AcDbLine
 10
57.5
 20
195.0
 30
0.0
 11
67.5
 21
195.0
 31
0.0
  0
LINE
  5
256
330
1F
100
AcDbEntity
  8
0
  6
Continuous
 62
     7
370
    25
100
AcDbLine
 10
67.5
 20
195.0
 30
0.0
 11
67.5
 21
192.25
 31
0.0
  0
LINE
  5
257
330
1F
100
AcDbEntity
  8
0
  6
Continuous
 62
     7
370
    25
100
AcDbLine
 10
69.75
 20
190.0
 30
0.0
 11
75.25
 21
190.0
 31
0.0
  0
LINE
  5
258
330
1F
100
AcDbEntity
  8
0
  6
Continuous
 62
     7
370
    25
100
AcDbLine
 10
77.5
 20
195.0
 30
0.0
 11
77.5
 21
192.25
 31
0.0
  0
LINE
  5
259
330
1F
100
AcDbEntity
  8
0
  6
Continuous
 62
     7
370
    25
100
AcDbLine
 10
77.5
 20
195.0
 30
0.0
 11
87.5
 21
195.0
 31
0.0
  0
LINE
  5
25A
330
1F
100
AcDbEntity
  8
0
  6
Continuous
 62
     7
370
    25
100
AcDbLine
 10
87.5
 20
195.0
 30
0.0
 11
87.5
 21
192.25
 31
0.0
  0
LINE
  5
25B
330
1F
100
AcDbEntity
  8
0
  6
Continuous
 62
     7
370
    25
100
AcDbLine
 10
89.75
 20
190.0
 30
0.0
 11
95.25
 21
190.0
 31
0.0
  0
LINE
  5
25C
330
1F
100
AcDbEntity
  8
0
  6
Continuous
 62
     7
370
    25
100
AcDbLine
 10
97.5
 20
195.0
 30
0.0
 11
97.5
 21
192.25
 31
0.0
  0
LINE
  5
25D
330
1F
100
AcDbEntity
  8
0
  6
Continuous
 62
     7
370
    25
100
AcDbLine
 10
97.5
 20
195.0
 30
0.0
 11
107.5
 21
195.0
 31
0.0
  0
LINE
  5
25E
330
1F
100
AcDbEntity
  8
0
  6
Continuous
 62
     7
370
    25
100
AcDbLine
 10
107.5
 20
195.0
 30
0.0
 11
107.5
 21
192.25
 31
0.0
  0
LINE
  5
25F
330
1F
100
AcDbEntity
  8
0
  6
Continuous
 62
     7
370
    25
100
AcDbLine
 10
109.75
 20
190.0
 30
0.0
 11
115.25
 21
190.0
 31
0.0
  0
LINE
  5
260
330
1F
100
AcDbEntity
  8
0
  6
Continuous
 62
     7
370
    25
100
AcDbLine
 10
117.5
 20
195.0
 30
0.0
 11
117.5
 21
192.25
 31
0.0
  0
LINE
  5
261
330
1F
100
AcDbEntity
  8
0
  6
Continuous
 62
     7
370
    25
100
AcDbLine
 10
117.5
 20
195.0
 30
0.0
 11
127.5
 21
195.0
 31
0.0
  0
LINE
  5
262
330
1F
100
AcDbEntity
  8
0
  6
Continuous
 62
     7
370
    25
100
AcDbLine
 10
127.5
 20
195.0
 30
0.0
 11
127.5
 21
192.25
 31
0.0
  0
LINE
  5
263
330
1F
100
AcDbEntity
  8
0
  6
Continuous
 62
     7
370
    25
100
AcDbLine
 10
129.75
 20
190.0
 30
0.0
 11
135.25
 21
190.0
 31
0.0
  0
LINE
  5
264
330
1F
100
AcDbEntity
  8
0
  6
Continuous
 62
     7
370
    25
100
AcDbLine
 10
39.25
 20
20.0
 30
0.0
 11
34.75
 21
20.0
 31
0.0
  0
LINE
  5
265
330
1F
100
AcDbEntity
  8
0
  6
Continuous
 62
     7
370
    25
100
AcDbLine
 10
41.5
 20
28.75
 30
0.0
 11
41.5
 21
22.25
 31
0.0
  0
LINE
  5
266
330
1F
100
AcDbEntity
  8
0
  6
Continuous
 62
     7
370
    25
100
AcDbLine
 10
34.75
 20
31.0
 30
0.0
 11
39.25
 21
31.0
 31
0.0
  0
LINE
  5
267
330
1F
100
AcDbEntity
  8
0
  6
Continuous
 62
     7
370
    25
100
AcDbLine
 10
32.5
 20
22.25
 30
0.0
 11
32.5
 21
28.75
 31
0.0
  0
LINE
  5
268
330
1F
100
AcDbEntity
  8
0
  6
Continuous
 62
     7
370
    25
100
AcDbLine
 10
59.25
 20
20.0
 30
0.0
 11
54.75
 21
20.0
 31
0.0
  0
LINE
  5
269
330
1F
100
AcDbEntity
  8
0
  6
Continuous
 62
     7
370
    25
100
AcDbLine
 10
61.5
 20
28.75
 30
0.0
 11
61.5
 21
22.25
 31
0.0
  0
LINE
  5
26A
330
1F
100
AcDbEntity
  8
0
  6
Continuous
 62
     7
370
    25
100
AcDbLine
 10
54.75
 20
31.0
 30
0.0
 11
59.25
 21
31.0
 31
0.0
  0
LINE
  5
26B
330
1F
100
AcDbEntity
  8
0
  6
Continuous
 62
     7
370
    25
100
AcDbLine
 10
52.5
 20
22.25
 30
0.0
 11
52.5
 21
28.75
 31
0.0
  0
ARC
  5
26C
330
1F
100
AcDbEntity
  8
0
  6
Continuous
 62
     7
370
    25
100
AcDbCircle
 10
122.5
 20
0.0
 30
0.0
 40
2.250000000000002
100
AcDbArc
 50
180.0
 51
90.0
  0
ARC
  5
26D
330
1F
100
AcDbEntity
  8
0
  6
Continuous
 62
     7
370
    25
100
AcDbCircle
 10
122.5
 20
5.0
 30
0.0
 40
2.250000000000001
100
AcDbArc
 50
270.0
 51
180.0
  0
ARC
  5
26E
330
1F
100
AcDbEntity
  8
0
  6
Continuous
 62
     7
370
    25
100
AcDbCircle
 10
112.5
 20
5.0
 30
0.0
 40
2.250000000000014
100
AcDbArc
 50
0.0
 51
270.0
  0
ARC
  5
26F
330
1F
100
AcDbEntity
  8
0
  6
Continuous
 62
     7
370
    25
100
AcDbCircle
 10
112.5
 20
0.0
 30
0.0
 40
2.250000000000014
100
AcDbArc
 50
90.0
 51
0.0
  0
ARC
  5
270
330
1F
100
AcDbEntity
  8
0
  6
Continuous
 62
     7
370
    25
100
AcDbCircle
 10
142.5
 20
5.0
 30
0.0
 40
2.250000000000005
100
AcDbArc
 50
270.0
 51
180.0
  0
ARC
  5
271
330
1F
100
AcDbEntity
  8
0
  6
Continuous
 62
     7
370
    25
100
AcDbCircle
 10
132.5
 20
5.0
 30
0.0
 40
2.25
100
AcDbArc
 50
0.0
 51
270.0
  0
ARC
  5
272
330
1F
100
AcDbEntity
  8
0
  6
Continuous
 62
     7
370
    25
100
AcDbCircle
 10
132.5
 20
0.0
 30
0.0
 40
2.250000000000028
100
AcDbArc
 50
90.0
 51
0.0
  0
ARC
  5
273
330
1F
100
AcDbEntity
  8
0
  6
Continuous
 62
     7
370
    25
100
AcDbCircle
 10
142.5
 20
0.0
 30
0.0
 40
2.250000000000028
100
AcDbArc
 50
180.0
 51
90.0
  0
ARC
  5
274
330
1F
100
AcDbEntity
  8
0
  6
Continuous
 62
     7
370
    25
100
AcDbCircle
 10
92.5
 20
0.0
 30
0.0
 40
2.250000000000014
100
AcDbArc
 50
90.0
 51
0.0
  0
ARC
  5
275
330
1F
100
AcDbEntity
  8
0
  6
Continuous
 62
     7
370
    25
100
AcDbCircle
 10
102.5
 20
0.0
 30
0.0
 40
2.250000000000006
100
AcDbArc
 50
180.0
 51
90.0
  0
ARC
  5
276
330
1F
100
AcDbEntity
  8
0
  6
Continuous
 62
     7
370
    25
100
AcDbCircle
 10
102.5
 20
5.0
 30
0.0
 40
2.250000000000001
100
AcDbArc
 50
270.0
 51
180.0
  0
ARC
  5
277
330
1F
100
AcDbEntity
  8
0
  6
Continuous
 62
     7
370
    25
100
AcDbCircle
 10
92.5
 20
5.0
 30
0.0
 40
2.250000000000018
100
AcDbArc
 50
0.0
 51
270.0
  0
ARC
  5
278
330
1F
100
AcDbEntity
  8
0
  6
Continuous
 62
     7
370
    25
100
AcDbCircle
 10
-117.5
 20
5.0
 30
0.0
 40
2.250000000000014
100
AcDbArc
 50
270.0
 51
180.0
  0
ARC
  5
279
330
1F
100
AcDbEntity
  8
0
  6
Continuous
 62
     7
370
    25
100
AcDbCircle
 10
-127.5
 20
5.0
 30
0.0
 40
2.250000000000014
100
AcDbArc
 50
0.0
 51
270.0
  0
ARC
  5
27A
330
1F
100
AcDbEntity
  8
0
  6
Continuous
 62
     7
370
    25
100
AcDbCircle
 10
-127.5
 20
0.0
 30
0.0
 40
2.250000000000028
100
AcDbArc
 50
90.0
 51
0.0
  0
ARC
  5
27B
330
1F
100
AcDbEntity
  8
0
  6
Continuous
 62
     7
370
    25
100
AcDbCircle
 10
-117.5
 20
0.0
 30
0.0
 40
2.250000000000014
100
AcDbArc
 50
180.0
 51
90.0
  0
ARC
  5
27C
330
1F
100
AcDbEntity
  8
0
  6
Continuous
 62
     7
370
    25
100
AcDbCircle
 10
-107.5
 20
0.0
 30
0.0
 40
2.250000000000014
100
AcDbArc
 50
90.0
 51
0.0
  0
ARC
  5
27D
330
1F
100
AcDbEntity
  8
0
  6
Continuous
 62
     7
370
    25
100
AcDbCircle
 10
-97.5
 20
0.0
 30
0.0
 40
2.250000000000002
100
AcDbArc
 50
180.0
 51
90.0
  0
ARC
  5
27E
330
1F
100
AcDbEntity
  8
0
  6
Continuous
 62
     7
370
    25
100
AcDbCircle
 10
-97.5
 20
5.0
 30
0.0
 40
2.250000000000001
100
AcDbArc
 50
270.0
 51
180.0
  0
ARC
  5
27F
330
1F
100
AcDbEntity
  8
0
  6
Continuous
 62
     7
370
    25
100
AcDbCircle
 10
-107.5
 20
5.0
 30
0.0
 40
2.250000000000018
100
AcDbArc
 50
0.0
 51
270.0
  0
ARC
  5
280
330
1F
100
AcDbEntity
  8
0
  6
Continuous
 62
     7
370
    25
100
AcDbCircle
 10
-87.5
 20
5.0
 30
0.0
 40
2.250000000000028
100
AcDbArc
 50
0.0
 51
270.0
  0
ARC
  5
281
330
1F
100
AcDbEntity
  8
0
  6
Continuous
 62
     7
370
    25
100
AcDbCircle
 10
-87.5
 20
0.0
 30
0.0
 40
2.250000000000028
100
AcDbArc
 50
90.0
 51
0.0
  0
ARC
  5
282
330
1F
100
AcDbEntity
  8
0
  6
Continuous
 62
     7
370
    25
100
AcDbCircle
 10
-77.5
 20
0.0
 30
0.0
 40
2.249999999999986
100
AcDbArc
 50
180.0
 51
90.0
  0
ARC
  5
283
330
1F
100
AcDbEntity
  8
0
  6
Continuous
 62
     7
370
    25
100
AcDbCircle
 10
-77.5
 20
5.0
 30
0.0
 40
2.249999999999987
100
AcDbArc
 50
270.0
 51
180.0
  0
ARC
  5
284
330
1F
100
AcDbEntity
  8
0
  6
Continuous
 62
     7
370
    25
100
AcDbCircle
 10
67.5
 20
-10.0
 30
0.0
 40
9.99999999999993
100
AcDbArc
 50
0.0
 51
53.0409590685
  0
ARC
  5
285
330
1F
100
AcDbEntity
  8
0
  6
Continuous
 62
     7
370
    25
100
AcDbCircle
 10
72.5
 20
0.0
 30
0.0
 40
2.250000000000028
100
AcDbArc
 50
296.7419583374
 51
0.0
  0
ARC
  5
286
330
1F
100
AcDbEntity
  8
0
  6
Continuous
 62
     7
370
    25
100
AcDbCircle
 10
82.5
 20
0.0
 30
0.0
 40
2.250000000000004
100
AcDbArc
 50
180.0
 51
90.0
  0
ARC
  5
287
330
1F
100
AcDbEntity
  8
0
  6
Continuous
 62
     7
370
    25
100
AcDbCircle
 10
82.5
 20
5.0
 30
0.0
 40
2.25
100
AcDbArc
 50
270.0
 51
180.0
  0
ARC
  5
288
330
1F
100
AcDbEntity
  8
0
  6
Continuous
 62
     7
370
    25
100
AcDbCircle
 10
72.5
 20
5.0
 30
0.0
 40
2.250000000000014
100
AcDbArc
 50
0.0
 51
270.0
  0
ARC
  5
289
330
1F
100
AcDbEntity
  8
0
  6
Continuous
 62
     7
370
    25
100
AcDbCircle
 10
72.5
 20
0.0
 30
0.0
 40
2.250000000000025
100
AcDbArc
 50
90.0
 51
190.1279393084
  0
ARC
  5
28A
330
1F
100
AcDbEntity
  8
0
  6
Continuous
 62
     7
370
    25
100
AcDbCircle
 10
67.5
 20
-10.0
 30
0.0
 40
10.00000000000201
100
AcDbArc
 50
73.8289385774
 51
90.0
  0
ARC
  5
28B
330
1F
100
AcDbEntity
  8
0
  6
Continuous
 62
     7
370
    25
100
AcDbCircle
 10
62.5
 20
5.0
 30
0.0
 40
2.249999999999996
100
AcDbArc
 50
270.0
 51
180.0
  0
ARC
  5
28C
330
1F
100
AcDbEntity
  8
0
  6
Continuous
 62
     7
370
    25
100
AcDbCircle
 10
52.5
 20
5.0
 30
0.0
 40
2.250000000000014
100
AcDbArc
 50
0.0
 51
270.0
  0
ARC
  5
28D
330
1F
100
AcDbEntity
  8
0
  6
Continuous
 62
     7
370
    25
100
AcDbCircle
 10
42.5
 20
5.0
 30
0.0
 40
2.25
100
AcDbArc
 50
270.0
 51
180.0
  0
ARC
  5
28E
330
1F
100
AcDbEntity
  8
0
  6
Continuous
 62
     7
370
    25
100
AcDbCircle
 10
32.5
 20
5.0
 30
0.0
 40
2.250000000000014
100
AcDbArc
 50
0.0
 51
270.0
  0
ARC
  5
28F
330
1F
100
AcDbEntity
  8
0
  6
Continuous
 62
     7
370
    25
100
AcDbCircle
 10
22.5
 20
5.0
 30
0.0
 40
2.249999999999995
100
AcDbArc
 50
270.0
 51
180.0
  0
ARC
  5
290
330
1F
100
AcDbEntity
  8
0
  6
Continuous
 62
     7
370
    25
100
AcDbCircle
 10
12.5
 20
5.0
 30
0.0
 40
2.25000000000001
100
AcDbArc
 50
0.0
 51
270.0
  0
ARC
  5
291
330
1F
100
AcDbEntity
  8
0
  6
Continuous
 62
     7
370
    25
100
AcDbCircle
 10
2.5
 20
5.0
 30
0.0
 40
2.249999999999996
100
AcDbArc
 50
270.0
 51
180.0
  0
ARC
  5
292
330
1F
100
AcDbEntity
  8
0
  6
Continuous
 62
     7
370
    25
100
AcDbCircle
 10
-7.5
 20
5.0
 30
0.0
 40
2.250000000000009
100
AcDbArc
 50
0.0
 51
270.0
  0
ARC
  5
293
330
1F
100
AcDbEntity
  8
0
  6
Continuous
 62
     7
370
    25
100
AcDbCircle
 10
-17.5
 20
5.0
 30
0.0
 40
2.249999999999996
100
AcDbArc
 50
270.0
 51
180.0
  0
ARC
  5
294
330
1F
100
AcDbEntity
  8
0
  6
Continuous
 62
     7
370
    25
100
AcDbCircle
 10
-27.5
 20
5.0
 30
0.0
 40
2.250000000000012
100
AcDbArc
 50
0.0
 51
270.0
  0
ARC
  5
295
330
1F
100
AcDbEntity
  8
0
  6
Continuous
 62
     7
370
    25
100
AcDbCircle
 10
-37.5
 20
5.0
 30
0.0
 40
2.25
100
AcDbArc
 50
270.0
 51
180.0
  0
ARC
  5
296
330
1F
100
AcDbEntity
  8
0
  6
Continuous
 62
     7
370
    25
100
AcDbCircle
 10
-47.5
 20
5.0
 30
0.0
 40
2.250000000000008
100
AcDbArc
 50
0.0
 51
270.0
  0
ARC
  5
297
330
1F
100
AcDbEntity
  8
0
  6
Continuous
 62
     7
370
    25
100
AcDbCircle
 10
-57.5
 20
5.0
 30
0.0
 40
2.249999999999993
100
AcDbArc
 50
270.0
 51
180.0
  0
ARC
  5
298
330
1F
100
AcDbEntity
  8
0
  6
Continuous
 62
     7
370
    25
100
AcDbCircle
 10
-67.5
 20
5.0
 30
0.0
 40
2.250000000000017
100
AcDbArc
 50
0.0
 51
270.0
  0
ARC
  5
299
330
1F
100
AcDbEntity
  8
0
  6
Continuous
 62
     7
370
    25
100
AcDbCircle
 10
-67.5
 20
-10.0
 30
0.0
 40
10.0
100
AcDbArc
 50
90.0
 51
180.0
  0
ARC
  5
29A
330
1F
100
AcDbEntity
  8
0
  6
Continuous
 62
     7
370
    25
100
AcDbCircle
 10
-142.5
 20
20.0
 30
0.0
 40
2.250000000000004
100
AcDbArc
 50
180.0
 51
90.0
  0
ARC
  5
29B
330
1F
100
AcDbEntity
  8
0
  6
Continuous
 62
     7
370
    25
100
AcDbCircle
 10
-142.5
 20
30.0
 30
0.0
 40
2.250000000000007
100
AcDbArc
 50
270.0
 51
180.0
  0
ARC
  5
29C
330
1F
100
AcDbEntity
  8
0
  6
Continuous
 62
     7
370
    25
100
AcDbCircle
 10
-142.5
 20
40.0
 30
0.0
 40
2.25
100
AcDbArc
 50
180.0
 51
90.0
  0
ARC
  5
29D
330
1F
100
AcDbEntity
  8
0
  6
Continuous
 62
     7
370
    25
100
AcDbCircle
 10
-142.5
 20
50.0
 30
0.0
 40
2.250000000000007
100
AcDbArc
 50
270.0
 51
180.0
  0
ARC
  5
29E
330
1F
100
AcDbEntity
  8
0
  6
Continuous
 62
     7
370
    25
100
AcDbCircle
 10
-142.5
 20
60.0
 30
0.0
 40
2.250000000000007
100
AcDbArc
 50
180.0
 51
90.0
  0
ARC
  5
29F
330
1F
100
AcDbEntity
  8
0
  6
Continuous
 62
     7
370
    25
100
AcDbCircle
 10
-142.5
 20
70.0
 30
0.0
 40
2.250000000000014
100
AcDbArc
 50
270.0
 51
180.0
  0
ARC
  5
2A0
330
1F
100
AcDbEntity
  8
0
  6
Continuous
 62
     7
370
    25
100
AcDbCircle
 10
-142.5
 20
80.0
 30
0.0
 40
2.25
100
AcDbArc
 50
180.0
 51
90.0
  0
ARC
  5
2A1
330
1F
100
AcDbEntity
  8
0
  6
Continuous
 62
     7
370
    25
100
AcDbCircle
 10
-142.5
 20
90.0
 30
0.0
 40
2.250000000000014
100
AcDbArc
 50
270.0
 51
180.0
  0
ARC
  5
2A2
330
1F
100
AcDbEntity
  8
0
  6
Continuous
 62
     7
370
    25
100
AcDbCircle
 10
-142.5
 20
100.0
 30
0.0
 40
2.250000000000014
100
AcDbArc
 50
180.0
 51
90.0
  0
ARC
  5
2A3
330
1F
100
AcDbEntity
  8
0
  6
Continuous
 62
     7
370
    25
100
AcDbCircle
 10
-142.5
 20
110.0
 30
0.0
 40
2.250000000000014
100
AcDbArc
 50
270.0
 51
180.0
  0
ARC
  5
2A4
330
1F
100
AcDbEntity
  8
0
  6
Continuous
 62
     7
370
    25
100
AcDbCircle
 10
-142.5
 20
120.0
 30
0.0
 40
2.25
100
AcDbArc
 50
180.0
 51
90.0
  0
ARC
  5
2A5
330
1F
100
AcDbEntity
  8
0
  6
Continuous
 62
     7
370
    25
100
AcDbCircle
 10
-142.5
 20
130.0
 30
0.0
 40
2.25
100
AcDbArc
 50
270.0
 51
180.0
  0
ARC
  5
2A6
330
1F
100
AcDbEntity
  8
0
  6
Continuous
 62
     7
370
    25
100
AcDbCircle
 10
-142.5
 20
140.0
 30
0.0
 40
2.250000000000057
100
AcDbArc
 50
180.0
 51
90.0
  0
ARC
  5
2A7
330
1F
100
AcDbEntity
  8
0
  6
Continuous
 62
     7
370
    25
100
AcDbCircle
 10
-142.5
 20
150.0
 30
0.0
 40
2.25
100
AcDbArc
 50
270.0
 51
180.0
  0
ARC
  5
2A8
330
1F
100
AcDbEntity
  8
0
  6
Continuous
 62
     7
370
    25
100
AcDbCircle
 10
-142.5
 20
160.0
 30
0.0
 40
2.250000000000057
100
AcDbArc
 50
180.0
 51
90.0
  0
ARC
  5
2A9
330
1F
100
AcDbEntity
  8
0
  6
Continuous
 62
     7
370
    25
100
AcDbCircle
 10
-142.5
 20
170.0
 30
0.0
 40
2.25
100
AcDbArc
 50
270.0
 51
180.0
  0
ARC
  5
2AA
330
1F
100
AcDbEntity
  8
0
  6
Continuous
 62
     7
370
    25
100
AcDbCircle
 10
-142.5
 20
180.0
 30
0.0
 40
2.25
100
AcDbArc
 50
180.0
 51
90.0
  0
ARC
  5
2AB
330
1F
100
AcDbEntity
  8
0
  6
Continuous
 62
     7
370
    25
100
AcDbCircle
 10
-132.5
 20
190.0
 30
0.0
 40
2.250000000000057
100
AcDbArc
 50
90.0
 51
0.0
  0
ARC
  5
2AC
330
1F
100
AcDbEntity
  8
0
  6
Continuous
 62
     7
370
    25
100
AcDbCircle
 10
-122.5
 20
190.0
 30
0.0
 40
2.25
100
AcDbArc
 50
180.0
 51
90.0
  0
ARC
  5
2AD
330
1F
100
AcDbEntity
  8
0
  6
Continuous
 62
     7
370
    25
100
AcDbCircle
 10
-112.5
 20
190.0
 30
0.0
 40
2.250000000000028
100
AcDbArc
 50
90.0
 51
0.0
  0
ARC
  5
2AE
330
1F
100
AcDbEntity
  8
0
  6
Continuous
 62
     7
370
    25
100
AcDbCircle
 10
-102.5
 20
190.0
 30
0.0
 40
2.250000000000028
100
AcDbArc
 50
180.0
 51
90.0
  0
ARC
  5
2AF
330
1F
100
AcDbEntity
  8
0
  6
Continuous
 62
     7
370
    25
100
AcDbCircle
 10
-92.5
 20
190.0
 30
0.0
 40
2.25
100
AcDbArc
 50
90.0
 51
0.0
  0
ARC
  5
2B0
330
1F
100
AcDbEntity
  8
0
  6
Continuous
 62
     7
370
    25
100
AcDbCircle
 10
-82.5
 20
190.0
 30
0.0
 40
2.250000000000028
100
AcDbArc
 50
180.0
 51
90.0
  0
ARC
  5
2B1
330
1F
100
AcDbEntity
  8
0
  6
Continuous
 62
     7
370
    25
100
AcDbCircle
 10
-72.5
 20
190.0
 30
0.0
 40
2.250000000000028
100
AcDbArc
 50
90.0
 51
0.0
  0
ARC
  5
2B2
330
1F
100
AcDbEntity
  8
0
  6
Continuous
 62
     7
370
    25
100
AcDbCircle
 10
-62.5
 20
190.0
 30
0.0
 40
2.25
100
AcDbArc
 50
180.0
 51
90.0
  0
ARC
  5
2B3
330
1F
100
AcDbEntity
  8
0
  6
Continuous
 62
     7
370
    25
100
AcDbCircle
 10
-52.5
 20
190.0
 30
0.0
 40
2.250000000000028
100
AcDbArc
 50
90.0
 51
0.0
  0
ARC
  5
2B4
330
1F
100
AcDbEntity
  8
0
  6
Continuous
 62
     7
370
    25
100
AcDbCircle
 10
-42.5
 20
190.0
 30
0.0
 40
2.250000000000028
100
AcDbArc
 50
180.0
 51
90.0
  0
ARC
  5
2B5
330
1F
100
AcDbEntity
  8
0
  6
Continuous
 62
     7
370
    25
100
AcDbCircle
 10
-32.5
 20
190.0
 30
0.0
 40
2.250000000000011
100
AcDbArc
 50
90.0
 51
0.0
  0
ARC
  5
2B6
330
1F
100
AcDbEntity
  8
0
  6
Continuous
 62
     7
370
    25
100
AcDbCircle
 10
-22.5
 20
190.0
 30
0.0
 40
2.250000000000011
100
AcDbArc
 50
180.0
 51
90.0
  0
ARC
  5
2B7
330
1F
100
AcDbEntity
  8
0
  6
Continuous
 62
     7
370
    25
100
AcDbCircle
 10
-12.5
 20
190.0
 30
0.0
 40
2.250000000000028
100
AcDbArc
 50
90.0
 51
0.0
  0
ARC
  5
2B8
330
1F
100
AcDbEntity
  8
0
  6
Continuous
 62
     7
370
    25
100
AcDbCircle
 10
-2.5
 20
190.0
 30
0.0
 40
2.250000000000006
100
AcDbArc
 50
180.0
 51
90.0
  0
ARC
  5
2B9
330
1F
100
AcDbEntity
  8
0
  6
Continuous
 62
     7
370
    25
100
AcDbCircle
 10
7.5
 20
190.0
 30
0.0
 40
2.250000000000008
100
AcDbArc
 50
90.0
 51
0.0
  0
ARC
  5
2BA
330
1F
100
AcDbEntity
  8
0
  6
Continuous
 62
     7
370
    25
100
AcDbCircle
 10
17.5
 20
190.0
 30
0.0
 40
2.250000000000007
100
AcDbArc
 50
180.0
 51
90.0
  0
ARC
  5
2BB
330
1F
100
AcDbEntity
  8
0
  6
Continuous
 62
     7
370
    25
100
AcDbCircle
 10
27.5
 20
190.0
 30
0.0
 40
2.250000000000004
100
AcDbArc
 50
90.0
 51
0.0
  0
ARC
  5
2BC
330
1F
100
AcDbEntity
  8
0
  6
Continuous
 62
     7
370
    25
100
AcDbCircle
 10
37.5
 20
190.0
 30
0.0
 40
2.250000000000007
100
AcDbArc
 50
180.0
 51
90.0
  0
ARC
  5
2BD
330
1F
100
AcDbEntity
  8
0
  6
Continuous
 62
     7
370
    25
100
AcDbCircle
 10
47.5
 20
190.0
 30
0.0
 40
2.250000000000014
100
AcDbArc
 50
90.0
 51
0.0
  0
ARC
  5
2BE
330
1F
100
AcDbEntity
  8
0
  6
Continuous
 62
     7
370
    25
100
AcDbCircle
 10
57.5
 20
190.0
 30
0.0
 40
2.25
100
AcDbArc
 50
180.0
 51
90.0
  0
ARC
  5
2BF
330
1F
100
AcDbEntity
  8
0
  6
Continuous
 62
     7
370
    25
100
AcDbCircle
 10
67.5
 20
190.0
 30
0.0
 40
2.250000000000028
100
AcDbArc
 50
90.0
 51
0.0
  0
ARC
  5
2C0
330
1F
100
AcDbEntity
  8
0
  6
Continuous
 62
     7
370
    25
100
AcDbCircle
 10
77.5
 20
190.0
 30
0.0
 40
2.25
100
AcDbArc
 50
180.0
 51
90.0
  0
ARC
  5
2C1
330
1F
100
AcDbEntity
  8
0
  6
Continuous
 62
     7
370
    25
100
AcDbCircle
 10
87.5
 20
190.0
 30
0.0
 40
2.250000000000028
100
AcDbArc
 50
90.0
 51
0.0
  0
ARC
  5
2C2
330
1F
100
AcDbEntity
  8
0
  6
Continuous
 62
     7
370
    25
100
AcDbCircle
 10
97.5
 20
190.0
 30
0.0
 40
2.25
100
AcDbArc
 50
180.0
 51
90.0
  0
ARC
  5
2C3
330
1F
100
AcDbEntity
  8
0
  6
Continuous
 62
     7
370
    25
100
AcDbCircle
 10
107.5
 20
190.0
 30
0.0
 40
2.25
100
AcDbArc
 50
90.0
 51
0.0
  0
ARC
  5
2C4
330
1F
100
AcDbEntity
  8
0
  6
Continuous
 62
     7
370
    25
100
AcDbCircle
 10
117.5
 20
190.0
 30
0.0
 40
2.250000000000014
100
AcDbArc
 50
180.0
 51
90.0
  0
ARC
  5
2C5
330
1F
100
AcDbEntity
  8
0
  6
Continuous
 62
     7
370
    25
100
AcDbCircle
 10
127.5
 20
190.0
 30
0.0
 40
2.250000000000028
100
AcDbArc
 50
90.0
 51
0.0
  0
ARC
  5
2C6
330
1F
100
AcDbEntity
  8
0
  6
Continuous
 62
     7
370
    25
100
AcDbCircle
 10
137.5
 20
190.0
 30
0.0
 40
2.25
100
AcDbArc
 50
180.0
 51
90.0
  0
ARC
  5
2C7
330
1F
100
AcDbEntity
  8
0
  6
Continuous
 62
     7
370
    25
100
AcDbCircle
 10
41.5
 20
20.0
 30
0.0
 40
2.249999999999989
100
AcDbArc
 50
180.0
 51
90.0
  0
ARC
  5
2C8
330
1F
100
AcDbEntity
  8
0
  6
Continuous
 62
     7
370
    25
100
AcDbCircle
 10
41.5
 20
31.0
 30
0.0
 40
2.249999999999943
100
AcDbArc
 50
270.0
 51
180.0
  0
ARC
  5
2C9
330
1F
100
AcDbEntity
  8
0
  6
Continuous
 62
     7
370
    25
100
AcDbCircle
 10
32.5
 20
31.0
 30
0.0
 40
2.250000000000007
100
AcDbArc
 50
0.0
 51
270.0
  0
ARC
  5
2CA
330
1F
100
AcDbEntity
  8
0
  6
Continuous
 62
     7
370
    25
100
AcDbCircle
 10
32.5
 20
20.0
 30
0.0
 40
2.250000000000053
100
AcDbArc
 50
90.0
 51
0.0
  0
ARC
  5
2CB
330
1F
100
AcDbEntity
  8
0
  6
Continuous
 62
     7
370
    25
100
AcDbCircle
 10
61.5
 20
20.0
 30
0.0
 40
2.249999999999996
100
AcDbArc
 50
180.0
 51
90.0
  0
ARC
  5
2CC
330
1F
100
AcDbEntity
  8
0
  6
Continuous
 62
     7
370
    25
100
AcDbCircle
 10
61.5
 20
31.0
 30
0.0
 40
2.249999999999943
100
AcDbArc
 50
270.0
 51
180.0
  0
ARC
  5
2CD
330
1F
100
AcDbEntity
  8
0
  6
Continuous
 62
     7
370
    25
100
AcDbCircle
 10
52.5
 20
31.0
 30
0.0
 40
2.250000000000004
100
AcDbArc
 50
0.0
 51
270.0
  0
ARC
  5
2CE
330
1F
100
AcDbEntity
  8
0
  6
Continuous
 62
     7
370
    25
100
AcDbCircle
 10
52.5
 20
20.0
 30
0.0
 40
2.250000000000068
100
AcDbArc
 50
90.0
 51
0.0
  0
MTEXT
  5
2D0
330
1F
100
AcDbEntity
  8
0
  6
Continuous
 62
     7
100
AcDbMText
 10
-147.5
 20
-11.0195663917
 30
0.0
 40
4.83362
 41
0.0
 71
     1
 72
     1
  1
Produit d'ducation SOLIDWORKS  A titre ducatif uniquement.
  7
SLDTEXTSTYLE0
 73
     1
 44
1.0
  0
ENDSEC
  0
SECTION
  2
OBJECTS
  0
DICTIONARY
  5
C
330
0
100
AcDbDictionary
281
     1
  3
ACAD_GROUP
350
D
  3
ACAD_LAYOUT
350
1A
  3
ACAD_MLINESTYLE
350
17
  3
ACAD_PLOTSETTINGS
350
19
  3
ACAD_PLOTSTYLENAME
350
E
  3
ACAD_SCALELIST
350
47
  3
DWGPROPS
350
2D1
  0
DICTIONARY
  5
D
102
{ACAD_REACTORS
330
C
102
}
330
C
100
AcDbDictionary
281
     1
  0
DICTIONARY
  5
1A
102
{ACAD_REACTORS
330
C
102
}
330
C
100
AcDbDictionary
281
     1
  3
Layout1
350
1E
  3
Layout2
350
26
  3
Model
350
22
  0
DICTIONARY
  5
17
102
{ACAD_REACTORS
330
C
102
}
330
C
100
AcDbDictionary
281
     1
  3
Standard
350
18
  0
DICTIONARY
  5
19
102
{ACAD_REACTORS
330
C
102
}
330
C
100
AcDbDictionary
281
     1
  0
ACDBDICTIONARYWDFLT
  5
E
102
{ACAD_REACTORS
330
C
102
}
330
C
100
AcDbDictionary
281
     1
  3
Normal
350
F
100
AcDbDictionaryWithDefault
340
F
  0
DICTIONARY
  5
47
102
{ACAD_REACTORS
330
C
102
}
330
C
100
AcDbDictionary
281
     1
  3
A0
350
48
  3
A1
350
49
  3
A2
350
4A
  3
A3
350
4B
  3
A4
350
4C
  3
A5
350
4D
  3
A6
350
4E
  3
A7
350
4F
  3
A8
350
50
  3
A9
350
51
  3
B0
350
52
  3
B1
350
53
  3
B2
350
54
  3
B3
350
55
  3
B4
350
56
  3
B5
350
57
  3
B6
350
58
  0
XRECORD
  5
2D1
102
{ACAD_REACTORS
330
C
102
}
330
C
100
AcDbXrecord
280
     1
  1
DWGPROPS COOKIE
  2

  3

  4

  6

  7

  8
liang
  9

300
=
301
=
302
=
303
=
304
=
305
=
306
=
307
=
308
=
309
=
 40
0.0
 41
2459968.558525926
 42
2459968.558555278
  1

 90
        0
  0
LAYOUT
  5
1E
102
{ACAD_REACTORS
330
1A
102
}
330
1A
100
AcDbPlotSettings
  1

  2
none_device
  4

  6

 40
0.0
 41
0.0
 42
0.0
 43
0.0
 44
0.0
 45
0.0
 46
0.0
 47
0.0
 48
0.0
 49
0.0
140
0.0
141
0.0
142
1.0
143
1.0
 70
   688
 72
     1
 73
     0
 74
     5
  7

 75
    16
147
1.0
148
0.0
149
0.0
100
AcDbLayout
  1
Layout1
 70
     1
 71
     1
 10
0.0
 20
0.0
 11
420.0
 21
297.0
 12
0.0
 22
0.0
 32
0.0
 14
1.0000000000E+20
 24
1.0000000000E+20
 34
1.0000000000E+20
 15
-1.0000000000E+20
 25
-1.0000000000E+20
 35
-1.0000000000E+20
146
0.0
 13
0.0
 23
0.0
 33
0.0
 16
1.0
 26
0.0
 36
0.0
 17
0.0
 27
1.0
 37
0.0
 76
     0
330
1B
  0
LAYOUT
  5
26
102
{ACAD_REACTORS
330
1A
102
}
330
1A
100
AcDbPlotSettings
  1

  2
none_device
  4

  6

 40
0.0
 41
0.0
 42
0.0
 43
0.0
 44
0.0
 45
0.0
 46
0.0
 47
0.0
 48
0.0
 49
0.0
140
0.0
141
0.0
142
1.0
143
1.0
 70
   688
 72
     1
 73
     0
 74
     5
  7

 75
    16
147
1.0
148
0.0
149
0.0
100
AcDbLayout
  1
Layout2
 70
     1
 71
     2
 10
0.0
 20
0.0
 11
0.0
 21
0.0
 12
0.0
 22
0.0
 32
0.0
 14
0.0
 24
0.0
 34
0.0
 15
0.0
 25
0.0
 35
0.0
146
0.0
 13
0.0
 23
0.0
 33
0.0
 16
1.0
 26
0.0
 36
0.0
 17
0.0
 27
1.0
 37
0.0
 76
     0
330
23
  0
LAYOUT
  5
22
102
{ACAD_REACTORS
330
1A
102
}
330
1A
100
AcDbPlotSettings
  1

  2
none_device
  4
ANSI_A_(11.00_x_8.50_Inches)
  6

 40
6.35
 41
19.05
 42
6.35000508
 43
19.05000254
 44
279.4
 45
215.9
 46
133.34999746
 47
2.1676088995
 48
0.0
 49
0.0
140
0.0
141
0.0
142
0.0369152542
143
1.0
 70
  1696
 72
     0
 73
     0
 74
     0
  7

 75
     0
147
0.0179189148
148
-1300.4909072572
149
0.0
100
AcDbLayout
  1
Model
 70
     1
 71
     0
 10
0.0
 20
0.0
 11
420.0
 21
297.0
 12
0.0
 22
0.0
 32
0.0
 14
-147.5
 24
-10.0
 34
0.0
 15
147.5
 25
195.0
 35
0.0
146
0.0
 13
0.0
 23
0.0
 33
0.0
 16
1.0
 26
0.0
 36
0.0
 17
0.0
 27
1.0
 37
0.0
 76
     0
330
1F
331
29
  0
MLINESTYLE
  5
18
102
{ACAD_REACTORS
330
17
102
}
330
17
100
AcDbMlineStyle
  2
Standard
 70
     0
  3

 62
   256
 51
90.0
 52
90.0
 71
     2
 49
0.5
 62
   256
  6
BYLAYER
 49
-0.5
 62
   256
  6
BYLAYER
  0
ACDBPLACEHOLDER
  5
F
102
{ACAD_REACTORS
330
E
102
}
330
E
  0
SCALE
  5
48
102
{ACAD_REACTORS
330
47
102
}
330
47
100
AcDbScale
 70
     0
300
1:1
140
1.0
141
1.0
290
     1
  0
SCALE
  5
49
102
{ACAD_REACTORS
330
47
102
}
330
47
100
AcDbScale
 70
     0
300
1:2
140
1.0
141
2.0
290
     0
  0
SCALE
  5
4A
102
{ACAD_REACTORS
330
47
102
}
330
47
100
AcDbScale
 70
     0
300
1:4
140
1.0
141
4.0
290
     0
  0
SCALE
  5
4B
102
{ACAD_REACTORS
330
47
102
}
330
47
100
AcDbScale
 70
     0
300
1:5
140
1.0
141
5.0
290
     0
  0
SCALE
  5
4C
102
{ACAD_REACTORS
330
47
102
}
330
47
100
AcDbScale
 70
     0
300
1:8
140
1.0
141
8.0
290
     0
  0
SCALE
  5
4D
102
{ACAD_REACTORS
330
47
102
}
330
47
100
AcDbScale
 70
     0
300
1:10
140
1.0
141
10.0
290
     0
  0
SCALE
  5
4E
102
{ACAD_REACTORS
330
47
102
}
330
47
100
AcDbScale
 70
     0
300
1:16
140
1.0
141
16.0
290
     0
  0
SCALE
  5
4F
102
{ACAD_REACTORS
330
47
102
}
330
47
100
AcDbScale
 70
     0
300
1:20
140
1.0
141
20.0
290
     0
  0
SCALE
  5
50
102
{ACAD_REACTORS
330
47
102
}
330
47
100
AcDbScale
 70
     0
300
1:30
140
1.0
141
30.0
290
     0
  0
SCALE
  5
51
102
{ACAD_REACTORS
330
47
102
}
330
47
100
AcDbScale
 70
     0
300
1:40
140
1.0
141
40.0
290
     0
  0
SCALE
  5
52
102
{ACAD_REACTORS
330
47
102
}
330
47
100
AcDbScale
 70
     0
300
1:50
140
1.0
141
50.0
290
     0
  0
SCALE
  5
53
102
{ACAD_REACTORS
330
47
102
}
330
47
100
AcDbScale
 70
     0
300
1:100
140
1.0
141
100.0
290
     0
  0
SCALE
  5
54
102
{ACAD_REACTORS
330
47
102
}
330
47
100
AcDbScale
 70
     0
300
2:1
140
2.0
141
1.0
290
     0
  0
SCALE
  5
55
102
{ACAD_REACTORS
330
47
102
}
330
47
100
AcDbScale
 70
     0
300
4:1
140
4.0
141
1.0
290
     0
  0
SCALE
  5
56
102
{ACAD_REACTORS
330
47
102
}
330
47
100
AcDbScale
 70
     0
300
8:1
140
8.0
141
1.0
290
     0
  0
SCALE
  5
57
102
{ACAD_REACTORS
330
47
102
}
330
47
100
AcDbScale
 70
     0
300
10:1
140
10.0
141
1.0
290
     0
  0
SCALE
  5
58
102
{ACAD_REACTORS
330
47
102
}
330
47
100
AcDbScale
 70
     0
300
100:1
140
100.0
141
1.0
290
     0
  0
ENDSEC
  0
EOF
