  0
SECTION
  2
HEADER
  9
$ACADVER
  1
AC1015
  9
$ACADMAINTVER
 70
     6
  9
$DWGCODEPAGE
  3
ANSI_1252
  9
$INSBASE
 10
0.0
 20
0.0
 30
0.0
  9
$EXTMIN
 10
-65.0
 20
-100.0
 30
0.0
  9
$EXTMAX
 10
65.0
 20
100.0
 30
0.0
  9
$LIMMIN
 10
0.0
 20
0.0
  9
$LIMMAX
 10
420.0
 20
297.0
  9
$ORTHOMODE
 70
     0
  9
$REGENMODE
 70
     1
  9
$FILLMODE
 70
     1
  9
$QTEXTMODE
 70
     0
  9
$MIRRTEXT
 70
     1
  9
$LTSCALE
 40
1.0
  9
$ATTMODE
 70
     1
  9
$TEXTSIZE
 40
3.5
  9
$TRACEWID
 40
1.0
  9
$TEXTSTYLE
  7
Standard
  9
$CLAYER
  8
0
  9
$CELTYPE
  6
ByLayer
  9
$CECOLOR
 62
   256
  9
$CELTSCALE
 40
1.0
  9
$DISPSILH
 70
     0
  9
$DIMSCALE
 40
1.0
  9
$DIMASZ
 40
3.302
  9
$DIMEXO
 40
0.0
  9
$DIMDLI
 40
3.75
  9
$DIMRND
 40
0.0
  9
$DIMDLE
 40
0.0
  9
$DIMEXE
 40
1.0
  9
$DIMTP
 40
0.0
  9
$DIMTM
 40
0.0
  9
$DIMTXT
 40
3.5
  9
$DIMCEN
 40
2.5
  9
$DIMTSZ
 40
0.0
  9
$DIMTOL
 70
     0
  9
$DIMLIM
 70
     0
  9
$DIMTIH
 70
     1
  9
$DIMTOH
 70
     1
  9
$DIMSE1
 70
     0
  9
$DIMSE2
 70
     0
  9
$DIMTAD
 70
     1
  9
$DIMZIN
 70
     1
  9
$DIMBLK
  1

  9
$DIMASO
 70
     1
  9
$DIMSHO
 70
     1
  9
$DIMPOST
  1

  9
$DIMAPOST
  1

  9
$DIMALT
 70
     0
  9
$DIMALTD
 70
     3
  9
$DIMALTF
 40
0.0393700787
  9
$DIMLFAC
 40
1.0
  9
$DIMTOFL
 70
     1
  9
$DIMTVP
 40
0.0
  9
$DIMTIX
 70
     0
  9
$DIMSOXD
 70
     0
  9
$DIMSAH
 70
     0
  9
$DIMBLK1
  1

  9
$DIMBLK2
  1

  9
$DIMSTYLE
  2
ISO-25
  9
$DIMCLRD
 70
     0
  9
$DIMCLRE
 70
     0
  9
$DIMCLRT
 70
     0
  9
$DIMTFAC
 40
1.0
  9
$DIMGAP
 40
1.524
  9
$DIMJUST
 70
     0
  9
$DIMSD1
 70
     0
  9
$DIMSD2
 70
     0
  9
$DIMTOLJ
 70
     0
  9
$DIMTZIN
 70
     1
  9
$DIMALTZ
 70
     0
  9
$DIMALTTZ
 70
     0
  9
$DIMUPT
 70
     0
  9
$DIMDEC
 70
     2
  9
$DIMTDEC
 70
     2
  9
$DIMALTU
 70
     2
  9
$DIMALTTD
 70
     3
  9
$DIMTXSTY
  7
Standard
  9
$DIMAUNIT
 70
     0
  9
$DIMADEC
 70
     2
  9
$DIMALTRND
 40
0.0
  9
$DIMAZIN
 70
     0
  9
$DIMDSEP
 70
    44
  9
$DIMATFIT
 70
     3
  9
$DIMFRAC
 70
     0
  9
$DIMLDRBLK
  1

  9
$DIMLUNIT
 70
     2
  9
$DIMLWD
 70
    -2
  9
$DIMLWE
 70
    -2
  9
$DIMTMOVE
 70
     0
  9
$LUNITS
 70
     2
  9
$LUPREC
 70
     2
  9
$SKETCHINC
 40
1.0
  9
$FILLETRAD
 40
0.0
  9
$AUNITS
 70
     0
  9
$AUPREC
 70
     2
  9
$MENU
  1
.
  9
$ELEVATION
 40
0.0
  9
$PELEVATION
 40
0.0
  9
$THICKNESS
 40
0.0
  9
$LIMCHECK
 70
     0
  9
$CHAMFERA
 40
0.0
  9
$CHAMFERB
 40
0.0
  9
$CHAMFERC
 40
0.0
  9
$CHAMFERD
 40
0.0
  9
$SKPOLY
 70
     0
  9
$TDCREATE
 40
2459968.617550463
  9
$TDUCREATE
 40
2459968.575883796
  9
$TDUPDATE
 40
2459968.617579352
  9
$TDUUPDATE
 40
2459968.575912685
  9
$TDINDWG
 40
0.0000000116
  9
$TDUSRTIMER
 40
0.0000000116
  9
$USRTIMER
 70
     1
  9
$ANGBASE
 50
0.0
  9
$ANGDIR
 70
     0
  9
$PDMODE
 70
     0
  9
$PDSIZE
 40
-1.0
  9
$PLINEWID
 40
0.0
  9
$SPLFRAME
 70
     0
  9
$SPLINETYPE
 70
     6
  9
$SPLINESEGS
 70
     8
  9
$HANDSEED
  5
237
  9
$SURFTAB1
 70
     6
  9
$SURFTAB2
 70
     6
  9
$SURFTYPE
 70
     6
  9
$SURFU
 70
     6
  9
$SURFV
 70
     6
  9
$UCSBASE
  2

  9
$UCSNAME
  2

  9
$UCSORG
 10
0.0
 20
0.0
 30
0.0
  9
$UCSXDIR
 10
1.0
 20
0.0
 30
0.0
  9
$UCSYDIR
 10
0.0
 20
1.0
 30
0.0
  9
$UCSORTHOREF
  2

  9
$UCSORTHOVIEW
 70
     0
  9
$UCSORGTOP
 10
0.0
 20
0.0
 30
0.0
  9
$UCSORGBOTTOM
 10
0.0
 20
0.0
 30
0.0
  9
$UCSORGLEFT
 10
0.0
 20
0.0
 30
0.0
  9
$UCSORGRIGHT
 10
0.0
 20
0.0
 30
0.0
  9
$UCSORGFRONT
 10
0.0
 20
0.0
 30
0.0
  9
$UCSORGBACK
 10
0.0
 20
0.0
 30
0.0
  9
$PUCSBASE
  2

  9
$PUCSNAME
  2

  9
$PUCSORG
 10
0.0
 20
0.0
 30
0.0
  9
$PUCSXDIR
 10
1.0
 20
0.0
 30
0.0
  9
$PUCSYDIR
 10
0.0
 20
1.0
 30
0.0
  9
$PUCSORTHOREF
  2

  9
$PUCSORTHOVIEW
 70
     0
  9
$PUCSORGTOP
 10
0.0
 20
0.0
 30
0.0
  9
$PUCSORGBOTTOM
 10
0.0
 20
0.0
 30
0.0
  9
$PUCSORGLEFT
 10
0.0
 20
0.0
 30
0.0
  9
$PUCSORGRIGHT
 10
0.0
 20
0.0
 30
0.0
  9
$PUCSORGFRONT
 10
0.0
 20
0.0
 30
0.0
  9
$PUCSORGBACK
 10
0.0
 20
0.0
 30
0.0
  9
$USERI1
 70
     0
  9
$USERI2
 70
     0
  9
$USERI3
 70
     0
  9
$USERI4
 70
     0
  9
$USERI5
 70
     0
  9
$USERR1
 40
0.0
  9
$USERR2
 40
0.0
  9
$USERR3
 40
0.0
  9
$USERR4
 40
0.0
  9
$USERR5
 40
0.0
  9
$WORLDVIEW
 70
     1
  9
$SHADEDGE
 70
     3
  9
$SHADEDIF
 70
    70
  9
$TILEMODE
 70
     1
  9
$MAXACTVP
 70
    64
  9
$PINSBASE
 10
0.0
 20
0.0
 30
0.0
  9
$PLIMCHECK
 70
     0
  9
$PEXTMIN
 10
1.0000000000E+20
 20
1.0000000000E+20
 30
1.0000000000E+20
  9
$PEXTMAX
 10
-1.0000000000E+20
 20
-1.0000000000E+20
 30
-1.0000000000E+20
  9
$PLIMMIN
 10
0.0
 20
0.0
  9
$PLIMMAX
 10
420.0
 20
297.0
  9
$UNITMODE
 70
     0
  9
$VISRETAIN
 70
     1
  9
$PLINEGEN
 70
     0
  9
$PSLTSCALE
 70
     1
  9
$TREEDEPTH
 70
  3020
  9
$CMLSTYLE
  2
Standard
  9
$CMLJUST
 70
     0
  9
$CMLSCALE
 40
20.0
  9
$PROXYGRAPHICS
 70
     1
  9
$MEASUREMENT
 70
     1
  9
$CELWEIGHT
370
    -1
  9
$ENDCAPS
280
     0
  9
$JOINSTYLE
280
     0
  9
$LWDISPLAY
290
     1
  9
$INSUNITS
 70
     4
  9
$HYPERLINKBASE
  1

  9
$STYLESHEET
  1

  9
$XEDIT
290
     1
  9
$CEPSNTYPE
380
     0
  9
$PSTYLEMODE
290
     1
  9
$FINGERPRINTGUID
  2
{98a75b3b-c676-4d44-ad18-a67a8ecacea6}
  9
$VERSIONGUID
  2
{FAEB1C32-E019-11D5-929B-00C0DF256EC4}
  9
$EXTNAMES
290
     1
  9
$PSVPSCALE
 40
0.0
  9
$OLESTARTUP
290
     0
  0
ENDSEC
  0
SECTION
  2
CLASSES
  0
CLASS
  1
ACDBDICTIONARYWDFLT
  2
AcDbDictionaryWithDefault
  3
ObjectDBX Classes
 90
        0
280
     0
281
     0
  0
CLASS
  1
VISUALSTYLE
  2
AcDbVisualStyle
  3
ObjectDBX Classes
 90
     4095
280
     0
281
     0
  0
CLASS
  1
MATERIAL
  2
AcDbMaterial
  3
ObjectDBX Classes
 90
     1153
280
     0
281
     0
  0
CLASS
  1
SCALE
  2
AcDbScale
  3
ObjectDBX Classes
 90
     1153
280
     0
281
     0
  0
CLASS
  1
TABLESTYLE
  2
AcDbTableStyle
  3
ObjectDBX Classes
 90
     4095
280
     0
281
     0
  0
CLASS
  1
MLEADERSTYLE
  2
AcDbMLeaderStyle
  3
ACDB_MLEADERSTYLE_CLASS
 90
     4095
280
     0
281
     0
  0
CLASS
  1
SUN
  2
AcDbSun
  3
SCENEOE
 90
     1153
280
     0
281
     0
  0
CLASS
  1
ACDBPLACEHOLDER
  2
AcDbPlaceHolder
  3
ObjectDBX Classes
 90
        0
280
     0
281
     0
  0
CLASS
  1
LAYOUT
  2
AcDbLayout
  3
ObjectDBX Classes
 90
        0
280
     0
281
     0
  0
ENDSEC
  0
SECTION
  2
TABLES
  0
TABLE
  2
VPORT
  5
8
330
0
100
AcDbSymbolTable
 70
     1
  0
VPORT
  5
29
330
8
100
AcDbSymbolTableRecord
100
AcDbViewportTableRecord
  2
*Active
 70
     0
 10
0.0
 20
0.0
 11
1.0
 21
1.0
 12
0.0
 22
0.0
 13
0.0
 23
0.0
 14
10.0
 24
10.0
 15
10.0
 25
10.0
 16
0.0
 26
0.0
 36
1.0
 17
0.0
 27
0.0
 37
0.0
 40
204.0
 41
0.65
 42
50.0
 43
0.0
 44
0.0
 50
0.0
 51
0.0
 71
     0
 72
   100
 73
     1
 74
     3
 75
     0
 76
     0
 77
     0
 78
     0
281
     0
 65
     1
110
0.0
120
0.0
130
0.0
111
1.0
121
0.0
131
0.0
112
0.0
122
1.0
132
0.0
 79
     0
146
0.0
  0
ENDTAB
  0
TABLE
  2
LTYPE
  5
5
330
0
100
AcDbSymbolTable
 70
     6
  0
LTYPE
  5
14
330
5
100
AcDbSymbolTableRecord
100
AcDbLinetypeTableRecord
  2
ByBlock
 70
     0
  3

 72
    65
 73
     0
 40
0.0
  0
LTYPE
  5
15
330
5
100
AcDbSymbolTableRecord
100
AcDbLinetypeTableRecord
  2
ByLayer
 70
     0
  3

 72
    65
 73
     0
 40
0.0
  0
LTYPE
  5
16
330
5
100
AcDbSymbolTableRecord
100
AcDbLinetypeTableRecord
  2
Continuous
 70
     0
  3
Solid line
 72
    65
 73
     0
 40
0.0
  0
LTYPE
  5
5E
330
5
100
AcDbSymbolTableRecord
100
AcDbLinetypeTableRecord
  2
HIDDEN
 70
     0
  3
Hidden __ __ __ __ __ __ __ __ __ __ __ __ __ __
 72
    65
 73
     2
 40
1.905
 49
1.27
 74
     0
 49
-0.635
 74
     0
  0
LTYPE
  5
5F
330
5
100
AcDbSymbolTableRecord
100
AcDbLinetypeTableRecord
  2
PHANTOM
 70
     0
  3
Phantom ______  __  __  ______  __  __  ______
 72
    65
 73
     6
 40
12.7
 49
6.35
 74
     0
 49
-1.27
 74
     0
 49
1.27
 74
     0
 49
-1.27
 74
     0
 49
1.27
 74
     0
 49
-1.27
 74
     0
  0
LTYPE
  5
60
330
5
100
AcDbSymbolTableRecord
100
AcDbLinetypeTableRecord
  2
CENTER
 70
     0
  3
Center ____ _ ____ _ ____ _ ____ _ ____ _ ____
 72
    65
 73
     4
 40
10.16
 49
6.35
 74
     0
 49
-1.27
 74
     0
 49
1.27
 74
     0
 49
-1.27
 74
     0
  0
LTYPE
  5
61
330
5
100
AcDbSymbolTableRecord
100
AcDbLinetypeTableRecord
  2
CENTERX2
 70
     0
  3
Center (2x) ________  __  ________  __  _____
 72
    65
 73
     4
 40
20.32
 49
12.7
 74
     0
 49
-2.54
 74
     0
 49
2.54
 74
     0
 49
-2.54
 74
     0
  0
LTYPE
  5
62
330
5
100
AcDbSymbolTableRecord
100
AcDbLinetypeTableRecord
  2
DOT2
 70
     0
  3
Dot (.5x) ........................................
 72
    65
 73
     2
 40
0.635
 49
0.0
 74
     0
 49
-0.635
 74
     0
  0
ENDTAB
  0
TABLE
  2
LAYER
  5
2
330
0
100
AcDbSymbolTable
 70
     1
  0
LAYER
  5
10
330
2
100
AcDbSymbolTableRecord
100
AcDbLayerTableRecord
  2
0
 70
     0
 62
     7
  6
Continuous
370
    -3
390
F
  0
ENDTAB
  0
TABLE
  2
STYLE
  5
3
330
0
100
AcDbSymbolTable
 70
     2
  0
STYLE
  5
11
330
3
100
AcDbSymbolTableRecord
100
AcDbTextStyleTableRecord
  2
Standard
 70
     0
 40
0.0
 41
1.0
 50
0.0
 71
     0
 42
3.5
  3
txt
  4

  0
STYLE
  5
234
330
3
100
AcDbSymbolTableRecord
100
AcDbTextStyleTableRecord
  2
SLDTEXTSTYLE0
 70
     0
 40
0.0
 41
0.7
 50
0.0
 71
     0
 42
3.5
  3
TXT
  4
bigfont
  0
ENDTAB
  0
TABLE
  2
VIEW
  5
6
330
0
100
AcDbSymbolTable
 70
     0
  0
ENDTAB
  0
TABLE
  2
UCS
  5
7
330
0
100
AcDbSymbolTable
 70
     0
  0
ENDTAB
  0
TABLE
  2
APPID
  5
9
330
0
100
AcDbSymbolTable
 70
     1
  0
APPID
  5
12
330
9
100
AcDbSymbolTableRecord
100
AcDbRegAppTableRecord
  2
ACAD
 70
     0
  0
ENDTAB
  0
TABLE
  2
DIMSTYLE
  5
A
330
0
100
AcDbSymbolTable
 70
     1
100
AcDbDimStyleTable
  0
DIMSTYLE
105
27
330
A
100
AcDbSymbolTableRecord
100
AcDbDimStyleTableRecord
  2
ISO-25
 70
     0
 41
2.5
 42
0.625
 43
3.75
 44
1.25
 73
     0
 74
     0
 77
     1
 78
     8
140
2.5
141
2.5
143
0.0393700787
147
0.625
171
     3
172
     1
178
     0
271
     2
272
     2
274
     3
278
    44
283
     0
284
     8
340
11
  0
ENDTAB
  0
TABLE
  2
BLOCK_RECORD
  5
1
330
0
100
AcDbSymbolTable
 70
     1
  0
BLOCK_RECORD
  5
1F
330
1
100
AcDbSymbolTableRecord
100
AcDbBlockTableRecord
  2
*Model_Space
340
22
  0
BLOCK_RECORD
  5
1B
330
1
100
AcDbSymbolTableRecord
100
AcDbBlockTableRecord
  2
*Paper_Space
340
1E
  0
BLOCK_RECORD
  5
23
330
1
100
AcDbSymbolTableRecord
100
AcDbBlockTableRecord
  2
*Paper_Space0
340
26
  0
ENDTAB
  0
ENDSEC
  0
SECTION
  2
BLOCKS
  0
BLOCK
  5
20
330
1F
100
AcDbEntity
  8
0
100
AcDbBlockBegin
  2
*Model_Space
 70
     0
 10
0.0
 20
0.0
 30
0.0
  3
*Model_Space
  1

  0
ENDBLK
  5
21
330
1F
100
AcDbEntity
  8
0
100
AcDbBlockEnd
  0
BLOCK
  5
1C
330
1B
100
AcDbEntity
 67
     1
  8
0
100
AcDbBlockBegin
  2
*Paper_Space
 70
     0
 10
0.0
 20
0.0
 30
0.0
  3
*Paper_Space
  1

  0
ENDBLK
  5
1D
330
1B
100
AcDbEntity
 67
     1
  8
0
100
AcDbBlockEnd
  0
BLOCK
  5
24
330
23
100
AcDbEntity
  8
0
100
AcDbBlockBegin
  2
*Paper_Space0
 70
     0
 10
0.0
 20
0.0
 30
0.0
  3
*Paper_Space0
  1

  0
ENDBLK
  5
25
330
23
100
AcDbEntity
  8
0
100
AcDbBlockEnd
  0
ENDSEC
  0
SECTION
  2
ENTITIES
  0
SPLINE
  5
63
330
1F
100
AcDbEntity
  8
0
  6
Continuous
 62
     7
370
    25
100
AcDbSpline
210
0.0
220
0.0
230
1.0
 70
     8
 71
     3
 72
    15
 73
    11
 74
     0
 42
0.00000001
 43
0.00000001
 40
0.0
 40
0.0
 40
0.0
 40
0.0
 40
0.0843186169585816
 40
0.1792845142139029
 40
0.2865825276465599
 40
0.4051114834342755
 40
0.5355928734189771
 40
0.6781902099934125
 40
0.8329758397604863
 40
1.0
 40
1.0
 40
1.0
 40
1.0
 10
-40.52687835727645
 20
-64.21405850231193
 30
0.0
 10
-40.55622950364812
 20
-64.20594207444061
 30
0.0
 10
-40.61863809392955
 20
-64.18868432187601
 30
0.0
 10
-40.72047755795507
 20
-64.16985894935436
 30
0.0
 10
-40.83509270738447
 20
-64.15325445033753
 30
0.0
 10
-40.96299240849815
 20
-64.13919641099025
 30
0.0
 10
-41.10403086759383
 20
-64.12910908964831
 30
0.0
 10
-41.25831655557925
 20
-64.12153777504092
 30
0.0
 10
-41.42591616014688
 20
-64.11643114255854
 30
0.0
 10
-41.54209869399994
 20
-64.11608243535535
 30
0.0
 10
-41.60239919060978
 20
-64.11590145102988
 30
0.0
  0
SPLINE
  5
64
330
1F
100
AcDbEntity
  8
0
  6
Continuous
 62
     7
370
    25
100
AcDbSpline
210
0.0
220
0.0
230
1.0
 70
     8
 71
     3
 72
    23
 73
    19
 74
     0
 42
0.00000001
 43
0.00000001
 40
0.0
 40
0.0
 40
0.0
 40
0.0
 40
0.0701511759972811
 40
0.1378126061901897
 40
0.2032262471813968
 40
0.2671740552944735
 40
0.3300240034081774
 40
0.3917942717866829
 40
0.4530843989971373
 40
0.5143339076458735
 40
0.5749999928182665
 40
0.6348654826222119
 40
0.6941163151896371
 40
0.7534416217804384
 40
0.8131258003036114
 40
0.8740796856370738
 40
0.9360070132744049
 40
1.0
 40
1.0
 40
1.0
 40
1.0
 10
-39.60490319702004
 20
-65.55039664333758
 30
0.0
 10
-39.60541648438404
 20
-65.50946316304002
 30
0.0
 10
-39.60642484195399
 20
-65.4290489786726
 30
0.0
 10
-39.61909915237643
 20
-65.31105828339982
 30
0.0
 10
-39.6376207078758
 20
-65.19757763287464
 30
0.0
 10
-39.66440439391453
 20
-65.08859943748101
 30
0.0
 10
-39.69853527275998
 20
-64.98391108530573
 30
0.0
 10
-39.74112991451614
 20
-64.8840915751095
 30
0.0
 10
-39.78979653378441
 20
-64.78808670623668
 30
0.0
 10
-39.84769987062843
 20
-64.69811234050286
 30
0.0
 10
-39.9111154639891
 20
-64.61301923137347
 30
0.0
 10
-39.98149334332333
 20
-64.53506431578947
 30
0.0
 10
-40.05771538185198
 20
-64.46407001551191
 30
0.0
 10
-40.13895023130654
 20
-64.3989307028512
 30
0.0
 10
-40.22748733055422
 20
-64.34226702696247
 30
0.0
 10
-40.3212410213444
 20
-64.29158034588036
 30
0.0
 10
-40.42158669252822
 20
-64.24856445454152
 30
0.0
 10
-40.49139938836839
 20
-64.22568559178028
 30
0.0
 10
-40.52687835727645
 20
-64.21405850231193
 30
0.0
  0
SPLINE
  5
65
330
1F
100
AcDbEntity
  8
0
  6
Continuous
 62
     7
370
    25
100
AcDbSpline
210
0.0
220
0.0
230
1.0
 70
     8
 71
     3
 72
    23
 73
    19
 74
     0
 42
0.00000001
 43
0.00000001
 40
0.0
 40
0.0
 40
0.0
 40
0.0
 40
0.0624145002632751
 40
0.1233382314733122
 40
0.1831245376921889
 40
0.2417829946389448
 40
0.3005788825509768
 40
0.3596800748966227
 40
0.418881640850047
 40
0.4795306644577841
 40
0.5408505357600352
 40
0.6023033958983771
 40
0.6644632119464691
 40
0.7278057226670076
 40
0.792894814781237
 40
0.859672328302831
 40
0.9284644007334847
 40
0.9999999999999999
 40
0.9999999999999999
 40
0.9999999999999999
 40
0.9999999999999999
 10
-40.4462493508662
 20
-66.80891026513244
 30
0.0
 10
-40.41430098878912
 20
-66.7976587068897
 30
0.0
 10
-40.35116735060514
 20
-66.77542433364111
 30
0.0
 10
-40.26028626540085
 20
-66.7348666724536
 30
0.0
 10
-40.17552926074308
 20
-66.68682460270406
 30
0.0
 10
-40.09541923545693
 20
-66.63342232872093
 30
0.0
 10
-40.02109258002587
 20
-66.572776326704
 30
0.0
 10
-39.95166846371851
 20
-66.50620533790003
 30
0.0
 10
-39.88728666235841
 20
-66.43337056282823
 30
0.0
 10
-39.82861235436752
 20
-66.35436240126538
 30
0.0
 10
-39.77610405033423
 20
-66.26967260562496
 30
0.0
 10
-39.73063282092536
 20
-66.1801337719529
 30
0.0
 10
-39.69078128933396
 20
-66.08672696173296
 30
0.0
 10
-39.65950269671777
 20
-65.9880178030793
 30
0.0
 10
-39.63498711254442
 20
-65.8848887446633
 30
0.0
 10
-39.61762242458462
 20
-65.77733253140168
 30
0.0
 10
-39.60680770012483
 20
-65.66536924954526
 30
0.0
 10
-39.60554625218616
 20
-65.58921712527807
 30
0.0
 10
-39.60490319702004
 20
-65.55039664333758
 30
0.0
  0
SPLINE
  5
66
330
1F
100
AcDbEntity
  8
0
  6
Continuous
 62
     7
370
    25
100
AcDbSpline
210
0.0
220
0.0
230
1.0
 70
     8
 71
     3
 72
    15
 73
    11
 74
     0
 42
0.00000001
 43
0.00000001
 40
0.0
 40
0.0
 40
0.0
 40
0.0
 40
0.1719006646132716
 40
0.3306279320958828
 40
0.4755488358809166
 40
0.6067461903123625
 40
0.7250238034674888
 40
0.8297423869584578
 40
0.9213228203439687
 40
1.0
 40
1.0
 40
1.0
 40
1.0
 10
-41.44675015214825
 20
-66.89795273308115
 30
0.0
 10
-41.38902178140823
 20
-66.89770463670709
 30
0.0
 10
-41.2779889829954
 20
-66.89722745652105
 30
0.0
 10
-41.11833098570639
 20
-66.8930402533878
 30
0.0
 10
-40.97245158923555
 20
-66.8861983158845
 30
0.0
 10
-40.84033007984236
 20
-66.87662323807584
 30
0.0
 10
-40.72204105554505
 20
-66.8639546228875
 30
0.0
 10
-40.61733730566243
 20
-66.84982972014
 30
0.0
 10
-40.52656204733755
 20
-66.83223226938394
 30
0.0
 10
-40.47163261039559
 20
-66.81628130996933
 30
0.0
 10
-40.4462493508662
 20
-66.80891026513244
 30
0.0
  0
SPLINE
  5
6A
330
1F
100
AcDbEntity
  8
0
  6
Continuous
 62
     7
370
    25
100
AcDbSpline
210
0.0
220
0.0
230
1.0
 70
     8
 71
     3
 72
    23
 73
    19
 74
     0
 42
0.00000001
 43
0.00000001
 40
0.0
 40
0.0
 40
0.0
 40
0.0
 40
0.0615449660163226
 40
0.1216942964020294
 40
0.1811548554526347
 40
0.2398753889119551
 40
0.2987019424504281
 40
0.3576474237092014
 40
0.4176048428493674
 40
0.47849404072829
 40
0.5404070506371352
 40
0.6023449938728015
 40
0.6650043279232339
 40
0.7285593088233778
 40
0.7936505420268878
 40
0.8605342675902697
 40
0.9292359605619652
 40
1.0
 40
1.0
 40
1.0
 40
1.0
 10
-40.34528781240466
 20
-63.88312901513245
 30
0.0
 10
-40.30479307309725
 20
-63.89855972077632
 30
0.0
 10
-40.22472188081338
 20
-63.92907121485726
 30
0.0
 10
-40.11071475824603
 20
-63.98662751619051
 30
0.0
 10
-40.00338939527939
 20
-64.05184061793987
 30
0.0
 10
-39.90217025040637
 20
-64.12479648063271
 30
0.0
 10
-39.80936942400322
 20
-64.20756082911377
 30
0.0
 10
-39.72136152726765
 20
-64.29661791473976
 30
0.0
 10
-39.64174680346459
 20
-64.39520625495416
 30
0.0
 10
-39.56883850743445
 20
-64.50128124293872
 30
0.0
 10
-39.50310284798124
 20
-64.61359329515685
 30
0.0
 10
-39.44596369012169
 20
-64.7319284038508
 30
0.0
 10
-39.39850969678556
 20
-64.855685611911
 30
0.0
 10
-39.3591164701891
 20
-64.98452075990204
 30
0.0
 10
-39.32807001264894
 20
-65.11871713771379
 30
0.0
 10
-39.30688808094853
 20
-65.25843100377423
 30
0.0
 10
-39.29291709107841
 20
-65.40311019316786
 30
0.0
 10
-39.29151303976381
 20
-65.50128465689949
 30
0.0
 10
-39.29080063291747
 20
-65.55109776513244
 30
0.0
  0
SPLINE
  5
6B
330
1F
100
AcDbEntity
  8
0
  6
Continuous
 62
     7
370
    25
100
AcDbSpline
210
0.0
220
0.0
230
1.0
 70
     8
 71
     3
 72
    15
 73
    11
 74
     0
 42
0.00000001
 43
0.00000001
 40
0.0
 40
0.0
 40
0.0
 40
0.0
 40
0.1642892164747621
 40
0.3174059112304881
 40
0.4588436116410186
 40
0.5893665423053122
 40
0.70783131877817
 40
0.8157700306990023
 40
0.9128799029021246
 40
1.0
 40
1.0
 40
1.0
 40
1.0
 10
-41.45586473548158
 20
-63.75692709205552
 30
0.0
 10
-41.39439574727523
 20
-63.75736966205147
 30
0.0
 10
-41.27563798195931
 20
-63.75822470498046
 30
0.0
 10
-41.10402553451179
 20
-63.76364609612155
 30
0.0
 10
-40.94524177204179
 20
-63.7732365619697
 30
0.0
 10
-40.79980891295972
 20
-63.78720608810428
 30
0.0
 10
-40.66732770097225
 20
-63.80435912172563
 30
0.0
 10
-40.54816909285813
 20
-63.82585952606999
 30
0.0
 10
-40.44171694995698
 20
-63.85124769645467
 30
0.0
 10
-40.37624750936774
 20
-63.87289314669993
 30
0.0
 10
-40.34528781240466
 20
-63.88312901513245
 30
0.0
  0
SPLINE
  5
6F
330
1F
100
AcDbEntity
  8
0
  6
Continuous
 62
     7
370
    25
100
AcDbSpline
210
0.0
220
0.0
230
1.0
 70
     8
 71
     3
 72
    31
 73
    27
 74
     0
 42
0.00000001
 43
0.00000001
 40
0.0
 40
0.0
 40
0.0
 40
0.0
 40
0.0460806833872489
 40
0.0908067996076186
 40
0.1342952705290687
 40
0.1770243856662458
 40
0.2188227336826548
 40
0.2602441163273757
 40
0.301079867113446
 40
0.3416138942851567
 40
0.3815834185517447
 40
0.4201195913296159
 40
0.4580746185423136
 40
0.4947384876076578
 40
0.5311946228937128
 40
0.5669336984503783
 40
0.6027126507379958
 40
0.6383266061284357
 40
0.6748532488548247
 40
0.7134673707840595
 40
0.75444180384838
 40
0.7978153607124983
 40
0.8439894562081102
 40
0.893071569879648
 40
0.9449633461781434
 40
1.0
 40
1.0
 40
1.0
 40
1.0
 10
-39.29080063291747
 20
-65.55109776513244
 30
0.0
 10
-39.2914296003966
 20
-65.59435900361916
 30
0.0
 10
-39.292669046508
 20
-65.67960979256745
 30
0.0
 10
-39.30379836237733
 20
-65.80525068817542
 30
0.0
 10
-39.31997468242379
 20
-65.92716425951986
 30
0.0
 10
-39.34501888026087
 20
-66.04476995956261
 30
0.0
 10
-39.37542139369807
 20
-66.15909817744819
 30
0.0
 10
-39.41438554499128
 20
-66.2689304217932
 30
0.0
 10
-39.4590210411673
 20
-66.37527423112584
 30
0.0
 10
-39.51107091972476
 20
-66.47669170703429
 30
0.0
 10
-39.56821230473162
 20
-66.57277507937063
 30
0.0
 10
-39.62953404793095
 20
-66.6633506074897
 30
0.0
 10
-39.69497074332675
 20
-66.747125829301
 30
0.0
 10
-39.7651463762359
 20
-66.82435444133816
 30
0.0
 10
-39.8391540926852
 20
-66.89492001973207
 30
0.0
 10
-39.91747842325258
 20
-66.95941203507921
 30
0.0
 10
-40.00032147402649
 20
-67.01656858992727
 30
0.0
 10
-40.08731219678662
 20
-67.06863569814512
 30
0.0
 10
-40.18098832598533
 20
-67.11405605366342
 30
0.0
 10
-40.28312419217732
 20
-67.15248606346702
 30
0.0
 10
-40.39415537015945
 20
-67.18433267883808
 30
0.0
 10
-40.5138093270803
 20
-67.2109035746341
 30
0.0
 10
-40.64229280482063
 20
-67.23198087727903
 30
0.0
 10
-40.77973177064489
 20
-67.24610726971676
 30
0.0
 10
-40.92591506033427
 20
-67.25566020241007
 30
0.0
 10
-41.02629432557509
 20
-67.25649659577107
 30
0.0
 10
-41.07796008804569
 20
-67.25692709205552
 30
0.0
  0
CIRCLE
  5
8F
330
1F
100
AcDbEntity
  8
0
  6
Continuous
 62
     7
370
    25
100
AcDbCircle
 10
-12.7272120542
 20
-71.0715334966
 30
0.0
 40
1.378580077258874
  0
SPLINE
  5
B0
330
1F
100
AcDbEntity
  8
0
  6
Continuous
 62
     7
370
    25
100
AcDbSpline
210
0.0
220
0.0
230
1.0
 70
     8
 71
     3
 72
    16
 73
    12
 74
     0
 42
0.00000001
 43
0.00000001
 40
0.0
 40
0.0
 40
0.0
 40
0.0
 40
0.125
 40
0.25
 40
0.375
 40
0.4375
 40
0.5
 40
0.625
 40
0.75
 40
0.875
 40
1.0
 40
1.0
 40
1.0
 40
1.0
 10
-23.89564699021743
 20
-87.60423398978044
 30
0.0
 10
-24.17076729448764
 20
-87.43107112324861
 30
0.0
 10
-24.78673103340354
 20
-87.1999699930693
 30
0.0
 10
-25.88970896600835
 20
-87.35337612652415
 30
0.0
 10
-26.58736585101828
 20
-88.05961670234367
 30
0.0
 10
-26.80175096660395
 20
-88.77188693046938
 30
0.0
 10
-26.76711018321773
 20
-89.55588097121102
 30
0.0
 10
-26.29220261389206
 20
-90.34399306292761
 30
0.0
 10
-25.32699617531031
 20
-90.86569290109766
 30
0.0
 10
-24.22869694652961
 20
-90.78053036962916
 30
0.0
 10
-23.62629328739096
 20
-90.29741900720938
 30
0.0
 10
-23.42185600287181
 20
-90.00343446313963
 30
0.0
  0
SPLINE
  5
B2
330
1F
100
AcDbEntity
  8
0
  6
Continuous
 62
     7
370
    25
100
AcDbSpline
210
0.0
220
0.0
230
1.0
 70
     8
 71
     3
 72
    13
 73
     9
 74
     0
 42
0.00000001
 43
0.00000001
 40
0.0
 40
0.0
 40
0.0
 40
0.0
 40
0.20071907440509
 40
0.3427357387155797
 40
0.5270841377873263
 40
0.6762898346306581
 40
0.8079585297625239
 40
1.0
 40
1.0
 40
1.0
 40
1.0
 10
-23.99655717869566
 20
-89.60378641984819
 30
0.0
 10
-24.21600100049204
 20
-89.91935063824144
 30
0.0
 10
-24.79975435136208
 20
-90.21937946046748
 30
0.0
 10
-25.72513657326574
 20
-89.92923422470446
 30
0.0
 10
-26.21571300784955
 20
-89.13061216473454
 30
0.0
 10
-25.92274380560757
 20
-88.2860691271616
 30
0.0
 10
-25.15490898335094
 20
-87.8684027359974
 30
0.0
 10
-24.55213192916732
 20
-88.01815002552321
 30
0.0
 10
-24.26852216707484
 20
-88.19665622305965
 30
0.0
  0
SPLINE
  5
C0
330
1F
100
AcDbEntity
  8
0
  6
Continuous
 62
     7
370
    25
100
AcDbSpline
210
0.0
220
0.0
230
1.0
 70
     8
 71
     3
 72
    11
 73
     7
 74
     0
 42
0.00000001
 43
0.00000001
 40
0.0
 40
0.0
 40
0.0
 40
0.0
 40
0.2462523706929791
 40
0.4925907964763663
 40
0.7405699911180721
 40
1.0
 40
1.0
 40
1.0
 40
1.0
 10
-35.49422611368671
 20
-65.71936699590168
 30
0.0
 10
-35.51235671334302
 20
-65.69022138086599
 30
0.0
 10
-35.54862424855564
 20
-65.63191996559915
 30
0.0
 10
-35.58383943973373
 20
-65.534609488867
 30
0.0
 10
-35.60804546861089
 20
-65.43216443153777
 30
0.0
 10
-35.6102078587802
 20
-65.36147757719165
 30
0.0
 10
-35.6113134534303
 20
-65.32533654718372
 30
0.0
  0
SPLINE
  5
C1
330
1F
100
AcDbEntity
  8
0
  6
Continuous
 62
     7
370
    25
100
AcDbSpline
210
0.0
220
0.0
230
1.0
 70
     8
 71
     3
 72
    15
 73
    11
 74
     0
 42
0.00000001
 43
0.00000001
 40
0.0
 40
0.0
 40
0.0
 40
0.0
 40
0.1577616635135577
 40
0.3059502132085499
 40
0.4437754990007289
 40
0.5728243624015482
 40
0.6921541564432367
 40
0.802295706990843
 40
0.9055643918329943
 40
0.9999999999999999
 40
0.9999999999999999
 40
0.9999999999999999
 40
0.9999999999999999
 10
-35.05322050471235
 20
-66.06852564974783
 30
0.0
 10
-35.07926714475176
 20
-66.05398651808356
 30
0.0
 10
-35.12977989224659
 20
-66.02579050180503
 30
0.0
 10
-35.20132718318246
 20
-65.98187442154672
 30
0.0
 10
-35.2658745374012
 20
-65.93720714686653
 30
0.0
 10
-35.32497511196392
 20
-65.89429430761676
 30
0.0
 10
-35.37713611764139
 20
-65.85087336366924
 30
0.0
 10
-35.42215206594634
 20
-65.80689611220178
 30
0.0
 10
-35.4617952817779
 20
-65.76413612612247
 30
0.0
 10
-35.48374269350911
 20
-65.73383882950775
 30
0.0
 10
-35.49422611368671
 20
-65.71936699590168
 30
0.0
  0
SPLINE
  5
C2
330
1F
100
AcDbEntity
  8
0
  6
Continuous
 62
     7
370
    25
100
AcDbSpline
210
0.0
220
0.0
230
1.0
 70
     8
 71
     3
 72
    15
 73
    11
 74
     0
 42
0.00000001
 43
0.00000001
 40
0.0
 40
0.0
 40
0.0
 40
0.0
 40
0.076875074035056
 40
0.1674616757257288
 40
0.2722700232466406
 40
0.3895508405125271
 40
0.5208013683480571
 40
0.6662632933752226
 40
0.8255449152058624
 40
0.9999999999999999
 40
0.9999999999999999
 40
0.9999999999999999
 40
0.9999999999999999
 10
-34.66550015214825
 20
-66.33214744461964
 30
0.0
 10
-34.67352254657564
 20
-66.32311208246787
 30
0.0
 10
-34.69099821903522
 20
-66.30342980045755
 30
0.0
 10
-34.7230534603008
 20
-66.27500472159589
 30
0.0
 10
-34.76143532250153
 20
-66.24436662244264
 30
0.0
 10
-34.80657548543378
 20
-66.21203503350388
 30
0.0
 10
-34.85856494737136
 20
-66.17843642821173
 30
0.0
 10
-34.91761442276118
 20
-66.1437470759622
 30
0.0
 10
-34.98291497530958
 20
-66.10631935017376
 30
0.0
 10
-35.02908560662748
 20
-66.08149969483044
 30
0.0
 10
-35.05322050471235
 20
-66.06852564974783
 30
0.0
  0
SPLINE
  5
C3
330
1F
100
AcDbEntity
  8
0
  6
Continuous
 62
     7
370
    25
100
AcDbSpline
210
0.0
220
0.0
230
1.0
 70
     8
 71
     3
 72
    11
 73
     7
 74
     0
 42
0.00000001
 43
0.00000001
 40
0.0
 40
0.0
 40
0.0
 40
0.0
 40
0.2534754346498465
 40
0.5004533151029246
 40
0.7455781350009951
 40
1.0
 40
1.0
 40
1.0
 40
1.0
 10
-34.57926217137902
 20
-66.57613782923501
 30
0.0
 10
-34.58034846571783
 20
-66.55382821057293
 30
0.0
 10
-34.58249320847677
 20
-66.50978085492466
 30
0.0
 10
-34.59933648048128
 20
-66.44603051388054
 30
0.0
 10
-34.62594933274107
 20
-66.38556123319815
 30
0.0
 10
-34.65215398109484
 20
-66.35017158595642
 30
0.0
 10
-34.66550015214825
 20
-66.33214744461962
 30
0.0
  0
SPLINE
  5
C4
330
1F
100
AcDbEntity
  8
0
  6
Continuous
 62
     7
370
    25
100
AcDbSpline
210
0.0
220
0.0
230
1.0
 70
     8
 71
     3
 72
    15
 73
    11
 74
     0
 42
0.00000001
 43
0.00000001
 40
0.0
 40
0.0
 40
0.0
 40
0.0
 40
0.1340420464623708
 40
0.2618956736507216
 40
0.3878360446911161
 40
0.5176862058208197
 40
0.6445086536782121
 40
0.7647182630567164
 40
0.8802907821584967
 40
1.0
 40
1.0
 40
1.0
 40
1.0
 10
-35.03078460727645
 20
-66.98769632282475
 30
0.0
 10
-35.00046668131841
 20
-66.98632549796454
 30
0.0
 10
-34.94123053973426
 20
-66.98364713613933
 30
0.0
 10
-34.85638678112026
 20
-66.9593300441095
 30
0.0
 10
-34.7780481546698
 20
-66.92120009228445
 30
0.0
 10
-34.71002480915093
 20
-66.86711539412435
 30
0.0
 10
-34.65212264808336
 20
-66.80415982152464
 30
0.0
 10
-34.61019447367565
 20
-66.73324570222432
 30
0.0
 10
-34.58391829821477
 20
-66.6564542455351
 30
0.0
 10
-34.58083229955881
 20
-66.603221942916
 30
0.0
 10
-34.57926217137902
 20
-66.57613782923501
 30
0.0
  0
SPLINE
  5
C5
330
1F
100
AcDbEntity
  8
0
  6
Continuous
 62
     7
370
    25
100
AcDbSpline
210
0.0
220
0.0
230
1.0
 70
     8
 71
     3
 72
    15
 73
    11
 74
     0
 42
0.00000001
 43
0.00000001
 40
0.0
 40
0.0
 40
0.0
 40
0.0
 40
0.1474758177483638
 40
0.2859041715443808
 40
0.4171716482444432
 40
0.5405007435865056
 40
0.659237718380232
 40
0.7750060983159538
 40
0.8872285734286345
 40
1.0
 40
1.0
 40
1.0
 40
1.0
 10
-35.53769566496876
 20
-66.71846555359399
 30
0.0
 10
-35.51792325199232
 20
-66.73982031812179
 30
0.0
 10
-35.47959143978221
 20
-66.78121975807109
 30
0.0
 10
-35.4182902229849
 20
-66.83634409874254
 30
0.0
 10
-35.35591082188188
 20
-66.88254536987458
 30
0.0
 10
-35.29307613530755
 20
-66.92118878466651
 30
0.0
 10
-35.22885604098403
 20
-66.9509641878241
 30
0.0
 10
-35.16361042675037
 20
-66.9718827817337
 30
0.0
 10
-35.09747200268894
 20
-66.98532697395908
 30
0.0
 10
-35.05304986686907
 20
-66.9869052562786
 30
0.0
 10
-35.03078460727645
 20
-66.98769632282475
 30
0.0
  0
SPLINE
  5
C7
330
1F
100
AcDbEntity
  8
0
  6
Continuous
 62
     7
370
    25
100
AcDbSpline
210
0.0
220
0.0
230
1.0
 70
     8
 71
     3
 72
    15
 73
    11
 74
     0
 42
0.00000001
 43
0.00000001
 40
0.0
 40
0.0
 40
0.0
 40
0.0
 40
0.1267425189618481
 40
0.2517239612496137
 40
0.3772186880262432
 40
0.5046935492516263
 40
0.6314582385934817
 40
0.7554010672029455
 40
0.8777005336014724
 40
0.9999999999999999
 40
0.9999999999999999
 40
0.9999999999999999
 40
0.9999999999999999
 10
-35.0146588059944
 20
-67.30179888692732
 30
0.0
 10
-35.05002598143238
 20
-67.30080618660178
 30
0.0
 10
-35.12026890837102
 20
-67.29883457943849
 30
0.0
 10
-35.22415862751973
 20
-67.28032851827467
 30
0.0
 10
-35.32567938618443
 20
-67.25153312430716
 30
0.0
 10
-35.42406292649078
 20
-67.21181719014903
 30
0.0
 10
-35.51710904037983
 20
-67.16166647729175
 30
0.0
 10
-35.60223996498072
 20
-67.10160408370548
 30
0.0
 10
-35.67975142744147
 20
-67.03361408630163
 30
0.0
 10
-35.72386970117762
 20
-66.98150117560765
 30
0.0
 10
-35.74592883804569
 20
-66.95544472026064
 30
0.0
  0
SPLINE
  5
C8
330
1F
100
AcDbEntity
  8
0
  6
Continuous
 62
     7
370
    25
100
AcDbSpline
210
0.0
220
0.0
230
1.0
 70
     8
 71
     3
 72
    23
 73
    19
 74
     0
 42
0.00000001
 43
0.00000001
 40
0.0
 40
0.0
 40
0.0
 40
0.0
 40
0.064548125564255
 40
0.1271991327555102
 40
0.1885973380874277
 40
0.2486395150940115
 40
0.3095246994640643
 40
0.3700369910533511
 40
0.4318892436070741
 40
0.4957042857252914
 40
0.559519327843513
 40
0.6213715803972361
 40
0.6823971072916415
 40
0.7435684819321688
 40
0.8054984835712166
 40
0.8686397008205279
 40
0.9330662250811669
 40
1.0
 40
1.0
 40
1.0
 40
1.0
 10
-34.26515960727645
 20
-66.56281651513245
 30
0.0
 10
-34.26587914109188
 20
-66.58808566137728
 30
0.0
 10
-34.2672970610781
 20
-66.63788127449098
 30
0.0
 10
-34.27715512801596
 20
-66.71121610419202
 30
0.0
 10
-34.2941101043391
 20
-66.78135066172838
 30
0.0
 10
-34.31720385829616
 20
-66.84904594642995
 30
0.0
 10
-34.34838823119995
 20
-66.9130048860474
 30
0.0
 10
-34.38493602835128
 20
-66.97484113503504
 30
0.0
 10
-34.42881094008712
 20
-67.03321706582442
 30
0.0
 10
-34.47890231570386
 20
-67.08805602600228
 30
0.0
 10
-34.5337478096829
 20
-67.13814177342265
 30
0.0
 10
-34.5922539480364
 20
-67.18216572728882
 30
0.0
 10
-34.65449277864626
 20
-67.21874006448793
 30
0.0
 10
-34.72001958006867
 20
-67.24900540973086
 30
0.0
 10
-34.78898323414118
 20
-67.27307366767718
 30
0.0
 10
-34.86139452342773
 20
-67.28973619893101
 30
0.0
 10
-34.93702327799935
 20
-67.29970896002516
 30
0.0
 10
-34.98845308613032
 20
-67.30109343620973
 30
0.0
 10
-35.0146588059944
 20
-67.30179888692732
 30
0.0
  0
SPLINE
  5
C9
330
1F
100
AcDbEntity
  8
0
  6
Continuous
 62
     7
370
    25
100
AcDbSpline
210
0.0
220
0.0
230
1.0
 70
     8
 71
     3
 72
    11
 73
     7
 74
     0
 42
0.00000001
 43
0.00000001
 40
0.0
 40
0.0
 40
0.0
 40
0.0
 40
0.2488386141270672
 40
0.4952350254576615
 40
0.743335603875021
 40
0.9999999999999999
 40
0.9999999999999999
 40
0.9999999999999999
 40
0.9999999999999999
 10
-34.38435031240466
 20
-66.16738382282475
 30
0.0
 10
-34.36613978499261
 20
-66.19704991087526
 30
0.0
 10
-34.3298974556494
 20
-66.25609093199034
 30
0.0
 10
-34.29183918919342
 20
-66.35330935943317
 30
0.0
 10
-34.26977891435062
 20
-66.45641986187034
 30
0.0
 10
-34.26671669412703
 20
-66.52695208198706
 30
0.0
 10
-34.26515960727645
 20
-66.56281651513245
 30
0.0
  0
SPLINE
  5
CA
330
1F
100
AcDbEntity
  8
0
  6
Continuous
 62
     7
370
    25
100
AcDbSpline
210
0.0
220
0.0
230
1.0
 70
     8
 71
     3
 72
    15
 73
    11
 74
     0
 42
0.00000001
 43
0.00000001
 40
0.0
 40
0.0
 40
0.0
 40
0.0
 40
0.158989101226792
 40
0.3071145916055793
 40
0.446213158596224
 40
0.5748760724117336
 40
0.6941521095829697
 40
0.804581180153253
 40
0.9065933190457572
 40
1.0
 40
1.0
 40
1.0
 40
1.0
 10
-34.84498733163544
 20
-65.80840946385041
 30
0.0
 10
-34.81777375453834
 20
-65.82365436666453
 30
0.0
 10
-34.76520608447913
 20
-65.85310249905663
 30
0.0
 10
-34.69051331722365
 20
-65.89881220256622
 30
0.0
 10
-34.62272627625271
 20
-65.9442436268397
 30
0.0
 10
-34.56127060860407
 20
-65.98891090071736
 30
0.0
 10
-34.50732879976219
 20
-66.03406376833412
 30
0.0
 10
-34.45926424711039
 20
-66.07797152530782
 30
0.0
 10
-34.4182758031841
 20
-66.12196083359176
 30
0.0
 10
-34.39532187649669
 20
-66.15269394727184
 30
0.0
 10
-34.38435031240466
 20
-66.16738382282475
 30
0.0
  0
SPLINE
  5
CB
330
1F
100
AcDbEntity
  8
0
  6
Continuous
 62
     7
370
    25
100
AcDbSpline
210
0.0
220
0.0
230
1.0
 70
     8
 71
     3
 72
    15
 73
    11
 74
     0
 42
0.00000001
 43
0.00000001
 40
0.0
 40
0.0
 40
0.0
 40
0.0
 40
0.0834251049856422
 40
0.1775598214659602
 40
0.2839823599504457
 40
0.4022167468072211
 40
0.5335684803800483
 40
0.6761209941988099
 40
0.8316493725539843
 40
0.9999999999999999
 40
0.9999999999999999
 40
0.9999999999999999
 40
0.9999999999999999
 10
-35.21027178676364
 20
-65.54478766897861
 30
0.0
 10
-35.20230829299196
 20
-65.55457225331166
 30
0.0
 10
-35.1853590001791
 20
-65.57539750786293
 30
0.0
 10
-35.15355048520233
 20
-65.60430136128046
 30
0.0
 10
-35.11752798234204
 20
-65.63624361225565
 30
0.0
 10
-35.07420804460975
 20
-65.66818044923419
 30
0.0
 10
-35.02545701672569
 20
-65.70181217444048
 30
0.0
 10
-34.97021773251195
 20
-65.73581430741513
 30
0.0
 10
-34.91024322754087
 20
-65.77277873230344
 30
0.0
 10
-34.86730592092425
 20
-65.7962231678472
 30
0.0
 10
-34.84498733163543
 20
-65.8084094638504
 30
0.0
  0
SPLINE
  5
CC
330
1F
100
AcDbEntity
  8
0
  6
Continuous
 62
     7
370
    25
100
AcDbSpline
210
0.0
220
0.0
230
1.0
 70
     8
 71
     3
 72
    11
 73
     7
 74
     0
 42
0.00000001
 43
0.00000001
 40
0.0
 40
0.0
 40
0.0
 40
0.0
 40
0.2400399314959676
 40
0.4794031936060607
 40
0.7317567388575661
 40
1.0
 40
1.0
 40
1.0
 40
1.0
 10
-35.29721088932774
 20
-65.31271635487604
 30
0.0
 10
-35.2961000770624
 20
-65.33292839902768
 30
0.0
 10
-35.29388158389676
 20
-65.37329550984636
 30
0.0
 10
-35.27663490468549
 20
-65.43284354368687
 30
0.0
 10
-35.24916883250579
 20
-65.49090058187963
 30
0.0
 10
-35.22349863822323
 20
-65.52646348823302
 30
0.0
 10
-35.21027178676363
 20
-65.5447876689786
 30
0.0
  0
SPLINE
  5
CD
330
1F
100
AcDbEntity
  8
0
  6
Continuous
 62
     7
370
    25
100
AcDbSpline
210
0.0
220
0.0
230
1.0
 70
     8
 71
     3
 72
    15
 73
    11
 74
     0
 42
0.00000001
 43
0.00000001
 40
0.0
 40
0.0
 40
0.0
 40
0.0
 40
0.1249584925460654
 40
0.2459006286062705
 40
0.369166029586074
 40
0.4985108411773642
 40
0.6285038663666044
 40
0.7510283288509882
 40
0.8737241742784186
 40
1.0
 40
1.0
 40
1.0
 40
1.0
 10
-34.9648791585585
 20
-64.96846555359397
 30
0.0
 10
-34.98701854840026
 20
-64.96954042657167
 30
0.0
 10
-35.03058573433633
 20
-64.97165562447064
 30
0.0
 10
-35.09301155267001
 20
-64.99276905480542
 30
0.0
 10
-35.15096217768795
 20
-65.02517779326537
 30
0.0
 10
-35.20111915769412
 20
-65.07114637682054
 30
0.0
 10
-35.24360683771542
 20
-65.1239106456486
 30
0.0
 10
-35.27462051873374
 20
-65.18290697053459
 30
0.0
 10
-35.2935865023632
 20
-65.2463550142409
 30
0.0
 10
-35.29599123440533
 20
-65.29038487190924
 30
0.0
 10
-35.29721088932774
 20
-65.31271635487604
 30
0.0
  0
SPLINE
  5
CE
330
1F
100
AcDbEntity
  8
0
  6
Continuous
 62
     7
370
    25
100
AcDbSpline
210
0.0
220
0.0
230
1.0
 70
     8
 71
     3
 72
    15
 73
    11
 74
     0
 42
0.00000001
 43
0.00000001
 40
0.0
 40
0.0
 40
0.0
 40
0.0
 40
0.1582230975563202
 40
0.3050355053581632
 40
0.4413089638878968
 40
0.5659632271047257
 40
0.6835251144150626
 40
0.7933341296296076
 40
0.8985175121610032
 40
1.0
 40
1.0
 40
1.0
 40
1.0
 10
-34.52317242778928
 20
-65.23769632282475
 30
0.0
 10
-34.54156293131727
 20
-65.21638317648998
 30
0.0
 10
-34.57701765710695
 20
-65.17529393943539
 30
0.0
 10
-34.63324913810937
 20
-65.1203568729319
 30
0.0
 10
-34.68927274168367
 20
-65.07421993398954
 30
0.0
 10
-34.74432155525694
 20
-65.03526767508029
 30
0.0
 10
-34.79977982433115
 20
-65.0058185284744
 30
0.0
 10
-34.85499674246342
 20
-64.98432366653412
 30
0.0
 10
-34.91002948097837
 20
-64.97102186087342
 30
0.0
 10
-34.94681551619369
 20
-64.9693074221793
 30
0.0
 10
-34.9648791585585
 20
-64.96846555359397
 30
0.0
  0
SPLINE
  5
D0
330
1F
100
AcDbEntity
  8
0
  6
Continuous
 62
     7
370
    25
100
AcDbSpline
210
0.0
220
0.0
230
1.0
 70
     8
 71
     3
 72
    15
 73
    11
 74
     0
 42
0.00000001
 43
0.00000001
 40
0.0
 40
0.0
 40
0.0
 40
0.0
 40
0.105714261417512
 40
0.213411612638995
 40
0.3261267300734671
 40
0.4444516715568703
 40
0.5690610798550815
 40
0.7027122044812112
 40
0.8463179465861922
 40
1.0
 40
1.0
 40
1.0
 40
1.0
 10
-34.9648791585585
 20
-64.65436298949143
 30
0.0
 10
-34.93768709509287
 20
-64.65546733018881
 30
0.0
 10
-34.88279287327862
 20
-64.65769672786867
 30
0.0
 10
-34.80043824723051
 20
-64.6754024184734
 30
0.0
 10
-34.71820490514306
 20
-64.70453552257285
 30
0.0
 10
-34.63588155517545
 20
-64.74477175591127
 30
0.0
 10
-34.554071265792
 20
-64.79683863179146
 30
0.0
 10
-34.47205440911625
 20
-64.85976793115975
 30
0.0
 10
-34.38884637882612
 20
-64.93314564566894
 30
0.0
 10
-34.33689006572472
 20
-64.98924487108891
 30
0.0
 10
-34.31003140214825
 20
-65.01824520102988
 30
0.0
  0
SPLINE
  5
D1
330
1F
100
AcDbEntity
  8
0
  6
Continuous
 62
     7
370
    25
100
AcDbSpline
210
0.0
220
0.0
230
1.0
 70
     8
 71
     3
 72
    15
 73
    11
 74
     0
 42
0.00000001
 43
0.00000001
 40
0.0
 40
0.0
 40
0.0
 40
0.0
 40
0.1201621349925858
 40
0.2375463202768704
 40
0.3574970509273475
 40
0.4849171224652621
 40
0.6133292680851261
 40
0.7401503701286927
 40
0.8673012545632565
 40
1.0
 40
1.0
 40
1.0
 40
1.0
 10
-33.23310832522517
 20
-63.89294472026065
 30
0.0
 10
-33.23419048505001
 20
-63.91060737342384
 30
0.0
 10
-33.23632978695539
 20
-63.94552434843853
 30
0.0
 10
-33.25344427520675
 20
-63.99569782049095
 30
0.0
 10
-33.28046651304926
 20
-64.04230210397431
 30
0.0
 10
-33.31846563867538
 20
-64.08277281418655
 30
0.0
 10
-33.36307439967729
 20
-64.11723343417708
 30
0.0
 10
-33.41332318552738
 20
-64.14293817308213
 30
0.0
 10
-33.46851863404193
 20
-64.15809831044783
 30
0.0
 10
-33.50668607323011
 20
-64.1598689991867
 30
0.0
 10
-33.52617723548158
 20
-64.16077324590168
 30
0.0
  0
SPLINE
  5
D2
330
1F
100
AcDbEntity
  8
0
  6
Continuous
 62
     7
370
    25
100
AcDbSpline
210
0.0
220
0.0
230
1.0
 70
     8
 71
     3
 72
    15
 73
    11
 74
     0
 42
0.00000001
 43
0.00000001
 40
0.0
 40
0.0
 40
0.0
 40
0.0
 40
0.1318992643310861
 40
0.2582840923169817
 40
0.3843411247791013
 40
0.5119796151257212
 40
0.6386320084211564
 40
0.7592297631645942
 40
0.8774121680352102
 40
1.0
 40
1.0
 40
1.0
 40
1.0
 10
-33.52617723548158
 20
-63.62231170744013
 30
0.0
 10
-33.50668591969345
 20
-63.62321585983587
 30
0.0
 10
-33.46851817985096
 20
-63.62498636387948
 30
0.0
 10
-33.41332491217469
 20
-63.6401478409581
 30
0.0
 10
-33.36306790009937
 20
-63.66584752640259
 30
0.0
 10
-33.3184901672095
 20
-63.7003272073032
 30
0.0
 10
-33.28023828052854
 20
-63.74087665076243
 30
0.0
 10
-33.25345757015312
 20
-63.78813761905769
 30
0.0
 10
-33.23624517403785
 20
-63.83919625784654
 30
0.0
 10
-33.23416661876031
 20
-63.87481134702763
 30
0.0
 10
-33.23310832522517
 20
-63.89294472026067
 30
0.0
  0
SPLINE
  5
D3
330
1F
100
AcDbEntity
  8
0
  6
Continuous
 62
     7
370
    25
100
AcDbSpline
210
0.0
220
0.0
230
1.0
 70
     8
 71
     3
 72
    15
 73
    11
 74
     0
 42
0.00000001
 43
0.00000001
 40
0.0
 40
0.0
 40
0.0
 40
0.0
 40
0.1232898687277913
 40
0.2421490813339654
 40
0.3634374760537235
 40
0.4897453933413657
 40
0.6181148445930048
 40
0.7448937812572511
 40
0.8689322665891912
 40
1.0
 40
1.0
 40
1.0
 40
1.0
 10
-33.81644165855851
 20
-63.89294472026067
 30
0.0
 10
-33.81538057194166
 20
-63.87481387065792
 30
0.0
 10
-33.81329653087539
 20
-63.83920373804601
 30
0.0
 10
-33.79612441473693
 20
-63.78810870513031
 30
0.0
 10
-33.76926460697506
 20
-63.74112720332717
 30
0.0
 10
-33.73178404344154
 20
-63.7001017039012
 30
0.0
 10
-33.68715058317115
 20
-63.66585626913214
 30
0.0
 10
-33.63731383800458
 20
-63.64044528762994
 30
0.0
 10
-33.58294913862602
 20
-63.62487394825968
 30
0.0
 10
-33.54544566263744
 20
-63.62318133392529
 30
0.0
 10
-33.52617723548158
 20
-63.62231170744013
 30
0.0
  0
SPLINE
  5
D4
330
1F
100
AcDbEntity
  8
0
  6
Continuous
 62
     7
370
    25
100
AcDbSpline
210
0.0
220
0.0
230
1.0
 70
     8
 71
     3
 72
    15
 73
    11
 74
     0
 42
0.00000001
 43
0.00000001
 40
0.0
 40
0.0
 40
0.0
 40
0.0
 40
0.1318667517023244
 40
0.2566614034533506
 40
0.3842132129425049
 40
0.5133652331525952
 40
0.6404431518253971
 40
0.7610850047778883
 40
0.8791455246531651
 40
1.0
 40
1.0
 40
1.0
 40
1.0
 10
-33.52617723548158
 20
-64.16077324590168
 30
0.0
 10
-33.54544551064831
 20
-64.15990352568
 30
0.0
 10
-33.58294869080992
 20
-64.15821072889972
 30
0.0
 10
-33.63731553315216
 20
-64.14264071116338
 30
0.0
 10
-33.6871440225455
 20
-64.1172246380629
 30
0.0
 10
-33.73180869520381
 20
-64.08299845296767
 30
0.0
 10
-33.76903888833592
 20
-64.04205355573795
 30
0.0
 10
-33.79613721373252
 20
-63.99572626188091
 30
0.0
 10
-33.81321217561811
 20
-63.94551710726286
 30
0.0
 10
-33.81535680423281
 20
-63.91060494095374
 30
0.0
 10
-33.8164416585585
 20
-63.89294472026065
 30
0.0
  0
SPLINE
  5
D9
330
1F
100
AcDbEntity
  8
0
  6
Continuous
 62
     7
370
    25
100
AcDbSpline
210
0.0
220
0.0
230
1.0
 70
     8
 71
     3
 72
    31
 73
    27
 74
     0
 42
0.00000001
 43
0.00000001
 40
0.0
 40
0.0
 40
0.0
 40
0.0
 40
0.0420341186638466
 40
0.0839054330862349
 40
0.1250689344486207
 40
0.1661584697031381
 40
0.207210272870729
 40
0.248490732056254
 40
0.2898781122327894
 40
0.3321695142040855
 40
0.3744758421539224
 40
0.4162249804562062
 40
0.4576095869585073
 40
0.4990731704672228
 40
0.5405533615534459
 40
0.582248849195356
 40
0.6245497501260002
 40
0.6674328009210361
 40
0.7103225433055319
 40
0.7524671185698651
 40
0.7940647568438071
 40
0.8352157072950114
 40
0.876228344224686
 40
0.9174461887061531
 40
0.9586431404713226
 40
1.0
 40
1.0
 40
1.0
 40
1.0
 10
-32.69464678676363
 20
-65.9696674766709
 30
0.0
 10
-32.69412762048809
 20
-65.94066438067178
 30
0.0
 10
-32.69309129874334
 20
-65.88277052187321
 30
0.0
 10
-32.68414031939192
 20
-65.79689113648574
 30
0.0
 10
-32.67137212996785
 20
-65.71216170124384
 30
0.0
 10
-32.65116436097196
 20
-65.62945555955184
 30
0.0
 10
-32.62684183846109
 20
-65.54783080778844
 30
0.0
 10
-32.5967182659038
 20
-65.46789035137694
 30
0.0
 10
-32.56049950656687
 20
-65.38960984226976
 30
0.0
 10
-32.51948975689046
 20
-65.31293131082433
 30
0.0
 10
-32.47340566423895
 20
-65.23888369588985
 30
0.0
 10
-32.42287318343189
 20
-65.1685570499852
 30
0.0
 10
-32.36783130917211
 20
-65.1024688780593
 30
0.0
 10
-32.30903939355185
 20
-65.0399524561909
 30
0.0
 10
-32.24577957651354
 20
-64.98161096297444
 30
0.0
 10
-32.17808458416826
 20
-64.92758599809095
 30
0.0
 10
-32.10662170392199
 20
-64.87697197182142
 30
0.0
 10
-32.03116945392607
 20
-64.8308606346604
 30
0.0
 10
-31.95289206540935
 20
-64.79007838814046
 30
0.0
 10
-31.87377824761648
 20
-64.75286579121577
 30
0.0
 10
-31.7927800125957
 20
-64.72333167168563
 30
0.0
 10
-31.71140747317174
 20
-64.69730857265016
 30
0.0
 10
-31.62822755840874
 20
-64.67887337743026
 30
0.0
 10
-31.54426016478628
 20
-64.66465113551254
 30
0.0
 10
-31.45921782703101
 20
-64.65598641448723
 30
0.0
 10
-31.40226493198345
 20
-64.65490482950456
 30
0.0
 10
-31.37373332522517
 20
-64.65436298949143
 30
0.0
  0
SPLINE
  5
DA
330
1F
100
AcDbEntity
  8
0
  6
Continuous
 62
     7
370
    25
100
AcDbSpline
210
0.0
220
0.0
230
1.0
 70
     8
 71
     3
 72
    31
 73
    27
 74
     0
 42
0.00000001
 43
0.00000001
 40
0.0
 40
0.0
 40
0.0
 40
0.0
 40
0.0428647590311891
 40
0.0852222575672297
 40
0.1272022841437368
 40
0.1690253126085973
 40
0.2108820330997076
 40
0.2529626777271186
 40
0.2956282851000491
 40
0.3385532936306093
 40
0.3814632477171879
 40
0.4235815621432649
 40
0.4650661653954485
 40
0.5063122188418608
 40
0.5470395054616114
 40
0.587675832893171
 40
0.6286747862975566
 40
0.6699464646027595
 40
0.7110355744560779
 40
0.7519958286352137
 40
0.7926726074835037
 40
0.8334460178854443
 40
0.8741906070422385
 40
0.9154935830294644
 40
0.957477806839146
 40
1.0
 40
1.0
 40
1.0
 40
1.0
 10
-31.38354903035339
 20
-67.25692709205553
 30
0.0
 10
-31.41278529977491
 20
-67.25641206558508
 30
0.0
 10
-31.47091185733081
 20
-67.25538810745464
 30
0.0
 10
-31.55726660456309
 20
-67.24642933002951
 30
0.0
 10
-31.64234704289148
 20
-67.23343058773531
 30
0.0
 10
-31.72595474651843
 20
-67.21434914875157
 30
0.0
 10
-31.80821035958537
 20
-67.1898574222128
 30
0.0
 10
-31.8889779517067
 20
-67.15924068346328
 30
0.0
 10
-31.96891147827349
 20
-67.12462556519655
 30
0.0
 10
-32.0465579761352
 20
-67.08385276175761
 30
0.0
 10
-32.12114410686966
 20
-67.03849045489764
 30
0.0
 10
-32.19210729200496
 20
-66.98935156418753
 30
0.0
 10
-32.25907583109245
 20
-66.9366932759461
 30
0.0
 10
-32.321412320542
 20
-66.87999633614999
 30
0.0
 10
-32.37903499199092
 20
-66.81934280338767
 30
0.0
 10
-32.43271886004561
 20
-66.75537925035505
 30
0.0
 10
-32.4815762071126
 20
-66.68721250900956
 30
0.0
 10
-32.52660959635311
 20
-66.61608555147636
 30
0.0
 10
-32.56566714672626
 20
-66.54152462766483
 30
0.0
 10
-32.59995151855149
 20
-66.46514653223709
 30
0.0
 10
-32.62976092359225
 20
-66.38711457775172
 30
0.0
 10
-32.65352632532879
 20
-66.30716751509719
 30
0.0
 10
-32.67167743859854
 20
-66.225355746231
 30
0.0
 10
-32.68518766558758
 20
-66.14181329735912
 30
0.0
 10
-32.69285059724334
 20
-66.05628290972906
 30
0.0
 10
-32.69404552128765
 20
-65.9986615605344
 30
0.0
 10
-32.69464678676363
 20
-65.9696674766709
 30
0.0
  0
SPLINE
  5
DB
330
1F
100
AcDbEntity
  8
0
  6
Continuous
 62
     7
370
    25
100
AcDbSpline
210
0.0
220
0.0
230
1.0
 70
     8
 71
     3
 72
    15
 73
    11
 74
     0
 42
0.00000001
 43
0.00000001
 40
0.0
 40
0.0
 40
0.0
 40
0.0
 40
0.1265607130145286
 40
0.2508952618879498
 40
0.3747192653150478
 40
0.4998264235934738
 40
0.6249635314328649
 40
0.7490394747387377
 40
0.8731801199413501
 40
1.0
 40
1.0
 40
1.0
 40
1.0
 10
-30.36131345343031
 20
-66.76684295744013
 30
0.0
 10
-30.39319457083281
 20
-66.80478475959733
 30
0.0
 10
-30.45639602655678
 20
-66.88000097924383
 30
0.0
 10
-30.56554335368967
 20
-66.97856261593691
 30
0.0
 10
-30.68476026931958
 20
-67.06344874623835
 30
0.0
 10
-30.81384381172188
 20
-67.13306738075146
 30
0.0
 10
-30.94963205388063
 20
-67.18874880536073
 30
0.0
 10
-31.09065428429804
 20
-67.22769176626355
 30
0.0
 10
-31.23564633949919
 20
-67.25285166615389
 30
0.0
 10
-31.33389848932388
 20
-67.25555898238981
 30
0.0
 10
-31.38354903035338
 20
-67.25692709205552
 30
0.0
  0
SPLINE
  5
DD
330
1F
100
AcDbEntity
  8
0
  6
Continuous
 62
     7
370
    25
100
AcDbSpline
210
0.0
220
0.0
230
1.0
 70
     8
 71
     3
 72
    23
 73
    19
 74
     0
 42
0.00000001
 43
0.00000001
 40
0.0
 40
0.0
 40
0.0
 40
0.0
 40
0.0981712978276947
 40
0.1892644356875855
 40
0.2744630560180391
 40
0.355023171281737
 40
0.4309204620429309
 40
0.5010860453857522
 40
0.5666076270375989
 40
0.6297208634283009
 40
0.6627106951128607
 40
0.6987655616316127
 40
0.7386105373889581
 40
0.7825812280784429
 40
0.8304087872491285
 40
0.8825778660702713
 40
0.9392286810451804
 40
1.0
 40
1.0
 40
1.0
 40
1.0
 10
-31.37373332522518
 20
-67.93000401513247
 30
0.0
 10
-31.31896643488128
 20
-67.9285738663374
 30
0.0
 10
-31.21338135222816
 20
-67.92581668261225
 30
0.0
 10
-31.06155018318279
 20
-67.90337453843956
 30
0.0
 10
-30.92295524511488
 20
-67.86580110467786
 30
0.0
 10
-30.79839504448786
 20
-67.81319271843172
 30
0.0
 10
-30.68933927595054
 20
-67.74874231189709
 30
0.0
 10
-30.59532728466598
 20
-67.67674223748728
 30
0.0
 10
-30.51918260852334
 20
-67.59556123447268
 30
0.0
 10
-30.46796964185354
 20
-67.52077942838199
 30
0.0
 10
-30.43613502425469
 20
-67.45415529868504
 30
0.0
 10
-30.41586278748907
 20
-67.39680270272747
 30
0.0
 10
-30.39938881803473
 20
-67.33194982506504
 30
0.0
 10
-30.38560898049908
 20
-67.25981408884246
 30
0.0
 10
-30.37423806712751
 20
-67.18029243177531
 30
0.0
 10
-30.36703518478004
 20
-67.09320302840044
 30
0.0
 10
-30.36182937320777
 20
-66.99874380607856
 30
0.0
 10
-30.36148940335913
 20
-66.93325066786889
 30
0.0
 10
-30.36131345343031
 20
-66.8993549766709
 30
0.0
  0
SPLINE
  5
DE
330
1F
100
AcDbEntity
  8
0
  6
Continuous
 62
     7
370
    25
100
AcDbSpline
210
0.0
220
0.0
230
1.0
 70
     8
 71
     3
 72
    15
 73
    11
 74
     0
 42
0.00000001
 43
0.00000001
 40
0.0
 40
0.0
 40
0.0
 40
0.0
 40
0.1247164867023028
 40
0.2438053739155137
 40
0.36006153406444
 40
0.4751119996584073
 40
0.5935250978119034
 40
0.719350170384357
 40
0.8538547713042656
 40
1.0
 40
1.0
 40
1.0
 40
1.0
 10
-32.33567242778928
 20
-67.43641427154272
 30
0.0
 10
-32.31041021848386
 20
-67.47652014731511
 30
0.0
 10
-32.26102571008007
 20
-67.55492219581285
 30
0.0
 10
-32.16867722911325
 20
-67.65643535174767
 30
0.0
 10
-32.06747090276583
 20
-67.7431887164351
 30
0.0
 10
-31.95399121958138
 20
-67.8130994904998
 30
0.0
 10
-31.82776600417335
 20
-67.86580928190156
 30
0.0
 10
-31.68871931800379
 20
-67.90338457833752
 30
0.0
 10
-31.53571969626889
 20
-67.92588084519386
 30
0.0
 10
-31.42920148208585
 20
-67.92859213933423
 30
0.0
 10
-31.37373332522517
 20
-67.93000401513245
 30
0.0
  0
SPLINE
  5
E0
330
1F
100
AcDbEntity
  8
0
  6
Continuous
 62
     7
370
    25
100
AcDbSpline
210
0.0
220
0.0
230
1.0
 70
     8
 71
     3
 72
    19
 73
    15
 74
     0
 42
0.00000001
 43
0.00000001
 40
0.0
 40
0.0
 40
0.0
 40
0.0
 40
0.0964914237691194
 40
0.1884736749923074
 40
0.2768399149588127
 40
0.3621365621714255
 40
0.4434367545654561
 40
0.520165520998621
 40
0.5927096635690007
 40
0.6629173343528163
 40
0.7354188002027052
 40
0.8148809699994151
 40
0.9030605557399863
 40
1.0
 40
1.0
 40
1.0
 40
1.0
 10
-31.34358508804569
 20
-68.24410657923501
 30
0.0
 10
-31.39646982264745
 20
-68.24325009342434
 30
0.0
 10
-31.49976791787749
 20
-68.2415771465239
 30
0.0
 10
-31.65037291056213
 20
-68.22208623143251
 30
0.0
 10
-31.79340763048819
 20
-68.19453185835917
 30
0.0
 10
-31.92698208718824
 20
-68.1528264307268
 30
0.0
 10
-32.05025218405888
 20
-68.1017894409958
 30
0.0
 10
-32.16237605958903
 20
-68.04319448804134
 30
0.0
 10
-32.26234716710685
 20
-67.97600517923996
 30
0.0
 10
-32.35247084010991
 20
-67.89950457832347
 30
0.0
 10
-32.43381243024597
 20
-67.80854089668608
 30
0.0
 10
-32.51033972022651
 20
-67.70134205256136
 30
0.0
 10
-32.58400066208445
 20
-67.57627516341017
 30
0.0
 10
-32.62716929995219
 20
-67.48448245019567
 30
0.0
 10
-32.64977499189185
 20
-67.43641427154272
 30
0.0
  0
SPLINE
  5
E1
330
1F
100
AcDbEntity
  8
0
  6
Continuous
 62
     7
370
    25
100
AcDbSpline
210
0.0
220
0.0
230
1.0
 70
     8
 71
     3
 72
    23
 73
    19
 74
     0
 42
0.00000001
 43
0.00000001
 40
0.0
 40
0.0
 40
0.0
 40
0.0
 40
0.0613707062984518
 40
0.1209064680177733
 40
0.1794236650000267
 40
0.2376066874397761
 40
0.2959384682493717
 40
0.3542182268208529
 40
0.4135370665946721
 40
0.4740867825531836
 40
0.5351211890802658
 40
0.5969876649622222
 40
0.6600198335468058
 40
0.7242774964844924
 40
0.7900118502255363
 40
0.8577476843344456
 40
0.9278290322155462
 40
1.0
 40
1.0
 40
1.0
 40
1.0
 10
-30.14046008804569
 20
-67.51353766897861
 30
0.0
 10
-30.15164932678222
 20
-67.54226759056999
 30
0.0
 10
-30.17369325322591
 20
-67.59886842760697
 30
0.0
 10
-30.21497888668485
 20
-67.6791027484006
 30
0.0
 10
-30.26121279030368
 20
-67.7546491382469
 30
0.0
 10
-30.31401954093894
 20
-67.82508658955149
 30
0.0
 10
-30.37316034497072
 20
-67.89006150191399
 30
0.0
 10
-30.43724183712522
 20
-67.95098550119366
 30
0.0
 10
-30.50751202854675
 20
-68.0065696685789
 30
0.0
 10
-30.58393074075273
 20
-68.05585496603574
 30
0.0
 10
-30.66473637395364
 20
-68.10024202018916
 30
0.0
 10
-30.74988247602034
 20
-68.1386885873728
 30
0.0
 10
-30.838888914384
 20
-68.17217543099547
 30
0.0
 10
-30.93259180598293
 20
-68.1972582267252
 30
0.0
 10
-31.02952204045097
 20
-68.21899294729212
 30
0.0
 10
-31.13081947153142
 20
-68.23313763308647
 30
0.0
 10
-31.23589226833662
 20
-68.24276469121345
 30
0.0
 10
-31.307337648417
 20
-68.24365492419263
 30
0.0
 10
-31.3435850880457
 20
-68.24410657923502
 30
0.0
  0
SPLINE
  5
E2
330
1F
100
AcDbEntity
  8
0
  6
Continuous
 62
     7
370
    25
100
AcDbSpline
210
0.0
220
0.0
230
1.0
 70
     8
 71
     3
 72
    15
 73
    11
 74
     0
 42
0.00000001
 43
0.00000001
 40
0.0
 40
0.0
 40
0.0
 40
0.0
 40
0.1634452548497481
 40
0.3154887127129129
 40
0.4562908239366515
 40
0.5858641495747731
 40
0.7054286858067511
 40
0.8133707129824215
 40
0.9117182381600906
 40
1.0
 40
1.0
 40
1.0
 40
1.0
 10
-30.04721088932774
 20
-66.72898238051707
 30
0.0
 10
-30.04748793189864
 20
-66.77221997512389
 30
0.0
 10
-30.04802269079474
 20
-66.85567894782913
 30
0.0
 10
-30.05187366204938
 20
-66.97635722744204
 30
0.0
 10
-30.05999433926975
 20
-67.08782331297394
 30
0.0
 10
-30.06920302062332
 20
-67.19058557156318
 30
0.0
 10
-30.08244973694286
 20
-67.28416768162316
 30
0.0
 10
-30.09862610418125
 20
-67.36884888629712
 30
0.0
 10
-30.11686178333334
 20
-67.44471044866474
 30
0.0
 10
-30.13288200078764
 20
-67.49143528969226
 30
0.0
 10
-30.14046008804569
 20
-67.51353766897861
 30
0.0
  0
SPLINE
  5
E6
330
1F
100
AcDbEntity
  8
0
  6
Continuous
 62
     7
370
    25
100
AcDbSpline
210
0.0
220
0.0
230
1.0
 70
     8
 71
     3
 72
    15
 73
    11
 74
     0
 42
0.00000001
 43
0.00000001
 40
0.0
 40
0.0
 40
0.0
 40
0.0
 40
0.1209110787487128
 40
0.2387622286387256
 40
0.3547548590848626
 40
0.4703593994502193
 40
0.589144098792871
 40
0.7163289048363447
 40
0.852445285857607
 40
1.0
 40
1.0
 40
1.0
 40
1.0
 10
-31.37373332522517
 20
-64.65436298949143
 30
0.0
 10
-31.32668238624571
 20
-64.65571966277356
 30
0.0
 10
-31.23377123892539
 20
-64.65839867564594
 30
0.0
 10
-31.09704023649691
 20
-64.67941982102911
 30
0.0
 10
-30.96509799651995
 20
-64.71293383438079
 30
0.0
 10
-30.83719998084297
 20
-64.76094946489094
 30
0.0
 10
-30.71230432984171
 20
-64.82649950322597
 30
0.0
 10
-30.59082267453168
 20
-64.91284245123626
 30
0.0
 10
-30.47240354035678
 20
-65.02075279096823
 30
0.0
 10
-30.39932570980909
 20
-65.10350565533544
 30
0.0
 10
-30.36131345343031
 20
-65.14655048949143
 30
0.0
  0
SPLINE
  5
E7
330
1F
100
AcDbEntity
  8
0
  6
Continuous
 62
     7
370
    25
100
AcDbSpline
210
0.0
220
0.0
230
1.0
 70
     8
 71
     3
 72
    15
 73
    11
 74
     0
 42
0.00000001
 43
0.00000001
 40
0.0
 40
0.0
 40
0.0
 40
0.0
 40
0.1288840014739247
 40
0.252984971857836
 40
0.3742104371825963
 40
0.4941015128996941
 40
0.6147527632399892
 40
0.7385110703733299
 40
0.8662425140769365
 40
1.0
 40
1.0
 40
1.0
 40
1.0
 10
-21.97309229958413
 20
-64.65436298949143
 30
0.0
 10
-21.92087549185681
 20
-64.65593008552676
 30
0.0
 10
-21.81837970120528
 20
-64.65900612089085
 30
0.0
 10
-21.66848117967564
 20
-64.68471248789504
 30
0.0
 10
-21.52669356913827
 20
-64.72787536570529
 30
0.0
 10
-21.39220058166895
 20
-64.78696664701242
 30
0.0
 10
-21.26580402145243
 20
-64.86376739829889
 30
0.0
 10
-21.1465773808636
 20
-64.95651884614341
 30
0.0
 10
-21.03659405795136
 20
-65.06784599222854
 30
0.0
 10
-20.97152223541111
 20
-65.1514575656878
 30
0.0
 10
-20.93823653035337
 20
-65.1942267715427
 30
0.0
  0
SPLINE
  5
E8
330
1F
100
AcDbEntity
  8
0
  6
Continuous
 62
     7
370
    25
100
AcDbSpline
210
0.0
220
0.0
230
1.0
 70
     8
 71
     3
 72
    23
 73
    19
 74
     0
 42
0.00000001
 43
0.00000001
 40
0.0
 40
0.0
 40
0.0
 40
0.0
 40
0.0637745323056329
 40
0.1260788099895079
 40
0.1869040927472053
 40
0.2475739349176203
 40
0.3080033561644449
 40
0.3691318984609788
 40
0.4320332277442042
 40
0.4967907944370901
 40
0.5616108232295649
 40
0.6249138657484629
 40
0.6867263492419242
 40
0.7480788332577701
 40
0.8095822911398955
 40
0.8716307425688278
 40
0.9348858208285534
 40
1.0
 40
1.0
 40
1.0
 40
1.0
 10
-23.3164416585585
 20
-65.97106972026064
 30
0.0
 10
-23.31518868717361
 20
-65.92660601669121
 30
0.0
 10
-23.31271163033844
 20
-65.83870367337188
 30
0.0
 10
-23.29425841049818
 20
-65.70942497538603
 30
0.0
 10
-23.26322740183899
 20
-65.58490671465276
 30
0.0
 10
-23.21967955417312
 20
-65.46554977142904
 30
0.0
 10
-23.16383759920999
 20
-65.35120972128044
 30
0.0
 10
-23.09590951218914
 20
-65.24180569626549
 30
0.0
 10
-23.01589038749031
 20
-65.13703629880347
 30
0.0
 10
-22.92363798047392
 20
-65.03936507198469
 30
0.0
 10
-22.82370321031128
 20
-64.94914445771532
 30
0.0
 10
-22.71679447939592
 20
-64.87073541227284
 30
0.0
 10
-22.60557119807507
 20
-64.80301856345682
 30
0.0
 10
-22.4883081875527
 20
-64.74936508715051
 30
0.0
 10
-22.3667410827387
 20
-64.70595598260601
 30
0.0
 10
-22.23978763699146
 20
-64.6759230145055
 30
0.0
 10
-22.1079760583159
 20
-64.6582256932655
 30
0.0
 10
-22.01848556625128
 20
-64.65566292911441
 30
0.0
 10
-21.97309229958413
 20
-64.65436298949143
 30
0.0
  0
SPLINE
  5
E9
330
1F
100
AcDbEntity
  8
0
  6
Continuous
 62
     7
370
    25
100
AcDbSpline
210
0.0
220
0.0
230
1.0
 70
     8
 71
     3
 72
    23
 73
    19
 74
     0
 42
0.00000001
 43
0.00000001
 40
0.0
 40
0.0
 40
0.0
 40
0.0
 40
0.0646199913407682
 40
0.1274334841444698
 40
0.1890041265579394
 40
0.2499300706860473
 40
0.3106684537406701
 40
0.3723289611368248
 40
0.4349391099970059
 40
0.499575544194032
 40
0.5641912077719259
 40
0.6267352169294792
 40
0.6881093335613993
 40
0.749293606536752
 40
0.8103305278109423
 40
0.8719011702244146
 40
0.9350459146845311
 40
1.0
 40
1.0
 40
1.0
 40
1.0
 10
-21.98290800471234
 20
-67.30179888692732
 30
0.0
 10
-22.02807595854487
 20
-67.30057251465819
 30
0.0
 10
-22.11714916343287
 20
-67.29815405424254
 30
0.0
 10
-22.24817824057179
 20
-67.27939175062426
 30
0.0
 10
-22.37427049002445
 20
-67.24926112898218
 30
0.0
 10
-22.49554506268624
 20
-67.20736023949043
 30
0.0
 10
-22.61121720812034
 20
-67.15177941785223
 30
0.0
 10
-22.72227730479264
 20
-67.08523816981081
 30
0.0
 10
-22.82814999681176
 20
-67.00599733973017
 30
0.0
 10
-22.92722153577562
 20
-66.91540931137726
 30
0.0
 10
-23.01845353615152
 20
-66.81701432419366
 30
0.0
 10
-23.09851480877371
 20
-66.71206877731854
 30
0.0
 10
-23.16526788862845
 20
-66.60102647342588
 30
0.0
 10
-23.22108796933571
 20
-66.48529331953713
 30
0.0
 10
-23.26408431377646
 20
-66.36397840000312
 30
0.0
 10
-23.29405794803438
 20
-66.23750123206334
 30
0.0
 10
-23.31279839473504
 20
-66.10601135852349
 30
0.0
 10
-23.31521585541999
 20
-66.01647183542788
 30
0.0
 10
-23.3164416585585
 20
-65.97106972026064
 30
0.0
  0
SPLINE
  5
EA
330
1F
100
AcDbEntity
  8
0
  6
Continuous
 62
     7
370
    25
100
AcDbSpline
210
0.0
220
0.0
230
1.0
 70
     8
 71
     3
 72
    15
 73
    11
 74
     0
 42
0.00000001
 43
0.00000001
 40
0.0
 40
0.0
 40
0.0
 40
0.0
 40
0.1342983790141709
 40
0.2620849753823022
 40
0.3862699121345034
 40
0.5071645966228006
 40
0.6273002357255084
 40
0.748144941602993
 40
0.8723701771613529
 40
1.0
 40
1.0
 40
1.0
 40
1.0
 10
-20.93823653035337
 20
-66.81451923949142
 30
0.0
 10
-20.97365532097953
 20
-66.85455883344925
 30
0.0
 10
-21.04277553626037
 20
-66.9326966045362
 30
0.0
 10
-21.15821665423185
 20
-67.03477877702694
 30
0.0
 10
-21.28058483213433
 20
-67.11915709856703
 30
0.0
 10
-21.40928615326503
 20
-67.18730701426736
 30
0.0
 10
-21.54420439660965
 20
-67.23849907060476
 30
0.0
 10
-21.68504048388591
 20
-67.27488522973053
 30
0.0
 10
-21.83185186475143
 20
-67.2982790649028
 30
0.0
 10
-21.93210421954144
 20
-67.30061508677181
 30
0.0
 10
-21.98290800471234
 20
-67.30179888692732
 30
0.0
  0
SPLINE
  5
F3
330
1F
100
AcDbEntity
  8
0
  6
Continuous
 62
     7
370
    25
100
AcDbSpline
210
0.0
220
0.0
230
1.0
 70
     8
 71
     3
 72
     9
 73
     5
 74
     0
 42
0.00000001
 43
0.00000001
 40
0.0
 40
0.0
 40
0.0
 40
0.0
 40
0.4242017272591097
 40
1.0
 40
1.0
 40
1.0
 40
1.0
 10
-17.63239359497623
 20
-85.6346890395615
 30
0.0
 10
-17.07850848901575
 20
-85.95253166619136
 30
0.0
 10
-16.31363589125478
 20
-86.2487807200756
 30
0.0
 10
-15.15413990685982
 20
-85.3235262210268
 30
0.0
 10
-15.20413475358445
 20
-84.79298886114901
 30
0.0
  0
SPLINE
  5
FB
330
1F
100
AcDbEntity
  8
0
  6
Continuous
 62
     7
370
    25
100
AcDbSpline
210
0.0
220
0.0
230
1.0
 70
     8
 71
     3
 72
     9
 73
     5
 74
     0
 42
0.00000001
 43
0.00000001
 40
0.0
 40
0.0
 40
0.0
 40
0.0
 40
0.2782876152263425
 40
1.0
 40
1.0
 40
1.0
 40
1.0
 10
-23.92279955775921
 20
-74.19403990537702
 30
0.0
 10
-24.16516717484981
 20
-73.97598362259693
 30
0.0
 10
-25.12775608880176
 20
-73.47797020996362
 30
0.0
 10
-26.38263029660739
 20
-74.36820971974787
 30
0.0
 10
-26.49827590859621
 20
-75.1193020539163
 30
0.0
  0
SPLINE
  5
10C
330
1F
100
AcDbEntity
  8
0
  6
Continuous
 62
     7
370
    25
100
AcDbSpline
210
0.0
220
0.0
230
1.0
 70
     8
 71
     3
 72
    11
 73
     7
 74
     0
 42
0.00000001
 43
0.00000001
 40
0.0
 40
0.0
 40
0.0
 40
0.0
 40
0.2853123735385785
 40
0.3292448302579232
 40
0.5569104339832335
 40
1.0
 40
1.0
 40
1.0
 40
1.0
 10
-24.61771555574862
 20
-71.85237317993192
 30
0.0
 10
-25.36370409383758
 20
-72.07656025392147
 30
0.0
 10
-25.6734906280566
 20
-71.4769303734316
 30
0.0
 10
-25.81762444385757
 20
-70.9429669647332
 30
0.0
 10
-25.49316210778222
 20
-70.01892072169396
 30
0.0
 10
-24.63020830439069
 20
-70.25157554368081
 30
0.0
 10
-24.35725856063647
 20
-70.45748901366169
 30
0.0
  0
SPLINE
  5
10E
330
1F
100
AcDbEntity
  8
0
  6
Continuous
 62
     7
370
    25
100
AcDbSpline
210
0.0
220
0.0
230
1.0
 70
     8
 71
     3
 72
    12
 73
     8
 74
     0
 42
0.00000001
 43
0.00000001
 40
0.0
 40
0.0
 40
0.0
 40
0.0
 40
0.1921579394283313
 40
0.3304580008091745
 40
0.560561821157282
 40
0.6828868645477717
 40
1.0
 40
1.0
 40
1.0
 40
1.0
 10
-23.97377884502587
 20
-70.03779718648617
 30
0.0
 10
-24.27279700140478
 20
-69.76457910086775
 30
0.0
 10
-25.04211013404371
 20
-69.53548333946618
 30
0.0
 10
-26.24274463621049
 20
-69.9636647018221
 30
0.0
 10
-26.58397730309058
 20
-71.22709312594372
 30
0.0
 10
-25.77520906623079
 20
-72.51589907371701
 30
0.0
 10
-24.57272227212043
 20
-72.48123578599983
 30
0.0
 10
-23.99655717869603
 20
-72.2611373453609
 30
0.0
  0
CIRCLE
  5
118
330
1F
100
AcDbEntity
  8
0
  6
Continuous
 62
     7
370
    25
100
AcDbCircle
 10
45.0
 20
-70.0
 30
0.0
 40
2.500000000000028
  0
CIRCLE
  5
119
330
1F
100
AcDbEntity
  8
0
  6
Continuous
 62
     7
370
    25
100
AcDbCircle
 10
-50.0
 20
-70.0
 30
0.0
 40
2.5
  0
CIRCLE
  5
11E
330
1F
100
AcDbEntity
  8
0
  6
Continuous
 62
     7
370
    25
100
AcDbCircle
 10
-50.0
 20
85.0
 30
0.0
 40
2.499999999999687
  0
CIRCLE
  5
11F
330
1F
100
AcDbEntity
  8
0
  6
Continuous
 62
     7
370
    25
100
AcDbCircle
 10
45.0
 20
85.0
 30
0.0
 40
2.500000000000036
  0
CIRCLE
  5
120
330
1F
100
AcDbEntity
  8
0
  6
Continuous
 62
     7
370
    25
100
AcDbCircle
 10
-6.4678297085
 20
66.0053933925
 30
0.0
 40
18.99999999999998
  0
CIRCLE
  5
121
330
1F
100
AcDbEntity
  8
0
  6
Continuous
 62
     7
370
    25
100
AcDbCircle
 10
9.5321702915
 20
82.0053933925
 30
0.0
 40
2.499999999999999
  0
CIRCLE
  5
122
330
1F
100
AcDbEntity
  8
0
  6
Continuous
 62
     7
370
    25
100
AcDbCircle
 10
-22.4678297085
 20
82.0053933925
 30
0.0
 40
2.499999999999982
  0
CIRCLE
  5
123
330
1F
100
AcDbEntity
  8
0
  6
Continuous
 62
     7
370
    25
100
AcDbCircle
 10
-22.4678297085
 20
50.0053933925
 30
0.0
 40
2.499999999999996
  0
CIRCLE
  5
124
330
1F
100
AcDbEntity
  8
0
  6
Continuous
 62
     7
370
    25
100
AcDbCircle
 10
9.5321702915
 20
50.0053933925
 30
0.0
 40
2.500000000000004
  0
SPLINE
  5
125
330
1F
100
AcDbEntity
  8
0
  6
Continuous
 62
     7
370
    25
100
AcDbSpline
210
0.0
220
0.0
230
1.0
 70
     8
 71
     3
 72
    15
 73
    11
 74
     0
 42
0.00000001
 43
0.00000001
 40
0.0
 40
0.0
 40
0.0
 40
0.0
 40
0.1294759494946686
 40
0.2538797616588642
 40
0.3748625495355533
 40
0.4942828559514282
 40
0.6142927138995234
 40
0.7369702805339385
 40
0.8650762150057479
 40
1.0
 40
1.0
 40
1.0
 40
1.0
 10
-17.21247531240465
 20
-67.30179888692732
 30
0.0
 10
-17.26444042466139
 20
-67.30035827868537
 30
0.0
 10
-17.3663349492106
 20
-67.29753349710597
 30
0.0
 10
-17.51538761427775
 20
-67.27411451787084
 30
0.0
 10
-17.65646916380388
 20
-67.2342529077144
 30
0.0
 10
-17.79118671221478
 20
-67.18069115199901
 30
0.0
 10
-17.91761443507756
 20
-67.10816249789576
 30
0.0
 10
-18.03655501756462
 20
-67.01820574756859
 30
0.0
 10
-18.14725839026726
 20
-66.90933861116035
 30
0.0
 10
-18.2124752055682
 20
-66.82627712132228
 30
0.0
 10
-18.24592883804567
 20
-66.78366988051707
 30
0.0
  0
SPLINE
  5
126
330
1F
100
AcDbEntity
  8
0
  6
Continuous
 62
     7
370
    25
100
AcDbSpline
210
0.0
220
0.0
230
1.0
 70
     8
 71
     3
 72
    23
 73
    19
 74
     0
 42
0.00000001
 43
0.00000001
 40
0.0
 40
0.0
 40
0.0
 40
0.0
 40
0.0640152523933102
 40
0.1262279962525601
 40
0.1872887630524899
 40
0.247869472615962
 40
0.3085112057878248
 40
0.3697268830978151
 40
0.4325358014028967
 40
0.4971982300414967
 40
0.5619230290139935
 40
0.6251330703809991
 40
0.6868547425652877
 40
0.748117091076462
 40
0.809530191651882
 40
0.8714874851012565
 40
0.934981482797177
 40
1.0
 40
1.0
 40
1.0
 40
1.0
 10
-15.86772370984055
 20
-65.98298879077346
 30
0.0
 10
-15.86896015035238
 20
-66.02768880847226
 30
0.0
 10
-15.87139821632039
 20
-66.1158302037745
 30
0.0
 10
-15.89001952448343
 20
-66.24553676011689
 30
0.0
 10
-15.92076578910673
 20
-66.37037545916401
 30
0.0
 10
-15.96472697244702
 20
-66.49002371648109
 30
0.0
 10
-16.01999191115871
 20
-66.60504362979164
 30
0.0
 10
-16.08910318680082
 20
-66.71412403390096
 30
0.0
 10
-16.16891418627198
 20
-66.8191630095633
 30
0.0
 10
-16.261245334787
 20
-66.91678664106334
 30
0.0
 10
-16.36115888769838
 20
-67.00702004109651
 30
0.0
 10
-16.46807313056467
 20
-67.08542590622686
 30
0.0
 10
-16.57929505217971
 20
-67.15314302625742
 30
0.0
 10
-16.69655816441617
 20
-67.20679847389674
 30
0.0
 10
-16.81812620576774
 20
-67.25019939524405
 30
0.0
 10
-16.94530159272001
 20
-67.2803170860529
 30
0.0
 10
-17.07736482071876
 20
-67.29789014106122
 30
0.0
 10
-17.16708370914306
 20
-67.30048570806616
 30
0.0
 10
-17.21247531240465
 20
-67.30179888692732
 30
0.0
  0
SPLINE
  5
127
330
1F
100
AcDbEntity
  8
0
  6
Continuous
 62
     7
370
    25
100
AcDbSpline
210
0.0
220
0.0
230
1.0
 70
     8
 71
     3
 72
    23
 73
    19
 74
     0
 42
0.00000001
 43
0.00000001
 40
0.0
 40
0.0
 40
0.0
 40
0.0
 40
0.0646486173546812
 40
0.1278213343090062
 40
0.1894192519051243
 40
0.2503721856209448
 40
0.3111374751755919
 40
0.3728252975636843
 40
0.4354631820975408
 40
0.5001282495925023
 40
0.56477253726715
 40
0.6273442527991439
 40
0.6889194464052651
 40
0.749829199627686
 40
0.8105779045174736
 40
0.8721758221135925
 40
0.9350171406703062
 40
0.9999999999999999
 40
0.9999999999999999
 40
0.9999999999999999
 40
0.9999999999999999
 10
-17.20265960727644
 20
-64.65436298949145
 30
0.0
 10
-17.15749346948234
 20
-64.65560321767548
 30
0.0
 10
-17.06819231758372
 20
-64.65805536016236
 30
0.0
 10
-16.93691017040177
 20
-64.67668985554512
 30
0.0
 10
-16.8105968952185
 20
-64.70690765746396
 30
0.0
 10
-16.68932124745693
 20
-64.74879983677388
 30
0.0
 10
-16.57364911487796
 20
-64.80438281410667
 30
0.0
 10
-16.46259005786288
 20
-64.87092412181357
 30
0.0
 10
-16.35671307333133
 20
-64.9501624510154
 30
0.0
 10
-16.25765818790867
 20
-65.0407607618001
 30
0.0
 10
-16.16636430161173
 20
-65.13911738449251
 30
0.0
 10
-16.086451791502
 20
-65.24429769972481
 30
0.0
 10
-16.01895209535461
 20
-65.35477279017688
 30
0.0
 10
-15.96312080268386
 20
-65.47017285263618
 30
0.0
 10
-15.919949749851
 20
-65.5909692036536
 30
0.0
 10
-15.89020748259468
 20
-65.71704340232051
 30
0.0
 10
-15.87131401838838
 20
-65.84827142094201
 30
0.0
 10
-15.86893377208041
 20
-65.93758422453242
 30
0.0
 10
-15.86772370984055
 20
-65.98298879077348
 30
0.0
  0
SPLINE
  5
128
330
1F
100
AcDbEntity
  8
0
  6
Continuous
 62
     7
370
    25
100
AcDbSpline
210
0.0
220
0.0
230
1.0
 70
     8
 71
     3
 72
    15
 73
    11
 74
     0
 42
0.00000001
 43
0.00000001
 40
0.0
 40
0.0
 40
0.0
 40
0.0
 40
0.1346362256587003
 40
0.2626808261854797
 40
0.3871896540458347
 40
0.5083896927558615
 40
0.6289661928681602
 40
0.7497231883803513
 40
0.8732482727673937
 40
1.0
 40
1.0
 40
1.0
 40
1.0
 10
-18.24592883804567
 20
-65.16337741256835
 30
0.0
 10
-18.21053541904849
 20
-65.1226194806746
 30
0.0
 10
-18.1414813996104
 20
-65.04309907544132
 30
0.0
 10
-18.02570494837648
 20
-64.93925142556844
 30
0.0
 10
-17.90429937875163
 20
-64.85119894826762
 30
0.0
 10
-17.776341122933
 20
-64.77861282970305
 30
0.0
 10
-17.64164818985959
 20
-64.72333922280707
 30
0.0
 10
-17.50091608111676
 20
-64.68291683290201
 30
0.0
 10
-17.35378504040462
 20
-64.65852992988057
 30
0.0
 10
-17.25346586649513
 20
-64.65576385663323
 30
0.0
 10
-17.20265960727644
 20
-64.65436298949143
 30
0.0
  0
SPLINE
  5
137
330
1F
100
AcDbEntity
  8
0
  6
Continuous
 62
     7
370
    25
100
AcDbSpline
210
0.0
220
0.0
230
1.0
 70
     8
 71
     3
 72
    15
 73
    11
 74
     0
 42
0.00000001
 43
0.00000001
 40
0.0
 40
0.0
 40
0.0
 40
0.0
 40
0.1185218400132601
 40
0.2362547631617455
 40
0.3561744339909274
 40
0.4772496548985494
 40
0.6015398708217022
 40
0.7296183821680345
 40
0.8621582661414354
 40
0.9999999999999999
 40
0.9999999999999999
 40
0.9999999999999999
 40
0.9999999999999999
 10
-24.13324854958414
 20
-65.15776843820937
 30
0.0
 10
-24.11112161127165
 20
-65.18797201959566
 30
0.0
 10
-24.06701501817516
 20
-65.24817813828446
 30
0.0
 10
-24.01176791814004
 20
-65.34634929538517
 30
0.0
 10
-23.96381052315635
 20
-65.44905988973528
 30
0.0
 10
-23.92547756214159
 20
-65.55797018682232
 30
0.0
 10
-23.89443806094504
 20
-65.67178976699522
 30
0.0
 10
-23.87198124220485
 20
-65.79133231170955
 30
0.0
 10
-23.85881162362302
 20
-65.9165622230704
 30
0.0
 10
-23.85622292627458
 20
-66.00188877854711
 30
0.0
 10
-23.85490319702004
 20
-66.04538863051707
 30
0.0
  0
SPLINE
  5
138
330
1F
100
AcDbEntity
  8
0
  6
Continuous
 62
     7
370
    25
100
AcDbSpline
210
0.0
220
0.0
230
1.0
 70
     8
 71
     3
 72
    15
 73
    11
 74
     0
 42
0.00000001
 43
0.00000001
 40
0.0
 40
0.0
 40
0.0
 40
0.0
 40
0.1320402344259819
 40
0.2590328407793685
 40
0.3818798239250146
 40
0.5022584437149833
 40
0.6227521895274767
 40
0.7447426318589991
 40
0.870108927341815
 40
1.0
 40
1.0
 40
1.0
 40
1.0
 10
-25.16319646625081
 20
-64.65436298949143
 30
0.0
 10
-25.11074886094712
 20
-64.65571703838391
 30
0.0
 10
-25.00785861500846
 20
-64.6583733736495
 30
0.0
 10
-24.85782649397168
 20
-64.68299970705854
 30
0.0
 10
-24.71586577743107
 20
-64.72205226162197
 30
0.0
 10
-24.58203327312225
 20
-64.77720605212247
 30
0.0
 10
-24.45631541236943
 20
-64.84836560391287
 30
0.0
 10
-24.33952936279474
 20
-64.93650744539383
 30
0.0
 10
-24.22967785024597
 20
-65.03892553261886
 30
0.0
 10
-24.16576927139378
 20
-65.11768874204617
 30
0.0
 10
-24.13324854958414
 20
-65.15776843820937
 30
0.0
  0
SPLINE
  5
139
330
1F
100
AcDbEntity
  8
0
  6
Continuous
 62
     7
370
    25
100
AcDbSpline
210
0.0
220
0.0
230
1.0
 70
     8
 71
     3
 72
    15
 73
    11
 74
     0
 42
0.00000001
 43
0.00000001
 40
0.0
 40
0.0
 40
0.0
 40
0.0
 40
0.12883525448755
 40
0.253589334986479
 40
0.3746432573141678
 40
0.4953400422377945
 40
0.6163247746357922
 40
0.7397593354405171
 40
0.8668423203805465
 40
1.0
 40
1.0
 40
1.0
 40
1.0
 10
-26.16299614573799
 20
-65.13112581000425
 30
0.0
 10
-26.13128846296216
 20
-65.0932569399162
 30
0.0
 10
-26.06887751635388
 20
-65.01871878946572
 30
0.0
 10
-25.96332116100005
 20
-64.9207804636841
 30
0.0
 10
-25.84902096465763
 20
-64.83873668850701
 30
0.0
 10
-25.72740933855749
 20
-64.77072955236882
 30
0.0
 10
-25.59707286449688
 20
-64.71905590537602
 30
0.0
 10
-25.45976357345932
 20
-64.68054832314374
 30
0.0
 10
-25.31391798723269
 20
-64.6589703121105
 30
0.0
 10
-25.2142127663945
 20
-64.65592247848849
 30
0.0
 10
-25.16319646625081
 20
-64.65436298949143
 30
0.0
  0
SPLINE
  5
13A
330
1F
100
AcDbEntity
  8
0
  6
Continuous
 62
     7
370
    25
100
AcDbSpline
210
0.0
220
0.0
230
1.0
 70
     8
 71
     3
 72
    15
 73
    11
 74
     0
 42
0.00000001
 43
0.00000001
 40
0.0
 40
0.0
 40
0.0
 40
0.0
 40
0.1280448079611128
 40
0.2537679000244909
 40
0.3774284265812972
 40
0.5005508414825247
 40
0.6232958832424783
 40
0.7465783319335089
 40
0.8723475406047165
 40
1.0
 40
1.0
 40
1.0
 40
1.0
 10
-26.45746729958415
 20
-65.98509215615807
 30
0.0
 10
-26.45640815825354
 20
-65.94579732574049
 30
0.0
 10
-26.4543090800045
 20
-65.86792016105363
 30
0.0
 10
-26.44107829261083
 20
-65.75265461652339
 30
0.0
 10
-26.4176299995428
 20
-65.64062616399478
 30
0.0
 10
-26.38545367559366
 20
-65.53174171602593
 30
0.0
 10
-26.34390242941043
 20
-65.42618358204183
 30
0.0
 10
-26.29307021019421
 20
-65.3238875184187
 30
0.0
 10
-26.23287783240542
 20
-65.2249623785582
 30
0.0
 10
-26.18640515864895
 20
-65.1625592448504
 30
0.0
 10
-26.16299614573799
 20
-65.13112581000425
 30
0.0
  0
SPLINE
  5
13B
330
1F
100
AcDbEntity
  8
0
  6
Continuous
 62
     7
370
    25
100
AcDbSpline
210
0.0
220
0.0
230
1.0
 70
     8
 71
     3
 72
    23
 73
    19
 74
     0
 42
0.00000001
 43
0.00000001
 40
0.0
 40
0.0
 40
0.0
 40
0.0
 40
0.071578657689142
 40
0.1396292246928482
 40
0.2047966973966643
 40
0.2681349633966806
 40
0.3298137469867285
 40
0.3913013977745595
 40
0.4534335150970536
 40
0.5165516903197663
 40
0.5796312707049216
 40
0.6411189214927493
 40
0.7012940466987742
 40
0.7608103356761305
 40
0.8199317217781441
 40
0.8789195754993785
 40
0.9389828222504449
 40
1.0
 40
1.0
 40
1.0
 40
1.0
 10
-25.1709088059944
 20
-67.30179888692732
 30
0.0
 10
-25.22005078352984
 20
-67.30065171159775
 30
0.0
 10
-25.31591254518716
 20
-67.29841390486841
 30
0.0
 10
-25.4554522923
 20
-67.27912144043388
 30
0.0
 10
-25.58683171069755
 20
-67.24764908174028
 30
0.0
 10
-25.71004341405113
 20
-67.20368354024896
 30
0.0
 10
-25.8247856666287
 20
-67.14625621615872
 30
0.0
 10
-25.93128652144061
 20
-67.07629673435494
 30
0.0
 10
-26.03010604730959
 20
-66.99416447966644
 30
0.0
 10
-26.11813025649473
 20
-66.89914803617943
 30
0.0
 10
-26.19737413920518
 20
-66.79746607888409
 30
0.0
 10
-26.26729995918086
 20
-66.69151019439806
 30
0.0
 10
-26.32575739023031
 20
-66.58154696992416
 30
0.0
 10
-26.37331000042603
 20
-66.4682764458806
 30
0.0
 10
-26.41171486539584
 20
-66.35241255233748
 30
0.0
 10
-26.43848156916497
 20
-66.23290108476827
 30
0.0
 10
-26.45391131714702
 20
-66.11006550052808
 30
0.0
 10
-26.45627576268437
 20
-66.02696816481034
 30
0.0
 10
-26.45746729958415
 20
-65.98509215615809
 30
0.0
  0
SPLINE
  5
13C
330
1F
100
AcDbEntity
  8
0
  6
Continuous
 62
     7
370
    25
100
AcDbSpline
210
0.0
220
0.0
230
1.0
 70
     8
 71
     3
 72
    19
 73
    15
 74
     0
 42
0.00000001
 43
0.00000001
 40
0.0
 40
0.0
 40
0.0
 40
0.0
 40
0.0933698567361912
 40
0.181660766070998
 40
0.2658742270426198
 40
0.3463547840343038
 40
0.4245998617178932
 40
0.5019031838373746
 40
0.5799920909873456
 40
0.6584434305294294
 40
0.7386722364878342
 40
0.8218941484362445
 40
0.908800792046616
 40
1.0
 40
1.0
 40
1.0
 40
1.0
 10
-23.98951858163543
 20
-66.59576923949145
 30
0.0
 10
-24.01175517687541
 20
-66.63521257076675
 30
0.0
 10
-24.05501878536007
 20
-66.71195367358446
 30
0.0
 10
-24.12941953325085
 20
-66.81738553405651
 30
0.0
 10
-24.20741160582903
 20
-66.91223324989528
 30
0.0
 10
-24.29251557383261
 20
-66.99396290417918
 30
0.0
 10
-24.38218525278662
 20
-67.06521428915336
 30
0.0
 10
-24.47691790757231
 20
-67.12755211387235
 30
0.0
 10
-24.57720672530764
 20
-67.18067063421813
 30
0.0
 10
-24.68305645008591
 20
-67.22542316209093
 30
0.0
 10
-24.7953560012274
 20
-67.25983265619882
 30
0.0
 10
-24.91437751763745
 20
-67.28413687711986
 30
0.0
 10
-25.04034901301623
 20
-67.29916014577027
 30
0.0
 10
-25.12669519288399
 20
-67.30090528654733
 30
0.0
 10
-25.1709088059944
 20
-67.30179888692732
 30
0.0
  0
SPLINE
  5
13E
330
1F
100
AcDbEntity
  8
0
  6
Continuous
 62
     7
370
    25
100
AcDbSpline
210
0.0
220
0.0
230
1.0
 70
     8
 71
     3
 72
    19
 73
    15
 74
     0
 42
0.00000001
 43
0.00000001
 40
0.0
 40
0.0
 40
0.0
 40
0.0
 40
0.0825922633314394
 40
0.1638788940984971
 40
0.2456587396295056
 40
0.3277256953541238
 40
0.4086099609103239
 40
0.485749085953937
 40
0.5591690561972847
 40
0.6302684758575511
 40
0.7053060284320753
 40
0.7920649660966087
 40
0.8897964374100916
 40
1.0
 40
1.0
 40
1.0
 40
1.0
 10
-25.21017162650722
 20
-66.98769632282475
 30
0.0
 10
-25.1788204789032
 20
-66.98708826616486
 30
0.0
 10
-25.11661378797566
 20
-66.9858817651083
 30
0.0
 10
-25.02397293063255
 20
-66.97414985419725
 30
0.0
 10
-24.93283340323306
 20
-66.95517957857624
 30
0.0
 10
-24.84357241996581
 20
-66.92928958849252
 30
0.0
 10
-24.75800157404913
 20
-66.89771273638583
 30
0.0
 10
-24.67875602398788
 20
-66.85960987873669
 30
0.0
 10
-24.60587580836177
 20
-66.8174601319938
 30
0.0
 10
-24.53775884177547
 20
-66.76925045694536
 30
0.0
 10
-24.47168784842345
 20
-66.71024226994238
 30
0.0
 10
-24.40614536200869
 20
-66.6366065489538
 30
0.0
 10
-24.33586870864542
 20
-66.54951902117021
 30
0.0
 10
-24.29187911590166
 20
-66.48397335519228
 30
0.0
 10
-24.2685650559944
 20
-66.44923478436323
 30
0.0
  0
SPLINE
  5
13F
330
1F
100
AcDbEntity
  8
0
  6
Continuous
 62
     7
370
    25
100
AcDbSpline
210
0.0
220
0.0
230
1.0
 70
     8
 71
     3
 72
    23
 73
    19
 74
     0
 42
0.00000001
 43
0.00000001
 40
0.0
 40
0.0
 40
0.0
 40
0.0
 40
0.0683846151037665
 40
0.1344755875434485
 40
0.1983910577839544
 40
0.2607534774484859
 40
0.3218292228076502
 40
0.3830372384795206
 40
0.444653123106426
 40
0.5073980112040009
 40
0.5698252379730252
 40
0.6307776406313139
 40
0.6909286865237168
 40
0.7509451326917367
 40
0.8110494767293261
 40
0.872330852546994
 40
0.935004093589406
 40
1.0
 40
1.0
 40
1.0
 40
1.0
 10
-26.14336473548158
 20
-66.04538863051707
 30
0.0
 10
-26.14182512905243
 20
-66.07908909476419
 30
0.0
 10
-26.13879755510423
 20
-66.1453596985139
 30
0.0
 10
-26.12468241193779
 20
-66.24233048159635
 30
0.0
 10
-26.10243363816356
 20
-66.33470382375998
 30
0.0
 10
-26.07116457552507
 20
-66.42178686573347
 30
0.0
 10
-26.03329773027017
 20
-66.50471699324872
 30
0.0
 10
-25.98691201348423
 20
-66.58287903021737
 30
0.0
 10
-25.93157245953175
 20
-66.65591696026728
 30
0.0
 10
-25.86984676014735
 20
-66.7244840978604
 30
0.0
 10
-25.80113966481175
 20
-66.78554485902808
 30
0.0
 10
-25.72885691759056
 20
-66.84019663526236
 30
0.0
 10
-25.65196335260137
 20
-66.88600223199171
 30
0.0
 10
-25.57106526910742
 20
-66.92318212174519
 30
0.0
 10
-25.48629348396324
 20
-66.95228843780427
 30
0.0
 10
-25.39762128884751
 20
-66.97215625848722
 30
0.0
 10
-25.30522317249276
 20
-66.98546336536207
 30
0.0
 10
-25.24223743845998
 20
-66.98694303056259
 30
0.0
 10
-25.21017162650722
 20
-66.98769632282475
 30
0.0
  0
SPLINE
  5
141
330
1F
100
AcDbEntity
  8
0
  6
Continuous
 62
     7
370
    25
100
AcDbSpline
210
0.0
220
0.0
230
1.0
 70
     8
 71
     3
 72
    15
 73
    11
 74
     0
 42
0.00000001
 43
0.00000001
 40
0.0
 40
0.0
 40
0.0
 40
0.0
 40
0.076995454717054
 40
0.1676150771831828
 40
0.271052393634233
 40
0.3894595025720776
 40
0.5208428024655803
 40
0.6663987586080737
 40
0.8260936125153078
 40
1.0
 40
1.0
 40
1.0
 40
1.0
 10
-28.96678220343029
 20
-65.64574920744013
 30
0.0
 10
-28.97072185200598
 20
-65.66300441049404
 30
0.0
 10
-28.97929826086693
 20
-65.70056808489946
 30
0.0
 10
-28.98856144072579
 20
-65.76221250428404
 30
0.0
 10
-28.99696901612747
 20
-65.83352247927621
 30
0.0
 10
-29.00400597474605
 20
-65.91441479633204
 30
0.0
 10
-29.00831139121662
 20
-66.00517267144957
 30
0.0
 10
-29.01300578799028
 20
-66.10540850925358
 30
0.0
 10
-29.01471484905667
 20
-66.21552199760967
 30
0.0
 10
-29.01500720307421
 20
-66.29218369033443
 30
0.0
 10
-29.01515960727644
 20
-66.33214744461962
 30
0.0
  0
SPLINE
  5
142
330
1F
100
AcDbEntity
  8
0
  6
Continuous
 62
     7
370
    25
100
AcDbSpline
210
0.0
220
0.0
230
1.0
 70
     8
 71
     3
 72
    23
 73
    19
 74
     0
 42
0.00000001
 43
0.00000001
 40
0.0
 40
0.0
 40
0.0
 40
0.0
 40
0.0639861098164681
 40
0.1266268580894785
 40
0.1889843719814868
 40
0.2502301939603997
 40
0.3123511629623211
 40
0.3745736184579406
 40
0.4381475308782054
 40
0.5029204126073734
 40
0.5679740951402741
 40
0.6307713337491904
 40
0.6929346089254589
 40
0.7543975343123256
 40
0.8152183520172982
 40
0.87611692548109
 40
0.9380146047939586
 40
1.0
 40
1.0
 40
1.0
 40
1.0
 10
-28.09669005599439
 20
-64.96846555359397
 30
0.0
 10
-28.12195773959926
 20
-64.96894155825751
 30
0.0
 10
-28.17196183260102
 20
-64.9698835591879
 30
0.0
 10
-28.24611180450718
 20
-64.97933485721094
 30
0.0
 10
-28.31803597768513
 20
-64.99479331280926
 30
0.0
 10
-28.3884561866799
 20
-65.01566195030843
 30
0.0
 10
-28.45596398041496
 20
-65.04432421953112
 30
0.0
 10
-28.52272827159512
 20
-65.076853589756
 30
0.0
 10
-28.58623503572496
 20
-65.11740180174137
 30
0.0
 10
-28.64783843285345
 20
-65.16259242318115
 30
0.0
 10
-28.70515124050661
 20
-65.21267163037868
 30
0.0
 10
-28.75847957891726
 20
-65.2655161405316
 30
0.0
 10
-28.80601759916837
 20
-65.32179174432765
 30
0.0
 10
-28.84908627445208
 20
-65.38059169185676
 30
0.0
 10
-28.88626453782961
 20
-65.44272352985382
 30
0.0
 10
-28.91871762589196
 20
-65.50758783633266
 30
0.0
 10
-28.94625332068367
 20
-65.5752699851565
 30
0.0
 10
-28.95993601315353
 20
-65.62224504638728
 30
0.0
 10
-28.9667822034303
 20
-65.64574920744015
 30
0.0
  0
SPLINE
  5
143
330
1F
100
AcDbEntity
  8
0
  6
Continuous
 62
     7
370
    25
100
AcDbSpline
210
0.0
220
0.0
230
1.0
 70
     8
 71
     3
 72
    15
 73
    11
 74
     0
 42
0.00000001
 43
0.00000001
 40
0.0
 40
0.0
 40
0.0
 40
0.0
 40
0.1355195283705981
 40
0.2608331631936689
 40
0.3784760291244969
 40
0.493177646474674
 40
0.6092809649289358
 40
0.729981037856645
 40
0.8592613089300648
 40
1.0
 40
1.0
 40
1.0
 40
1.0
 10
-27.43693444702003
 20
-65.47187100231193
 30
0.0
 10
-27.44755997852636
 20
-65.43215981736427
 30
0.0
 10
-27.46801083920106
 20
-65.35572807273972
 30
0.0
 10
-27.51854482232619
 20
-65.25205372011825
 30
0.0
 10
-27.58235900311359
 20
-65.163855532289
 30
0.0
 10
-27.66025685247871
 20
-65.09167881066453
 30
0.0
 10
-27.75148592811911
 20
-65.03550797395957
 30
0.0
 10
-27.85579307088695
 20
-64.99653401923253
 30
0.0
 10
-27.97217171155926
 20
-64.9721577500336
 30
0.0
 10
-28.05402609423275
 20
-64.96973061801827
 30
0.0
 10
-28.09669005599439
 20
-64.96846555359397
 30
0.0
  0
SPLINE
  5
144
330
1F
100
AcDbEntity
  8
0
  6
Continuous
 62
     7
370
    25
100
AcDbSpline
210
0.0
220
0.0
230
1.0
 70
     8
 71
     3
 72
    15
 73
    11
 74
     0
 42
0.00000001
 43
0.00000001
 40
0.0
 40
0.0
 40
0.0
 40
0.0
 40
0.178850019411152
 40
0.3421096489422886
 40
0.489825663368383
 40
0.6232544282245615
 40
0.7400796760857771
 40
0.8414826730699866
 40
0.9289076721840627
 40
1.0
 40
1.0
 40
1.0
 40
1.0
 10
-27.39977499189183
 20
-66.05380209205552
 30
0.0
 10
-27.39996819991077
 20
-66.01897964712677
 30
0.0
 10
-27.40033777396926
 20
-65.95237023635279
 30
0.0
 10
-27.40150342065381
 20
-65.85700121316249
 30
0.0
 10
-27.40431322725676
 20
-65.77051463475968
 30
0.0
 10
-27.4082615401728
 20
-65.69311726735424
 30
0.0
 10
-27.41404057070207
 20
-65.62488343079094
 30
0.0
 10
-27.42006320205206
 20
-65.5656741540524
 30
0.0
 10
-27.42742817884901
 20
-65.5155646116196
 30
0.0
 10
-27.43399109198616
 20
-65.48539952923645
 30
0.0
 10
-27.43693444702003
 20
-65.47187100231193
 30
0.0
  0
SPLINE
  5
148
330
1F
100
AcDbEntity
  8
0
  6
Continuous
 62
     7
370
    25
100
AcDbSpline
210
0.0
220
0.0
230
1.0
 70
     8
 71
     3
 72
    23
 73
    19
 74
     0
 42
0.00000001
 43
0.00000001
 40
0.0
 40
0.0
 40
0.0
 40
0.0
 40
0.077240423616478
 40
0.1511781404663802
 40
0.223487983800397
 40
0.2955426441988692
 40
0.3669762546197856
 40
0.4371305254863825
 40
0.5070436156432703
 40
0.5785597335236752
 40
0.6166135446965545
 40
0.6587562369775256
 40
0.704491226114403
 40
0.7548031149051484
 40
0.8093316253185628
 40
0.8682744554728155
 40
0.9320728834092917
 40
0.9999999999999999
 40
0.9999999999999999
 40
0.9999999999999999
 40
0.9999999999999999
 10
-28.04200255599439
 20
-64.65436298949143
 30
0.0
 10
-27.99467192187784
 20
-64.65610818493262
 30
0.0
 10
-27.90203445411403
 20
-64.6595239533761
 30
0.0
 10
-27.76715639273197
 20
-64.68654064448712
 30
0.0
 10
-27.6411829990452
 20
-64.7326858996118
 30
0.0
 10
-27.52456344325711
 20
-64.79589797001483
 30
0.0
 10
-27.41943622989447
 20
-64.87450444341864
 30
0.0
 10
-27.32711137841828
 20
-64.96608222517777
 30
0.0
 10
-27.25074813104072
 20
-65.0714183084134
 30
0.0
 10
-27.199550768041
 20
-65.16914146465002
 30
0.0
 10
-27.16582512035001
 20
-65.2558302589228
 30
0.0
 10
-27.1445927828362
 20
-65.3300770090217
 30
0.0
 10
-27.12656180137681
 20
-65.4127951601907
 30
0.0
 10
-27.11093005335914
 20
-65.50373474924517
 30
0.0
 10
-27.10035294149168
 20
-65.60353293949747
 30
0.0
 10
-27.09201064996041
 20
-65.71178063155043
 30
0.0
 10
-27.08603195567212
 20
-65.828442762046
 30
0.0
 10
-27.08579474868535
 20
-65.90912938945587
 30
0.0
 10
-27.08567242778926
 20
-65.95073718820937
 30
0.0
  0
SPLINE
  5
149
330
1F
100
AcDbEntity
  8
0
  6
Continuous
 62
     7
370
    25
100
AcDbSpline
210
0.0
220
0.0
230
1.0
 70
     8
 71
     3
 72
    15
 73
    11
 74
     0
 42
0.00000001
 43
0.00000001
 40
0.0
 40
0.0
 40
0.0
 40
0.0
 40
0.1409759662687734
 40
0.2735687809631704
 40
0.3989883138042528
 40
0.519929781392435
 40
0.6381100215247476
 40
0.7565889007405968
 40
0.8768597544106055
 40
1.0
 40
1.0
 40
1.0
 40
1.0
 10
-29.01515960727644
 20
-65.16057292538886
 30
0.0
 10
-28.98162197214433
 20
-65.11873020255123
 30
0.0
 10
-28.91654102109777
 20
-65.03753293906134
 30
0.0
 10
-28.80815668782235
 20
-64.93081236450125
 30
0.0
 10
-28.69361278749973
 20
-64.84286713945646
 30
0.0
 10
-28.57361078401259
 20
-64.77276334551215
 30
0.0
 10
-28.44798777391265
 20
-64.71991671936348
 30
0.0
 10
-28.31750950394955
 20
-64.6817507882778
 30
0.0
 10
-28.18139479786175
 20
-64.6588659597382
 30
0.0
 10
-28.08883036098822
 20
-64.65587572943868
 30
0.0
 10
-28.04200255599439
 20
-64.65436298949145
 30
0.0
  0
SPLINE
  5
14F
330
1F
100
AcDbEntity
  8
0
  6
Continuous
 62
     7
370
    25
100
AcDbSpline
210
0.0
220
0.0
230
1.0
 70
     8
 71
     3
 72
    15
 73
    11
 74
     0
 42
0.00000001
 43
0.00000001
 40
0.0
 40
0.0
 40
0.0
 40
0.0
 40
0.1185218400132618
 40
0.2362547631617487
 40
0.3561744339909303
 40
0.4772496548985508
 40
0.601539870821704
 40
0.7296183821680361
 40
0.8621582661414361
 40
1.0
 40
1.0
 40
1.0
 40
1.0
 10
-36.42812034445594
 20
-65.15776843820937
 30
0.0
 10
-36.40599340614346
 20
-65.18797201959566
 30
0.0
 10
-36.36188681304697
 20
-65.24817813828449
 30
0.0
 10
-36.30663971301183
 20
-65.34634929538517
 30
0.0
 10
-36.25868231802815
 20
-65.44905988973532
 30
0.0
 10
-36.22034935701339
 20
-65.55797018682232
 30
0.0
 10
-36.18930985581684
 20
-65.67178976699525
 30
0.0
 10
-36.16685303707665
 20
-65.79133231170952
 30
0.0
 10
-36.15368341849481
 20
-65.9165622230704
 30
0.0
 10
-36.15109472114639
 20
-66.00188877854711
 30
0.0
 10
-36.14977499189184
 20
-66.04538863051707
 30
0.0
  0
SPLINE
  5
150
330
1F
100
AcDbEntity
  8
0
  6
Continuous
 62
     7
370
    25
100
AcDbSpline
210
0.0
220
0.0
230
1.0
 70
     8
 71
     3
 72
    15
 73
    11
 74
     0
 42
0.00000001
 43
0.00000001
 40
0.0
 40
0.0
 40
0.0
 40
0.0
 40
0.1320402344259825
 40
0.2590328407793668
 40
0.3818798239250135
 40
0.5022584437149827
 40
0.6227521895274767
 40
0.7447426318589997
 40
0.8701089273418161
 40
1.0
 40
1.0
 40
1.0
 40
1.0
 10
-37.45806826112261
 20
-64.65436298949143
 30
0.0
 10
-37.40562065581892
 20
-64.65571703838393
 30
0.0
 10
-37.30273040988025
 20
-64.65837337364951
 30
0.0
 10
-37.15269828884346
 20
-64.68299970705853
 30
0.0
 10
-37.01073757230286
 20
-64.72205226162193
 30
0.0
 10
-36.87690506799407
 20
-64.7772060521225
 30
0.0
 10
-36.75118720724122
 20
-64.84836560391285
 30
0.0
 10
-36.63440115766654
 20
-64.93650744539381
 30
0.0
 10
-36.52454964511777
 20
-65.03892553261886
 30
0.0
 10
-36.46064106626558
 20
-65.11768874204617
 30
0.0
 10
-36.42812034445594
 20
-65.15776843820937
 30
0.0
  0
SPLINE
  5
151
330
1F
100
AcDbEntity
  8
0
  6
Continuous
 62
     7
370
    25
100
AcDbSpline
210
0.0
220
0.0
230
1.0
 70
     8
 71
     3
 72
    15
 73
    11
 74
     0
 42
0.00000001
 43
0.00000001
 40
0.0
 40
0.0
 40
0.0
 40
0.0
 40
0.1288352544875534
 40
0.2535893349864796
 40
0.3746432573141677
 40
0.4953400422377911
 40
0.616324774635791
 40
0.7397593354405153
 40
0.8668423203805442
 40
1.0
 40
1.0
 40
1.0
 40
1.0
 10
-38.45786794060979
 20
-65.13112581000425
 30
0.0
 10
-38.42616025783395
 20
-65.09325693991619
 30
0.0
 10
-38.36374931122567
 20
-65.01871878946572
 30
0.0
 10
-38.25819295587183
 20
-64.92078046368408
 30
0.0
 10
-38.14389275952943
 20
-64.83873668850701
 30
0.0
 10
-38.0222811334293
 20
-64.77072955236883
 30
0.0
 10
-37.89194465936868
 20
-64.71905590537601
 30
0.0
 10
-37.75463536833112
 20
-64.68054832314378
 30
0.0
 10
-37.60878978210449
 20
-64.65897031211048
 30
0.0
 10
-37.5090845612663
 20
-64.65592247848849
 30
0.0
 10
-37.45806826112261
 20
-64.65436298949143
 30
0.0
  0
SPLINE
  5
152
330
1F
100
AcDbEntity
  8
0
  6
Continuous
 62
     7
370
    25
100
AcDbSpline
210
0.0
220
0.0
230
1.0
 70
     8
 71
     3
 72
    15
 73
    11
 74
     0
 42
0.00000001
 43
0.00000001
 40
0.0
 40
0.0
 40
0.0
 40
0.0
 40
0.1280448079611128
 40
0.2537679000244907
 40
0.3774284265812973
 40
0.5005508414825259
 40
0.6232958832424812
 40
0.7465783319335103
 40
0.8723475406047162
 40
1.0
 40
1.0
 40
1.0
 40
1.0
 10
-38.75233909445594
 20
-65.98509215615807
 30
0.0
 10
-38.75127995312534
 20
-65.94579732574049
 30
0.0
 10
-38.74918087487629
 20
-65.86792016105363
 30
0.0
 10
-38.73595008748262
 20
-65.75265461652337
 30
0.0
 10
-38.71250179441459
 20
-65.6406261639948
 30
0.0
 10
-38.68032547046546
 20
-65.53174171602593
 30
0.0
 10
-38.63877422428222
 20
-65.42618358204184
 30
0.0
 10
-38.587942005066
 20
-65.32388751841867
 30
0.0
 10
-38.52774962727723
 20
-65.22496237855822
 30
0.0
 10
-38.48127695352076
 20
-65.16255924485041
 30
0.0
 10
-38.45786794060979
 20
-65.13112581000425
 30
0.0
  0
SPLINE
  5
153
330
1F
100
AcDbEntity
  8
0
  6
Continuous
 62
     7
370
    25
100
AcDbSpline
210
0.0
220
0.0
230
1.0
 70
     8
 71
     3
 72
    23
 73
    19
 74
     0
 42
0.00000001
 43
0.00000001
 40
0.0
 40
0.0
 40
0.0
 40
0.0
 40
0.0715786576891404
 40
0.1396292246928468
 40
0.2047966973966646
 40
0.2681349633966795
 40
0.3298137469867275
 40
0.3913013977745571
 40
0.453433515097054
 40
0.5165516903197668
 40
0.5796312707049212
 40
0.641118921492749
 40
0.7012940466987747
 40
0.7608103356761312
 40
0.8199317217781439
 40
0.8789195754993784
 40
0.938982822250445
 40
1.0
 40
1.0
 40
1.0
 40
1.0
 10
-37.4657806008662
 20
-67.30179888692732
 30
0.0
 10
-37.51492257840165
 20
-67.30065171159775
 30
0.0
 10
-37.61078434005896
 20
-67.29841390486838
 30
0.0
 10
-37.75032408717182
 20
-67.27912144043393
 30
0.0
 10
-37.88170350556933
 20
-67.24764908174025
 30
0.0
 10
-38.00491520892293
 20
-67.20368354024896
 30
0.0
 10
-38.11965746150049
 20
-67.1462562161587
 30
0.0
 10
-38.2261583163124
 20
-67.07629673435494
 30
0.0
 10
-38.32497784218138
 20
-66.99416447966642
 30
0.0
 10
-38.41300205136654
 20
-66.89914803617944
 30
0.0
 10
-38.49224593407698
 20
-66.79746607888407
 30
0.0
 10
-38.56217175405266
 20
-66.69151019439806
 30
0.0
 10
-38.6206291851021
 20
-66.58154696992415
 30
0.0
 10
-38.66818179529785
 20
-66.46827644588062
 30
0.0
 10
-38.70658666026763
 20
-66.35241255233748
 30
0.0
 10
-38.73335336403676
 20
-66.23290108476826
 30
0.0
 10
-38.74878311201881
 20
-66.11006550052808
 30
0.0
 10
-38.75114755755617
 20
-66.02696816481033
 30
0.0
 10
-38.75233909445594
 20
-65.98509215615807
 30
0.0
  0
SPLINE
  5
154
330
1F
100
AcDbEntity
  8
0
  6
Continuous
 62
     7
370
    25
100
AcDbSpline
210
0.0
220
0.0
230
1.0
 70
     8
 71
     3
 72
    19
 73
    15
 74
     0
 42
0.00000001
 43
0.00000001
 40
0.0
 40
0.0
 40
0.0
 40
0.0
 40
0.0933698567361909
 40
0.1816607660710002
 40
0.2658742270426201
 40
0.3463547840343055
 40
0.424599861717891
 40
0.5019031838373761
 40
0.5799920909873446
 40
0.6584434305294303
 40
0.7386722364878303
 40
0.8218941484362403
 40
0.9088007920466139
 40
1.0
 40
1.0
 40
1.0
 40
1.0
 10
-36.28439037650722
 20
-66.59576923949143
 30
0.0
 10
-36.3066269717472
 20
-66.63521257076675
 30
0.0
 10
-36.34989058023186
 20
-66.71195367358446
 30
0.0
 10
-36.42429132812266
 20
-66.81738553405651
 30
0.0
 10
-36.50228340070083
 20
-66.9122332498953
 30
0.0
 10
-36.58738736870442
 20
-66.99396290417918
 30
0.0
 10
-36.67705704765841
 20
-67.06521428915337
 30
0.0
 10
-36.7717897024441
 20
-67.12755211387231
 30
0.0
 10
-36.87207852017945
 20
-67.18067063421815
 30
0.0
 10
-36.97792824495771
 20
-67.22542316209092
 30
0.0
 10
-37.0902277960992
 20
-67.25983265619884
 30
0.0
 10
-37.20924931250924
 20
-67.28413687711983
 30
0.0
 10
-37.33522080788804
 20
-67.29916014577029
 30
0.0
 10
-37.42156698775579
 20
-67.30090528654732
 30
0.0
 10
-37.4657806008662
 20
-67.30179888692732
 30
0.0
  0
SPLINE
  5
156
330
1F
100
AcDbEntity
  8
0
  6
Continuous
 62
     7
370
    25
100
AcDbSpline
210
0.0
220
0.0
230
1.0
 70
     8
 71
     3
 72
    19
 73
    15
 74
     0
 42
0.00000001
 43
0.00000001
 40
0.0
 40
0.0
 40
0.0
 40
0.0
 40
0.0825922633314367
 40
0.1638788940984978
 40
0.2456587396295067
 40
0.3277256953541253
 40
0.40860996091032
 40
0.4857490859539363
 40
0.5591690561972843
 40
0.6302684758575534
 40
0.7053060284320781
 40
0.7920649660966077
 40
0.8897964374100911
 40
1.0
 40
1.0
 40
1.0
 40
1.0
 10
-37.50504342137901
 20
-66.98769632282475
 30
0.0
 10
-37.473692273775
 20
-66.98708826616486
 30
0.0
 10
-37.41148558284746
 20
-66.9858817651083
 30
0.0
 10
-37.31884472550436
 20
-66.97414985419728
 30
0.0
 10
-37.22770519810482
 20
-66.95517957857615
 30
0.0
 10
-37.13844421483763
 20
-66.92928958849258
 30
0.0
 10
-37.05287336892093
 20
-66.8977127363858
 30
0.0
 10
-36.97362781885968
 20
-66.85960987873672
 30
0.0
 10
-36.90074760323357
 20
-66.8174601319938
 30
0.0
 10
-36.83263063664727
 20
-66.76925045694537
 30
0.0
 10
-36.76655964329522
 20
-66.71024226994236
 30
0.0
 10
-36.7010171568805
 20
-66.6366065489538
 30
0.0
 10
-36.63074050351723
 20
-66.54951902117023
 30
0.0
 10
-36.58675091077347
 20
-66.48397335519228
 30
0.0
 10
-36.5634368508662
 20
-66.44923478436323
 30
0.0
  0
SPLINE
  5
157
330
1F
100
AcDbEntity
  8
0
  6
Continuous
 62
     7
370
    25
100
AcDbSpline
210
0.0
220
0.0
230
1.0
 70
     8
 71
     3
 72
    23
 73
    19
 74
     0
 42
0.00000001
 43
0.00000001
 40
0.0
 40
0.0
 40
0.0
 40
0.0
 40
0.0683846151037666
 40
0.1344755875434481
 40
0.1983910577839537
 40
0.2607534774484844
 40
0.3218292228076494
 40
0.3830372384795197
 40
0.4446531231064235
 40
0.5073980112039997
 40
0.569825237973024
 40
0.6307776406313107
 40
0.6909286865237174
 40
0.7509451326917351
 40
0.8110494767293266
 40
0.8723308525469944
 40
0.9350040935894061
 40
1.0
 40
1.0
 40
1.0
 40
1.0
 10
-38.43823653035338
 20
-66.04538863051707
 30
0.0
 10
-38.43669692392424
 20
-66.0790890947642
 30
0.0
 10
-38.43366934997602
 20
-66.1453596985139
 30
0.0
 10
-38.4195542068096
 20
-66.24233048159637
 30
0.0
 10
-38.39730543303536
 20
-66.33470382375997
 30
0.0
 10
-38.36603637039685
 20
-66.42178686573344
 30
0.0
 10
-38.32816952514197
 20
-66.50471699324873
 30
0.0
 10
-38.28178380835603
 20
-66.58287903021737
 30
0.0
 10
-38.22644425440355
 20
-66.65591696026726
 30
0.0
 10
-38.16471855501916
 20
-66.72448409786038
 30
0.0
 10
-38.09601145968355
 20
-66.78554485902811
 30
0.0
 10
-38.02372871246235
 20
-66.84019663526237
 30
0.0
 10
-37.94683514747317
 20
-66.88600223199172
 30
0.0
 10
-37.86593706397922
 20
-66.92318212174519
 30
0.0
 10
-37.78116527883505
 20
-66.95228843780428
 30
0.0
 10
-37.69249308371929
 20
-66.9721562584872
 30
0.0
 10
-37.60009496736456
 20
-66.98546336536207
 30
0.0
 10
-37.53710923333177
 20
-66.98694303056259
 30
0.0
 10
-37.50504342137901
 20
-66.98769632282475
 30
0.0
  0
SPLINE
  5
15C
330
1F
100
AcDbEntity
  8
0
  6
Continuous
 62
     7
370
    25
100
AcDbSpline
210
0.0
220
0.0
230
1.0
 70
     8
 71
     3
 72
    23
 73
    19
 74
     0
 42
0.00000001
 43
0.00000001
 40
0.0
 40
0.0
 40
0.0
 40
0.0
 40
0.067978489619248
 40
0.1330435352439082
 40
0.1965074380533909
 40
0.2586134167685794
 40
0.3197283376065495
 40
0.3808728540495655
 40
0.4426356023162031
 40
0.5050793035048765
 40
0.5678805200585746
 40
0.6288138541554867
 40
0.6889100905404394
 40
0.7487650058898465
 40
0.8093857829631161
 40
0.8708843357532254
 40
0.9340374630737024
 40
1.0
 40
1.0
 40
1.0
 40
1.0
 10
-35.6113134534303
 20
-65.32533654718372
 30
0.0
 10
-35.61077925810788
 20
-65.30171114923529
 30
0.0
 10
-35.60973376217819
 20
-65.25547289825015
 30
0.0
 10
-35.60138971060239
 20
-65.18753407794698
 30
0.0
 10
-35.58619799940638
 20
-65.12298592409834
 30
0.0
 10
-35.56714307680752
 20
-65.06085906108989
 30
0.0
 10
-35.54066007236347
 20
-65.00235696705214
 30
0.0
 10
-35.50901416721854
 20
-64.94669949602199
 30
0.0
 10
-35.4718267422946
 20
-64.89396357801955
 30
0.0
 10
-35.42898345144646
 20
-64.84496044593156
 30
0.0
 10
-35.38187680620289
 20
-64.80045111962434
 30
0.0
 10
-35.33098203646755
 20
-64.76165249165301
 30
0.0
 10
-35.27744377988673
 20
-64.72854613685654
 30
0.0
 10
-35.22103536032768
 20
-64.70078097626538
 30
0.0
 10
-35.16121488736374
 20
-64.67977959367055
 30
0.0
 10
-35.09840050102703
 20
-64.66532220860208
 30
0.0
 10
-35.03271934614779
 20
-64.6556670058012
 30
0.0
 10
-34.98781822018628
 20
-64.65480392150471
 30
0.0
 10
-34.9648791585585
 20
-64.65436298949143
 30
0.0
  0
SPLINE
  5
15D
330
1F
100
AcDbEntity
  8
0
  6
Continuous
 62
     7
370
    25
100
AcDbSpline
210
0.0
220
0.0
230
1.0
 70
     8
 71
     3
 72
    19
 73
    15
 74
     0
 42
0.00000001
 43
0.00000001
 40
0.0
 40
0.0
 40
0.0
 40
0.0
 40
0.0962401251801542
 40
0.1852312611287006
 40
0.267500523077437
 40
0.3444003817777772
 40
0.4195948685557335
 40
0.496890626592776
 40
0.5766379188385133
 40
0.6602678524196379
 40
0.7453866150876265
 40
0.8300403273864526
 40
0.914474211638802
 40
0.9999999999999999
 40
0.9999999999999999
 40
0.9999999999999999
 40
0.9999999999999999
 10
-36.46387755599441
 20
-65.73128606641451
 30
0.0
 10
-36.47537418054796
 20
-65.68962319269001
 30
0.0
 10
-36.49750148203254
 20
-65.6094355721129
 30
0.0
 10
-36.54373784647895
 20
-65.49839468166888
 30
0.0
 10
-36.59580938717513
 20
-65.39970678065932
 30
0.0
 10
-36.65743111854994
 20
-65.31412714760322
 30
0.0
 10
-36.72724984417658
 20
-65.23812363462108
 30
0.0
 10
-36.8078950268245
 20
-65.17170504945332
 30
0.0
 10
-36.89833092031762
 20
-65.11228759838589
 30
0.0
 10
-36.99809006099543
 20
-65.062135098919
 30
0.0
 10
-37.10373184607135
 20
-65.01944524019665
 30
0.0
 10
-37.21433803804286
 20
-64.99082012444701
 30
0.0
 10
-37.32719582591368
 20
-64.97121058214739
 30
0.0
 10
-37.40353011226137
 20
-64.96938447371652
 30
0.0
 10
-37.44194245984056
 20
-64.96846555359397
 30
0.0
  0
SPLINE
  5
15F
330
1F
100
AcDbEntity
  8
0
  6
Continuous
 62
     7
370
    25
100
AcDbSpline
210
0.0
220
0.0
230
1.0
 70
     8
 71
     3
 72
    15
 73
    11
 74
     0
 42
0.00000001
 43
0.00000001
 40
0.0
 40
0.0
 40
0.0
 40
0.0
 40
0.1099838451118723
 40
0.2225804973638864
 40
0.3384998709624416
 40
0.4587085654776251
 40
0.5855353464579957
 40
0.7175177429458826
 40
0.8546668197510185
 40
1.0
 40
1.0
 40
1.0
 40
1.0
 10
-38.10099694702004
 20
-65.20824920744015
 30
0.0
 10
-38.11769022898441
 20
-65.2233435230646
 30
0.0
 10
-38.15147336321186
 20
-65.25389073911839
 30
0.0
 10
-38.19661388470116
 20
-65.30651994566941
 30
0.0
 10
-38.23983435738734
 20
-65.36327150783144
 30
0.0
 10
-38.27916801014
 20
-65.42631663242958
 30
0.0
 10
-38.31524559659972
 20
-65.49493741143617
 30
0.0
 10
-38.34900557378071
 20
-65.56855504667101
 30
0.0
 10
-38.3793919858623
 20
-65.64772817693259
 30
0.0
 10
-38.39648809589578
 20
-65.70290061616086
 30
0.0
 10
-38.4052838059944
 20
-65.7312860664145
 30
0.0
  0
SPLINE
  5
160
330
1F
100
AcDbEntity
  8
0
  6
Continuous
 62
     7
370
    25
100
AcDbSpline
210
0.0
220
0.0
230
1.0
 70
     8
 71
     3
 72
    15
 73
    11
 74
     0
 42
0.00000001
 43
0.00000001
 40
0.0
 40
0.0
 40
0.0
 40
0.0
 40
0.131091976256928
 40
0.2591412763281419
 40
0.3841617634833944
 40
0.5059919524977725
 40
0.6290980893898521
 40
0.7506691234237026
 40
0.8740389376151184
 40
1.0
 40
1.0
 40
1.0
 40
1.0
 10
-37.44194245984056
 20
-64.96846555359397
 30
0.0
 10
-37.47329189835712
 20
-64.96907722513906
 30
0.0
 10
-37.53526314740925
 20
-64.9702863711861
 30
0.0
 10
-37.62656421560244
 20
-64.9817565005188
 30
0.0
 10
-37.7142439145206
 20
-65.00071634539066
 30
0.0
 10
-37.79894920213194
 20
-65.02668130199284
 30
0.0
 10
-37.8795700705041
 20
-65.06128990449557
 30
0.0
 10
-37.95776483872282
 20
-65.1018731311051
 30
0.0
 10
-38.0315452349676
 20
-65.15141471490752
 30
0.0
 10
-38.07768653044464
 20
-65.18917356973972
 30
0.0
 10
-38.10099694702004
 20
-65.20824920744015
 30
0.0
  0
SPLINE
  5
161
330
1F
100
AcDbEntity
  8
0
  6
Continuous
 62
     7
370
    25
100
AcDbSpline
210
0.0
220
0.0
230
1.0
 70
     8
 71
     3
 72
    19
 73
    15
 74
     0
 42
0.00000001
 43
0.00000001
 40
0.0
 40
0.0
 40
0.0
 40
0.0
 40
0.0820662722709478
 40
0.1638049146802382
 40
0.2466175023921701
 40
0.3319829739590877
 40
0.4174662413505349
 40
0.5009071450388533
 40
0.584103051575841
 40
0.6682541715553394
 40
0.7520560821096466
 40
0.8345695599471742
 40
0.9166521793834906
 40
1.0
 40
1.0
 40
1.0
 40
1.0
 10
-16.18182627394311
 20
-65.98298879077346
 30
0.0
 10
-16.18371401781856
 20
-65.9391732488514
 30
0.0
 10
-16.18748196920589
 20
-65.85171708802429
 30
0.0
 10
-16.21385675179251
 20
-65.72206742078842
 30
0.0
 10
-16.25991454174766
 20
-65.59647979612305
 30
0.0
 10
-16.3210325649671
 20
-65.47530180761046
 30
0.0
 10
-16.39690055023686
 20
-65.36229400715969
 30
0.0
 10
-16.48590651384288
 20
-65.26080388012426
 30
0.0
 10
-16.5877883197707
 20
-65.17324389582083
 30
0.0
 10
-16.7006117393065
 20
-65.10025382459082
 30
0.0
 10
-16.82079192999165
 20
-65.04069427166957
 30
0.0
 10
-16.94728256362152
 20
-64.99984924620136
 30
0.0
 10
-17.07744068635942
 20
-64.9731110588344
 30
0.0
 10
-17.16583617915166
 20
-64.97002193049127
 30
0.0
 10
-17.21037194702003
 20
-64.96846555359397
 30
0.0
  0
SPLINE
  5
162
330
1F
100
AcDbEntity
  8
0
  6
Continuous
 62
     7
370
    25
100
AcDbSpline
210
0.0
220
0.0
230
1.0
 70
     8
 71
     3
 72
    19
 73
    15
 74
     0
 42
0.00000001
 43
0.00000001
 40
0.0
 40
0.0
 40
0.0
 40
0.0
 40
0.0859925287105363
 40
0.1697355739746234
 40
0.2526871184561388
 40
0.3365262885920225
 40
0.4198561141919551
 40
0.5024566706100769
 40
0.5852647562462158
 40
0.6697998313920888
 40
0.7544074688475749
 40
0.8369499629815847
 40
0.9179410084068608
 40
0.9999999999999999
 40
0.9999999999999999
 40
0.9999999999999999
 40
0.9999999999999999
 10
-17.21527979958413
 20
-66.98769632282475
 30
0.0
 10
-17.16936544707382
 20
-66.98606269393606
 30
0.0
 10
-17.07873781821032
 20
-66.98283817034967
 30
0.0
 10
-16.94569402784327
 20
-66.95766454729588
 30
0.0
 10
-16.81837981826442
 20
-66.91578043342811
 30
0.0
 10
-16.69743673608135
 20
-66.85849672496678
 30
0.0
 10
-16.58475742400769
 20
-66.78647469027389
 30
0.0
 10
-16.4841047900272
 20
-66.69932851972054
 30
0.0
 10
-16.3946250805377
 20
-66.59982700516154
 30
0.0
 10
-16.31997330457857
 20
-66.48759331193061
 30
0.0
 10
-16.25764706010213
 20
-66.3681423426766
 30
0.0
 10
-16.21483378376388
 20
-66.2424880412795
 30
0.0
 10
-16.18611406257784
 20
-66.11399325217943
 30
0.0
 10
-16.18326176415546
 20
-66.02684720781373
 30
0.0
 10
-16.18182627394311
 20
-65.98298879077346
 30
0.0
  0
SPLINE
  5
163
330
1F
100
AcDbEntity
  8
0
  6
Continuous
 62
     7
370
    25
100
AcDbSpline
210
0.0
220
0.0
230
1.0
 70
     8
 71
     3
 72
    23
 73
    19
 74
     0
 42
0.00000001
 43
0.00000001
 40
0.0
 40
0.0
 40
0.0
 40
0.0
 40
0.0656456998935163
 40
0.1292115114517312
 40
0.1912533534191562
 40
0.2519584927837487
 40
0.312564135848129
 40
0.3735621529251194
 40
0.4352304980090144
 40
0.4985361736141483
 40
0.5619014030194703
 40
0.6240980803890682
 40
0.6850233969672198
 40
0.7460507790253099
 40
0.8075767540633212
 40
0.8699430039935985
 40
0.9339390434195636
 40
1.0
 40
1.0
 40
1.0
 40
1.0
 10
-18.24592883804567
 20
-65.97317308564527
 30
0.0
 10
-18.24496916761773
 20
-66.00851090403845
 30
0.0
 10
-18.2430802325208
 20
-66.07806691354703
 30
0.0
 10
-18.2286498638579
 20
-66.18019460423822
 30
0.0
 10
-18.20569420212847
 20
-66.27792769652045
 30
0.0
 10
-18.1733507081745
 20
-66.37137269196056
 30
0.0
 10
-18.13084947349487
 20
-66.45999913166146
 30
0.0
 10
-18.07963920773689
 20
-66.54449521159573
 30
0.0
 10
-18.01868756133912
 20
-66.62409849008289
 30
0.0
 10
-17.94978097184118
 20
-66.6986138104309
 30
0.0
 10
-17.87381859113092
 20
-66.76642322474437
 30
0.0
 10
-17.7922954725828
 20
-66.82520144981261
 30
0.0
 10
-17.70687754169672
 20
-66.8758156399498
 30
0.0
 10
-17.61658757074561
 20
-66.91616048246087
 30
0.0
 10
-17.52247628032522
 20
-66.94908700317633
 30
0.0
 10
-17.42357793909431
 20
-66.97082074883988
 30
0.0
 10
-17.32090651495428
 20
-66.98579578766889
 30
0.0
 10
-17.25085941769539
 20
-66.98705614088955
 30
0.0
 10
-17.21527979958413
 20
-66.98769632282475
 30
0.0
  0
SPLINE
  5
164
330
1F
100
AcDbEntity
  8
0
  6
Continuous
 62
     7
370
    25
100
AcDbSpline
210
0.0
220
0.0
230
1.0
 70
     8
 71
     3
 72
    19
 73
    15
 74
     0
 42
0.00000001
 43
0.00000001
 40
0.0
 40
0.0
 40
0.0
 40
0.0
 40
0.0847350012796474
 40
0.1681817837855198
 40
0.252418528118141
 40
0.3386177966878015
 40
0.4240141020386705
 40
0.5064019712145122
 40
0.5875451741389983
 40
0.6688007216827554
 40
0.7500995272674263
 40
0.8310222701893083
 40
0.9139596201585747
 40
0.9999999999999999
 40
0.9999999999999999
 40
0.9999999999999999
 40
0.9999999999999999
 10
-17.21037194702003
 20
-64.96846555359397
 30
0.0
 10
-17.25583945448568
 20
-64.97002105103299
 30
0.0
 10
-17.34608323089888
 20
-64.9731083978202
 30
0.0
 10
-17.47925145324744
 20
-64.99989622185231
 30
0.0
 10
-17.60931473700536
 20
-65.04094383338285
 30
0.0
 10
-17.73360226885752
 20
-65.09987518257857
 30
0.0
 10
-17.84945632425802
 20
-65.17198664321894
 30
0.0
 10
-17.95306893657337
 20
-65.25672684256871
 30
0.0
 10
-18.04240049416065
 20
-65.35350675075195
 30
0.0
 10
-18.11594426491689
 20
-65.46201255253652
 30
0.0
 10
-18.17434906383533
 20
-65.57919758805852
 30
0.0
 10
-18.2161328118525
 20
-65.70420979128725
 30
0.0
 10
-18.24113245854174
 20
-65.8363911037854
 30
0.0
 10
-18.24431059095356
 20
-65.92702430942407
 30
0.0
 10
-18.24592883804567
 20
-65.97317308564527
 30
0.0
  0
SPLINE
  5
165
330
1F
100
AcDbEntity
  8
0
  6
Continuous
 62
     7
370
    25
100
AcDbSpline
210
0.0
220
0.0
230
1.0
 70
     8
 71
     3
 72
    15
 73
    11
 74
     0
 42
0.00000001
 43
0.00000001
 40
0.0
 40
0.0
 40
0.0
 40
0.0
 40
0.1310919762569275
 40
0.2591412763281408
 40
0.3841617634834021
 40
0.5059919524977751
 40
0.6290980893898496
 40
0.7506691234237037
 40
0.8740389376151189
 40
0.9999999999999999
 40
0.9999999999999999
 40
0.9999999999999999
 40
0.9999999999999999
 10
-25.14707066496876
 20
-64.96846555359397
 30
0.0
 10
-25.17842010348533
 20
-64.96907722513907
 30
0.0
 10
-25.24039135253745
 20
-64.97028637118612
 30
0.0
 10
-25.33169242073062
 20
-64.98175650051878
 30
0.0
 10
-25.41937211964881
 20
-65.00071634539067
 30
0.0
 10
-25.50407740726014
 20
-65.02668130199281
 30
0.0
 10
-25.5846982756323
 20
-65.06128990449557
 30
0.0
 10
-25.66289304385099
 20
-65.10187313110505
 30
0.0
 10
-25.73667344009582
 20
-65.15141471490752
 30
0.0
 10
-25.78281473557285
 20
-65.18917356973974
 30
0.0
 10
-25.80612515214824
 20
-65.20824920744015
 30
0.0
  0
SPLINE
  5
166
330
1F
100
AcDbEntity
  8
0
  6
Continuous
 62
     7
370
    25
100
AcDbSpline
210
0.0
220
0.0
230
1.0
 70
     8
 71
     3
 72
    19
 73
    15
 74
     0
 42
0.00000001
 43
0.00000001
 40
0.0
 40
0.0
 40
0.0
 40
0.0
 40
0.0962401251801544
 40
0.185231261128701
 40
0.2675005230774377
 40
0.3444003817777765
 40
0.419594868555733
 40
0.4968906265927776
 40
0.5766379188385151
 40
0.6602678524196421
 40
0.7453866150876285
 40
0.8300403273864548
 40
0.9144742116388018
 40
1.0
 40
1.0
 40
1.0
 40
1.0
 10
-24.1690057611226
 20
-65.7312860664145
 30
0.0
 10
-24.18050238567615
 20
-65.68962319269
 30
0.0
 10
-24.20262968716073
 20
-65.6094355721129
 30
0.0
 10
-24.24886605160715
 20
-65.4983946816689
 30
0.0
 10
-24.30093759230332
 20
-65.39970678065929
 30
0.0
 10
-24.36255932367814
 20
-65.31412714760323
 30
0.0
 10
-24.43237804930477
 20
-65.23812363462106
 30
0.0
 10
-24.5130232319527
 20
-65.17170504945332
 30
0.0
 10
-24.60345912544581
 20
-65.11228759838585
 30
0.0
 10
-24.70321826612363
 20
-65.06213509891903
 30
0.0
 10
-24.80886005119955
 20
-65.01944524019663
 30
0.0
 10
-24.91946624317107
 20
-64.99082012444703
 30
0.0
 10
-25.03232403104187
 20
-64.97121058214738
 30
0.0
 10
-25.10865831738957
 20
-64.9693844737165
 30
0.0
 10
-25.14707066496876
 20
-64.96846555359397
 30
0.0
  0
SPLINE
  5
168
330
1F
100
AcDbEntity
  8
0
  6
Continuous
 62
     7
370
    25
100
AcDbSpline
210
0.0
220
0.0
230
1.0
 70
     8
 71
     3
 72
    15
 73
    11
 74
     0
 42
0.00000001
 43
0.00000001
 40
0.0
 40
0.0
 40
0.0
 40
0.0
 40
0.1099838451118721
 40
0.2225804973638859
 40
0.3384998709624409
 40
0.4587085654776241
 40
0.5855353464579971
 40
0.7175177429458813
 40
0.8546668197510171
 40
1.0
 40
1.0
 40
1.0
 40
1.0
 10
-25.80612515214824
 20
-65.20824920744015
 30
0.0
 10
-25.82281843411262
 20
-65.2233435230646
 30
0.0
 10
-25.85660156834006
 20
-65.25389073911839
 30
0.0
 10
-25.90174208982935
 20
-65.30651994566941
 30
0.0
 10
-25.94496256251555
 20
-65.36327150783147
 30
0.0
 10
-25.98429621526819
 20
-65.42631663242956
 30
0.0
 10
-26.02037380172792
 20
-65.49493741143617
 30
0.0
 10
-26.0541337789089
 20
-65.56855504667101
 30
0.0
 10
-26.0845201909905
 20
-65.64772817693259
 30
0.0
 10
-26.10161630102398
 20
-65.70290061616086
 30
0.0
 10
-26.11041201112261
 20
-65.7312860664145
 30
0.0
  0
SPLINE
  5
169
330
1F
100
AcDbEntity
  8
0
  6
Continuous
 62
     7
370
    25
100
AcDbSpline
210
0.0
220
0.0
230
1.0
 70
     8
 71
     3
 72
    19
 73
    15
 74
     0
 42
0.00000001
 43
0.00000001
 40
0.0
 40
0.0
 40
0.0
 40
0.0
 40
0.0815893489321846
 40
0.1628588951679382
 40
0.2454836892755841
 40
0.3308071391580112
 40
0.4164933737762876
 40
0.4998932031606343
 40
0.5830481559950239
 40
0.667157852062158
 40
0.751311929292916
 40
0.8337847893576144
 40
0.9162564885439791
 40
0.9999999999999999
 40
0.9999999999999999
 40
0.9999999999999999
 40
0.9999999999999999
 10
-23.00233909445593
 20
-65.97457532923501
 30
0.0
 10
-23.00047420114616
 20
-66.018165436419
 30
0.0
 10
-22.99675172427866
 20
-66.10517479228653
 30
0.0
 10
-22.97000102988066
 20
-66.23415536905487
 30
0.0
 10
-22.92512115644713
 20
-66.3598094111162
 30
0.0
 10
-22.86387909371906
 20
-66.4810704046359
 30
0.0
 10
-22.78719246899038
 20
-66.59365450499958
 30
0.0
 10
-22.69830381643814
 20
-66.69539462756116
 30
0.0
 10
-22.59635353512528
 20
-66.78288421583395
 30
0.0
 10
-22.48342602805118
 20
-66.85612178943943
 30
0.0
 10
-22.36281805765085
 20
-66.91528431033488
 30
0.0
 10
-22.23598412617798
 20
-66.95644994984183
 30
0.0
 10
-22.10530848802149
 20
-66.98302773046201
 30
0.0
 10
-22.01645615416956
 20
-66.98613220729908
 30
0.0
 10
-21.97169005599439
 20
-66.98769632282475
 30
0.0
  0
SPLINE
  5
16A
330
1F
100
AcDbEntity
  8
0
  6
Continuous
 62
     7
370
    25
100
AcDbSpline
210
0.0
220
0.0
230
1.0
 70
     8
 71
     3
 72
    19
 73
    15
 74
     0
 42
0.00000001
 43
0.00000001
 40
0.0
 40
0.0
 40
0.0
 40
0.0
 40
0.0859205174117683
 40
0.169593435124743
 40
0.2524755148685385
 40
0.3362444769570507
 40
0.4195045210415733
 40
0.5020359066440919
 40
0.584774647676874
 40
0.6698464747057996
 40
0.754184866388789
 40
0.836658238329332
 40
0.9180097257088042
 40
1.0
 40
1.0
 40
1.0
 40
1.0
 10
-21.9688855688149
 20
-64.96846555359397
 30
0.0
 10
-22.01479990668696
 20
-64.97009919132454
 30
0.0
 10
-22.10542750665686
 20
-64.97332373236341
 30
0.0
 10
-22.23847150871929
 20
-64.99849722754794
 30
0.0
 10
-22.36578492280731
 20
-65.04038182191171
 30
0.0
 10
-22.48673099707589
 20
-65.09766372308006
 30
0.0
 10
-22.59939921369849
 20
-65.16969245969713
 30
0.0
 10
-22.70009288452782
 20
-65.25681384298896
 30
0.0
 10
-22.78963558588375
 20
-65.3566508571436
 30
0.0
 10
-22.86494385011652
 20
-65.46875296753379
 30
0.0
 10
-22.9263343470362
 20
-65.5889310586024
 30
0.0
 10
-22.96950137897294
 20
-65.71455549670351
 30
0.0
 10
-22.9979706263821
 20
-65.84336047426018
 30
0.0
 10
-23.00087914694357
 20
-65.93072316003793
 30
0.0
 10
-23.00233909445593
 20
-65.97457532923502
 30
0.0
  0
SPLINE
  5
16B
330
1F
100
AcDbEntity
  8
0
  6
Continuous
 62
     7
370
    25
100
AcDbSpline
210
0.0
220
0.0
230
1.0
 70
     8
 71
     3
 72
    19
 73
    15
 74
     0
 42
0.00000001
 43
0.00000001
 40
0.0
 40
0.0
 40
0.0
 40
0.0
 40
0.0848023883688277
 40
0.1686635395998408
 40
0.2525519243727788
 40
0.3382396894642442
 40
0.4231026613931521
 40
0.5055560510576199
 40
0.5861756559890481
 40
0.6671357203303546
 40
0.7484991803055312
 40
0.830452398758278
 40
0.9134557062010139
 40
1.0
 40
1.0
 40
1.0
 40
1.0
 10
-21.97169005599439
 20
-66.98769632282475
 30
0.0
 10
-21.92624355323222
 20
-66.98603635889894
 30
0.0
 10
-21.83585496671077
 20
-66.98273485528898
 30
0.0
 10
-21.70241625883077
 20
-66.95745358999575
 30
0.0
 10
-21.57292129603288
 20
-66.91568479164569
 30
0.0
 10
-21.44913406765455
 20
-66.8577856649117
 30
0.0
 10
-21.33381793650669
 20
-66.78602830901461
 30
0.0
 10
-21.23032005889025
 20
-66.70202121798373
 30
0.0
 10
-21.14280409051679
 20
-66.60431803386174
 30
0.0
 10
-21.06861148093855
 20
-66.49694158081672
 30
0.0
 10
-21.01043606423994
 20
-66.37922958435585
 30
0.0
 10
-20.96806000504288
 20
-66.25389539360997
 30
0.0
 10
-20.94300609926655
 20
-66.12093464546491
 30
0.0
 10
-20.939848369624
 20
-66.0300707185063
 30
0.0
 10
-20.93823653035337
 20
-65.98368991256834
 30
0.0
  0
SPLINE
  5
16C
330
1F
100
AcDbEntity
  8
0
  6
Continuous
 62
     7
370
    25
100
AcDbSpline
210
0.0
220
0.0
230
1.0
 70
     8
 71
     3
 72
    23
 73
    19
 74
     0
 42
0.00000001
 43
0.00000001
 40
0.0
 40
0.0
 40
0.0
 40
0.0
 40
0.0656337996756876
 40
0.1291880880571249
 40
0.191218683112184
 40
0.2519128178811529
 40
0.3125074743865473
 40
0.3734944337751958
 40
0.4351515996540496
 40
0.4987414744066451
 40
0.5620952169966306
 40
0.624186566811654
 40
0.6854757184651945
 40
0.7460968148060515
 40
0.8076116364477843
 40
0.8699665806571895
 40
0.933951018914907
 40
0.9999999999999999
 40
0.9999999999999999
 40
0.9999999999999999
 40
0.9999999999999999
 10
-20.93823653035337
 20
-65.98368991256834
 30
0.0
 10
-20.93919618672496
 20
-65.94835208206058
 30
0.0
 10
-20.94108509415452
 20
-65.87879604870672
 30
0.0
 10
-20.95551566368515
 20
-65.77666853113467
 30
0.0
 10
-20.97847059009709
 20
-65.67893480511438
 30
0.0
 10
-21.01081676011355
 20
-65.58549211605578
 30
0.0
 10
-21.05330804452912
 20
-65.49685710065654
 30
0.0
 10
-21.1045558104155
 20
-65.41239334044617
 30
0.0
 10
-21.1654612601491
 20
-65.33254012905655
 30
0.0
 10
-21.23504395624908
 20
-65.25839705807805
 30
0.0
 10
-21.31120915879453
 20
-65.19077059581882
 30
0.0
 10
-21.39180369942662
 20
-65.1304063551071
 30
0.0
 10
-21.47778244638405
 20
-65.08081758236719
 30
0.0
 10
-21.5676994833018
 20
-65.03977631086956
 30
0.0
 10
-21.66171081776385
 20
-65.00711716097194
 30
0.0
 10
-21.76058143758241
 20
-64.98532946720393
 30
0.0
 10
-21.86326042450946
 20
-64.97036914616851
 30
0.0
 10
-21.93330647990577
 20
-64.9691067653992
 30
0.0
 10
-21.9688855688149
 20
-64.96846555359397
 30
0.0
  0
SPLINE
  5
16D
330
1F
100
AcDbEntity
  8
0
  6
Continuous
 62
     7
370
    25
100
AcDbSpline
210
0.0
220
0.0
230
1.0
 70
     8
 71
     3
 72
    19
 73
    15
 74
     0
 42
0.00000001
 43
0.00000001
 40
0.0
 40
0.0
 40
0.0
 40
0.0
 40
0.0855188992526829
 40
0.1693092867993403
 40
0.2522179032131823
 40
0.3367564541858564
 40
0.4205954942562019
 40
0.5027411035138988
 40
0.5848035507161544
 40
0.6682684846239492
 40
0.7518231297771604
 40
0.833628628445535
 40
0.9162197991152903
 40
1.0
 40
1.0
 40
1.0
 40
1.0
 10
-31.34849294060979
 20
-64.96846555359397
 30
0.0
 10
-31.39442364449424
 20
-64.97002661909616
 30
0.0
 10
-31.48535669888134
 20
-64.97311719777676
 30
0.0
 10
-31.61864504136697
 20
-64.99950191092991
 30
0.0
 10
-31.74732197483032
 20
-65.04084781093447
 30
0.0
 10
-31.86892740301522
 20
-65.09999042636949
 30
0.0
 10
-31.98283451292139
 20
-65.1720846643154
 30
0.0
 10
-32.08390933337945
 20
-65.25942495190633
 30
0.0
 10
-32.17231424947233
 20
-65.3591711487846
 30
0.0
 10
-32.2470971877666
 20
-65.47042139578934
 30
0.0
 10
-32.30662855424136
 20
-65.59044367125894
 30
0.0
 10
-32.34877197370668
 20
-65.71695440539308
 30
0.0
 10
-32.37602199698618
 20
-65.84790939819135
 30
0.0
 10
-32.3790296490296
 20
-65.93728200136947
 30
0.0
 10
-32.38054422266107
 20
-65.9822876689786
 30
0.0
  0
SPLINE
  5
16E
330
1F
100
AcDbEntity
  8
0
  6
Continuous
 62
     7
370
    25
100
AcDbSpline
210
0.0
220
0.0
230
1.0
 70
     8
 71
     3
 72
    19
 73
    15
 74
     0
 42
0.00000001
 43
0.00000001
 40
0.0
 40
0.0
 40
0.0
 40
0.0
 40
0.0892427932208482
 40
0.1743490578004788
 40
0.2576131087527864
 40
0.3395273673229379
 40
0.4209973901479316
 40
0.5015790589405714
 40
0.5825417599975028
 40
0.6661326583338273
 40
0.7500491310216033
 40
0.8327429397442866
 40
0.9156474213323857
 40
1.0
 40
1.0
 40
1.0
 40
1.0
 10
-30.36131345343031
 20
-65.96405850231193
 30
0.0
 10
-30.36265302159973
 20
-65.91744064835271
 30
0.0
 10
-30.36527006707498
 20
-65.82636574335329
 30
0.0
 10
-30.38996722473892
 20
-65.6936589753637
 30
0.0
 10
-30.429787434925
 20
-65.56889030159508
 30
0.0
 10
-30.48563418720579
 20
-65.45245432572226
 30
0.0
 10
-30.5556161958871
 20
-65.34558477601968
 30
0.0
 10
-30.63990704471054
 20
-65.25026093155014
 30
0.0
 10
-30.7370530753268
 20
-65.16636007497722
 30
0.0
 10
-30.84677517550423
 20
-65.09646188145979
 30
0.0
 10
-30.9648226206353
 20
-65.0399964470232
 30
0.0
 10
-31.08834381672563
 20
-64.99763467489376
 30
0.0
 10
-31.21715538062409
 20
-64.9736403598624
 30
0.0
 10
-31.30446179018125
 20
-64.97020041659333
 30
0.0
 10
-31.34849294060979
 20
-64.96846555359397
 30
0.0
  0
SPLINE
  5
16F
330
1F
100
AcDbEntity
  8
0
  6
Continuous
 62
     7
370
    25
100
AcDbSpline
210
0.0
220
0.0
230
1.0
 70
     8
 71
     3
 72
    23
 73
    19
 74
     0
 42
0.00000001
 43
0.00000001
 40
0.0
 40
0.0
 40
0.0
 40
0.0
 40
0.0649830441815994
 40
0.1278026449472916
 40
0.1890563364713662
 40
0.24839464737494
 40
0.3076907059547576
 40
0.3669766194961138
 40
0.4273400442260111
 40
0.4887947153913434
 40
0.5506736934060112
 40
0.6120451114224913
 40
0.6733691390064716
 40
0.7349297539342557
 40
0.7978099682993279
 40
0.8628916725659048
 40
0.9300953375428159
 40
1.0
 40
1.0
 40
1.0
 40
1.0
 10
-32.38054422266107
 20
-65.9822876689786
 30
0.0
 10
-32.37981846582871
 20
-66.01622094152118
 30
0.0
 10
-32.37839111437215
 20
-66.08295776552313
 30
0.0
 10
-32.36466753662135
 20
-66.18089566024014
 30
0.0
 10
-32.34248657149352
 20
-66.27417597387445
 30
0.0
 10
-32.31104936518526
 20
-66.36280434833192
 30
0.0
 10
-32.27209667029912
 20
-66.44728914321216
 30
0.0
 10
-32.22310429932962
 20
-66.52704837796156
 30
0.0
 10
-32.16545332763481
 20
-66.6021530840353
 30
0.0
 10
-32.09959498970818
 20
-66.67204776581242
 30
0.0
 10
-32.02701860783895
 20
-66.73570873423134
 30
0.0
 10
-31.94829940852908
 20
-66.79164677487091
 30
0.0
 10
-31.86354415880646
 20
-66.8373974957936
 30
0.0
 10
-31.77483734860267
 20
-66.87693833340934
 30
0.0
 10
-31.6800265926211
 20
-66.90581740134381
 30
0.0
 10
-31.58047750655576
 20
-66.92785618036432
 30
0.0
 10
-31.47548581006943
 20
-66.94046493790802
 30
0.0
 10
-31.40391407079528
 20
-66.94202773570474
 30
0.0
 10
-31.36742322907133
 20
-66.94282452795295
 30
0.0
  0
SPLINE
  5
170
330
1F
100
AcDbEntity
  8
0
  6
Continuous
 62
     7
370
    25
100
AcDbSpline
210
0.0
220
0.0
230
1.0
 70
     8
 71
     3
 72
    23
 73
    19
 74
     0
 42
0.00000001
 43
0.00000001
 40
0.0
 40
0.0
 40
0.0
 40
0.0
 40
0.0701214992195642
 40
0.1371218486740224
 40
0.2014871210766367
 40
0.2637651191668756
 40
0.3245600950367288
 40
0.3847388869594641
 40
0.4449046043522661
 40
0.5052319196167173
 40
0.5654939949839903
 40
0.6250997441456856
 40
0.6843497139440977
 40
0.7438828254849615
 40
0.8046082057523036
 40
0.867238913771749
 40
0.9320942880208539
 40
1.0
 40
1.0
 40
1.0
 40
1.0
 10
-31.36742322907133
 20
-66.94282452795295
 30
0.0
 10
-31.33045947087568
 20
-66.94205691891298
 30
0.0
 10
-31.25817723341442
 20
-66.94055586756939
 30
0.0
 10
-31.1526062970215
 20
-66.92765236901357
 30
0.0
 10
-31.05257355665017
 20
-66.90683039272693
 30
0.0
 10
-30.95817073428805
 20
-66.87726736739948
 30
0.0
 10
-30.8690413932242
 20
-66.83954561677342
 30
0.0
 10
-30.78618677861899
 20
-66.79180899926297
 30
0.0
 10
-30.70783033055116
 20
-66.73744456721944
 30
0.0
 10
-30.63647392096715
 20
-66.6740325529984
 30
0.0
 10
-30.57194975544482
 20
-66.6041475580081
 30
0.0
 10
-30.51571898855256
 20
-66.52810266299335
 30
0.0
 10
-30.46780453952796
 20
-66.44704214394571
 30
0.0
 10
-30.4281268696828
 20
-66.36097513827097
 30
0.0
 10
-30.39783566551555
 20
-66.26923278520623
 30
0.0
 10
-30.37751676050911
 20
-66.17204442943348
 30
0.0
 10
-30.36331001534762
 20
-66.0698756905725
 30
0.0
 10
-30.36198909065439
 20
-65.9998670743959
 30
0.0
 10
-30.36131345343031
 20
-65.96405850231193
 30
0.0
  0
CIRCLE
  5
17D
330
1F
100
AcDbEntity
  8
0
  6
Continuous
 62
     7
370
    25
100
AcDbCircle
 10
-12.7272120542
 20
-71.0715334966
 30
0.0
 40
0.7409073676324773
  0
LINE
  5
17E
330
1F
100
AcDbEntity
  8
0
  6
Continuous
 62
     7
370
    25
100
AcDbLine
 10
-41.6023991906
 20
-64.115901451
 30
0.0
 11
-41.8484929406
 21
-64.115901451
 31
0.0
  0
LINE
  5
17F
330
1F
100
AcDbEntity
  8
0
  6
Continuous
 62
     7
370
    25
100
AcDbLine
 10
-41.8484929406
 20
-64.115901451
 30
0.0
 11
-41.8484929406
 21
-66.8979527331
 31
0.0
  0
LINE
  5
180
330
1F
100
AcDbEntity
  8
0
  6
Continuous
 62
     7
370
    25
100
AcDbLine
 10
-41.8484929406
 20
-66.8979527331
 30
0.0
 11
-41.4467501521
 21
-66.8979527331
 31
0.0
  0
LINE
  5
181
330
1F
100
AcDbEntity
  8
0
  6
Continuous
 62
     7
370
    25
100
AcDbLine
 10
-42.1625955047
 20
-63.7569270921
 30
0.0
 11
-41.4558647355
 21
-63.7569270921
 31
0.0
  0
LINE
  5
182
330
1F
100
AcDbEntity
  8
0
  6
Continuous
 62
     7
370
    25
100
AcDbLine
 10
-42.1625955047
 20
-67.2569270921
 30
0.0
 11
-42.1625955047
 21
-63.7569270921
 31
0.0
  0
LINE
  5
183
330
1F
100
AcDbEntity
  8
0
  6
Continuous
 62
     7
370
    25
100
AcDbLine
 10
-41.077960088
 20
-67.2569270921
 30
0.0
 11
-42.1625955047
 21
-67.2569270921
 31
0.0
  0
LINE
  5
184
330
1F
100
AcDbEntity
  8
0
  6
Continuous
 62
     7
370
    25
100
AcDbLine
 10
-10.6387295402
 20
-69.7347426935
 30
0.0
 11
-10.6387295402
 21
-72.3706101253
 31
0.0
  0
LINE
  5
185
330
1F
100
AcDbEntity
  8
0
  6
Continuous
 62
     7
370
    25
100
AcDbLine
 10
-10.6387295402
 20
-72.3706101253
 30
0.0
 11
-9.1506075788
 21
-72.3706101253
 31
0.0
  0
LINE
  5
186
330
1F
100
AcDbEntity
  8
0
  6
Continuous
 62
     7
370
    25
100
AcDbLine
 10
-9.2210319175
 20
-69.7347426935
 30
0.0
 11
-10.6387295402
 21
-69.7347426935
 31
0.0
  0
LINE
  5
187
330
1F
100
AcDbEntity
  8
0
  6
Continuous
 62
     7
370
    25
100
AcDbLine
 10
-7.7141268414
 20
-69.7347426935
 30
0.0
 11
-7.7141268414
 21
-72.3706101253
 31
0.0
  0
LINE
  5
188
330
1F
100
AcDbEntity
  8
0
  6
Continuous
 62
     7
370
    25
100
AcDbLine
 10
-7.7141268414
 20
-72.3706101253
 30
0.0
 11
-6.0299608923
 21
-72.3706101253
 31
0.0
  0
LINE
  5
189
330
1F
100
AcDbEntity
  8
0
  6
Continuous
 62
     7
370
    25
100
AcDbLine
 10
-6.0299608923
 20
-72.3706101253
 30
0.0
 11
-6.0299608923
 21
-71.8227227368
 31
0.0
  0
LINE
  5
18A
330
1F
100
AcDbEntity
  8
0
  6
Continuous
 62
     7
370
    25
100
AcDbLine
 10
-6.0299608923
 20
-71.8227227368
 30
0.0
 11
-7.0258155404
 21
-71.8227227368
 31
0.0
  0
LINE
  5
18B
330
1F
100
AcDbEntity
  8
0
  6
Continuous
 62
     7
370
    25
100
AcDbLine
 10
-7.0258155404
 20
-71.8227227368
 30
0.0
 11
-7.0258155404
 21
-69.7347426935
 31
0.0
  0
LINE
  5
18C
330
1F
100
AcDbEntity
  8
0
  6
Continuous
 62
     7
370
    25
100
AcDbLine
 10
-7.0258155404
 20
-69.7347426935
 30
0.0
 11
-7.7141268414
 21
-69.7347426935
 31
0.0
  0
LINE
  5
18D
330
1F
100
AcDbEntity
  8
0
  6
Continuous
 62
     7
370
    25
100
AcDbLine
 10
-4.6374164934
 20
-70.2682140277
 30
0.0
 11
-3.5305826376
 21
-70.2682140277
 31
0.0
  0
LINE
  5
18E
330
1F
100
AcDbEntity
  8
0
  6
Continuous
 62
     7
370
    25
100
AcDbLine
 10
-3.5305826376
 20
-70.2682140277
 30
0.0
 11
-3.5305826376
 21
-69.7920862829
 31
0.0
  0
LINE
  5
18F
330
1F
100
AcDbEntity
  8
0
  6
Continuous
 62
     7
370
    25
100
AcDbLine
 10
-3.5305826376
 20
-69.7920862829
 30
0.0
 11
-5.3251202123
 21
-69.7920862829
 31
0.0
  0
LINE
  5
190
330
1F
100
AcDbEntity
  8
0
  6
Continuous
 62
     7
370
    25
100
AcDbLine
 10
-5.3251202123
 20
-69.7920862829
 30
0.0
 11
-5.3251202123
 21
-72.4294267037
 31
0.0
  0
LINE
  5
191
330
1F
100
AcDbEntity
  8
0
  6
Continuous
 62
     7
370
    25
100
AcDbLine
 10
-5.3251202123
 20
-72.4294267037
 30
0.0
 11
-3.5305826376
 21
-72.4294267037
 31
0.0
  0
LINE
  5
192
330
1F
100
AcDbEntity
  8
0
  6
Continuous
 62
     7
370
    25
100
AcDbLine
 10
-3.5305826376
 20
-72.4294267037
 30
0.0
 11
-3.5305826376
 21
-71.848332332
 31
0.0
  0
LINE
  5
193
330
1F
100
AcDbEntity
  8
0
  6
Continuous
 62
     7
370
    25
100
AcDbLine
 10
-3.5305826376
 20
-71.848332332
 30
0.0
 11
-4.6374164934
 21
-71.848332332
 31
0.0
  0
LINE
  5
194
330
1F
100
AcDbEntity
  8
0
  6
Continuous
 62
     7
370
    25
100
AcDbLine
 10
-4.6374164934
 20
-71.848332332
 30
0.0
 11
-4.6374164934
 21
-71.3169374392
 31
0.0
  0
LINE
  5
195
330
1F
100
AcDbEntity
  8
0
  6
Continuous
 62
     7
370
    25
100
AcDbLine
 10
-4.6374164934
 20
-71.3169374392
 30
0.0
 11
-3.5305826376
 21
-71.3169374392
 31
0.0
  0
LINE
  5
196
330
1F
100
AcDbEntity
  8
0
  6
Continuous
 62
     7
370
    25
100
AcDbLine
 10
-3.5305826376
 20
-71.3169374392
 30
0.0
 11
-3.5305826376
 21
-70.8558755782
 31
0.0
  0
LINE
  5
197
330
1F
100
AcDbEntity
  8
0
  6
Continuous
 62
     7
370
    25
100
AcDbLine
 10
-3.5305826376
 20
-70.8558755782
 30
0.0
 11
-4.6374164934
 21
-70.8558755782
 31
0.0
  0
LINE
  5
198
330
1F
100
AcDbEntity
  8
0
  6
Continuous
 62
     7
370
    25
100
AcDbLine
 10
-4.6374164934
 20
-70.8558755782
 30
0.0
 11
-4.6374164934
 21
-70.2682140277
 31
0.0
  0
LINE
  5
199
330
1F
100
AcDbEntity
  8
0
  6
Continuous
 62
     7
370
    25
100
AcDbLine
 10
-30.7921893359
 20
-87.4072292201
 30
0.0
 11
-30.7921893359
 21
-89.0310613561
 31
0.0
  0
LINE
  5
19A
330
1F
100
AcDbEntity
  8
0
  6
Continuous
 62
     7
370
    25
100
AcDbLine
 10
-27.4972647687
 20
-89.0310613561
 30
0.0
 11
-27.4972647687
 21
-87.4072292201
 31
0.0
  0
LINE
  5
19B
330
1F
100
AcDbEntity
  8
0
  6
Continuous
 62
     7
370
    25
100
AcDbLine
 10
-27.4972647687
 20
-87.4072292201
 30
0.0
 11
-28.2358860861
 21
-87.4072292201
 31
0.0
  0
LINE
  5
19C
330
1F
100
AcDbEntity
  8
0
  6
Continuous
 62
     7
370
    25
100
AcDbLine
 10
-28.2358860861
 20
-87.4072292201
 30
0.0
 11
-28.2358860861
 21
-89.1228809885
 31
0.0
  0
LINE
  5
19D
330
1F
100
AcDbEntity
  8
0
  6
Continuous
 62
     7
370
    25
100
AcDbLine
 10
-30.146761093
 20
-89.1228809885
 30
0.0
 11
-30.146761093
 21
-87.4072292201
 31
0.0
  0
LINE
  5
19E
330
1F
100
AcDbEntity
  8
0
  6
Continuous
 62
     7
370
    25
100
AcDbLine
 10
-30.146761093
 20
-87.4072292201
 30
0.0
 11
-30.7921893359
 21
-87.4072292201
 31
0.0
  0
LINE
  5
19F
330
1F
100
AcDbEntity
  8
0
  6
Continuous
 62
     7
370
    25
100
AcDbLine
 10
-17.3546822191
 20
-69.7591167422
 30
0.0
 11
-17.3546822191
 21
-72.3986343624
 31
0.0
  0
LINE
  5
1A0
330
1F
100
AcDbEntity
  8
0
  6
Continuous
 62
     7
370
    25
100
AcDbLine
 10
-17.3546822191
 20
-72.3986343624
 30
0.0
 11
-16.6763402016
 21
-72.3986343624
 31
0.0
  0
LINE
  5
1A1
330
1F
100
AcDbEntity
  8
0
  6
Continuous
 62
     7
370
    25
100
AcDbLine
 10
-16.6763402016
 20
-72.3986343624
 30
0.0
 11
-16.6763402016
 21
-70.8716060068
 31
0.0
  0
LINE
  5
1A2
330
1F
100
AcDbEntity
  8
0
  6
Continuous
 62
     7
370
    25
100
AcDbLine
 10
-16.6763402016
 20
-70.8716060068
 30
0.0
 11
-15.5491664033
 21
-72.382204237
 31
0.0
  0
LINE
  5
1A3
330
1F
100
AcDbEntity
  8
0
  6
Continuous
 62
     7
370
    25
100
AcDbLine
 10
-15.5491664033
 20
-72.382204237
 30
0.0
 11
-14.9205794156
 21
-72.382204237
 31
0.0
  0
LINE
  5
1A4
330
1F
100
AcDbEntity
  8
0
  6
Continuous
 62
     7
370
    25
100
AcDbLine
 10
-14.9205794156
 20
-72.382204237
 30
0.0
 11
-14.9205794156
 21
-69.7876111387
 31
0.0
  0
LINE
  5
1A5
330
1F
100
AcDbEntity
  8
0
  6
Continuous
 62
     7
370
    25
100
AcDbLine
 10
-14.9205794156
 20
-69.7876111387
 30
0.0
 11
-15.5491664033
 21
-69.7876111387
 31
0.0
  0
LINE
  5
1A6
330
1F
100
AcDbEntity
  8
0
  6
Continuous
 62
     7
370
    25
100
AcDbLine
 10
-15.5491664033
 20
-69.7876111387
 30
0.0
 11
-15.5491664033
 21
-71.2697149724
 31
0.0
  0
LINE
  5
1A7
330
1F
100
AcDbEntity
  8
0
  6
Continuous
 62
     7
370
    25
100
AcDbLine
 10
-15.5491664033
 20
-71.2697149724
 30
0.0
 11
-16.6763402016
 21
-69.7591167422
 31
0.0
  0
LINE
  5
1A8
330
1F
100
AcDbEntity
  8
0
  6
Continuous
 62
     7
370
    25
100
AcDbLine
 10
-16.6763402016
 20
-69.7591167422
 30
0.0
 11
-17.3546822191
 21
-69.7591167422
 31
0.0
  0
LINE
  5
1A9
330
1F
100
AcDbEntity
  8
0
  6
Continuous
 62
     7
370
    25
100
AcDbLine
 10
-19.3894549393
 20
-70.2374216863
 30
0.0
 11
-18.2826210835
 21
-70.2374216863
 31
0.0
  0
LINE
  5
1AA
330
1F
100
AcDbEntity
  8
0
  6
Continuous
 62
     7
370
    25
100
AcDbLine
 10
-18.2826210835
 20
-70.2374216863
 30
0.0
 11
-18.2826210835
 21
-69.7612939416
 31
0.0
  0
LINE
  5
1AB
330
1F
100
AcDbEntity
  8
0
  6
Continuous
 62
     7
370
    25
100
AcDbLine
 10
-18.2826210835
 20
-69.7612939416
 30
0.0
 11
-20.0771586582
 21
-69.7612939416
 31
0.0
  0
LINE
  5
1AC
330
1F
100
AcDbEntity
  8
0
  6
Continuous
 62
     7
370
    25
100
AcDbLine
 10
-20.0771586582
 20
-69.7612939416
 30
0.0
 11
-20.0771586582
 21
-72.3986343624
 31
0.0
  0
LINE
  5
1AD
330
1F
100
AcDbEntity
  8
0
  6
Continuous
 62
     7
370
    25
100
AcDbLine
 10
-20.0771586582
 20
-72.3986343624
 30
0.0
 11
-18.2826210835
 21
-72.3986343624
 31
0.0
  0
LINE
  5
1AE
330
1F
100
AcDbEntity
  8
0
  6
Continuous
 62
     7
370
    25
100
AcDbLine
 10
-18.2826210835
 20
-72.3986343624
 30
0.0
 11
-18.2826210835
 21
-71.8175399907
 31
0.0
  0
LINE
  5
1AF
330
1F
100
AcDbEntity
  8
0
  6
Continuous
 62
     7
370
    25
100
AcDbLine
 10
-18.2826210835
 20
-71.8175399907
 30
0.0
 11
-19.3894549393
 21
-71.8175399907
 31
0.0
  0
LINE
  5
1B0
330
1F
100
AcDbEntity
  8
0
  6
Continuous
 62
     7
370
    25
100
AcDbLine
 10
-19.3894549393
 20
-71.8175399907
 30
0.0
 11
-19.3894549393
 21
-71.2861450978
 31
0.0
  0
LINE
  5
1B1
330
1F
100
AcDbEntity
  8
0
  6
Continuous
 62
     7
370
    25
100
AcDbLine
 10
-19.3894549393
 20
-71.2861450978
 30
0.0
 11
-18.2826210835
 21
-71.2861450978
 31
0.0
  0
LINE
  5
1B2
330
1F
100
AcDbEntity
  8
0
  6
Continuous
 62
     7
370
    25
100
AcDbLine
 10
-18.2826210835
 20
-71.2861450978
 30
0.0
 11
-18.2826210835
 21
-70.8250832368
 31
0.0
  0
LINE
  5
1B3
330
1F
100
AcDbEntity
  8
0
  6
Continuous
 62
     7
370
    25
100
AcDbLine
 10
-18.2826210835
 20
-70.8250832368
 30
0.0
 11
-19.3894549393
 21
-70.8250832368
 31
0.0
  0
LINE
  5
1B4
330
1F
100
AcDbEntity
  8
0
  6
Continuous
 62
     7
370
    25
100
AcDbLine
 10
-19.3894549393
 20
-70.8250832368
 30
0.0
 11
-19.3894549393
 21
-70.2374216863
 31
0.0
  0
LINE
  5
1B5
330
1F
100
AcDbEntity
  8
0
  6
Continuous
 62
     7
370
    25
100
AcDbLine
 10
-23.0288744235
 20
-72.3986343624
 30
0.0
 11
-22.3977395249
 21
-72.3986343624
 31
0.0
  0
LINE
  5
1B6
330
1F
100
AcDbEntity
  8
0
  6
Continuous
 62
     7
370
    25
100
AcDbLine
 10
-22.3977395249
 20
-72.3986343624
 30
0.0
 11
-22.3977395249
 21
-71.4069727645
 31
0.0
  0
LINE
  5
1B7
330
1F
100
AcDbEntity
  8
0
  6
Continuous
 62
     7
370
    25
100
AcDbLine
 10
-22.3977395249
 20
-71.4069727645
 30
0.0
 11
-22.1355480383
 21
-71.4069727645
 31
0.0
  0
LINE
  5
1B8
330
1F
100
AcDbEntity
  8
0
  6
Continuous
 62
     7
370
    25
100
AcDbLine
 10
-22.1355480383
 20
-71.4069727645
 30
0.0
 11
-21.5692758801
 21
-72.3986343624
 31
0.0
  0
LINE
  5
1B9
330
1F
100
AcDbEntity
  8
0
  6
Continuous
 62
     7
370
    25
100
AcDbLine
 10
-21.5692758801
 20
-72.3986343624
 30
0.0
 11
-20.8591641847
 21
-72.3986343624
 31
0.0
  0
LINE
  5
1BA
330
1F
100
AcDbEntity
  8
0
  6
Continuous
 62
     7
370
    25
100
AcDbLine
 10
-20.8591641847
 20
-72.3986343624
 30
0.0
 11
-21.4944330084
 21
-71.2861450979
 31
0.0
  0
LINE
  5
1BB
330
1F
100
AcDbEntity
  8
0
  6
Continuous
 62
     7
370
    25
100
AcDbLine
 10
-21.6670576676
 20
-69.7612939416
 30
0.0
 11
-23.0288744235
 21
-69.7612939416
 31
0.0
  0
LINE
  5
1BC
330
1F
100
AcDbEntity
  8
0
  6
Continuous
 62
     7
370
    25
100
AcDbLine
 10
-23.0288744235
 20
-69.7612939416
 30
0.0
 11
-23.0288744235
 21
-72.3986343624
 31
0.0
  0
LINE
  5
1BD
330
1F
100
AcDbEntity
  8
0
  6
Continuous
 62
     7
370
    25
100
AcDbLine
 10
-24.2685221671
 20
-88.1966562231
 30
0.0
 11
-23.8956469902
 21
-87.6042339898
 31
0.0
  0
LINE
  5
1BE
330
1F
100
AcDbEntity
  8
0
  6
Continuous
 62
     7
370
    25
100
AcDbLine
 10
-23.4218560029
 20
-90.0034344631
 30
0.0
 11
-23.9965571787
 21
-89.6037864198
 31
0.0
  0
LINE
  5
1BF
330
1F
100
AcDbEntity
  8
0
  6
Continuous
 62
     7
370
    25
100
AcDbLine
 10
-20.1262953936
 20
-91.6832002991
 30
0.0
 11
-20.9977143664
 21
-90.2687155488
 31
0.0
  0
LINE
  5
1C0
330
1F
100
AcDbEntity
  8
0
  6
Continuous
 62
     7
370
    25
100
AcDbLine
 10
-20.9977143664
 20
-90.2687155488
 30
0.0
 11
-21.8175283098
 21
-91.6832002991
 31
0.0
  0
LINE
  5
1C1
330
1F
100
AcDbEntity
  8
0
  6
Continuous
 62
     7
370
    25
100
AcDbLine
 10
-21.8175283098
 20
-91.6832002991
 30
0.0
 11
-20.1262953936
 21
-91.6832002991
 31
0.0
  0
LINE
  5
1C2
330
1F
100
AcDbEntity
  8
0
  6
Continuous
 62
     7
370
    25
100
AcDbLine
 10
-22.1355480383
 20
-90.6785236397
 30
0.0
 11
-20.9977143664
 21
-88.7153362724
 31
0.0
  0
LINE
  5
1C3
330
1F
100
AcDbEntity
  8
0
  6
Continuous
 62
     7
370
    25
100
AcDbLine
 10
-20.9977143664
 20
-88.7153362724
 30
0.0
 11
-19.7882571992
 21
-90.6785236397
 31
0.0
  0
LINE
  5
1C4
330
1F
100
AcDbEntity
  8
0
  6
Continuous
 62
     7
370
    25
100
AcDbLine
 10
-19.7882571992
 20
-90.6785236397
 30
0.0
 11
-18.908645217
 21
-90.6785236397
 31
0.0
  0
LINE
  5
1C5
330
1F
100
AcDbEntity
  8
0
  6
Continuous
 62
     7
370
    25
100
AcDbLine
 10
-18.908645217
 20
-90.6785236397
 30
0.0
 11
-20.9977143664
 21
-87.2221340645
 31
0.0
  0
LINE
  5
1C6
330
1F
100
AcDbEntity
  8
0
  6
Continuous
 62
     7
370
    25
100
AcDbLine
 10
-20.9977143664
 20
-87.2221340645
 30
0.0
 11
-22.958518138
 21
-90.6785236397
 31
0.0
  0
LINE
  5
1C7
330
1F
100
AcDbEntity
  8
0
  6
Continuous
 62
     7
370
    25
100
AcDbLine
 10
-22.958518138
 20
-90.6785236397
 30
0.0
 11
-22.1355480383
 21
-90.6785236397
 31
0.0
  0
LINE
  5
1C8
330
1F
100
AcDbEntity
  8
0
  6
Continuous
 62
     7
370
    25
100
AcDbLine
 10
-24.9664050645
 20
-89.3391514183
 30
0.0
 11
-23.4182163934
 21
-89.3391514183
 31
0.0
  0
LINE
  5
1C9
330
1F
100
AcDbEntity
  8
0
  6
Continuous
 62
     7
370
    25
100
AcDbLine
 10
-23.4182163934
 20
-89.3391514183
 30
0.0
 11
-23.4182163934
 21
-88.7153362724
 31
0.0
  0
LINE
  5
1CA
330
1F
100
AcDbEntity
  8
0
  6
Continuous
 62
     7
370
    25
100
AcDbLine
 10
-23.4182163934
 20
-88.7153362724
 30
0.0
 11
-24.9664050645
 21
-88.7153362724
 31
0.0
  0
LINE
  5
1CB
330
1F
100
AcDbEntity
  8
0
  6
Continuous
 62
     7
370
    25
100
AcDbLine
 10
-24.9664050645
 20
-88.7153362724
 30
0.0
 11
-24.9664050645
 21
-89.3391514183
 31
0.0
  0
LINE
  5
1CC
330
1F
100
AcDbEntity
  8
0
  6
Continuous
 62
     7
370
    25
100
AcDbLine
 10
-35.745928838
 20
-66.9554447203
 30
0.0
 11
-35.537695665
 21
-66.7184655536
 31
0.0
  0
LINE
  5
1CD
330
1F
100
AcDbEntity
  8
0
  6
Continuous
 62
     7
370
    25
100
AcDbLine
 10
-34.3100314021
 20
-65.018245201
 30
0.0
 11
-34.5231724278
 21
-65.2376963228
 31
0.0
  0
LINE
  5
1CE
330
1F
100
AcDbEntity
  8
0
  6
Continuous
 62
     7
370
    25
100
AcDbLine
 10
-33.3677237098
 20
-64.6992347844
 30
0.0
 11
-33.3677237098
 21
-67.2569270921
 31
0.0
  0
LINE
  5
1CF
330
1F
100
AcDbEntity
  8
0
  6
Continuous
 62
     7
370
    25
100
AcDbLine
 10
-33.6818262739
 20
-64.6992347844
 30
0.0
 11
-33.3677237098
 21
-64.6992347844
 31
0.0
  0
LINE
  5
1D0
330
1F
100
AcDbEntity
  8
0
  6
Continuous
 62
     7
370
    25
100
AcDbLine
 10
-33.6818262739
 20
-67.2569270921
 30
0.0
 11
-33.6818262739
 21
-64.6992347844
 31
0.0
  0
LINE
  5
1D1
330
1F
100
AcDbEntity
  8
0
  6
Continuous
 62
     7
370
    25
100
AcDbLine
 10
-33.3677237098
 20
-67.2569270921
 30
0.0
 11
-33.6818262739
 21
-67.2569270921
 31
0.0
  0
LINE
  5
1D2
330
1F
100
AcDbEntity
  8
0
  6
Continuous
 62
     7
370
    25
100
AcDbLine
 10
-30.3613134534
 20
-66.8993549767
 30
0.0
 11
-30.3613134534
 21
-66.7668429574
 31
0.0
  0
LINE
  5
1D3
330
1F
100
AcDbEntity
  8
0
  6
Continuous
 62
     7
370
    25
100
AcDbLine
 10
-32.6497749919
 20
-67.4364142715
 30
0.0
 11
-32.3356724278
 21
-67.4364142715
 31
0.0
  0
LINE
  5
1D4
330
1F
100
AcDbEntity
  8
0
  6
Continuous
 62
     7
370
    25
100
AcDbLine
 10
-30.0472108893
 20
-64.6992347844
 30
0.0
 11
-30.0472108893
 21
-66.7289823805
 31
0.0
  0
LINE
  5
1D5
330
1F
100
AcDbEntity
  8
0
  6
Continuous
 62
     7
370
    25
100
AcDbLine
 10
-30.3613134534
 20
-64.6992347844
 30
0.0
 11
-30.0472108893
 21
-64.6992347844
 31
0.0
  0
LINE
  5
1D6
330
1F
100
AcDbEntity
  8
0
  6
Continuous
 62
     7
370
    25
100
AcDbLine
 10
-30.3613134534
 20
-65.1465504895
 30
0.0
 11
-30.3613134534
 21
-64.6992347844
 31
0.0
  0
LINE
  5
1D7
330
1F
100
AcDbEntity
  8
0
  6
Continuous
 62
     7
370
    25
100
AcDbLine
 10
-20.9382365304
 20
-67.2569270921
 30
0.0
 11
-20.9382365304
 21
-66.8145192395
 31
0.0
  0
LINE
  5
1D8
330
1F
100
AcDbEntity
  8
0
  6
Continuous
 62
     7
370
    25
100
AcDbLine
 10
-20.6241339663
 20
-67.2569270921
 30
0.0
 11
-20.9382365304
 21
-67.2569270921
 31
0.0
  0
LINE
  5
1D9
330
1F
100
AcDbEntity
  8
0
  6
Continuous
 62
     7
370
    25
100
AcDbLine
 10
-20.6241339663
 20
-63.6671835023
 30
0.0
 11
-20.6241339663
 21
-67.2569270921
 31
0.0
  0
LINE
  5
1DA
330
1F
100
AcDbEntity
  8
0
  6
Continuous
 62
     7
370
    25
100
AcDbLine
 10
-20.9382365304
 20
-63.6671835023
 30
0.0
 11
-20.6241339663
 21
-63.6671835023
 31
0.0
  0
LINE
  5
1DB
330
1F
100
AcDbEntity
  8
0
  6
Continuous
 62
     7
370
    25
100
AcDbLine
 10
-20.9382365304
 20
-65.1942267715
 30
0.0
 11
-20.9382365304
 21
-63.6671835023
 31
0.0
  0
LINE
  5
1DC
330
1F
100
AcDbEntity
  8
0
  6
Continuous
 62
     7
370
    25
100
AcDbLine
 10
-17.3546822191
 20
-83.0300548801
 30
0.0
 11
-23.4182163934
 21
-78.706876449
 31
0.0
  0
LINE
  5
1DD
330
1F
100
AcDbEntity
  8
0
  6
Continuous
 62
     7
370
    25
100
AcDbLine
 10
-23.4182163934
 20
-78.706876449
 30
0.0
 11
-23.4182163934
 21
-81.5095132577
 31
0.0
  0
LINE
  5
1DE
330
1F
100
AcDbEntity
  8
0
  6
Continuous
 62
     7
370
    25
100
AcDbLine
 10
-23.4182163934
 20
-81.5095132577
 30
0.0
 11
-17.632393595
 21
-85.6346890396
 31
0.0
  0
LINE
  5
1DF
330
1F
100
AcDbEntity
  8
0
  6
Continuous
 62
     7
370
    25
100
AcDbLine
 10
-15.2041347536
 20
-84.7929888611
 30
0.0
 11
-15.2041347536
 21
-73.8225439316
 31
0.0
  0
LINE
  5
1E0
330
1F
100
AcDbEntity
  8
0
  6
Continuous
 62
     7
370
    25
100
AcDbLine
 10
-15.2041347536
 20
-73.8225439316
 30
0.0
 11
-17.3546822191
 21
-73.8225439316
 31
0.0
  0
LINE
  5
1E1
330
1F
100
AcDbEntity
  8
0
  6
Continuous
 62
     7
370
    25
100
AcDbLine
 10
-17.3546822191
 20
-73.8225439316
 30
0.0
 11
-17.3546822191
 21
-83.0300548801
 31
0.0
  0
LINE
  5
1E2
330
1F
100
AcDbEntity
  8
0
  6
Continuous
 62
     7
370
    25
100
AcDbLine
 10
-24.3572585606
 20
-85.9589678407
 30
0.0
 11
-24.3572585606
 21
-76.5646956282
 31
0.0
  0
LINE
  5
1E3
330
1F
100
AcDbEntity
  8
0
  6
Continuous
 62
     7
370
    25
100
AcDbLine
 10
-24.3572585606
 20
-76.5646956282
 30
0.0
 11
-18.2826210835
 21
-81.0130752662
 31
0.0
  0
LINE
  5
1E4
330
1F
100
AcDbEntity
  8
0
  6
Continuous
 62
     7
370
    25
100
AcDbLine
 10
-18.2826210835
 20
-81.0130752662
 30
0.0
 11
-18.2826210835
 21
-78.3242707502
 31
0.0
  0
LINE
  5
1E5
330
1F
100
AcDbEntity
  8
0
  6
Continuous
 62
     7
370
    25
100
AcDbLine
 10
-18.2826210835
 20
-78.3242707502
 30
0.0
 11
-23.9227995578
 21
-74.1940399054
 31
0.0
  0
LINE
  5
1E6
330
1F
100
AcDbEntity
  8
0
  6
Continuous
 62
     7
370
    25
100
AcDbLine
 10
-26.4982759086
 20
-75.1193020539
 30
0.0
 11
-26.4982759086
 21
-85.9589678407
 31
0.0
  0
LINE
  5
1E7
330
1F
100
AcDbEntity
  8
0
  6
Continuous
 62
     7
370
    25
100
AcDbLine
 10
-26.4982759086
 20
-85.9589678407
 30
0.0
 11
-24.3572585606
 21
-85.9589678407
 31
0.0
  0
LINE
  5
1E8
330
1F
100
AcDbEntity
  8
0
  6
Continuous
 62
     7
370
    25
100
AcDbLine
 10
-12.8354088912
 20
-75.4425559447
 30
0.0
 11
-12.8354088912
 21
-86.0003956542
 31
0.0
  0
LINE
  5
1E9
330
1F
100
AcDbEntity
  8
0
  6
Continuous
 62
     7
370
    25
100
AcDbLine
 10
-12.8354088912
 20
-86.0003956542
 30
0.0
 11
-10.5043170818
 21
-86.0003956542
 31
0.0
  0
LINE
  5
1EA
330
1F
100
AcDbEntity
  8
0
  6
Continuous
 62
     7
370
    25
100
AcDbLine
 10
-10.5043170818
 20
-86.0003956542
 30
0.0
 11
-10.5043170818
 21
-75.9716796071
 31
0.0
  0
LINE
  5
1EB
330
1F
100
AcDbEntity
  8
0
  6
Continuous
 62
     7
370
    25
100
AcDbLine
 10
-10.5043170818
 20
-75.9716796071
 30
0.0
 11
-7.5593838878
 21
-75.9716796071
 31
0.0
  0
LINE
  5
1EC
330
1F
100
AcDbEntity
  8
0
  6
Continuous
 62
     7
370
    25
100
AcDbLine
 10
-7.5593838878
 20
-79.9955342151
 30
0.0
 11
-9.5468552165
 21
-79.9955342151
 31
0.0
  0
LINE
  5
1ED
330
1F
100
AcDbEntity
  8
0
  6
Continuous
 62
     7
370
    25
100
AcDbLine
 10
-9.5468552165
 20
-79.9955342151
 30
0.0
 11
-9.5468552165
 21
-81.9684144477
 31
0.0
  0
LINE
  5
1EE
330
1F
100
AcDbEntity
  8
0
  6
Continuous
 62
     7
370
    25
100
AcDbLine
 10
-9.5468552165
 20
-81.9684144477
 30
0.0
 11
-6.6996659855
 21
-81.9684144477
 31
0.0
  0
LINE
  5
1EF
330
1F
100
AcDbEntity
  8
0
  6
Continuous
 62
     7
370
    25
100
AcDbLine
 10
-7.3098529921
 20
-73.8701918066
 30
0.0
 11
-11.4311101206
 21
-73.8701918066
 31
0.0
  0
LINE
  5
1F0
330
1F
100
AcDbEntity
  8
0
  6
Continuous
 62
     7
370
    25
100
AcDbLine
 10
-25.1466890959
 20
-70.8250832368
 30
0.0
 11
-25.1466890959
 21
-71.4069727645
 31
0.0
  0
LINE
  5
1F1
330
1F
100
AcDbEntity
  8
0
  6
Continuous
 62
     7
370
    25
100
AcDbLine
 10
-25.1466890959
 20
-71.4069727645
 30
0.0
 11
-24.6177155557
 21
-71.4069727645
 31
0.0
  0
LINE
  5
1F2
330
1F
100
AcDbEntity
  8
0
  6
Continuous
 62
     7
370
    25
100
AcDbLine
 10
-24.6177155557
 20
-71.4069727645
 30
0.0
 11
-24.6177155557
 21
-71.8523731799
 31
0.0
  0
LINE
  5
1F3
330
1F
100
AcDbEntity
  8
0
  6
Continuous
 62
     7
370
    25
100
AcDbLine
 10
-24.3572585606
 20
-70.4574890137
 30
0.0
 11
-23.973778845
 21
-70.0377971865
 31
0.0
  0
LINE
  5
1F4
330
1F
100
AcDbEntity
  8
0
  6
Continuous
 62
     7
370
    25
100
AcDbLine
 10
-23.9965571787
 20
-72.2611373454
 30
0.0
 11
-23.9965571787
 21
-70.8250832368
 31
0.0
  0
LINE
  5
1F5
330
1F
100
AcDbEntity
  8
0
  6
Continuous
 62
     7
370
    25
100
AcDbLine
 10
-23.9965571787
 20
-70.8250832368
 30
0.0
 11
-25.1466890959
 21
-70.8250832368
 31
0.0
  0
LINE
  5
1F6
330
1F
100
AcDbEntity
  8
0
  6
Continuous
 62
     7
370
    25
100
AcDbLine
 10
-28.7283313935
 20
-72.3986343624
 30
0.0
 11
-28.7283313935
 21
-69.7671688903
 31
0.0
  0
LINE
  5
1F7
330
1F
100
AcDbEntity
  8
0
  6
Continuous
 62
     7
370
    25
100
AcDbLine
 10
-30.7799824395
 20
-72.3986343624
 30
0.0
 11
-28.7283313935
 21
-72.3986343624
 31
0.0
  0
LINE
  5
1F8
330
1F
100
AcDbEntity
  8
0
  6
Continuous
 62
     7
370
    25
100
AcDbLine
 10
-30.7921893359
 20
-85.9278224347
 30
0.0
 11
-28.7283313935
 21
-85.9278224347
 31
0.0
  0
LINE
  5
1F9
330
1F
100
AcDbEntity
  8
0
  6
Continuous
 62
     7
370
    25
100
AcDbLine
 10
-28.7283313935
 20
-85.9278224347
 30
0.0
 11
-28.7283313935
 21
-73.781268763
 31
0.0
  0
LINE
  5
1FA
330
1F
100
AcDbEntity
  8
0
  6
Continuous
 62
     7
370
    25
100
AcDbLine
 10
-28.7283313935
 20
-73.781268763
 30
0.0
 11
-30.7921893359
 21
-73.781268763
 31
0.0
  0
LINE
  5
1FB
330
1F
100
AcDbEntity
  8
0
  6
Continuous
 62
     7
370
    25
100
AcDbLine
 10
-30.7921893359
 20
-73.781268763
 30
0.0
 11
-30.7921893359
 21
-85.9278224347
 31
0.0
  0
LINE
  5
1FC
330
1F
100
AcDbEntity
  8
0
  6
Continuous
 62
     7
370
    25
100
AcDbLine
 10
-65.0
 20
100.0
 30
0.0
 11
65.0
 21
100.0
 31
0.0
  0
LINE
  5
1FD
330
1F
100
AcDbEntity
  8
0
  6
Continuous
 62
     7
370
    25
100
AcDbLine
 10
65.0
 20
100.0
 30
0.0
 11
65.0
 21
-100.0
 31
0.0
  0
LINE
  5
1FE
330
1F
100
AcDbEntity
  8
0
  6
Continuous
 62
     7
370
    25
100
AcDbLine
 10
65.0
 20
-100.0
 30
0.0
 11
-65.0
 21
-100.0
 31
0.0
  0
LINE
  5
1FF
330
1F
100
AcDbEntity
  8
0
  6
Continuous
 62
     7
370
    25
100
AcDbLine
 10
-65.0
 20
-100.0
 30
0.0
 11
-65.0
 21
100.0
 31
0.0
  0
LINE
  5
200
330
1F
100
AcDbEntity
  8
0
  6
Continuous
 62
     7
370
    25
100
AcDbLine
 10
-18.245928838
 20
-63.6671835023
 30
0.0
 11
-18.245928838
 21
-65.1633774126
 31
0.0
  0
LINE
  5
201
330
1F
100
AcDbEntity
  8
0
  6
Continuous
 62
     7
370
    25
100
AcDbLine
 10
-18.5600314021
 20
-63.6671835023
 30
0.0
 11
-18.245928838
 21
-63.6671835023
 31
0.0
  0
LINE
  5
202
330
1F
100
AcDbEntity
  8
0
  6
Continuous
 62
     7
370
    25
100
AcDbLine
 10
-18.5600314021
 20
-67.2569270921
 30
0.0
 11
-18.5600314021
 21
-63.6671835023
 31
0.0
  0
LINE
  5
203
330
1F
100
AcDbEntity
  8
0
  6
Continuous
 62
     7
370
    25
100
AcDbLine
 10
-18.245928838
 20
-67.2569270921
 30
0.0
 11
-18.5600314021
 21
-67.2569270921
 31
0.0
  0
LINE
  5
204
330
1F
100
AcDbEntity
  8
0
  6
Continuous
 62
     7
370
    25
100
AcDbLine
 10
-18.245928838
 20
-66.7836698805
 30
0.0
 11
-18.245928838
 21
-67.2569270921
 31
0.0
  0
LINE
  5
205
330
1F
100
AcDbEntity
  8
0
  6
Continuous
 62
     7
370
    25
100
AcDbLine
 10
-14.6561852483
 20
-68.1992347844
 30
0.0
 11
-14.995528197
 21
-68.1992347844
 31
0.0
  0
LINE
  5
206
330
1F
100
AcDbEntity
  8
0
  6
Continuous
 62
     7
370
    25
100
AcDbLine
 10
-13.0856724278
 20
-64.6992347844
 30
0.0
 11
-14.6561852483
 21
-68.1992347844
 31
0.0
  0
LINE
  5
207
330
1F
100
AcDbEntity
  8
0
  6
Continuous
 62
     7
370
    25
100
AcDbLine
 10
-13.4250153765
 20
-64.6992347844
 30
0.0
 11
-13.0856724278
 21
-64.6992347844
 31
0.0
  0
LINE
  5
208
330
1F
100
AcDbEntity
  8
0
  6
Continuous
 62
     7
370
    25
100
AcDbLine
 10
-14.3042221073
 20
-66.6581690792
 30
0.0
 11
-13.4250153765
 21
-64.6992347844
 31
0.0
  0
LINE
  5
209
330
1F
100
AcDbEntity
  8
0
  6
Continuous
 62
     7
370
    25
100
AcDbLine
 10
-15.1701075239
 20
-64.6992347844
 30
0.0
 11
-14.3042221073
 21
-66.6581690792
 31
0.0
  0
LINE
  5
20A
330
1F
100
AcDbEntity
  8
0
  6
Continuous
 62
     7
370
    25
100
AcDbLine
 10
-15.5087493509
 20
-64.6992347844
 30
0.0
 11
-15.1701075239
 21
-64.6992347844
 31
0.0
  0
LINE
  5
20B
330
1F
100
AcDbEntity
  8
0
  6
Continuous
 62
     7
370
    25
100
AcDbLine
 10
-14.4745947034
 20
-67.0388782139
 30
0.0
 11
-15.5087493509
 21
-64.6992347844
 31
0.0
  0
LINE
  5
20C
330
1F
100
AcDbEntity
  8
0
  6
Continuous
 62
     7
370
    25
100
AcDbLine
 10
-14.995528197
 20
-68.1992347844
 30
0.0
 11
-14.4745947034
 21
-67.0388782139
 31
0.0
  0
LINE
  5
20D
330
1F
100
AcDbEntity
  8
0
  6
Continuous
 62
     7
370
    25
100
AcDbLine
 10
-23.854903197
 20
-66.0453886305
 30
0.0
 11
-26.1433647355
 21
-66.0453886305
 31
0.0
  0
LINE
  5
20E
330
1F
100
AcDbEntity
  8
0
  6
Continuous
 62
     7
370
    25
100
AcDbLine
 10
-24.268565056
 20
-66.4492347844
 30
0.0
 11
-23.9895185816
 21
-66.5957692395
 31
0.0
  0
LINE
  5
20F
330
1F
100
AcDbEntity
  8
0
  6
Continuous
 62
     7
370
    25
100
AcDbLine
 10
-29.0151596073
 20
-66.3321474446
 30
0.0
 11
-29.0151596073
 21
-67.2569270921
 31
0.0
  0
LINE
  5
210
330
1F
100
AcDbEntity
  8
0
  6
Continuous
 62
     7
370
    25
100
AcDbLine
 10
-27.3997749919
 20
-67.2569270921
 30
0.0
 11
-27.3997749919
 21
-66.0538020921
 31
0.0
  0
LINE
  5
211
330
1F
100
AcDbEntity
  8
0
  6
Continuous
 62
     7
370
    25
100
AcDbLine
 10
-27.0856724278
 20
-67.2569270921
 30
0.0
 11
-27.3997749919
 21
-67.2569270921
 31
0.0
  0
LINE
  5
212
330
1F
100
AcDbEntity
  8
0
  6
Continuous
 62
     7
370
    25
100
AcDbLine
 10
-27.0856724278
 20
-65.9507371882
 30
0.0
 11
-27.0856724278
 21
-67.2569270921
 31
0.0
  0
LINE
  5
213
330
1F
100
AcDbEntity
  8
0
  6
Continuous
 62
     7
370
    25
100
AcDbLine
 10
-29.0151596073
 20
-64.6992347844
 30
0.0
 11
-29.0151596073
 21
-65.1605729254
 31
0.0
  0
LINE
  5
214
330
1F
100
AcDbEntity
  8
0
  6
Continuous
 62
     7
370
    25
100
AcDbLine
 10
-29.3292621714
 20
-64.6992347844
 30
0.0
 11
-29.0151596073
 21
-64.6992347844
 31
0.0
  0
LINE
  5
215
330
1F
100
AcDbEntity
  8
0
  6
Continuous
 62
     7
370
    25
100
AcDbLine
 10
-29.3292621714
 20
-67.2569270921
 30
0.0
 11
-29.3292621714
 21
-64.6992347844
 31
0.0
  0
LINE
  5
216
330
1F
100
AcDbEntity
  8
0
  6
Continuous
 62
     7
370
    25
100
AcDbLine
 10
-29.0151596073
 20
-67.2569270921
 30
0.0
 11
-29.3292621714
 21
-67.2569270921
 31
0.0
  0
LINE
  5
217
330
1F
100
AcDbEntity
  8
0
  6
Continuous
 62
     7
370
    25
100
AcDbLine
 10
-36.1497749919
 20
-66.0453886305
 30
0.0
 11
-38.4382365304
 21
-66.0453886305
 31
0.0
  0
LINE
  5
218
330
1F
100
AcDbEntity
  8
0
  6
Continuous
 62
     7
370
    25
100
AcDbLine
 10
-36.5634368509
 20
-66.4492347844
 30
0.0
 11
-36.2843903765
 21
-66.5957692395
 31
0.0
  0
LINE
  5
219
330
1F
100
AcDbEntity
  8
0
  6
Continuous
 62
     7
370
    25
100
AcDbLine
 10
-17.4993202661
 20
12.5
 30
0.0
 11
17.4993202661
 21
12.5
 31
0.0
  0
LINE
  5
21A
330
1F
100
AcDbEntity
  8
0
  6
Continuous
 62
     7
370
    25
100
AcDbLine
 10
17.4993202661
 20
27.5
 30
0.0
 11
-17.4993202661
 21
27.5
 31
0.0
  0
LINE
  5
21B
330
1F
100
AcDbEntity
  8
0
  6
Continuous
 62
     7
370
    25
100
AcDbLine
 10
-38.405283806
 20
-65.7312860664
 30
0.0
 11
-36.463877556
 21
-65.7312860664
 31
0.0
  0
LINE
  5
21C
330
1F
100
AcDbEntity
  8
0
  6
Continuous
 62
     7
370
    25
100
AcDbLine
 10
-26.1104120111
 20
-65.7312860664
 30
0.0
 11
-24.1690057611
 21
-65.7312860664
 31
0.0
  0
LINE
  5
21D
330
1F
100
AcDbEntity
  8
0
  6
Continuous
 62
     7
370
    25
100
AcDbLine
 10
-10.0086417079
 20
-71.2697149724
 30
0.0
 11
-10.0086417079
 21
-71.8175399907
 31
0.0
  0
LINE
  5
21E
330
1F
100
AcDbEntity
  8
0
  6
Continuous
 62
     7
370
    25
100
AcDbLine
 10
-9.3785538756
 20
-71.2697149724
 30
0.0
 11
-10.0086417079
 21
-71.2697149724
 31
0.0
  0
LINE
  5
21F
330
1F
100
AcDbEntity
  8
0
  6
Continuous
 62
     7
370
    25
100
AcDbLine
 10
-10.0086417079
 20
-71.8175399907
 30
0.0
 11
-9.3785538756
 21
-71.8175399907
 31
0.0
  0
LINE
  5
220
330
1F
100
AcDbEntity
  8
0
  6
Continuous
 62
     7
370
    25
100
AcDbLine
 10
-10.0086417079
 20
-70.3018217426
 30
0.0
 11
-10.0086417079
 21
-70.8250832368
 31
0.0
  0
LINE
  5
221
330
1F
100
AcDbEntity
  8
0
  6
Continuous
 62
     7
370
    25
100
AcDbLine
 10
-9.3785538756
 20
-70.3018217426
 30
0.0
 11
-10.0086417079
 21
-70.3018217426
 31
0.0
  0
LINE
  5
222
330
1F
100
AcDbEntity
  8
0
  6
Continuous
 62
     7
370
    25
100
AcDbLine
 10
-10.0086417079
 20
-70.8250832368
 30
0.0
 11
-9.3785538756
 21
-70.8250832368
 31
0.0
  0
LINE
  5
223
330
1F
100
AcDbEntity
  8
0
  6
Continuous
 62
     7
370
    25
100
AcDbLine
 10
-21.8905168852
 20
-70.2374216863
 30
0.0
 11
-22.3977395249
 21
-70.2374216863
 31
0.0
  0
LINE
  5
224
330
1F
100
AcDbEntity
  8
0
  6
Continuous
 62
     7
370
    25
100
AcDbLine
 10
-22.3977395249
 20
-70.2374216863
 30
0.0
 11
-22.3977395249
 21
-70.8250832368
 31
0.0
  0
LINE
  5
225
330
1F
100
AcDbEntity
  8
0
  6
Continuous
 62
     7
370
    25
100
AcDbLine
 10
-22.3977395249
 20
-70.8250832368
 30
0.0
 11
-21.8905168852
 21
-70.8250832368
 31
0.0
  0
ARC
  5
226
330
1F
100
AcDbEntity
  8
0
  6
Continuous
 62
     7
370
    25
100
AcDbCircle
 10
-9.1506075788
 20
-71.7132886107
 30
0.0
 40
0.6573215145970721
100
AcDbArc
 50
270.0
 51
93.0608957275
  0
ARC
  5
227
330
1F
100
AcDbEntity
  8
0
  6
Continuous
 62
     7
370
    25
100
AcDbCircle
 10
-9.2210319175
 20
-70.3962956833
 30
0.0
 40
0.661552989787495
100
AcDbArc
 50
273.0608957275
 51
90.0
  0
ARC
  5
228
330
1F
100
AcDbEntity
  8
0
  6
Continuous
 62
     7
370
    25
100
AcDbCircle
 10
-29.1447270523
 20
-89.0310613561
 30
0.0
 40
1.64746228361043
100
AcDbArc
 50
180.0
 51
0.0
  0
ARC
  5
229
330
1F
100
AcDbEntity
  8
0
  6
Continuous
 62
     7
370
    25
100
AcDbCircle
 10
-29.1913235895
 20
-89.1228809885
 30
0.0
 40
0.9554375034281577
100
AcDbArc
 50
180.0
 51
0.0
  0
ARC
  5
22A
330
1F
100
AcDbEntity
  8
0
  6
Continuous
 62
     7
370
    25
100
AcDbCircle
 10
-21.6670576676
 20
-70.5334907268
 30
0.0
 40
0.772196785260661
100
AcDbArc
 50
282.9176327531
 51
90.0
  0
ARC
  5
22B
330
1F
100
AcDbEntity
  8
0
  6
Continuous
 62
     7
370
    25
100
AcDbCircle
 10
-7.5593838878
 20
-77.9836069111
 30
0.0
 40
2.011927303958387
100
AcDbArc
 50
270.0
 51
90.0
  0
ARC
  5
22C
330
1F
100
AcDbEntity
  8
0
  6
Continuous
 62
     7
370
    25
100
AcDbCircle
 10
-7.3098529921
 20
-77.9422913926
 30
0.0
 40
4.07209958593306
100
AcDbArc
 50
278.61799036
 51
90.0
  0
ARC
  5
22D
330
1F
100
AcDbEntity
  8
0
  6
Continuous
 62
     7
370
    25
100
AcDbCircle
 10
-11.2529877879
 20
-75.4425559447
 30
0.0
 40
1.582421103307791
100
AcDbArc
 50
96.4630921829
 51
180.0
  0
ARC
  5
22E
330
1F
100
AcDbEntity
  8
0
  6
Continuous
 62
     7
370
    25
100
AcDbCircle
 10
-28.0665866681
 20
-72.3986343624
 30
0.0
 40
2.713395771466036
100
AcDbArc
 50
104.1156932998
 51
180.0
  0
ARC
  5
22F
330
1F
100
AcDbEntity
  8
0
  6
Continuous
 62
     7
370
    25
100
AcDbCircle
 10
17.4993202661
 20
20.0
 30
0.0
 40
7.5
100
AcDbArc
 50
270.0
 51
90.0
  0
ARC
  5
230
330
1F
100
AcDbEntity
  8
0
  6
Continuous
 62
     7
370
    25
100
AcDbCircle
 10
-17.4993202661
 20
20.0
 30
0.0
 40
7.5
100
AcDbArc
 50
90.0
 51
270.0
  0
ARC
  5
231
330
1F
100
AcDbEntity
  8
0
  6
Continuous
 62
     7
370
    25
100
AcDbCircle
 10
-9.3785538756
 20
-71.5436274816
 30
0.0
 40
0.2739125091180341
100
AcDbArc
 50
270.0
 51
90.0
  0
ARC
  5
232
330
1F
100
AcDbEntity
  8
0
  6
Continuous
 62
     7
370
    25
100
AcDbCircle
 10
-9.3785538756
 20
-70.5634524897
 30
0.0
 40
0.2616307471180761
100
AcDbArc
 50
270.0
 51
90.0
  0
ARC
  5
233
330
1F
100
AcDbEntity
  8
0
  6
Continuous
 62
     7
370
    25
100
AcDbCircle
 10
-21.8905168852
 20
-70.5312524616
 30
0.0
 40
0.2938307752596216
100
AcDbArc
 50
270.0
 51
90.0
  0
MTEXT
  5
235
330
1F
100
AcDbEntity
  8
0
  6
Continuous
 62
     7
100
AcDbMText
 10
-65.0
 20
-101.0195663917
 30
0.0
 40
4.83362
 41
0.0
 71
     1
 72
     1
  1
Produit d'ducation SOLIDWORKS  A titre ducatif uniquement.
  7
SLDTEXTSTYLE0
 73
     1
 44
1.0
  0
ENDSEC
  0
SECTION
  2
OBJECTS
  0
DICTIONARY
  5
C
330
0
100
AcDbDictionary
281
     1
  3
ACAD_GROUP
350
D
  3
ACAD_LAYOUT
350
1A
  3
ACAD_MLINESTYLE
350
17
  3
ACAD_PLOTSETTINGS
350
19
  3
ACAD_PLOTSTYLENAME
350
E
  3
ACAD_SCALELIST
350
47
  3
DWGPROPS
350
236
  0
DICTIONARY
  5
D
102
{ACAD_REACTORS
330
C
102
}
330
C
100
AcDbDictionary
281
     1
  0
DICTIONARY
  5
1A
102
{ACAD_REACTORS
330
C
102
}
330
C
100
AcDbDictionary
281
     1
  3
Layout1
350
1E
  3
Layout2
350
26
  3
Model
350
22
  0
DICTIONARY
  5
17
102
{ACAD_REACTORS
330
C
102
}
330
C
100
AcDbDictionary
281
     1
  3
Standard
350
18
  0
DICTIONARY
  5
19
102
{ACAD_REACTORS
330
C
102
}
330
C
100
AcDbDictionary
281
     1
  0
ACDBDICTIONARYWDFLT
  5
E
102
{ACAD_REACTORS
330
C
102
}
330
C
100
AcDbDictionary
281
     1
  3
Normal
350
F
100
AcDbDictionaryWithDefault
340
F
  0
DICTIONARY
  5
47
102
{ACAD_REACTORS
330
C
102
}
330
C
100
AcDbDictionary
281
     1
  3
A0
350
48
  3
A1
350
49
  3
A2
350
4A
  3
A3
350
4B
  3
A4
350
4C
  3
A5
350
4D
  3
A6
350
4E
  3
A7
350
4F
  3
A8
350
50
  3
A9
350
51
  3
B0
350
52
  3
B1
350
53
  3
B2
350
54
  3
B3
350
55
  3
B4
350
56
  3
B5
350
57
  3
B6
350
58
  0
XRECORD
  5
236
102
{ACAD_REACTORS
330
C
102
}
330
C
100
AcDbXrecord
280
     1
  1
DWGPROPS COOKIE
  2

  3

  4

  6

  7

  8
liang
  9

300
=
301
=
302
=
303
=
304
=
305
=
306
=
307
=
308
=
309
=
 40
0.0
 41
2459968.575883796
 42
2459968.575912685
  1

 90
        0
  0
LAYOUT
  5
1E
102
{ACAD_REACTORS
330
1A
102
}
330
1A
100
AcDbPlotSettings
  1

  2
none_device
  4

  6

 40
0.0
 41
0.0
 42
0.0
 43
0.0
 44
0.0
 45
0.0
 46
0.0
 47
0.0
 48
0.0
 49
0.0
140
0.0
141
0.0
142
1.0
143
1.0
 70
   688
 72
     1
 73
     0
 74
     5
  7

 75
    16
147
1.0
148
0.0
149
0.0
100
AcDbLayout
  1
Layout1
 70
     1
 71
     1
 10
0.0
 20
0.0
 11
420.0
 21
297.0
 12
0.0
 22
0.0
 32
0.0
 14
1.0000000000E+20
 24
1.0000000000E+20
 34
1.0000000000E+20
 15
-1.0000000000E+20
 25
-1.0000000000E+20
 35
-1.0000000000E+20
146
0.0
 13
0.0
 23
0.0
 33
0.0
 16
1.0
 26
0.0
 36
0.0
 17
0.0
 27
1.0
 37
0.0
 76
     0
330
1B
  0
LAYOUT
  5
26
102
{ACAD_REACTORS
330
1A
102
}
330
1A
100
AcDbPlotSettings
  1

  2
none_device
  4

  6

 40
0.0
 41
0.0
 42
0.0
 43
0.0
 44
0.0
 45
0.0
 46
0.0
 47
0.0
 48
0.0
 49
0.0
140
0.0
141
0.0
142
1.0
143
1.0
 70
   688
 72
     1
 73
     0
 74
     5
  7

 75
    16
147
1.0
148
0.0
149
0.0
100
AcDbLayout
  1
Layout2
 70
     1
 71
     2
 10
0.0
 20
0.0
 11
0.0
 21
0.0
 12
0.0
 22
0.0
 32
0.0
 14
0.0
 24
0.0
 34
0.0
 15
0.0
 25
0.0
 35
0.0
146
0.0
 13
0.0
 23
0.0
 33
0.0
 16
1.0
 26
0.0
 36
0.0
 17
0.0
 27
1.0
 37
0.0
 76
     0
330
23
  0
LAYOUT
  5
22
102
{ACAD_REACTORS
330
1A
102
}
330
1A
100
AcDbPlotSettings
  1

  2
none_device
  4
ANSI_A_(11.00_x_8.50_Inches)
  6

 40
6.35
 41
19.05
 42
6.35000508
 43
19.05000254
 44
279.4
 45
215.9
 46
133.34999746
 47
88.89999873
 48
0.0
 49
0.0
140
0.0
141
0.0
142
0.042075
143
1.0
 70
  1696
 72
     0
 73
     0
 74
     0
  7

 75
     0
147
0.0179189148
148
-1300.4909072572
149
0.0
100
AcDbLayout
  1
Model
 70
     1
 71
     0
 10
0.0
 20
0.0
 11
420.0
 21
297.0
 12
0.0
 22
0.0
 32
0.0
 14
-65.0
 24
-100.0
 34
0.0
 15
65.0
 25
100.0
 35
0.0
146
0.0
 13
0.0
 23
0.0
 33
0.0
 16
1.0
 26
0.0
 36
0.0
 17
0.0
 27
1.0
 37
0.0
 76
     0
330
1F
331
29
  0
MLINESTYLE
  5
18
102
{ACAD_REACTORS
330
17
102
}
330
17
100
AcDbMlineStyle
  2
Standard
 70
     0
  3

 62
   256
 51
90.0
 52
90.0
 71
     2
 49
0.5
 62
   256
  6
BYLAYER
 49
-0.5
 62
   256
  6
BYLAYER
  0
ACDBPLACEHOLDER
  5
F
102
{ACAD_REACTORS
330
E
102
}
330
E
  0
SCALE
  5
48
102
{ACAD_REACTORS
330
47
102
}
330
47
100
AcDbScale
 70
     0
300
1:1
140
1.0
141
1.0
290
     1
  0
SCALE
  5
49
102
{ACAD_REACTORS
330
47
102
}
330
47
100
AcDbScale
 70
     0
300
1:2
140
1.0
141
2.0
290
     0
  0
SCALE
  5
4A
102
{ACAD_REACTORS
330
47
102
}
330
47
100
AcDbScale
 70
     0
300
1:4
140
1.0
141
4.0
290
     0
  0
SCALE
  5
4B
102
{ACAD_REACTORS
330
47
102
}
330
47
100
AcDbScale
 70
     0
300
1:5
140
1.0
141
5.0
290
     0
  0
SCALE
  5
4C
102
{ACAD_REACTORS
330
47
102
}
330
47
100
AcDbScale
 70
     0
300
1:8
140
1.0
141
8.0
290
     0
  0
SCALE
  5
4D
102
{ACAD_REACTORS
330
47
102
}
330
47
100
AcDbScale
 70
     0
300
1:10
140
1.0
141
10.0
290
     0
  0
SCALE
  5
4E
102
{ACAD_REACTORS
330
47
102
}
330
47
100
AcDbScale
 70
     0
300
1:16
140
1.0
141
16.0
290
     0
  0
SCALE
  5
4F
102
{ACAD_REACTORS
330
47
102
}
330
47
100
AcDbScale
 70
     0
300
1:20
140
1.0
141
20.0
290
     0
  0
SCALE
  5
50
102
{ACAD_REACTORS
330
47
102
}
330
47
100
AcDbScale
 70
     0
300
1:30
140
1.0
141
30.0
290
     0
  0
SCALE
  5
51
102
{ACAD_REACTORS
330
47
102
}
330
47
100
AcDbScale
 70
     0
300
1:40
140
1.0
141
40.0
290
     0
  0
SCALE
  5
52
102
{ACAD_REACTORS
330
47
102
}
330
47
100
AcDbScale
 70
     0
300
1:50
140
1.0
141
50.0
290
     0
  0
SCALE
  5
53
102
{ACAD_REACTORS
330
47
102
}
330
47
100
AcDbScale
 70
     0
300
1:100
140
1.0
141
100.0
290
     0
  0
SCALE
  5
54
102
{ACAD_REACTORS
330
47
102
}
330
47
100
AcDbScale
 70
     0
300
2:1
140
2.0
141
1.0
290
     0
  0
SCALE
  5
55
102
{ACAD_REACTORS
330
47
102
}
330
47
100
AcDbScale
 70
     0
300
4:1
140
4.0
141
1.0
290
     0
  0
SCALE
  5
56
102
{ACAD_REACTORS
330
47
102
}
330
47
100
AcDbScale
 70
     0
300
8:1
140
8.0
141
1.0
290
     0
  0
SCALE
  5
57
102
{ACAD_REACTORS
330
47
102
}
330
47
100
AcDbScale
 70
     0
300
10:1
140
10.0
141
1.0
290
     0
  0
SCALE
  5
58
102
{ACAD_REACTORS
330
47
102
}
330
47
100
AcDbScale
 70
     0
300
100:1
140
100.0
141
1.0
290
     0
  0
ENDSEC
  0
EOF
