  0
SECTION
  2
HEADER
  9
$ACADVER
  1
AC1015
  9
$ACADMAINTVER
 70
     6
  9
$DWGCODEPAGE
  3
ANSI_1252
  9
$INSBASE
 10
0.0
 20
0.0
 30
0.0
  9
$EXTMIN
 10
-130.0
 20
-82.5
 30
0.0
  9
$EXTMAX
 10
165.0
 20
52.5
 30
0.0
  9
$LIMMIN
 10
0.0
 20
0.0
  9
$LIMMAX
 10
420.0
 20
297.0
  9
$ORTHOMODE
 70
     0
  9
$REGENMODE
 70
     1
  9
$FILLMODE
 70
     1
  9
$QTEXTMODE
 70
     0
  9
$MIRRTEXT
 70
     1
  9
$LTSCALE
 40
1.0
  9
$ATTMODE
 70
     1
  9
$TEXTSIZE
 40
3.5
  9
$TRACEWID
 40
1.0
  9
$TEXTSTYLE
  7
Standard
  9
$CLAYER
  8
0
  9
$CELTYPE
  6
ByLayer
  9
$CECOLOR
 62
   256
  9
$CELTSCALE
 40
1.0
  9
$DISPSILH
 70
     0
  9
$DIMSCALE
 40
1.0
  9
$DIMASZ
 40
3.302
  9
$DIMEXO
 40
0.0
  9
$DIMDLI
 40
3.75
  9
$DIMRND
 40
0.0
  9
$DIMDLE
 40
0.0
  9
$DIMEXE
 40
1.0
  9
$DIMTP
 40
0.0
  9
$DIMTM
 40
0.0
  9
$DIMTXT
 40
3.5
  9
$DIMCEN
 40
2.5
  9
$DIMTSZ
 40
0.0
  9
$DIMTOL
 70
     0
  9
$DIMLIM
 70
     0
  9
$DIMTIH
 70
     1
  9
$DIMTOH
 70
     1
  9
$DIMSE1
 70
     0
  9
$DIMSE2
 70
     0
  9
$DIMTAD
 70
     1
  9
$DIMZIN
 70
     1
  9
$DIMBLK
  1

  9
$DIMASO
 70
     1
  9
$DIMSHO
 70
     1
  9
$DIMPOST
  1

  9
$DIMAPOST
  1

  9
$DIMALT
 70
     0
  9
$DIMALTD
 70
     3
  9
$DIMALTF
 40
0.0393700787
  9
$DIMLFAC
 40
1.0
  9
$DIMTOFL
 70
     1
  9
$DIMTVP
 40
0.0
  9
$DIMTIX
 70
     0
  9
$DIMSOXD
 70
     0
  9
$DIMSAH
 70
     0
  9
$DIMBLK1
  1

  9
$DIMBLK2
  1

  9
$DIMSTYLE
  2
ISO-25
  9
$DIMCLRD
 70
     0
  9
$DIMCLRE
 70
     0
  9
$DIMCLRT
 70
     0
  9
$DIMTFAC
 40
1.0
  9
$DIMGAP
 40
1.524
  9
$DIMJUST
 70
     0
  9
$DIMSD1
 70
     0
  9
$DIMSD2
 70
     0
  9
$DIMTOLJ
 70
     0
  9
$DIMTZIN
 70
     1
  9
$DIMALTZ
 70
     0
  9
$DIMALTTZ
 70
     0
  9
$DIMUPT
 70
     0
  9
$DIMDEC
 70
     2
  9
$DIMTDEC
 70
     2
  9
$DIMALTU
 70
     2
  9
$DIMALTTD
 70
     3
  9
$DIMTXSTY
  7
Standard
  9
$DIMAUNIT
 70
     0
  9
$DIMADEC
 70
     2
  9
$DIMALTRND
 40
0.0
  9
$DIMAZIN
 70
     0
  9
$DIMDSEP
 70
    44
  9
$DIMATFIT
 70
     3
  9
$DIMFRAC
 70
     0
  9
$DIMLDRBLK
  1

  9
$DIMLUNIT
 70
     2
  9
$DIMLWD
 70
    -2
  9
$DIMLWE
 70
    -2
  9
$DIMTMOVE
 70
     0
  9
$LUNITS
 70
     2
  9
$LUPREC
 70
     2
  9
$SKETCHINC
 40
1.0
  9
$FILLETRAD
 40
0.0
  9
$AUNITS
 70
     0
  9
$AUPREC
 70
     2
  9
$MENU
  1
.
  9
$ELEVATION
 40
0.0
  9
$PELEVATION
 40
0.0
  9
$THICKNESS
 40
0.0
  9
$LIMCHECK
 70
     0
  9
$CHAMFERA
 40
0.0
  9
$CHAMFERB
 40
0.0
  9
$CHAMFERC
 40
0.0
  9
$CHAMFERD
 40
0.0
  9
$SKPOLY
 70
     0
  9
$TDCREATE
 40
2459968.599416018
  9
$TDUCREATE
 40
2459968.557749352
  9
$TDUPDATE
 40
2459968.59947037
  9
$TDUUPDATE
 40
2459968.557803703
  9
$TDINDWG
 40
0.0000000116
  9
$TDUSRTIMER
 40
0.0000000116
  9
$USRTIMER
 70
     1
  9
$ANGBASE
 50
0.0
  9
$ANGDIR
 70
     0
  9
$PDMODE
 70
     0
  9
$PDSIZE
 40
-1.0
  9
$PLINEWID
 40
0.0
  9
$SPLFRAME
 70
     0
  9
$SPLINETYPE
 70
     6
  9
$SPLINESEGS
 70
     8
  9
$HANDSEED
  5
26E
  9
$SURFTAB1
 70
     6
  9
$SURFTAB2
 70
     6
  9
$SURFTYPE
 70
     6
  9
$SURFU
 70
     6
  9
$SURFV
 70
     6
  9
$UCSBASE
  2

  9
$UCSNAME
  2

  9
$UCSORG
 10
0.0
 20
0.0
 30
0.0
  9
$UCSXDIR
 10
1.0
 20
0.0
 30
0.0
  9
$UCSYDIR
 10
0.0
 20
1.0
 30
0.0
  9
$UCSORTHOREF
  2

  9
$UCSORTHOVIEW
 70
     0
  9
$UCSORGTOP
 10
0.0
 20
0.0
 30
0.0
  9
$UCSORGBOTTOM
 10
0.0
 20
0.0
 30
0.0
  9
$UCSORGLEFT
 10
0.0
 20
0.0
 30
0.0
  9
$UCSORGRIGHT
 10
0.0
 20
0.0
 30
0.0
  9
$UCSORGFRONT
 10
0.0
 20
0.0
 30
0.0
  9
$UCSORGBACK
 10
0.0
 20
0.0
 30
0.0
  9
$PUCSBASE
  2

  9
$PUCSNAME
  2

  9
$PUCSORG
 10
0.0
 20
0.0
 30
0.0
  9
$PUCSXDIR
 10
1.0
 20
0.0
 30
0.0
  9
$PUCSYDIR
 10
0.0
 20
1.0
 30
0.0
  9
$PUCSORTHOREF
  2

  9
$PUCSORTHOVIEW
 70
     0
  9
$PUCSORGTOP
 10
0.0
 20
0.0
 30
0.0
  9
$PUCSORGBOTTOM
 10
0.0
 20
0.0
 30
0.0
  9
$PUCSORGLEFT
 10
0.0
 20
0.0
 30
0.0
  9
$PUCSORGRIGHT
 10
0.0
 20
0.0
 30
0.0
  9
$PUCSORGFRONT
 10
0.0
 20
0.0
 30
0.0
  9
$PUCSORGBACK
 10
0.0
 20
0.0
 30
0.0
  9
$USERI1
 70
     0
  9
$USERI2
 70
     0
  9
$USERI3
 70
     0
  9
$USERI4
 70
     0
  9
$USERI5
 70
     0
  9
$USERR1
 40
0.0
  9
$USERR2
 40
0.0
  9
$USERR3
 40
0.0
  9
$USERR4
 40
0.0
  9
$USERR5
 40
0.0
  9
$WORLDVIEW
 70
     1
  9
$SHADEDGE
 70
     3
  9
$SHADEDIF
 70
    70
  9
$TILEMODE
 70
     1
  9
$MAXACTVP
 70
    64
  9
$PINSBASE
 10
0.0
 20
0.0
 30
0.0
  9
$PLIMCHECK
 70
     0
  9
$PEXTMIN
 10
1.0000000000E+20
 20
1.0000000000E+20
 30
1.0000000000E+20
  9
$PEXTMAX
 10
-1.0000000000E+20
 20
-1.0000000000E+20
 30
-1.0000000000E+20
  9
$PLIMMIN
 10
0.0
 20
0.0
  9
$PLIMMAX
 10
420.0
 20
297.0
  9
$UNITMODE
 70
     0
  9
$VISRETAIN
 70
     1
  9
$PLINEGEN
 70
     0
  9
$PSLTSCALE
 70
     1
  9
$TREEDEPTH
 70
  3020
  9
$CMLSTYLE
  2
Standard
  9
$CMLJUST
 70
     0
  9
$CMLSCALE
 40
20.0
  9
$PROXYGRAPHICS
 70
     1
  9
$MEASUREMENT
 70
     1
  9
$CELWEIGHT
370
    -1
  9
$ENDCAPS
280
     0
  9
$JOINSTYLE
280
     0
  9
$LWDISPLAY
290
     1
  9
$INSUNITS
 70
     4
  9
$HYPERLINKBASE
  1

  9
$STYLESHEET
  1

  9
$XEDIT
290
     1
  9
$CEPSNTYPE
380
     0
  9
$PSTYLEMODE
290
     1
  9
$FINGERPRINTGUID
  2
{f8182ab4-2569-4913-b658-97d85513163f}
  9
$VERSIONGUID
  2
{FAEB1C32-E019-11D5-929B-00C0DF256EC4}
  9
$EXTNAMES
290
     1
  9
$PSVPSCALE
 40
0.0
  9
$OLESTARTUP
290
     0
  0
ENDSEC
  0
SECTION
  2
CLASSES
  0
CLASS
  1
ACDBDICTIONARYWDFLT
  2
AcDbDictionaryWithDefault
  3
ObjectDBX Classes
 90
        0
280
     0
281
     0
  0
CLASS
  1
VISUALSTYLE
  2
AcDbVisualStyle
  3
ObjectDBX Classes
 90
     4095
280
     0
281
     0
  0
CLASS
  1
MATERIAL
  2
AcDbMaterial
  3
ObjectDBX Classes
 90
     1153
280
     0
281
     0
  0
CLASS
  1
SCALE
  2
AcDbScale
  3
ObjectDBX Classes
 90
     1153
280
     0
281
     0
  0
CLASS
  1
TABLESTYLE
  2
AcDbTableStyle
  3
ObjectDBX Classes
 90
     4095
280
     0
281
     0
  0
CLASS
  1
MLEADERSTYLE
  2
AcDbMLeaderStyle
  3
ACDB_MLEADERSTYLE_CLASS
 90
     4095
280
     0
281
     0
  0
CLASS
  1
SUN
  2
AcDbSun
  3
SCENEOE
 90
     1153
280
     0
281
     0
  0
CLASS
  1
ACDBPLACEHOLDER
  2
AcDbPlaceHolder
  3
ObjectDBX Classes
 90
        0
280
     0
281
     0
  0
CLASS
  1
LAYOUT
  2
AcDbLayout
  3
ObjectDBX Classes
 90
        0
280
     0
281
     0
  0
ENDSEC
  0
SECTION
  2
TABLES
  0
TABLE
  2
VPORT
  5
8
330
0
100
AcDbSymbolTable
 70
     1
  0
VPORT
  5
29
330
8
100
AcDbSymbolTableRecord
100
AcDbViewportTableRecord
  2
*Active
 70
     0
 10
0.0
 20
0.0
 11
1.0
 21
1.0
 12
17.5
 22
-15.0
 13
0.0
 23
0.0
 14
10.0
 24
10.0
 15
10.0
 25
10.0
 16
0.0
 26
0.0
 36
1.0
 17
0.0
 27
0.0
 37
0.0
 40
137.7
 41
2.1851851852
 42
50.0
 43
0.0
 44
0.0
 50
0.0
 51
0.0
 71
     0
 72
   100
 73
     1
 74
     3
 75
     0
 76
     0
 77
     0
 78
     0
281
     0
 65
     1
110
0.0
120
0.0
130
0.0
111
1.0
121
0.0
131
0.0
112
0.0
122
1.0
132
0.0
 79
     0
146
0.0
  0
ENDTAB
  0
TABLE
  2
LTYPE
  5
5
330
0
100
AcDbSymbolTable
 70
     6
  0
LTYPE
  5
14
330
5
100
AcDbSymbolTableRecord
100
AcDbLinetypeTableRecord
  2
ByBlock
 70
     0
  3

 72
    65
 73
     0
 40
0.0
  0
LTYPE
  5
15
330
5
100
AcDbSymbolTableRecord
100
AcDbLinetypeTableRecord
  2
ByLayer
 70
     0
  3

 72
    65
 73
     0
 40
0.0
  0
LTYPE
  5
16
330
5
100
AcDbSymbolTableRecord
100
AcDbLinetypeTableRecord
  2
Continuous
 70
     0
  3
Solid line
 72
    65
 73
     0
 40
0.0
  0
LTYPE
  5
5E
330
5
100
AcDbSymbolTableRecord
100
AcDbLinetypeTableRecord
  2
HIDDEN
 70
     0
  3
Hidden __ __ __ __ __ __ __ __ __ __ __ __ __ __
 72
    65
 73
     2
 40
1.905
 49
1.27
 74
     0
 49
-0.635
 74
     0
  0
LTYPE
  5
5F
330
5
100
AcDbSymbolTableRecord
100
AcDbLinetypeTableRecord
  2
PHANTOM
 70
     0
  3
Phantom ______  __  __  ______  __  __  ______
 72
    65
 73
     6
 40
12.7
 49
6.35
 74
     0
 49
-1.27
 74
     0
 49
1.27
 74
     0
 49
-1.27
 74
     0
 49
1.27
 74
     0
 49
-1.27
 74
     0
  0
LTYPE
  5
60
330
5
100
AcDbSymbolTableRecord
100
AcDbLinetypeTableRecord
  2
CENTER
 70
     0
  3
Center ____ _ ____ _ ____ _ ____ _ ____ _ ____
 72
    65
 73
     4
 40
10.16
 49
6.35
 74
     0
 49
-1.27
 74
     0
 49
1.27
 74
     0
 49
-1.27
 74
     0
  0
LTYPE
  5
61
330
5
100
AcDbSymbolTableRecord
100
AcDbLinetypeTableRecord
  2
CENTERX2
 70
     0
  3
Center (2x) ________  __  ________  __  _____
 72
    65
 73
     4
 40
20.32
 49
12.7
 74
     0
 49
-2.54
 74
     0
 49
2.54
 74
     0
 49
-2.54
 74
     0
  0
LTYPE
  5
62
330
5
100
AcDbSymbolTableRecord
100
AcDbLinetypeTableRecord
  2
DOT2
 70
     0
  3
Dot (.5x) ........................................
 72
    65
 73
     2
 40
0.635
 49
0.0
 74
     0
 49
-0.635
 74
     0
  0
ENDTAB
  0
TABLE
  2
LAYER
  5
2
330
0
100
AcDbSymbolTable
 70
     1
  0
LAYER
  5
10
330
2
100
AcDbSymbolTableRecord
100
AcDbLayerTableRecord
  2
0
 70
     0
 62
     7
  6
Continuous
370
    -3
390
F
  0
ENDTAB
  0
TABLE
  2
STYLE
  5
3
330
0
100
AcDbSymbolTable
 70
     2
  0
STYLE
  5
11
330
3
100
AcDbSymbolTableRecord
100
AcDbTextStyleTableRecord
  2
Standard
 70
     0
 40
0.0
 41
1.0
 50
0.0
 71
     0
 42
3.5
  3
txt
  4

  0
STYLE
  5
26B
330
3
100
AcDbSymbolTableRecord
100
AcDbTextStyleTableRecord
  2
SLDTEXTSTYLE0
 70
     0
 40
0.0
 41
0.7
 50
0.0
 71
     0
 42
3.5
  3
TXT
  4
bigfont
  0
ENDTAB
  0
TABLE
  2
VIEW
  5
6
330
0
100
AcDbSymbolTable
 70
     0
  0
ENDTAB
  0
TABLE
  2
UCS
  5
7
330
0
100
AcDbSymbolTable
 70
     0
  0
ENDTAB
  0
TABLE
  2
APPID
  5
9
330
0
100
AcDbSymbolTable
 70
     1
  0
APPID
  5
12
330
9
100
AcDbSymbolTableRecord
100
AcDbRegAppTableRecord
  2
ACAD
 70
     0
  0
ENDTAB
  0
TABLE
  2
DIMSTYLE
  5
A
330
0
100
AcDbSymbolTable
 70
     1
100
AcDbDimStyleTable
  0
DIMSTYLE
105
27
330
A
100
AcDbSymbolTableRecord
100
AcDbDimStyleTableRecord
  2
ISO-25
 70
     0
 41
2.5
 42
0.625
 43
3.75
 44
1.25
 73
     0
 74
     0
 77
     1
 78
     8
140
2.5
141
2.5
143
0.0393700787
147
0.625
171
     3
172
     1
178
     0
271
     2
272
     2
274
     3
278
    44
283
     0
284
     8
340
11
  0
ENDTAB
  0
TABLE
  2
BLOCK_RECORD
  5
1
330
0
100
AcDbSymbolTable
 70
     1
  0
BLOCK_RECORD
  5
1F
330
1
100
AcDbSymbolTableRecord
100
AcDbBlockTableRecord
  2
*Model_Space
340
22
  0
BLOCK_RECORD
  5
1B
330
1
100
AcDbSymbolTableRecord
100
AcDbBlockTableRecord
  2
*Paper_Space
340
1E
  0
BLOCK_RECORD
  5
23
330
1
100
AcDbSymbolTableRecord
100
AcDbBlockTableRecord
  2
*Paper_Space0
340
26
  0
ENDTAB
  0
ENDSEC
  0
SECTION
  2
BLOCKS
  0
BLOCK
  5
20
330
1F
100
AcDbEntity
  8
0
100
AcDbBlockBegin
  2
*Model_Space
 70
     0
 10
0.0
 20
0.0
 30
0.0
  3
*Model_Space
  1

  0
ENDBLK
  5
21
330
1F
100
AcDbEntity
  8
0
100
AcDbBlockEnd
  0
BLOCK
  5
1C
330
1B
100
AcDbEntity
 67
     1
  8
0
100
AcDbBlockBegin
  2
*Paper_Space
 70
     0
 10
0.0
 20
0.0
 30
0.0
  3
*Paper_Space
  1

  0
ENDBLK
  5
1D
330
1B
100
AcDbEntity
 67
     1
  8
0
100
AcDbBlockEnd
  0
BLOCK
  5
24
330
23
100
AcDbEntity
  8
0
100
AcDbBlockBegin
  2
*Paper_Space0
 70
     0
 10
0.0
 20
0.0
 30
0.0
  3
*Paper_Space0
  1

  0
ENDBLK
  5
25
330
23
100
AcDbEntity
  8
0
100
AcDbBlockEnd
  0
ENDSEC
  0
SECTION
  2
ENTITIES
  0
CIRCLE
  5
63
330
1F
100
AcDbEntity
  8
0
  6
Continuous
 62
     7
370
    25
100
AcDbCircle
 10
-110.0
 20
-62.5
 30
0.0
 40
2.500000000000007
  0
CIRCLE
  5
64
330
1F
100
AcDbEntity
  8
0
  6
Continuous
 62
     7
370
    25
100
AcDbCircle
 10
-110.0
 20
32.5
 30
0.0
 40
2.500000000000014
  0
SPLINE
  5
103
330
1F
100
AcDbEntity
  8
0
  6
Continuous
 62
     7
370
    25
100
AcDbSpline
210
0.0
220
0.0
230
1.0
 70
     8
 71
     3
 72
     8
 73
     4
 74
     0
 42
0.00000001
 43
0.00000001
 40
0.0
 40
0.0
 40
0.0
 40
0.0
 40
1.0
 40
1.0
 40
1.0
 40
1.0
 10
-96.3219492319227
 20
-21.33812400956497
 30
0.0
 10
-96.78913246689757
 20
-22.55081044083823
 30
0.0
 10
-98.25728417847778
 20
-22.60104539562553
 30
0.0
 10
-99.34535239638542
 20
-22.52452271967062
 30
0.0
  0
SPLINE
  5
108
330
1F
100
AcDbEntity
  8
0
  6
Continuous
 62
     7
370
    25
100
AcDbSpline
210
0.0
220
0.0
230
1.0
 70
     8
 71
     3
 72
     9
 73
     5
 74
     0
 42
0.00000001
 43
0.00000001
 40
0.0
 40
0.0
 40
0.0
 40
0.0
 40
0.4628151874329152
 40
1.0
 40
1.0
 40
1.0
 40
1.0
 10
-89.62712326704315
 20
-22.54365818273684
 30
0.0
 10
-90.10607675376725
 20
-22.44052705268774
 30
0.0
 10
-91.21060216697721
 20
-21.67708065966496
 30
0.0
 10
-90.81389660544039
 20
-20.37650550561622
 30
0.0
 10
-90.75262824321177
 20
-19.84959542217602
 30
0.0
  0
SPLINE
  5
10B
330
1F
100
AcDbEntity
  8
0
  6
Continuous
 62
     7
370
    25
100
AcDbSpline
210
0.0
220
0.0
230
1.0
 70
     8
 71
     3
 72
     9
 73
     5
 74
     0
 42
0.00000001
 43
0.00000001
 40
0.0
 40
0.0
 40
0.0
 40
0.0
 40
0.4027901201011531
 40
1.0
 40
1.0
 40
1.0
 40
1.0
 10
-84.97960041982341
 20
-11.56533604181553
 30
0.0
 10
-84.22460958799917
 20
-11.53630009548925
 30
0.0
 10
-82.95739966732079
 20
-12.9370712836949
 30
0.0
 10
-82.88492610268376
 20
-14.71201227010156
 30
0.0
 10
-83.13393816308859
 20
-15.7074657319958
 30
0.0
  0
SPLINE
  5
10F
330
1F
100
AcDbEntity
  8
0
  6
Continuous
 62
     7
370
    25
100
AcDbSpline
210
0.0
220
0.0
230
1.0
 70
     8
 71
     3
 72
     8
 73
     4
 74
     0
 42
0.00000001
 43
0.00000001
 40
0.0
 40
0.0
 40
0.0
 40
0.0
 40
1.0
 40
1.0
 40
1.0
 40
1.0
 10
-80.49422593330402
 20
-6.710838395672877
 30
0.0
 10
-81.40346183301503
 20
-8.465478158589121
 30
0.0
 10
-83.07609568086033
 20
-10.08168822522576
 30
0.0
 10
-85.16325285803248
 20
-10.18103586497346
 30
0.0
  0
SPLINE
  5
113
330
1F
100
AcDbEntity
  8
0
  6
Continuous
 62
     7
370
    25
100
AcDbSpline
210
0.0
220
0.0
230
1.0
 70
     8
 71
     3
 72
     9
 73
     5
 74
     0
 42
0.00000001
 43
0.00000001
 40
0.0
 40
0.0
 40
0.0
 40
0.0
 40
0.4755238132264809
 40
1.0
 40
1.0
 40
1.0
 40
1.0
 10
-81.5466705269928
 20
-1.412134313667459
 30
0.0
 10
-80.36331740395589
 20
-1.589800416207184
 30
0.0
 10
-77.45683372840928
 20
-1.998633398569288
 30
0.0
 10
-76.46340558917674
 20
-4.994878477039736
 30
0.0
 10
-76.72456075227322
 20
-6.308995914446194
 30
0.0
  0
SPLINE
  5
118
330
1F
100
AcDbEntity
  8
0
  6
Continuous
 62
     7
370
    25
100
AcDbSpline
210
0.0
220
0.0
230
1.0
 70
     8
 71
     3
 72
     8
 73
     4
 74
     0
 42
0.00000001
 43
0.00000001
 40
0.0
 40
0.0
 40
0.0
 40
0.0
 40
1.0
 40
1.0
 40
1.0
 40
1.0
 10
-93.53323579749234
 20
-0.9037861787924671
 30
0.0
 10
-92.4201575826819
 20
-0.8882847895088867
 30
0.0
 10
-90.46083582842572
 20
-1.035259247768245
 30
0.0
 10
-90.89466690695089
 20
-2.808074430070164
 30
0.0
  0
CIRCLE
  5
119
330
1F
100
AcDbEntity
  8
0
  6
Continuous
 62
     7
370
    25
100
AcDbCircle
 10
-51.4162626543
 20
-2.3196947068
 30
0.0
 40
2.447265560451686
  0
SPLINE
  5
11D
330
1F
100
AcDbEntity
  8
0
  6
Continuous
 62
     7
370
    25
100
AcDbSpline
210
0.0
220
0.0
230
1.0
 70
     8
 71
     3
 72
    11
 73
     7
 74
     0
 42
0.00000001
 43
0.00000001
 40
0.0
 40
0.0
 40
0.0
 40
0.0
 40
0.4814141659738009
 40
0.7627000966310551
 40
0.8765674480716362
 40
1.0
 40
1.0
 40
1.0
 40
1.0
 10
-86.33635336130125
 20
-45.9011109576091
 30
0.0
 10
-85.64069816923687
 20
-44.28654366570857
 30
0.0
 10
-84.11259717053933
 20
-41.95478938855244
 30
0.0
 10
-82.26390476474711
 20
-39.37184519179313
 30
0.0
 10
-81.02003407663817
 20
-37.92450414923779
 30
0.0
 10
-79.86640120190022
 20
-37.9178868320884
 30
0.0
 10
-80.17196507665011
 20
-38.77265226766846
 30
0.0
  0
SPLINE
  5
121
330
1F
100
AcDbEntity
  8
0
  6
Continuous
 62
     7
370
    25
100
AcDbSpline
210
0.0
220
0.0
230
1.0
 70
     8
 71
     3
 72
    10
 73
     6
 74
     0
 42
0.00000001
 43
0.00000001
 40
0.0
 40
0.0
 40
0.0
 40
0.0
 40
0.6057879741313783
 40
0.8464054995855752
 40
1.0
 40
1.0
 40
1.0
 40
1.0
 10
-77.64990410673055
 20
-45.3495016371136
 30
0.0
 10
-76.92972537085265
 20
-43.40465474627799
 30
0.0
 10
-74.88899133477058
 20
-41.18251069587898
 30
0.0
 10
-73.18082754015116
 20
-38.39121954806606
 30
0.0
 10
-71.5802810029737
 20
-37.71994684218552
 30
0.0
 10
-71.67709552531848
 20
-38.77265226766845
 30
0.0
  0
SPLINE
  5
123
330
1F
100
AcDbEntity
  8
0
  6
Continuous
 62
     7
370
    25
100
AcDbSpline
210
0.0
220
0.0
230
1.0
 70
     8
 71
     3
 72
     9
 73
     5
 74
     0
 42
0.00000001
 43
0.00000001
 40
0.0
 40
0.0
 40
0.0
 40
0.0
 40
0.385612962325019
 40
1.0
 40
1.0
 40
1.0
 40
1.0
 10
-74.31330066979136
 20
-48.24900116311539
 30
0.0
 10
-74.65776425941127
 20
-49.13198159912293
 30
0.0
 10
-73.56741248089325
 20
-52.35249009553878
 30
0.0
 10
-70.03216588638666
 20
-50.68751299964637
 30
0.0
 10
-69.0921285903052
 20
-49.84429867108611
 30
0.0
  0
SPLINE
  5
127
330
1F
100
AcDbEntity
  8
0
  6
Continuous
 62
     7
370
    25
100
AcDbSpline
210
0.0
220
0.0
230
1.0
 70
     8
 71
     3
 72
    10
 73
     6
 74
     0
 42
0.00000001
 43
0.00000001
 40
0.0
 40
0.0
 40
0.0
 40
0.0
 40
0.3514112319136561
 40
0.6002530916474815
 40
1.0
 40
1.0
 40
1.0
 40
1.0
 10
-68.99791571512334
 20
-48.45990226877483
 30
0.0
 10
-69.36458120450631
 20
-48.92795233216399
 30
0.0
 10
-69.74960619117674
 20
-48.96697608032623
 30
0.0
 10
-69.85557776731439
 20
-48.14114554372775
 30
0.0
 10
-69.77265990677135
 20
-47.49161916728615
 30
0.0
 10
-69.73545967388434
 20
-47.36467849064665
 30
0.0
  0
SPLINE
  5
129
330
1F
100
AcDbEntity
  8
0
  6
Continuous
 62
     7
370
    25
100
AcDbSpline
210
0.0
220
0.0
230
1.0
 70
     8
 71
     3
 72
    12
 73
     8
 74
     0
 42
0.00000001
 43
0.00000001
 40
0.0
 40
0.0
 40
0.0
 40
0.0
 40
0.1053659746435008
 40
0.2127485711713107
 40
0.331050271336358
 40
0.5898040345458355
 40
1.0
 40
1.0
 40
1.0
 40
1.0
 10
-67.36434944699012
 20
-39.27359106377473
 30
0.0
 10
-67.22701372063476
 20
-38.80495179252939
 30
0.0
 10
-67.02634635316336
 20
-37.57245814048469
 30
0.0
 10
-67.11969540189506
 20
-35.69147277002319
 30
0.0
 10
-69.79304503890565
 20
-34.10513922751802
 30
0.0
 10
-73.71218019578002
 20
-37.47939051806944
 30
0.0
 10
-75.22770605960082
 20
-40.3393004839629
 30
0.0
 10
-76.69249135585405
 20
-42.12419506080578
 30
0.0
  0
SPLINE
  5
12A
330
1F
100
AcDbEntity
  8
0
  6
Continuous
 62
     7
370
    25
100
AcDbSpline
210
0.0
220
0.0
230
1.0
 70
     8
 71
     3
 72
    13
 73
     9
 74
     0
 42
0.00000001
 43
0.00000001
 40
0.0
 40
0.0
 40
0.0
 40
0.0
 40
0.165568195872946
 40
0.2612113165554506
 40
0.3600310240690294
 40
0.4348059188623208
 40
0.6262807358494824
 40
1.0
 40
1.0
 40
1.0
 40
1.0
 10
-76.69249135585405
 20
-42.12419506080578
 30
0.0
 10
-76.66673655128567
 20
-41.83951852931474
 30
0.0
 10
-76.27742350222466
 20
-40.59785846986607
 30
0.0
 10
-75.2193912897485
 20
-36.68647953687986
 30
0.0
 10
-75.98549045261902
 20
-35.15810188669344
 30
0.0
 10
-78.46518046644678
 20
-34.51356599984744
 30
0.0
 10
-82.1231798896515
 20
-37.22630746196983
 30
0.0
 10
-83.84569285063066
 20
-40.16016759555007
 30
0.0
 10
-85.28677531027922
 20
-42.15255832645551
 30
0.0
  0
SPLINE
  5
12E
330
1F
100
AcDbEntity
  8
0
  6
Continuous
 62
     7
370
    25
100
AcDbSpline
210
0.0
220
0.0
230
1.0
 70
     8
 71
     3
 72
     8
 73
     4
 74
     0
 42
0.00000001
 43
0.00000001
 40
0.0
 40
0.0
 40
0.0
 40
0.0
 40
1.0
 40
1.0
 40
1.0
 40
1.0
 10
-90.22077965549103
 20
-36.66544246775591
 30
0.0
 10
-89.67517374849452
 20
-36.68931999454644
 30
0.0
 10
-88.2098544495546
 20
-36.53675998206337
 30
0.0
 10
-88.50130133822911
 20
-37.58994996599171
 30
0.0
  0
SPLINE
  5
133
330
1F
100
AcDbEntity
  8
0
  6
Continuous
 62
     7
370
    25
100
AcDbSpline
210
0.0
220
0.0
230
1.0
 70
     8
 71
     3
 72
     8
 73
     4
 74
     0
 42
0.00000001
 43
0.00000001
 40
0.0
 40
0.0
 40
0.0
 40
0.0
 40
1.0
 40
1.0
 40
1.0
 40
1.0
 10
-59.77844767466994
 20
-28.56773843538626
 30
0.0
 10
-59.10246526994636
 20
-28.81002164229092
 30
0.0
 10
-58.81496876847437
 20
-29.32999262917081
 30
0.0
 10
-58.91595817025399
 20
-30.12765139602591
 30
0.0
  0
SPLINE
  5
135
330
1F
100
AcDbEntity
  8
0
  6
Continuous
 62
     7
370
    25
100
AcDbSpline
210
0.0
220
0.0
230
1.0
 70
     8
 71
     3
 72
    12
 73
     8
 74
     0
 42
0.00000001
 43
0.00000001
 40
0.0
 40
0.0
 40
0.0
 40
0.0
 40
0.3826643292357454
 40
0.5387189198140564
 40
0.6710683625937445
 40
0.8230101860789016
 40
1.0
 40
1.0
 40
1.0
 40
1.0
 10
-64.64187322489778
 20
-49.75522578997202
 30
0.0
 10
-61.45591596415429
 20
-51.86385246788948
 30
0.0
 10
-54.60975134344623
 20
-51.97429654546576
 30
0.0
 10
-50.08150535413028
 20
-46.51864523602957
 30
0.0
 10
-48.41138740724682
 20
-42.40133613113332
 30
0.0
 10
-47.64735891045041
 20
-37.4859711109686
 30
0.0
 10
-50.75568699093424
 20
-34.574364094637
 30
0.0
 10
-52.60881481849211
 20
-34.84569447803653
 30
0.0
  0
SPLINE
  5
136
330
1F
100
AcDbEntity
  8
0
  6
Continuous
 62
     7
370
    25
100
AcDbSpline
210
0.0
220
0.0
230
1.0
 70
     8
 71
     3
 72
     8
 73
     4
 74
     0
 42
0.00000001
 43
0.00000001
 40
0.0
 40
0.0
 40
0.0
 40
0.0
 40
1.0
 40
1.0
 40
1.0
 40
1.0
 10
-52.60881481849211
 20
-34.84569447803653
 30
0.0
 10
-54.28937909158732
 20
-35.21444438426598
 30
0.0
 10
-55.64627770533162
 20
-36.07630974406107
 30
0.0
 10
-56.67951065972501
 20
-37.43129055742178
 30
0.0
  0
CIRCLE
  5
137
330
1F
100
AcDbEntity
  8
0
  6
Continuous
 62
     7
370
    25
100
AcDbCircle
 10
-34.8161419796
 20
-42.7640997603
 30
0.0
 40
10.74305357601656
  0
SPLINE
  5
138
330
1F
100
AcDbEntity
  8
0
  6
Continuous
 62
     7
370
    25
100
AcDbSpline
210
0.0
220
0.0
230
1.0
 70
     8
 71
     3
 72
     8
 73
     4
 74
     0
 42
0.00000001
 43
0.00000001
 40
0.0
 40
0.0
 40
0.0
 40
0.0
 40
1.0
 40
1.0
 40
1.0
 40
1.0
 10
-46.64886184543862
 20
-9.16371600016713
 30
0.0
 10
-45.54500682025425
 20
-9.483667920678107
 30
0.0
 10
-46.11353186127415
 20
-11.08806244505723
 30
0.0
 10
-46.17646239248444
 20
-11.78063565114015
 30
0.0
  0
SPLINE
  5
13C
330
1F
100
AcDbEntity
  8
0
  6
Continuous
 62
     7
370
    25
100
AcDbSpline
210
0.0
220
0.0
230
1.0
 70
     8
 71
     3
 72
     9
 73
     5
 74
     0
 42
0.00000001
 43
0.00000001
 40
0.0
 40
0.0
 40
0.0
 40
0.0
 40
0.3287657113578135
 40
1.0
 40
1.0
 40
1.0
 40
1.0
 10
-43.39038665725973
 20
-17.50855475546228
 30
0.0
 10
-43.17109450533821
 20
-16.74169066219842
 30
0.0
 10
-42.0129536302579
 20
-14.68629055291419
 30
0.0
 10
-41.07907548553163
 20
-12.42528855216358
 30
0.0
 10
-39.61866660924155
 20
-11.56533604181553
 30
0.0
  0
SPLINE
  5
13D
330
1F
100
AcDbEntity
  8
0
  6
Continuous
 62
     7
370
    25
100
AcDbSpline
210
0.0
220
0.0
230
1.0
 70
     8
 71
     3
 72
    16
 73
    12
 74
     0
 42
0.00000001
 43
0.00000001
 40
0.0
 40
0.0
 40
0.0
 40
0.0
 40
0.0974110962882452
 40
0.1545576861323801
 40
0.2445117487449914
 40
0.3036940733915632
 40
0.4239303099846004
 40
0.6105475012688766
 40
0.6906356324415244
 40
0.8051127738036652
 40
1.0
 40
1.0
 40
1.0
 40
1.0
 10
-39.61866660924155
 20
-11.56533604181553
 30
0.0
 10
-39.07889217097835
 20
-11.12367228656119
 30
0.0
 10
-38.83900276782984
 20
-12.1166356579863
 30
0.0
 10
-38.30055584232895
 20
-13.18098333607384
 30
0.0
 10
-37.04078597792321
 20
-12.9672056468698
 30
0.0
 10
-36.22927042444535
 20
-11.99065589026689
 30
0.0
 10
-35.48532770460482
 20
-10.44516094127971
 30
0.0
 10
-35.56266295644578
 20
-8.232628310306765
 30
0.0
 10
-37.37444026130969
 20
-7.317282710527258
 30
0.0
 10
-39.10999136548152
 20
-8.40895841332525
 30
0.0
 10
-40.05361514625886
 20
-9.396630796338021
 30
0.0
 10
-40.5538239784806
 20
-10.21208747990906
 30
0.0
  0
SPLINE
  5
141
330
1F
100
AcDbEntity
  8
0
  6
Continuous
 62
     7
370
    25
100
AcDbSpline
210
0.0
220
0.0
230
1.0
 70
     8
 71
     3
 72
     9
 73
     5
 74
     0
 42
0.00000001
 43
0.00000001
 40
0.0
 40
0.0
 40
0.0
 40
0.0
 40
0.2800098746585448
 40
1.0
 40
1.0
 40
1.0
 40
1.0
 10
-41.76517791770199
 20
-8.900876217467543
 30
0.0
 10
-41.72716815756289
 20
-8.76795618367316
 30
0.0
 10
-41.66819998423114
 20
-8.06989909524692
 30
0.0
 10
-41.24224200425695
 20
-7.470181497868669
 30
0.0
 10
-42.2922379685069
 20
-7.571433428616849
 30
0.0
  0
SPLINE
  5
148
330
1F
100
AcDbEntity
  8
0
  6
Continuous
 62
     7
370
    25
100
AcDbSpline
210
0.0
220
0.0
230
1.0
 70
     8
 71
     3
 72
     8
 73
     4
 74
     0
 42
0.00000001
 43
0.00000001
 40
0.0
 40
0.0
 40
0.0
 40
0.0
 40
1.0
 40
1.0
 40
1.0
 40
1.0
 10
-56.23557664415804
 20
-9.16371600016713
 30
0.0
 10
-55.18592102755973
 20
-9.239379485231396
 30
0.0
 10
-55.63863973476657
 20
-10.59988052733096
 30
0.0
 10
-55.68056029815885
 20
-11.13424021187892
 30
0.0
  0
SPLINE
  5
14A
330
1F
100
AcDbEntity
  8
0
  6
Continuous
 62
     7
370
    25
100
AcDbSpline
210
0.0
220
0.0
230
1.0
 70
     8
 71
     3
 72
    10
 73
     6
 74
     0
 42
0.00000001
 43
0.00000001
 40
0.0
 40
0.0
 40
0.0
 40
0.0
 40
0.3795105585098676
 40
0.644642420968362
 40
1.0
 40
1.0
 40
1.0
 40
1.0
 10
-57.9399035329996
 20
-19.46876025636357
 30
0.0
 10
-58.52904119392076
 20
-20.3387040890704
 30
0.0
 10
-58.80165484935988
 20
-23.55825100791026
 30
0.0
 10
-54.71748565565066
 20
-23.82112697785869
 30
0.0
 10
-53.11301161542853
 20
-22.57425160389107
 30
0.0
 10
-52.37123436059078
 20
-21.61769731180323
 30
0.0
  0
SPLINE
  5
14E
330
1F
100
AcDbEntity
  8
0
  6
Continuous
 62
     7
370
    25
100
AcDbSpline
210
0.0
220
0.0
230
1.0
 70
     8
 71
     3
 72
     8
 73
     4
 74
     0
 42
0.00000001
 43
0.00000001
 40
0.0
 40
0.0
 40
0.0
 40
0.0
 40
1.0
 40
1.0
 40
1.0
 40
1.0
 10
-53.00041523903457
 20
-21.19557487029994
 30
0.0
 10
-53.97278309627593
 20
-21.69409901706939
 30
0.0
 10
-54.34017377840694
 20
-21.52315728043108
 30
0.0
 10
-54.10258728542763
 20
-20.68274966038499
 30
0.0
  0
SPLINE
  5
154
330
1F
100
AcDbEntity
  8
0
  6
Continuous
 62
     7
370
    25
100
AcDbSpline
210
0.0
220
0.0
230
1.0
 70
     8
 71
     3
 72
     8
 73
     4
 74
     0
 42
0.00000001
 43
0.00000001
 40
0.0
 40
0.0
 40
0.0
 40
0.0
 40
1.0
 40
1.0
 40
1.0
 40
1.0
 10
-110.9868018386729
 20
-28.00091993081077
 30
0.0
 10
-109.879551027305
 20
-27.90460405135251
 30
0.0
 10
-108.0310198387525
 20
-28.51890165608887
 30
0.0
 10
-108.4938632928305
 20
-30.06310155407385
 30
0.0
  0
SPLINE
  5
156
330
1F
100
AcDbEntity
  8
0
  6
Continuous
 62
     7
370
    25
100
AcDbSpline
210
0.0
220
0.0
230
1.0
 70
     8
 71
     3
 72
     8
 73
     4
 74
     0
 42
0.00000001
 43
0.00000001
 40
0.0
 40
0.0
 40
0.0
 40
0.0
 40
1.0
 40
1.0
 40
1.0
 40
1.0
 10
-113.7275995733604
 20
-48.24900116311536
 30
0.0
 10
-114.0393293096886
 20
-49.28143804948671
 30
0.0
 10
-114.9627356918687
 20
-50.08284110180129
 30
0.0
 10
-116.0284310332702
 20
-50.24868497139448
 30
0.0
  0
SPLINE
  5
15C
330
1F
100
AcDbEntity
  8
0
  6
Continuous
 62
     7
370
    25
100
AcDbSpline
210
0.0
220
0.0
230
1.0
 70
     8
 71
     3
 72
    15
 73
    11
 74
     0
 42
0.00000001
 43
0.00000001
 40
0.0
 40
0.0
 40
0.0
 40
0.0
 40
0.2201730464158006
 40
0.2976049144936525
 40
0.4010340276759384
 40
0.5355081552432055
 40
0.6743061738560416
 40
0.7800060147816512
 40
0.8756932733155557
 40
1.0
 40
1.0
 40
1.0
 40
1.0
 10
-95.78987196969635
 20
-44.49209381485766
 30
0.0
 10
-96.3587996222473
 20
-45.50527998141494
 30
0.0
 10
-97.53407648335158
 20
-46.51129104098236
 30
0.0
 10
-99.20051962992929
 20
-47.71781010426516
 30
0.0
 10
-100.567226764359
 20
-48.62882189287013
 30
0.0
 10
-102.4763778710007
 20
-49.05337914037077
 30
0.0
 10
-104.3536564340483
 20
-49.65531497171725
 30
0.0
 10
-106.0978596981957
 20
-49.61904865503504
 30
0.0
 10
-107.8409631165833
 20
-49.69156620000107
 30
0.0
 10
-108.6966955543028
 20
-48.50004474542789
 30
0.0
 10
-108.3265942980845
 20
-47.8445770672048
 30
0.0
  0
SPLINE
  5
15F
330
1F
100
AcDbEntity
  8
0
  6
Continuous
 62
     7
370
    25
100
AcDbSpline
210
0.0
220
0.0
230
1.0
 70
     8
 71
     3
 72
     9
 73
     5
 74
     0
 42
0.00000001
 43
0.00000001
 40
0.0
 40
0.0
 40
0.0
 40
0.0
 40
0.5433529444668876
 40
1.0
 40
1.0
 40
1.0
 40
1.0
 10
-102.8211870187574
 20
-39.27359106377473
 30
0.0
 10
-101.8899773897495
 20
-39.25403945864188
 30
0.0
 10
-99.59622208629072
 20
-40.26220879158918
 30
0.0
 10
-100.1610874632602
 20
-42.52712995964359
 30
0.0
 10
-100.2412975015155
 20
-43.27338453204204
 30
0.0
  0
SPLINE
  5
163
330
1F
100
AcDbEntity
  8
0
  6
Continuous
 62
     7
370
    25
100
AcDbSpline
210
0.0
220
0.0
230
1.0
 70
     8
 71
     3
 72
     9
 73
     5
 74
     0
 42
0.00000001
 43
0.00000001
 40
0.0
 40
0.0
 40
0.0
 40
0.0
 40
0.4712984314742603
 40
1.0
 40
1.0
 40
1.0
 40
1.0
 10
-97.59556879168356
 20
-34.05884981564233
 30
0.0
 10
-98.02801229360345
 20
-35.01000836822168
 30
0.0
 10
-99.2749735777401
 20
-37.06575193097741
 30
0.0
 10
-101.6429655766021
 20
-37.72912292169035
 30
0.0
 10
-102.8211870187574
 20
-37.73363940758462
 30
0.0
  0
SPLINE
  5
167
330
1F
100
AcDbEntity
  8
0
  6
Continuous
 62
     7
370
    25
100
AcDbSpline
210
0.0
220
0.0
230
1.0
 70
     8
 71
     3
 72
     9
 73
     5
 74
     0
 42
0.00000001
 43
0.00000001
 40
0.0
 40
0.0
 40
0.0
 40
0.0
 40
0.5794236554792663
 40
1.0
 40
1.0
 40
1.0
 40
1.0
 10
-98.72261991921907
 20
-28.70753756666744
 30
0.0
 10
-97.35277334380825
 20
-28.81706545716056
 30
0.0
 10
-95.03895938191704
 20
-29.95989948966735
 30
0.0
 10
-94.06155104291462
 20
-32.25668111090877
 30
0.0
 10
-94.17628810871156
 20
-33.30228679348435
 30
0.0
  0
SPLINE
  5
168
330
1F
100
AcDbEntity
  8
0
  6
Continuous
 62
     7
370
    25
100
AcDbSpline
210
0.0
220
0.0
230
1.0
 70
     8
 71
     3
 72
    12
 73
     8
 74
     0
 42
0.00000001
 43
0.00000001
 40
0.0
 40
0.0
 40
0.0
 40
0.0
 40
0.2953002867293122
 40
0.3986157654458242
 40
0.516410711384686
 40
0.7161524668110667
 40
1.0
 40
1.0
 40
1.0
 40
1.0
 10
-66.93059921184921
 20
-18.11918838171905
 30
0.0
 10
-66.88486781716593
 20
-19.49737628876929
 30
0.0
 10
-68.47078825695971
 20
-21.22797118599523
 30
0.0
 10
-67.18498058358094
 20
-23.65961996784901
 30
0.0
 10
-65.0138163802877
 20
-23.86063966683194
 30
0.0
 10
-62.48673542756522
 20
-22.51323939503412
 30
0.0
 10
-61.05412476562486
 20
-20.50350933128866
 30
0.0
 10
-60.36825753137379
 20
-19.53137131501351
 30
0.0
  0
SPLINE
  5
16B
330
1F
100
AcDbEntity
  8
0
  6
Continuous
 62
     7
370
    25
100
AcDbSpline
210
0.0
220
0.0
230
1.0
 70
     8
 71
     3
 72
     9
 73
     5
 74
     0
 42
0.00000001
 43
0.00000001
 40
0.0
 40
0.0
 40
0.0
 40
0.0
 40
0.3833186198529673
 40
1.0
 40
1.0
 40
1.0
 40
1.0
 10
-62.33602932416959
 20
-20.89186294762937
 30
0.0
 10
-62.50615918255209
 20
-21.09925208313793
 30
0.0
 10
-62.8543269463586
 20
-21.55824313531038
 30
0.0
 10
-63.6341493599082
 20
-21.24812459007821
 30
0.0
 10
-63.78336247848159
 20
-20.9361245889095
 30
0.0
  0
SPLINE
  5
16F
330
1F
100
AcDbEntity
  8
0
  6
Continuous
 62
     7
370
    25
100
AcDbSpline
210
0.0
220
0.0
230
1.0
 70
     8
 71
     3
 72
    17
 73
    13
 74
     0
 42
0.00000001
 43
0.00000001
 40
0.0
 40
0.0
 40
0.0
 40
0.0
 40
0.1099905292662081
 40
0.1823958938905377
 40
0.2390210073836987
 40
0.3122432934832551
 40
0.4333516699594016
 40
0.5883858232039332
 40
0.6875969718389134
 40
0.7609859004907952
 40
0.8335494884525501
 40
1.0
 40
1.0
 40
1.0
 40
1.0
 10
-64.58367577580415
 20
-10.21208747990906
 30
0.0
 10
-64.34552644949615
 20
-8.827963320100835
 30
0.0
 10
-66.33507346742026
 20
-6.97186518203914
 30
0.0
 10
-69.03392444227661
 20
-8.061890248885828
 30
0.0
 10
-70.92299856728904
 20
-9.313801759593773
 30
0.0
 10
-72.70773549229855
 20
-11.54613048099029
 30
0.0
 10
-74.94147132986971
 20
-14.83202054305601
 30
0.0
 10
-76.02724880848821
 20
-18.89811569783058
 30
0.0
 10
-75.55493328497712
 20
-23.04938131973817
 30
0.0
 10
-72.42738135801022
 20
-24.11906914228295
 30
0.0
 10
-69.36654033647015
 20
-21.9269439319417
 30
0.0
 10
-67.89171348177733
 20
-19.79315109024677
 30
0.0
 10
-66.93059921184921
 20
-18.11918838171905
 30
0.0
  0
CIRCLE
  5
170
330
1F
100
AcDbEntity
  8
0
  6
Continuous
 62
     7
370
    25
100
AcDbCircle
 10
113.5
 20
10.7
 30
0.0
 40
2.500000000000014
  0
CIRCLE
  5
171
330
1F
100
AcDbEntity
  8
0
  6
Continuous
 62
     7
370
    25
100
AcDbCircle
 10
101.5
 20
10.7
 30
0.0
 40
2.499999999999991
  0
CIRCLE
  5
172
330
1F
100
AcDbEntity
  8
0
  6
Continuous
 62
     7
370
    25
100
AcDbCircle
 10
23.6171741249
 20
12.3055141167
 30
0.0
 40
2.500000000000002
  0
LWPOLYLINE
  5
173
330
1F
100
AcDbEntity
  8
0
  6
Continuous
 62
     7
370
    25
100
AcDbPolyline
 90
       37
 70
   128
 43
0.0
 10
-66.1222101238
 20
-8.5869157134
 10
-66.5147785238
 20
-8.5425169612
 10
-66.9644747188
 20
-8.681830011
 10
-67.4576349175
 20
-9.0006219064
 10
-67.9792746968
 20
-9.4892063168
 10
-68.513544296
 20
-10.1327378522
 10
-69.0442102036
 20
-10.9116631326
 10
-69.5551484046
 20
-11.8023149074
 10
-70.0308343003
 20
-12.7776311732
 10
-70.4568144155
 20
-13.8079774388
 10
-70.8201455599
 20
-14.8620471542
 10
-71.1097881005
 20
-15.9078129446
 10
-71.3169413953
 20
-16.9134997456
 10
-71.4353111964
 20
-17.8485502726
 10
-71.461300897
 20
-18.6845534886
 10
-71.3941208135
 20
-19.3961078589
 10
-71.2358121786
 20
-19.9615931639
 10
-70.99118512
 20
-20.3638274189
 10
-70.6676725072
 20
-20.5905889395
 10
-70.2751041072
 20
-20.6349876917
 10
-69.8254079122
 20
-20.4956746419
 10
-69.3322477135
 20
-20.1768827466
 10
-68.8106079342
 20
-19.6882983362
 10
-68.2763383351
 20
-19.0447668008
 10
-67.7456724274
 20
-18.2658415204
 10
-67.2347342264
 20
-17.3751897456
 10
-66.7590483307
 20
-16.3998734798
 10
-66.3330682156
 20
-15.3695272142
 10
-65.9697370712
 20
-14.3154574987
 10
-65.6800945306
 20
-13.2696917083
 10
-65.4729412357
 20
-12.2640049074
 10
-65.3545714347
 20
-11.3289543803
 10
-65.328581734
 20
-10.4929511643
 10
-65.3957618176
 20
-9.7813967941
 10
-65.5540704525
 20
-9.215911489
 10
-65.7986975111
 20
-8.8136772341
 10
-66.1222101238
 20
-8.5869157134
  0
SPLINE
  5
174
330
1F
100
AcDbEntity
  8
0
  6
Continuous
 62
     7
370
    25
100
AcDbSpline
210
0.0
220
0.0
230
1.0
 70
     8
 71
     3
 72
    27
 73
    23
 74
     0
 42
0.00000001
 43
0.00000001
 40
0.0
 40
0.0
 40
0.0
 40
0.0
 40
0.0628694062131294
 40
0.1165239548592877
 40
0.1491877809164188
 40
0.1725276896816952
 40
0.1933811338704033
 40
0.2342066505976696
 40
0.2663864230542674
 40
0.3107379043985768
 40
0.3582943937808129
 40
0.4043934090289281
 40
0.4620917500943678
 40
0.5334709870322315
 40
0.5977640855194651
 40
0.6405916276821836
 40
0.6785423818781575
 40
0.7154265810804863
 40
0.7944000822507991
 40
0.8524872948861061
 40
0.9150560895255269
 40
1.0
 40
1.0
 40
1.0
 40
1.0
 10
-27.1666869059779
 20
-39.09277140468322
 30
0.0
 10
-26.76645777328133
 20
-38.80525474322351
 30
0.0
 10
-27.34281174457389
 20
-38.37936774362566
 30
0.0
 10
-28.33044978662431
 20
-38.71947621758406
 30
0.0
 10
-28.12427062074628
 20
-37.9622172321485
 30
0.0
 10
-28.75150815427086
 20
-37.92865340655714
 30
0.0
 10
-28.41510084807382
 20
-38.53642509820911
 30
0.0
 10
-29.223430745267
 20
-38.0694732568788
 30
0.0
 10
-29.07382250961562
 20
-37.45790411729734
 30
0.0
 10
-29.84991469092033
 20
-37.44052058555178
 30
0.0
 10
-30.43580607122257
 20
-37.35877491625623
 30
0.0
 10
-31.11500784682725
 20
-37.72903965976673
 30
0.0
 10
-31.47135450482777
 20
-38.43972937530124
 30
0.0
 10
-32.82936955436995
 20
-38.65402914267712
 30
0.0
 10
-32.58629519112208
 20
-37.17060223899431
 30
0.0
 10
-31.76932429598354
 20
-37.61568352145808
 30
0.0
 10
-31.39273624088586
 20
-36.94364222356042
 30
0.0
 10
-32.18852125525971
 20
-36.28454868718887
 30
0.0
 10
-30.51542580929109
 20
-36.28939918631998
 30
0.0
 10
-30.75855661470027
 20
-35.19985774209938
 30
0.0
 10
-30.54603842189601
 20
-34.20497561843531
 30
0.0
 10
-29.71919528702528
 20
-34.00917537855896
 30
0.0
 10
-29.62683695700658
 20
-33.58656784322214
 30
0.0
  0
SPLINE
  5
175
330
1F
100
AcDbEntity
  8
0
  6
Continuous
 62
     7
370
    25
100
AcDbSpline
210
0.0
220
0.0
230
1.0
 70
     8
 71
     3
 72
     8
 73
     4
 74
     0
 42
0.00000001
 43
0.00000001
 40
0.0
 40
0.0
 40
0.0
 40
0.0
 40
1.0
 40
1.0
 40
1.0
 40
1.0
 10
-27.88168099631254
 20
-39.27359106377473
 30
0.0
 10
-27.61699706381819
 20
-39.30491427907889
 30
0.0
 10
-27.3786657003733
 20
-39.24464105938171
 30
0.0
 10
-27.16668690597791
 20
-39.09277140468322
 30
0.0
  0
SPLINE
  5
176
330
1F
100
AcDbEntity
  8
0
  6
Continuous
 62
     7
370
    25
100
AcDbSpline
210
0.0
220
0.0
230
1.0
 70
     8
 71
     3
 72
    24
 73
    20
 74
     0
 42
0.00000001
 43
0.00000001
 40
0.0
 40
0.0
 40
0.0
 40
0.0
 40
0.0635441940163456
 40
0.0927828955857368
 40
0.1214769705534562
 40
0.157885994345498
 40
0.1934327482311682
 40
0.2351082527867804
 40
0.3121676054825437
 40
0.4490349516061176
 40
0.5165050305019542
 40
0.6005450757958807
 40
0.6637191572628449
 40
0.7156717475424831
 40
0.7719636704268561
 40
0.8169816243498245
 40
0.8819156105406855
 40
0.9173094959262098
 40
1.0
 40
1.0
 40
1.0
 40
1.0
 10
-30.35141062906492
 20
-43.92884651322773
 30
0.0
 10
-30.01156789637786
 20
-43.39119273146441
 30
0.0
 10
-30.61647602967505
 20
-43.5211737253118
 30
0.0
 10
-30.98975864694009
 20
-43.16436329930948
 30
0.0
 10
-31.41580264836517
 20
-42.93832304611647
 30
0.0
 10
-31.76383682798072
 20
-43.3728925090458
 30
0.0
 10
-32.28094608492874
 20
-43.22678091857509
 30
0.0
 10
-32.99867566181317
 20
-43.39351146748432
 30
0.0
 10
-33.64704031709046
 20
-42.23886468352588
 30
0.0
 10
-34.040584214133
 20
-40.91739193768358
 30
0.0
 10
-33.11462302064666
 20
-39.96943714611098
 30
0.0
 10
-32.74387106412581
 20
-39.01293398171109
 30
0.0
 10
-31.80388051335163
 20
-38.84294259617542
 30
0.0
 10
-31.22300414591482
 20
-38.39641770309898
 30
0.0
 10
-30.40173225402945
 20
-38.32459090410472
 30
0.0
 10
-30.07706068701632
 20
-38.99971588385152
 30
0.0
 10
-29.36044130996142
 20
-39.51792935760801
 30
0.0
 10
-28.77672632972028
 20
-38.64774642141229
 30
0.0
 10
-28.24275091806419
 20
-39.46776026677996
 30
0.0
 10
-27.88168099631255
 20
-39.27359106377473
 30
0.0
  0
SPLINE
  5
177
330
1F
100
AcDbEntity
  8
0
  6
Continuous
 62
     7
370
    25
100
AcDbSpline
210
0.0
220
0.0
230
1.0
 70
     8
 71
     3
 72
    20
 73
    16
 74
     0
 42
0.00000001
 43
0.00000001
 40
0.0
 40
0.0
 40
0.0
 40
0.0
 40
0.1952890239928101
 40
0.2554758192204971
 40
0.317233982739075
 40
0.3850274450075218
 40
0.4394543468907157
 40
0.5034315661593387
 40
0.571291744523952
 40
0.6465795158827572
 40
0.665654302683359
 40
0.7435298577482038
 40
0.802133937989994
 40
0.8768209644488262
 40
1.0
 40
1.0
 40
1.0
 40
1.0
 10
-24.77222223698302
 20
-42.33889192011156
 30
0.0
 10
-24.34738426239183
 20
-43.68496111970282
 30
0.0
 10
-26.57697483293207
 20
-43.73061669498889
 30
0.0
 10
-26.4402364548553
 20
-45.3541959023761
 30
0.0
 10
-26.02612673361742
 20
-46.34664646306717
 30
0.0
 10
-27.14639203244504
 20
-46.73279743545826
 30
0.0
 10
-27.10234770275026
 20
-47.71704904729776
 30
0.0
 10
-27.52047882753858
 20
-48.47137762453809
 30
0.0
 10
-28.27782139849284
 20
-49.33854011075933
 30
0.0
 10
-29.1098708982299
 20
-48.86588964005556
 30
0.0
 10
-29.67723890529389
 20
-48.26132326786333
 30
0.0
 10
-29.41023251470506
 20
-47.39138207748658
 30
0.0
 10
-30.30404652217203
 20
-46.59569777316564
 30
0.0
 10
-29.34357093256038
 20
-45.32703245466067
 30
0.0
 10
-30.43933575891271
 20
-44.51178730437174
 30
0.0
 10
-30.35141062906492
 20
-43.92884651322773
 30
0.0
  0
SPLINE
  5
178
330
1F
100
AcDbEntity
  8
0
  6
Continuous
 62
     7
370
    25
100
AcDbSpline
210
0.0
220
0.0
230
1.0
 70
     8
 71
     3
 72
    12
 73
     8
 74
     0
 42
0.00000001
 43
0.00000001
 40
0.0
 40
0.0
 40
0.0
 40
0.0
 40
0.3745983672127978
 40
0.4994670856818587
 40
0.627302220526566
 40
0.7615444693223798
 40
1.0
 40
1.0
 40
1.0
 40
1.0
 10
-24.33930425751297
 20
-41.58433281232509
 30
0.0
 10
-24.81261199806872
 20
-41.19974975597466
 30
0.0
 10
-24.97051702658287
 20
-42.32422570386252
 30
0.0
 10
-25.68824059979891
 20
-41.73122006505648
 30
0.0
 10
-25.80347836418938
 20
-42.36087914677245
 30
0.0
 10
-25.10800868648186
 20
-42.4430686611803
 30
0.0
 10
-25.06149574147935
 20
-41.83318404891384
 30
0.0
 10
-24.77222223698302
 20
-42.33889192011156
 30
0.0
  0
SPLINE
  5
17A
330
1F
100
AcDbEntity
  8
0
  6
Continuous
 62
     7
370
    25
100
AcDbSpline
210
0.0
220
0.0
230
1.0
 70
     8
 71
     3
 72
    19
 73
    15
 74
     0
 42
0.00000001
 43
0.00000001
 40
0.0
 40
0.0
 40
0.0
 40
0.0
 40
0.21594069367879
 40
0.3167045182814152
 40
0.3807701740301341
 40
0.4696967580997105
 40
0.5713294675167766
 40
0.6365605193818017
 40
0.709202864844909
 40
0.7496826820147335
 40
0.7926545952687771
 40
0.8401742274307934
 40
0.904206969827252
 40
1.0
 40
1.0
 40
1.0
 40
1.0
 10
-37.8678052278538
 20
-52.26943545536508
 30
0.0
 10
-39.41081275079761
 20
-52.08992753517278
 30
0.0
 10
-38.72810904368668
 20
-49.99736078266254
 30
0.0
 10
-40.85247193240679
 20
-48.8233634269117
 30
0.0
 10
-40.19449834281205
 20
-47.49861536367931
 30
0.0
 10
-40.85913636654083
 20
-46.23797428563092
 30
0.0
 10
-41.86465474881982
 20
-45.5821714469196
 30
0.0
 10
-42.67492935752636
 20
-44.42898778850523
 30
0.0
 10
-42.02984637833284
 20
-43.72871628884574
 30
0.0
 10
-41.93604042831986
 20
-42.69682569271612
 30
0.0
 10
-42.83655370761089
 20
-42.90397274468777
 30
0.0
 10
-43.22143120191913
 20
-42.1436596932185
 30
0.0
 10
-44.07608119704071
 20
-41.47493600790494
 30
0.0
 10
-45.03600474833552
 20
-41.77482398083579
 30
0.0
 10
-45.24107814483762
 20
-41.19035115975714
 30
0.0
  0
SPLINE
  5
17B
330
1F
100
AcDbEntity
  8
0
  6
Continuous
 62
     7
370
    25
100
AcDbSpline
210
0.0
220
0.0
230
1.0
 70
     8
 71
     3
 72
   127
 73
   123
 74
     0
 42
0.00000001
 43
0.00000001
 40
0.0
 40
0.0
 40
0.0
 40
0.0
 40
0.012427327302869
 40
0.0185890467870162
 40
0.0249698083726217
 40
0.0292367582562213
 40
0.0375981957829601
 40
0.0471004791497154
 40
0.0559305017529627
 40
0.0643823693093956
 40
0.0727029655810395
 40
0.0821304670659891
 40
0.0912955991652096
 40
0.1016045567024989
 40
0.1091641841114163
 40
0.117333355551452
 40
0.1229257445689399
 40
0.1266397020263939
 40
0.1327201847395322
 40
0.137408788180256
 40
0.143787235020306
 40
0.1504457977849846
 40
0.1566682018300591
 40
0.1639670031489843
 40
0.1725111179773359
 40
0.1765136129402867
 40
0.1823240673841744
 40
0.188472630635764
 40
0.1918561879994175
 40
0.198766481881651
 40
0.2066062445045698
 40
0.2127317301361061
 40
0.2180643355468734
 40
0.2238853867119738
 40
0.2302041907910293
 40
0.2343930067402555
 40
0.2406396037839829
 40
0.2487550170923909
 40
0.2576969546249479
 40
0.2634022604163949
 40
0.2714998414740269
 40
0.2796849135929345
 40
0.284689807791128
 40
0.2908541885551776
 40
0.2972921758193916
 40
0.3033908182108777
 40
0.3106893477383578
 40
0.3179347326850088
 40
0.3209449761519553
 40
0.3359437820790472
 40
0.3468291471383134
 40
0.3552527999100059
 40
0.3626617121449109
 40
0.3668336151047502
 40
0.3710771098040601
 40
0.3773403105535847
 40
0.3841316765363398
 40
0.3925274692886995
 40
0.4012652901868857
 40
0.4099550716000763
 40
0.4169188769569943
 40
0.4241021754405836
 40
0.430810861768928
 40
0.4357471115002904
 40
0.4418634697632312
 40
0.4489057079802923
 40
0.4551496248804929
 40
0.4588783342115259
 40
0.4678773888013683
 40
0.4778725327114151
 40
0.4865883997660868
 40
0.4959389588749854
 40
0.5064103258510162
 40
0.5178561155030821
 40
0.5331674633624564
 40
0.5462343118940372
 40
0.5539524903345411
 40
0.5621289748880433
 40
0.5683073853895366
 40
0.5756247424672376
 40
0.5820240112028849
 40
0.5863808687299922
 40
0.590904555905156
 40
0.5973182781176825
 40
0.6016243640288137
 40
0.6117773264733855
 40
0.624463181647433
 40
0.6362091477623663
 40
0.6435984517652417
 40
0.6526976224399714
 40
0.6609925258563532
 40
0.6697275009144776
 40
0.6757311943192866
 40
0.6832545121645803
 40
0.6898906500109887
 40
0.6981207653740986
 40
0.7039800602483758
 40
0.709596795470153
 40
0.7144131061884271
 40
0.7221791738697505
 40
0.7345553840283804
 40
0.7462037196408007
 40
0.759435274742361
 40
0.7755062157658247
 40
0.7886474808756148
 40
0.8002245266837551
 40
0.8119849307787864
 40
0.8254648994339656
 40
0.8398205733767149
 40
0.8540025652041576
 40
0.863462236256071
 40
0.8769885857628815
 40
0.8905611890163871
 40
0.9064254082697785
 40
0.9203542747127512
 40
0.9336088592009517
 40
0.9457912281035985
 40
0.9549290691637486
 40
0.965259120000799
 40
0.97365714052972
 40
0.9850172781111508
 40
1.0
 40
1.0
 40
1.0
 40
1.0
 10
-32.52487196913776
 20
-32.4730327385715
 30
0.0
 10
-32.42587072681503
 20
-32.61957768809381
 30
0.0
 10
-32.33885672919342
 20
-33.14303878061997
 30
0.0
 10
-32.8558106601313
 20
-33.25216818936821
 30
0.0
 10
-32.936420874325
 20
-33.60926084179245
 30
0.0
 10
-33.30638913748737
 20
-33.6770306785526
 30
0.0
 10
-33.51784045825179
 20
-34.12148932986831
 30
0.0
 10
-34.10281188371534
 20
-33.88637116912657
 30
0.0
 10
-34.44323155469399
 20
-34.32037131164679
 30
0.0
 10
-34.95162913871283
 20
-34.34398534568539
 30
0.0
 10
-35.23401205503595
 20
-34.75161261522558
 30
0.0
 10
-35.53656611340008
 20
-35.1964713690457
 30
0.0
 10
-36.2011301012749
 20
-35.01540486185502
 30
0.0
 10
-36.20533762246693
 20
-34.44248735351457
 30
0.0
 10
-36.09003242380849
 20
-33.98795160658952
 30
0.0
 10
-36.00572337294102
 20
-33.64538039196015
 30
0.0
 10
-35.73754877686764
 20
-33.30185541711628
 30
0.0
 10
-36.06344609165801
 20
-33.17043031678261
 30
0.0
 10
-36.27197103763444
 20
-33.10753284390921
 30
0.0
 10
-36.70975847184104
 20
-33.23613733160477
 30
0.0
 10
-36.43764426390761
 20
-32.61100741377293
 30
0.0
 10
-36.93566039735406
 20
-32.98564990548849
 30
0.0
 10
-37.19568068183985
 20
-33.04682780224886
 30
0.0
 10
-37.62946272556126
 20
-33.52430218565413
 30
0.0
 10
-36.92665386953664
 20
-33.54786641655334
 30
0.0
 10
-37.08088134388645
 20
-33.92988710733326
 30
0.0
 10
-36.77563878088365
 20
-34.19392161598486
 30
0.0
 10
-37.14739319385711
 20
-34.39928452976218
 30
0.0
 10
-37.49114737273115
 20
-34.19621961489835
 30
0.0
 10
-37.25999026810873
 20
-34.79110769636506
 30
0.0
 10
-37.76254448418931
 20
-34.8656185565003
 30
0.0
 10
-38.11424227285293
 20
-34.8203050486533
 30
0.0
 10
-38.27116023263821
 20
-34.44194918858135
 30
0.0
 10
-37.8849336110065
 20
-34.23299086455955
 30
0.0
 10
-38.32233200931152
 20
-33.81885388780265
 30
0.0
 10
-38.3598546595543
 20
-34.29553513763951
 30
0.0
 10
-38.86553561443549
 20
-34.06614896806835
 30
0.0
 10
-38.83180336583258
 20
-34.64617423884696
 30
0.0
 10
-39.33049850055218
 20
-35.00792485923523
 30
0.0
 10
-39.5639886319959
 20
-34.47913710832899
 30
0.0
 10
-39.9865767267811
 20
-34.84909186994611
 30
0.0
 10
-40.18216732348851
 20
-35.19708439603727
 30
0.0
 10
-40.63051343030713
 20
-35.08292271489956
 30
0.0
 10
-40.647172590553
 20
-35.52357291979472
 30
0.0
 10
-40.4532599603594
 20
-35.82227446399553
 30
0.0
 10
-39.94046639447044
 20
-35.77330707291927
 30
0.0
 10
-40.25288996683366
 20
-36.46769183549431
 30
0.0
 10
-39.7113801242394
 20
-36.12020745689582
 30
0.0
 10
-39.85329173752046
 20
-35.63996793822925
 30
0.0
 10
-38.95186917892022
 20
-35.58251005430568
 30
0.0
 10
-38.97080102944151
 20
-34.85402038258861
 30
0.0
 10
-38.2522558463161
 20
-34.68684136883385
 30
0.0
 10
-38.2861303084785
 20
-35.13596985337874
 30
0.0
 10
-37.9539695678844
 20
-35.37996208524795
 30
0.0
 10
-37.86913738957586
 20
-34.96126178037287
 30
0.0
 10
-37.4188803670627
 20
-35.33607704136393
 30
0.0
 10
-37.9020523797106
 20
-35.74023956788346
 30
0.0
 10
-37.06452710390721
 20
-35.86174529396261
 30
0.0
 10
-37.63217475619213
 20
-36.38013656565231
 30
0.0
 10
-37.14940821921596
 20
-36.84395103527859
 30
0.0
 10
-37.63501490945745
 20
-37.05300714313827
 30
0.0
 10
-38.18945253487984
 20
-36.97019739785102
 30
0.0
 10
-37.76459291518714
 20
-36.45976413385772
 30
0.0
 10
-38.24559421680384
 20
-36.53124501589296
 30
0.0
 10
-38.49540927840428
 20
-36.81875505918669
 30
0.0
 10
-38.83730454768062
 20
-36.25519601360654
 30
0.0
 10
-38.91471374669027
 20
-36.75292138572271
 30
0.0
 10
-38.80133295594288
 20
-37.07898914905645
 30
0.0
 10
-38.03626436749897
 20
-36.9783141292796
 30
0.0
 10
-38.78539037267326
 20
-37.54256876279239
 30
0.0
 10
-39.23598405660452
 20
-37.32315363715183
 30
0.0
 10
-39.75893626567785
 20
-37.57119417580751
 30
0.0
 10
-40.12557561591123
 20
-37.99573860080765
 30
0.0
 10
-40.76963371936246
 20
-38.28856718640311
 30
0.0
 10
-41.08813831165992
 20
-38.9766930591885
 30
0.0
 10
-41.86244503621382
 20
-39.18961938780023
 30
0.0
 10
-41.8645850520033
 20
-39.73330049051732
 30
0.0
 10
-41.77624156666854
 20
-40.26319241493677
 30
0.0
 10
-42.42265002373308
 20
-40.18585524945034
 30
0.0
 10
-42.09024093023744
 20
-39.65657396707005
 30
0.0
 10
-42.51661122696609
 20
-39.61607739614091
 30
0.0
 10
-42.77206000470195
 20
-39.38165484101493
 30
0.0
 10
-42.91810129426239
 20
-39.70532585428363
 30
0.0
 10
-43.22271714163404
 20
-39.85772268551561
 30
0.0
 10
-43.51864105203504
 20
-39.51238604594749
 30
0.0
 10
-44.02128395010765
 20
-39.98609754349225
 30
0.0
 10
-44.25754747459667
 20
-40.4679075485552
 30
0.0
 10
-44.17245979229408
 20
-41.27987715872954
 30
0.0
 10
-43.51546166335605
 20
-41.12715576477878
 30
0.0
 10
-43.42102731351068
 20
-40.57707634218843
 30
0.0
 10
-42.67266343522611
 20
-40.78488354128282
 30
0.0
 10
-43.02916222680513
 20
-41.18289257755812
 30
0.0
 10
-43.29255243280533
 20
-41.67606060184488
 30
0.0
 10
-42.73144059307988
 20
-41.50448299615977
 30
0.0
 10
-42.41628832749279
 20
-41.9154313503235
 30
0.0
 10
-42.7565716061623
 20
-42.25691005178005
 30
0.0
 10
-42.40522468847087
 20
-42.66722367221589
 30
0.0
 10
-42.09994628000075
 20
-42.25878717792371
 30
0.0
 10
-41.98127704077442
 20
-42.79797211178211
 30
0.0
 10
-41.49310169102606
 20
-42.34146416416848
 30
0.0
 10
-41.03176965880975
 20
-41.83866628073453
 30
0.0
 10
-40.54987405010345
 20
-42.66648343031991
 30
0.0
 10
-39.65936355436444
 20
-42.19798969072207
 30
0.0
 10
-39.31266789800323
 20
-43.15817867770993
 30
0.0
 10
-38.30527077637068
 20
-43.08467923108824
 30
0.0
 10
-38.53384256444773
 20
-44.08029230224729
 30
0.0
 10
-37.62725119355356
 20
-43.97556481767804
 30
0.0
 10
-37.1481032848957
 20
-44.52758060035966
 30
0.0
 10
-36.26092314820736
 20
-44.5906888109686
 30
0.0
 10
-36.15700985944227
 20
-45.54111741771273
 30
0.0
 10
-36.80684429304546
 20
-45.90235886196254
 30
0.0
 10
-36.84849077225391
 20
-46.61712600766631
 30
0.0
 10
-36.59766211117295
 20
-47.51889168550073
 30
0.0
 10
-37.69793459155118
 20
-47.69377482285802
 30
0.0
 10
-37.65464929134686
 20
-48.59608760666478
 30
0.0
 10
-37.94700104838624
 20
-49.24657848275375
 30
0.0
 10
-38.49561448707041
 20
-49.67167547795046
 30
0.0
 10
-38.45500304851554
 20
-50.27050370938077
 30
0.0
 10
-38.61623189175285
 20
-50.80252659349606
 30
0.0
 10
-38.17971107147631
 20
-51.22378592275139
 30
0.0
 10
-38.29299505370807
 20
-51.9594480649254
 30
0.0
 10
-37.34032125945987
 20
-52.03840108283565
 30
0.0
 10
-37.8678052278538
 20
-52.26943545536508
 30
0.0
  0
SPLINE
  5
17E
330
1F
100
AcDbEntity
  8
0
  6
Continuous
 62
     7
370
    25
100
AcDbSpline
210
0.0
220
0.0
230
1.0
 70
     8
 71
     3
 72
    14
 73
    10
 74
     0
 42
0.00000001
 43
0.00000001
 40
0.0
 40
0.0
 40
0.0
 40
0.0
 40
0.1464798690632456
 40
0.2540174042263964
 40
0.4916693311747875
 40
0.6746847767159303
 40
0.7545674737154756
 40
0.8490024035055381
 40
1.0
 40
1.0
 40
1.0
 40
1.0
 10
-60.36825753137379
 20
-49.75522578997199
 30
0.0
 10
-59.6279426919384
 20
-50.66529281022465
 30
0.0
 10
-57.42983789322828
 20
-50.73912598497702
 30
0.0
 10
-54.96091057776689
 20
-47.96140377863875
 30
0.0
 10
-53.35349761323108
 20
-44.5008665025268
 30
0.0
 10
-52.43736328649884
 20
-40.90711678814019
 30
0.0
 10
-52.79363303420998
 20
-38.30010029676364
 30
0.0
 10
-55.0845269263359
 20
-36.41294034992728
 30
0.0
 10
-56.73593978544514
 20
-38.59645128172608
 30
0.0
 10
-57.17400404144976
 20
-39.27359106377473
 30
0.0
  0
LINE
  5
17F
330
1F
100
AcDbEntity
  8
0
  6
Continuous
 62
     7
370
    25
100
AcDbLine
 10
0.0
 20
33.0
 30
0.0
 11
0.0
 21
32.0
 31
0.0
  0
LINE
  5
180
330
1F
100
AcDbEntity
  8
0
  6
Continuous
 62
     7
370
    25
100
AcDbLine
 10
0.0
 20
27.5
 30
0.0
 11
5.0
 21
27.5
 31
0.0
  0
LINE
  5
181
330
1F
100
AcDbEntity
  8
0
  6
Continuous
 62
     7
370
    25
100
AcDbLine
 10
5.0
 20
32.0
 30
0.0
 11
5.0
 21
33.0
 31
0.0
  0
LINE
  5
182
330
1F
100
AcDbEntity
  8
0
  6
Continuous
 62
     7
370
    25
100
AcDbLine
 10
5.0
 20
37.5
 30
0.0
 11
0.0
 21
37.5
 31
0.0
  0
LINE
  5
183
330
1F
100
AcDbEntity
  8
0
  6
Continuous
 62
     7
370
    25
100
AcDbLine
 10
5.0
 20
17.5
 30
0.0
 11
0.0
 21
17.5
 31
0.0
  0
LINE
  5
184
330
1F
100
AcDbEntity
  8
0
  6
Continuous
 62
     7
370
    25
100
AcDbLine
 10
0.0
 20
13.0
 30
0.0
 11
0.0
 21
12.0
 31
0.0
  0
LINE
  5
185
330
1F
100
AcDbEntity
  8
0
  6
Continuous
 62
     7
370
    25
100
AcDbLine
 10
0.0
 20
7.5
 30
0.0
 11
5.0
 21
7.5
 31
0.0
  0
LINE
  5
186
330
1F
100
AcDbEntity
  8
0
  6
Continuous
 62
     7
370
    25
100
AcDbLine
 10
5.0
 20
12.0
 30
0.0
 11
5.0
 21
13.0
 31
0.0
  0
LINE
  5
187
330
1F
100
AcDbEntity
  8
0
  6
Continuous
 62
     7
370
    25
100
AcDbLine
 10
-120.0
 20
49.75
 30
0.0
 11
-120.0
 21
52.5
 31
0.0
  0
LINE
  5
188
330
1F
100
AcDbEntity
  8
0
  6
Continuous
 62
     7
370
    25
100
AcDbLine
 10
-110.0
 20
52.5
 30
0.0
 11
-120.0
 21
52.5
 31
0.0
  0
LINE
  5
189
330
1F
100
AcDbEntity
  8
0
  6
Continuous
 62
     7
370
    25
100
AcDbLine
 10
-110.0
 20
52.5
 30
0.0
 11
-110.0
 21
49.75
 31
0.0
  0
LINE
  5
18A
330
1F
100
AcDbEntity
  8
0
  6
Continuous
 62
     7
370
    25
100
AcDbLine
 10
-107.75
 20
47.5
 30
0.0
 11
-102.25
 21
47.5
 31
0.0
  0
LINE
  5
18B
330
1F
100
AcDbEntity
  8
0
  6
Continuous
 62
     7
370
    25
100
AcDbLine
 10
-100.0
 20
49.75
 30
0.0
 11
-100.0
 21
52.5
 31
0.0
  0
LINE
  5
18C
330
1F
100
AcDbEntity
  8
0
  6
Continuous
 62
     7
370
    25
100
AcDbLine
 10
-90.0
 20
52.5
 30
0.0
 11
-100.0
 21
52.5
 31
0.0
  0
LINE
  5
18D
330
1F
100
AcDbEntity
  8
0
  6
Continuous
 62
     7
370
    25
100
AcDbLine
 10
-90.0
 20
52.5
 30
0.0
 11
-90.0
 21
49.75
 31
0.0
  0
LINE
  5
18E
330
1F
100
AcDbEntity
  8
0
  6
Continuous
 62
     7
370
    25
100
AcDbLine
 10
-87.75
 20
47.5
 30
0.0
 11
-82.25
 21
47.5
 31
0.0
  0
LINE
  5
18F
330
1F
100
AcDbEntity
  8
0
  6
Continuous
 62
     7
370
    25
100
AcDbLine
 10
-80.0
 20
49.75
 30
0.0
 11
-80.0
 21
52.5
 31
0.0
  0
LINE
  5
190
330
1F
100
AcDbEntity
  8
0
  6
Continuous
 62
     7
370
    25
100
AcDbLine
 10
-70.0
 20
52.5
 30
0.0
 11
-80.0
 21
52.5
 31
0.0
  0
LINE
  5
191
330
1F
100
AcDbEntity
  8
0
  6
Continuous
 62
     7
370
    25
100
AcDbLine
 10
-70.0
 20
52.5
 30
0.0
 11
-70.0
 21
49.75
 31
0.0
  0
LINE
  5
192
330
1F
100
AcDbEntity
  8
0
  6
Continuous
 62
     7
370
    25
100
AcDbLine
 10
-67.75
 20
47.5
 30
0.0
 11
-62.25
 21
47.5
 31
0.0
  0
LINE
  5
193
330
1F
100
AcDbEntity
  8
0
  6
Continuous
 62
     7
370
    25
100
AcDbLine
 10
-60.0
 20
49.75
 30
0.0
 11
-60.0
 21
52.5
 31
0.0
  0
LINE
  5
194
330
1F
100
AcDbEntity
  8
0
  6
Continuous
 62
     7
370
    25
100
AcDbLine
 10
-50.0
 20
52.5
 30
0.0
 11
-60.0
 21
52.5
 31
0.0
  0
LINE
  5
195
330
1F
100
AcDbEntity
  8
0
  6
Continuous
 62
     7
370
    25
100
AcDbLine
 10
-50.0
 20
52.5
 30
0.0
 11
-50.0
 21
49.75
 31
0.0
  0
LINE
  5
196
330
1F
100
AcDbEntity
  8
0
  6
Continuous
 62
     7
370
    25
100
AcDbLine
 10
-47.75
 20
47.5
 30
0.0
 11
-42.25
 21
47.5
 31
0.0
  0
LINE
  5
197
330
1F
100
AcDbEntity
  8
0
  6
Continuous
 62
     7
370
    25
100
AcDbLine
 10
-40.0
 20
49.75
 30
0.0
 11
-40.0
 21
52.5
 31
0.0
  0
LINE
  5
198
330
1F
100
AcDbEntity
  8
0
  6
Continuous
 62
     7
370
    25
100
AcDbLine
 10
-30.0
 20
52.5
 30
0.0
 11
-40.0
 21
52.5
 31
0.0
  0
LINE
  5
199
330
1F
100
AcDbEntity
  8
0
  6
Continuous
 62
     7
370
    25
100
AcDbLine
 10
-30.0
 20
52.5
 30
0.0
 11
-30.0
 21
49.75
 31
0.0
  0
LINE
  5
19A
330
1F
100
AcDbEntity
  8
0
  6
Continuous
 62
     7
370
    25
100
AcDbLine
 10
-27.75
 20
47.5
 30
0.0
 11
-22.25
 21
47.5
 31
0.0
  0
LINE
  5
19B
330
1F
100
AcDbEntity
  8
0
  6
Continuous
 62
     7
370
    25
100
AcDbLine
 10
-20.0
 20
49.75
 30
0.0
 11
-20.0
 21
52.5
 31
0.0
  0
LINE
  5
19C
330
1F
100
AcDbEntity
  8
0
  6
Continuous
 62
     7
370
    25
100
AcDbLine
 10
-10.0
 20
52.5
 30
0.0
 11
-20.0
 21
52.5
 31
0.0
  0
LINE
  5
19D
330
1F
100
AcDbEntity
  8
0
  6
Continuous
 62
     7
370
    25
100
AcDbLine
 10
-10.0
 20
52.5
 30
0.0
 11
-10.0
 21
49.75
 31
0.0
  0
LINE
  5
19E
330
1F
100
AcDbEntity
  8
0
  6
Continuous
 62
     7
370
    25
100
AcDbLine
 10
-7.75
 20
47.5
 30
0.0
 11
-2.25
 21
47.5
 31
0.0
  0
LINE
  5
19F
330
1F
100
AcDbEntity
  8
0
  6
Continuous
 62
     7
370
    25
100
AcDbLine
 10
0.0
 20
49.75
 30
0.0
 11
0.0
 21
52.5
 31
0.0
  0
LINE
  5
1A0
330
1F
100
AcDbEntity
  8
0
  6
Continuous
 62
     7
370
    25
100
AcDbLine
 10
10.0
 20
52.5
 30
0.0
 11
0.0
 21
52.5
 31
0.0
  0
LINE
  5
1A1
330
1F
100
AcDbEntity
  8
0
  6
Continuous
 62
     7
370
    25
100
AcDbLine
 10
10.0
 20
52.5
 30
0.0
 11
10.0
 21
49.75
 31
0.0
  0
LINE
  5
1A2
330
1F
100
AcDbEntity
  8
0
  6
Continuous
 62
     7
370
    25
100
AcDbLine
 10
12.25
 20
47.5
 30
0.0
 11
17.75
 21
47.5
 31
0.0
  0
LINE
  5
1A3
330
1F
100
AcDbEntity
  8
0
  6
Continuous
 62
     7
370
    25
100
AcDbLine
 10
20.0
 20
49.75
 30
0.0
 11
20.0
 21
52.5
 31
0.0
  0
LINE
  5
1A4
330
1F
100
AcDbEntity
  8
0
  6
Continuous
 62
     7
370
    25
100
AcDbLine
 10
30.0
 20
52.5
 30
0.0
 11
20.0
 21
52.5
 31
0.0
  0
LINE
  5
1A5
330
1F
100
AcDbEntity
  8
0
  6
Continuous
 62
     7
370
    25
100
AcDbLine
 10
30.0
 20
52.5
 30
0.0
 11
30.0
 21
49.75
 31
0.0
  0
LINE
  5
1A6
330
1F
100
AcDbEntity
  8
0
  6
Continuous
 62
     7
370
    25
100
AcDbLine
 10
32.25
 20
47.5
 30
0.0
 11
37.75
 21
47.5
 31
0.0
  0
LINE
  5
1A7
330
1F
100
AcDbEntity
  8
0
  6
Continuous
 62
     7
370
    25
100
AcDbLine
 10
40.0
 20
49.75
 30
0.0
 11
40.0
 21
52.5
 31
0.0
  0
LINE
  5
1A8
330
1F
100
AcDbEntity
  8
0
  6
Continuous
 62
     7
370
    25
100
AcDbLine
 10
50.0
 20
52.5
 30
0.0
 11
40.0
 21
52.5
 31
0.0
  0
LINE
  5
1A9
330
1F
100
AcDbEntity
  8
0
  6
Continuous
 62
     7
370
    25
100
AcDbLine
 10
50.0
 20
52.5
 30
0.0
 11
50.0
 21
49.75
 31
0.0
  0
LINE
  5
1AA
330
1F
100
AcDbEntity
  8
0
  6
Continuous
 62
     7
370
    25
100
AcDbLine
 10
52.25
 20
47.5
 30
0.0
 11
57.75
 21
47.5
 31
0.0
  0
LINE
  5
1AB
330
1F
100
AcDbEntity
  8
0
  6
Continuous
 62
     7
370
    25
100
AcDbLine
 10
60.0
 20
49.75
 30
0.0
 11
60.0
 21
52.5
 31
0.0
  0
LINE
  5
1AC
330
1F
100
AcDbEntity
  8
0
  6
Continuous
 62
     7
370
    25
100
AcDbLine
 10
70.0
 20
52.5
 30
0.0
 11
60.0
 21
52.5
 31
0.0
  0
LINE
  5
1AD
330
1F
100
AcDbEntity
  8
0
  6
Continuous
 62
     7
370
    25
100
AcDbLine
 10
70.0
 20
52.5
 30
0.0
 11
70.0
 21
49.75
 31
0.0
  0
LINE
  5
1AE
330
1F
100
AcDbEntity
  8
0
  6
Continuous
 62
     7
370
    25
100
AcDbLine
 10
72.25
 20
47.5
 30
0.0
 11
77.75
 21
47.5
 31
0.0
  0
LINE
  5
1AF
330
1F
100
AcDbEntity
  8
0
  6
Continuous
 62
     7
370
    25
100
AcDbLine
 10
80.0
 20
49.75
 30
0.0
 11
80.0
 21
52.5
 31
0.0
  0
LINE
  5
1B0
330
1F
100
AcDbEntity
  8
0
  6
Continuous
 62
     7
370
    25
100
AcDbLine
 10
90.0
 20
52.5
 30
0.0
 11
80.0
 21
52.5
 31
0.0
  0
LINE
  5
1B1
330
1F
100
AcDbEntity
  8
0
  6
Continuous
 62
     7
370
    25
100
AcDbLine
 10
90.0
 20
52.5
 30
0.0
 11
90.0
 21
49.75
 31
0.0
  0
LINE
  5
1B2
330
1F
100
AcDbEntity
  8
0
  6
Continuous
 62
     7
370
    25
100
AcDbLine
 10
92.25
 20
47.5
 30
0.0
 11
97.75
 21
47.5
 31
0.0
  0
LINE
  5
1B3
330
1F
100
AcDbEntity
  8
0
  6
Continuous
 62
     7
370
    25
100
AcDbLine
 10
100.0
 20
49.75
 30
0.0
 11
100.0
 21
52.5
 31
0.0
  0
LINE
  5
1B4
330
1F
100
AcDbEntity
  8
0
  6
Continuous
 62
     7
370
    25
100
AcDbLine
 10
110.0
 20
52.5
 30
0.0
 11
100.0
 21
52.5
 31
0.0
  0
LINE
  5
1B5
330
1F
100
AcDbEntity
  8
0
  6
Continuous
 62
     7
370
    25
100
AcDbLine
 10
110.0
 20
52.5
 30
0.0
 11
110.0
 21
49.75
 31
0.0
  0
LINE
  5
1B6
330
1F
100
AcDbEntity
  8
0
  6
Continuous
 62
     7
370
    25
100
AcDbLine
 10
112.25
 20
47.5
 30
0.0
 11
117.75
 21
47.5
 31
0.0
  0
LINE
  5
1B7
330
1F
100
AcDbEntity
  8
0
  6
Continuous
 62
     7
370
    25
100
AcDbLine
 10
120.0
 20
49.75
 30
0.0
 11
120.0
 21
52.5
 31
0.0
  0
LINE
  5
1B8
330
1F
100
AcDbEntity
  8
0
  6
Continuous
 62
     7
370
    25
100
AcDbLine
 10
130.0
 20
52.5
 30
0.0
 11
120.0
 21
52.5
 31
0.0
  0
LINE
  5
1B9
330
1F
100
AcDbEntity
  8
0
  6
Continuous
 62
     7
370
    25
100
AcDbLine
 10
130.0
 20
52.5
 30
0.0
 11
130.0
 21
49.75
 31
0.0
  0
LINE
  5
1BA
330
1F
100
AcDbEntity
  8
0
  6
Continuous
 62
     7
370
    25
100
AcDbLine
 10
132.25
 20
47.5
 30
0.0
 11
137.75
 21
47.5
 31
0.0
  0
LINE
  5
1BB
330
1F
100
AcDbEntity
  8
0
  6
Continuous
 62
     7
370
    25
100
AcDbLine
 10
140.0
 20
49.75
 30
0.0
 11
140.0
 21
52.5
 31
0.0
  0
LINE
  5
1BC
330
1F
100
AcDbEntity
  8
0
  6
Continuous
 62
     7
370
    25
100
AcDbLine
 10
150.0
 20
52.5
 30
0.0
 11
140.0
 21
52.5
 31
0.0
  0
LINE
  5
1BD
330
1F
100
AcDbEntity
  8
0
  6
Continuous
 62
     7
370
    25
100
AcDbLine
 10
150.0
 20
52.5
 30
0.0
 11
150.0
 21
49.75
 31
0.0
  0
LINE
  5
1BE
330
1F
100
AcDbEntity
  8
0
  6
Continuous
 62
     7
370
    25
100
AcDbLine
 10
152.25
 20
47.5
 30
0.0
 11
157.75
 21
47.5
 31
0.0
  0
LINE
  5
1BF
330
1F
100
AcDbEntity
  8
0
  6
Continuous
 62
     7
370
    25
100
AcDbLine
 10
160.0
 20
49.75
 30
0.0
 11
160.0
 21
52.5
 31
0.0
  0
LINE
  5
1C0
330
1F
100
AcDbEntity
  8
0
  6
Continuous
 62
     7
370
    25
100
AcDbLine
 10
165.0
 20
52.5
 30
0.0
 11
160.0
 21
52.5
 31
0.0
  0
LINE
  5
1C1
330
1F
100
AcDbEntity
  8
0
  6
Continuous
 62
     7
370
    25
100
AcDbLine
 10
165.0
 20
40.0
 30
0.0
 11
165.0
 21
52.5
 31
0.0
  0
LINE
  5
1C2
330
1F
100
AcDbEntity
  8
0
  6
Continuous
 62
     7
370
    25
100
AcDbLine
 10
165.0
 20
40.0
 30
0.0
 11
162.25
 21
40.0
 31
0.0
  0
LINE
  5
1C3
330
1F
100
AcDbEntity
  8
0
  6
Continuous
 62
     7
370
    25
100
AcDbLine
 10
160.0
 20
37.75
 30
0.0
 11
160.0
 21
32.25
 31
0.0
  0
LINE
  5
1C4
330
1F
100
AcDbEntity
  8
0
  6
Continuous
 62
     7
370
    25
100
AcDbLine
 10
162.25
 20
30.0
 30
0.0
 11
165.0
 21
30.0
 31
0.0
  0
LINE
  5
1C5
330
1F
100
AcDbEntity
  8
0
  6
Continuous
 62
     7
370
    25
100
AcDbLine
 10
165.0
 20
20.0
 30
0.0
 11
165.0
 21
30.0
 31
0.0
  0
LINE
  5
1C6
330
1F
100
AcDbEntity
  8
0
  6
Continuous
 62
     7
370
    25
100
AcDbLine
 10
165.0
 20
20.0
 30
0.0
 11
162.25
 21
20.0
 31
0.0
  0
LINE
  5
1C7
330
1F
100
AcDbEntity
  8
0
  6
Continuous
 62
     7
370
    25
100
AcDbLine
 10
160.0
 20
17.75
 30
0.0
 11
160.0
 21
12.25
 31
0.0
  0
LINE
  5
1C8
330
1F
100
AcDbEntity
  8
0
  6
Continuous
 62
     7
370
    25
100
AcDbLine
 10
162.25
 20
10.0
 30
0.0
 11
165.0
 21
10.0
 31
0.0
  0
LINE
  5
1C9
330
1F
100
AcDbEntity
  8
0
  6
Continuous
 62
     7
370
    25
100
AcDbLine
 10
165.0
 20
0.0
 30
0.0
 11
165.0
 21
10.0
 31
0.0
  0
LINE
  5
1CA
330
1F
100
AcDbEntity
  8
0
  6
Continuous
 62
     7
370
    25
100
AcDbLine
 10
0.0
 20
0.0
 30
0.0
 11
165.0
 21
0.0
 31
0.0
  0
LINE
  5
1CB
330
1F
100
AcDbEntity
  8
0
  6
Continuous
 62
     7
370
    25
100
AcDbLine
 10
0.0
 20
-82.5
 30
0.0
 11
0.0
 21
0.0
 31
0.0
  0
LINE
  5
1CC
330
1F
100
AcDbEntity
  8
0
  6
Continuous
 62
     7
370
    25
100
AcDbLine
 10
-15.0
 20
-82.5
 30
0.0
 11
0.0
 21
-82.5
 31
0.0
  0
LINE
  5
1CD
330
1F
100
AcDbEntity
  8
0
  6
Continuous
 62
     7
370
    25
100
AcDbLine
 10
-15.0
 20
-82.5
 30
0.0
 11
-15.0
 21
-79.75
 31
0.0
  0
LINE
  5
1CE
330
1F
100
AcDbEntity
  8
0
  6
Continuous
 62
     7
370
    25
100
AcDbLine
 10
-17.25
 20
-77.5
 30
0.0
 11
-22.75
 21
-77.5
 31
0.0
  0
LINE
  5
1CF
330
1F
100
AcDbEntity
  8
0
  6
Continuous
 62
     7
370
    25
100
AcDbLine
 10
-25.0
 20
-79.75
 30
0.0
 11
-25.0
 21
-82.5
 31
0.0
  0
LINE
  5
1D0
330
1F
100
AcDbEntity
  8
0
  6
Continuous
 62
     7
370
    25
100
AcDbLine
 10
-35.0
 20
-82.5
 30
0.0
 11
-25.0
 21
-82.5
 31
0.0
  0
LINE
  5
1D1
330
1F
100
AcDbEntity
  8
0
  6
Continuous
 62
     7
370
    25
100
AcDbLine
 10
-35.0
 20
-82.5
 30
0.0
 11
-35.0
 21
-79.75
 31
0.0
  0
LINE
  5
1D2
330
1F
100
AcDbEntity
  8
0
  6
Continuous
 62
     7
370
    25
100
AcDbLine
 10
-37.25
 20
-77.5
 30
0.0
 11
-42.75
 21
-77.5
 31
0.0
  0
LINE
  5
1D3
330
1F
100
AcDbEntity
  8
0
  6
Continuous
 62
     7
370
    25
100
AcDbLine
 10
-45.0
 20
-79.75
 30
0.0
 11
-45.0
 21
-82.5
 31
0.0
  0
LINE
  5
1D4
330
1F
100
AcDbEntity
  8
0
  6
Continuous
 62
     7
370
    25
100
AcDbLine
 10
-55.0
 20
-82.5
 30
0.0
 11
-45.0
 21
-82.5
 31
0.0
  0
LINE
  5
1D5
330
1F
100
AcDbEntity
  8
0
  6
Continuous
 62
     7
370
    25
100
AcDbLine
 10
-55.0
 20
-82.5
 30
0.0
 11
-55.0
 21
-79.75
 31
0.0
  0
LINE
  5
1D6
330
1F
100
AcDbEntity
  8
0
  6
Continuous
 62
     7
370
    25
100
AcDbLine
 10
-57.25
 20
-77.5
 30
0.0
 11
-62.75
 21
-77.5
 31
0.0
  0
LINE
  5
1D7
330
1F
100
AcDbEntity
  8
0
  6
Continuous
 62
     7
370
    25
100
AcDbLine
 10
-65.0
 20
-79.75
 30
0.0
 11
-65.0
 21
-82.5
 31
0.0
  0
LINE
  5
1D8
330
1F
100
AcDbEntity
  8
0
  6
Continuous
 62
     7
370
    25
100
AcDbLine
 10
-75.0
 20
-82.5
 30
0.0
 11
-65.0
 21
-82.5
 31
0.0
  0
LINE
  5
1D9
330
1F
100
AcDbEntity
  8
0
  6
Continuous
 62
     7
370
    25
100
AcDbLine
 10
-75.0
 20
-82.5
 30
0.0
 11
-75.0
 21
-79.75
 31
0.0
  0
LINE
  5
1DA
330
1F
100
AcDbEntity
  8
0
  6
Continuous
 62
     7
370
    25
100
AcDbLine
 10
-77.25
 20
-77.5
 30
0.0
 11
-82.75
 21
-77.5
 31
0.0
  0
LINE
  5
1DB
330
1F
100
AcDbEntity
  8
0
  6
Continuous
 62
     7
370
    25
100
AcDbLine
 10
-85.0
 20
-79.75
 30
0.0
 11
-85.0
 21
-82.5
 31
0.0
  0
LINE
  5
1DC
330
1F
100
AcDbEntity
  8
0
  6
Continuous
 62
     7
370
    25
100
AcDbLine
 10
-95.0
 20
-82.5
 30
0.0
 11
-85.0
 21
-82.5
 31
0.0
  0
LINE
  5
1DD
330
1F
100
AcDbEntity
  8
0
  6
Continuous
 62
     7
370
    25
100
AcDbLine
 10
-95.0
 20
-82.5
 30
0.0
 11
-95.0
 21
-79.75
 31
0.0
  0
LINE
  5
1DE
330
1F
100
AcDbEntity
  8
0
  6
Continuous
 62
     7
370
    25
100
AcDbLine
 10
-97.25
 20
-77.5
 30
0.0
 11
-102.75
 21
-77.5
 31
0.0
  0
LINE
  5
1DF
330
1F
100
AcDbEntity
  8
0
  6
Continuous
 62
     7
370
    25
100
AcDbLine
 10
-105.0
 20
-79.75
 30
0.0
 11
-105.0
 21
-82.5
 31
0.0
  0
LINE
  5
1E0
330
1F
100
AcDbEntity
  8
0
  6
Continuous
 62
     7
370
    25
100
AcDbLine
 10
-115.0
 20
-82.5
 30
0.0
 11
-105.0
 21
-82.5
 31
0.0
  0
LINE
  5
1E1
330
1F
100
AcDbEntity
  8
0
  6
Continuous
 62
     7
370
    25
100
AcDbLine
 10
-115.0
 20
-82.5
 30
0.0
 11
-115.0
 21
-79.75
 31
0.0
  0
LINE
  5
1E2
330
1F
100
AcDbEntity
  8
0
  6
Continuous
 62
     7
370
    25
100
AcDbLine
 10
-117.25
 20
-77.5
 30
0.0
 11
-122.75
 21
-77.5
 31
0.0
  0
LINE
  5
1E3
330
1F
100
AcDbEntity
  8
0
  6
Continuous
 62
     7
370
    25
100
AcDbLine
 10
-125.0
 20
-79.75
 30
0.0
 11
-125.0
 21
-82.5
 31
0.0
  0
LINE
  5
1E4
330
1F
100
AcDbEntity
  8
0
  6
Continuous
 62
     7
370
    25
100
AcDbLine
 10
-130.0
 20
-82.5
 30
0.0
 11
-125.0
 21
-82.5
 31
0.0
  0
LINE
  5
1E5
330
1F
100
AcDbEntity
  8
0
  6
Continuous
 62
     7
370
    25
100
AcDbLine
 10
-130.0
 20
47.5
 30
0.0
 11
-130.0
 21
-82.5
 31
0.0
  0
LINE
  5
1E6
330
1F
100
AcDbEntity
  8
0
  6
Continuous
 62
     7
370
    25
100
AcDbLine
 10
-130.0
 20
47.5
 30
0.0
 11
-122.25
 21
47.5
 31
0.0
  0
LINE
  5
1E7
330
1F
100
AcDbEntity
  8
0
  6
Continuous
 62
     7
370
    25
100
AcDbLine
 10
-90.894666907
 20
-2.8080744301
 30
0.0
 11
-96.3219492319
 21
-21.3381240096
 31
0.0
  0
LINE
  5
1E8
330
1F
100
AcDbEntity
  8
0
  6
Continuous
 62
     7
370
    25
100
AcDbLine
 10
-99.3453523964
 20
-22.5245227197
 30
0.0
 11
-99.6323843424
 21
-23.1751284639
 31
0.0
  0
LINE
  5
1E9
330
1F
100
AcDbEntity
  8
0
  6
Continuous
 62
     7
370
    25
100
AcDbLine
 10
-99.6323843424
 20
-23.1751284639
 30
0.0
 11
-88.1419295153
 21
-23.1751284639
 31
0.0
  0
LINE
  5
1EA
330
1F
100
AcDbEntity
  8
0
  6
Continuous
 62
     7
370
    25
100
AcDbLine
 10
-88.1419295153
 20
-23.1751284639
 30
0.0
 11
-87.8633396853
 21
-22.5436581827
 31
0.0
  0
LINE
  5
1EB
330
1F
100
AcDbEntity
  8
0
  6
Continuous
 62
     7
370
    25
100
AcDbLine
 10
-87.8633396853
 20
-22.5436581827
 30
0.0
 11
-89.627123267
 21
-22.5436581827
 31
0.0
  0
LINE
  5
1EC
330
1F
100
AcDbEntity
  8
0
  6
Continuous
 62
     7
370
    25
100
AcDbLine
 10
-90.7526282432
 20
-19.8495954222
 30
0.0
 11
-88.3262443138
 21
-11.5653360418
 31
0.0
  0
LINE
  5
1ED
330
1F
100
AcDbEntity
  8
0
  6
Continuous
 62
     7
370
    25
100
AcDbLine
 10
-88.3262443138
 20
-11.5653360418
 30
0.0
 11
-84.9796004198
 21
-11.5653360418
 31
0.0
  0
LINE
  5
1EE
330
1F
100
AcDbEntity
  8
0
  6
Continuous
 62
     7
370
    25
100
AcDbLine
 10
-83.1339381631
 20
-15.707465732
 30
0.0
 11
-82.4708465946
 21
-15.707465732
 31
0.0
  0
LINE
  5
1EF
330
1F
100
AcDbEntity
  8
0
  6
Continuous
 62
     7
370
    25
100
AcDbLine
 10
-82.4708465946
 20
-15.707465732
 30
0.0
 11
-79.8358165955
 21
-6.7108383957
 31
0.0
  0
LINE
  5
1F0
330
1F
100
AcDbEntity
  8
0
  6
Continuous
 62
     7
370
    25
100
AcDbLine
 10
-79.8358165955
 20
-6.7108383957
 30
0.0
 11
-80.4942259333
 21
-6.7108383957
 31
0.0
  0
LINE
  5
1F1
330
1F
100
AcDbEntity
  8
0
  6
Continuous
 62
     7
370
    25
100
AcDbLine
 10
-85.163252858
 20
-10.181035865
 30
0.0
 11
-87.961208329
 21
-10.181035865
 31
0.0
  0
LINE
  5
1F2
330
1F
100
AcDbEntity
  8
0
  6
Continuous
 62
     7
370
    25
100
AcDbLine
 10
-87.961208329
 20
-10.181035865
 30
0.0
 11
-85.392877133
 21
-1.4121343137
 31
0.0
  0
LINE
  5
1F3
330
1F
100
AcDbEntity
  8
0
  6
Continuous
 62
     7
370
    25
100
AcDbLine
 10
-85.392877133
 20
-1.4121343137
 30
0.0
 11
-81.546670527
 21
-1.4121343137
 31
0.0
  0
LINE
  5
1F4
330
1F
100
AcDbEntity
  8
0
  6
Continuous
 62
     7
370
    25
100
AcDbLine
 10
-76.7245607523
 20
-6.3089959144
 30
0.0
 11
-76.0212131549
 21
-6.3089959144
 31
0.0
  0
LINE
  5
1F5
330
1F
100
AcDbEntity
  8
0
  6
Continuous
 62
     7
370
    25
100
AcDbLine
 10
-76.0212131549
 20
-6.3089959144
 30
0.0
 11
-74.5386037348
 21
-0.2217200646
 31
0.0
  0
LINE
  5
1F6
330
1F
100
AcDbEntity
  8
0
  6
Continuous
 62
     7
370
    25
100
AcDbLine
 10
-74.5386037348
 20
-0.2217200646
 30
0.0
 11
-93.2092145268
 21
-0.2217200646
 31
0.0
  0
LINE
  5
1F7
330
1F
100
AcDbEntity
  8
0
  6
Continuous
 62
     7
370
    25
100
AcDbLine
 10
-93.2092145268
 20
-0.2217200646
 30
0.0
 11
-93.5332357975
 21
-0.9037861788
 31
0.0
  0
LINE
  5
1F8
330
1F
100
AcDbEntity
  8
0
  6
Continuous
 62
     7
370
    25
100
AcDbLine
 10
-88.5013013382
 20
-37.589949966
 30
0.0
 11
-92.2311656275
 21
-50.9734850155
 31
0.0
  0
LINE
  5
1F9
330
1F
100
AcDbEntity
  8
0
  6
Continuous
 62
     7
370
    25
100
AcDbLine
 10
-92.2311656275
 20
-50.9734850155
 30
0.0
 11
-87.7745344597
 21
-50.9734850155
 31
0.0
  0
LINE
  5
1FA
330
1F
100
AcDbEntity
  8
0
  6
Continuous
 62
     7
370
    25
100
AcDbLine
 10
-87.7745344597
 20
-50.9734850155
 30
0.0
 11
-86.3363533613
 21
-45.9011109576
 31
0.0
  0
LINE
  5
1FB
330
1F
100
AcDbEntity
  8
0
  6
Continuous
 62
     7
370
    25
100
AcDbLine
 10
-80.1719650767
 20
-38.7726522677
 30
0.0
 11
-83.6795824772
 21
-51.0307052046
 31
0.0
  0
LINE
  5
1FC
330
1F
100
AcDbEntity
  8
0
  6
Continuous
 62
     7
370
    25
100
AcDbLine
 10
-83.6795824772
 20
-51.0307052046
 30
0.0
 11
-79.275569177
 21
-51.0307052046
 31
0.0
  0
LINE
  5
1FD
330
1F
100
AcDbEntity
  8
0
  6
Continuous
 62
     7
370
    25
100
AcDbLine
 10
-79.275569177
 20
-51.0307052046
 30
0.0
 11
-77.6499041067
 21
-45.3495016371
 31
0.0
  0
LINE
  5
1FE
330
1F
100
AcDbEntity
  8
0
  6
Continuous
 62
     7
370
    25
100
AcDbLine
 10
-71.6770955253
 20
-38.7726522677
 30
0.0
 11
-74.3133006698
 21
-48.2490011631
 31
0.0
  0
LINE
  5
1FF
330
1F
100
AcDbEntity
  8
0
  6
Continuous
 62
     7
370
    25
100
AcDbLine
 10
-69.0921285903
 20
-49.8442986711
 30
0.0
 11
-66.7704782799
 21
-46.8807021331
 31
0.0
  0
LINE
  5
200
330
1F
100
AcDbEntity
  8
0
  6
Continuous
 62
     7
370
    25
100
AcDbLine
 10
-66.7704782799
 20
-46.8807021331
 30
0.0
 11
-67.3841668608
 21
-46.3999449632
 31
0.0
  0
LINE
  5
201
330
1F
100
AcDbEntity
  8
0
  6
Continuous
 62
     7
370
    25
100
AcDbLine
 10
-67.3841668608
 20
-46.3999449632
 30
0.0
 11
-68.9979157151
 21
-48.4599022688
 31
0.0
  0
LINE
  5
202
330
1F
100
AcDbEntity
  8
0
  6
Continuous
 62
     7
370
    25
100
AcDbLine
 10
-69.7354596739
 20
-47.3646784906
 30
0.0
 11
-67.364349447
 21
-39.2735910638
 31
0.0
  0
LINE
  5
203
330
1F
100
AcDbEntity
  8
0
  6
Continuous
 62
     7
370
    25
100
AcDbLine
 10
-85.2867753103
 20
-42.1525583265
 30
0.0
 11
-83.1339381631
 21
-34.845694478
 31
0.0
  0
LINE
  5
204
330
1F
100
AcDbEntity
  8
0
  6
Continuous
 62
     7
370
    25
100
AcDbLine
 10
-83.1339381631
 20
-34.845694478
 30
0.0
 11
-90.0465355184
 21
-35.876510692
 31
0.0
  0
LINE
  5
205
330
1F
100
AcDbEntity
  8
0
  6
Continuous
 62
     7
370
    25
100
AcDbLine
 10
-90.0465355184
 20
-35.876510692
 30
0.0
 11
-90.2207796555
 21
-36.6654424678
 31
0.0
  0
LINE
  5
206
330
1F
100
AcDbEntity
  8
0
  6
Continuous
 62
     7
370
    25
100
AcDbLine
 10
-56.6795106597
 20
-37.4312905574
 30
0.0
 11
-53.5367088122
 21
-26.7786356607
 31
0.0
  0
LINE
  5
207
330
1F
100
AcDbEntity
  8
0
  6
Continuous
 62
     7
370
    25
100
AcDbLine
 10
-53.5367088122
 20
-26.7786356607
 30
0.0
 11
-60.5770843831
 21
-28.0009199308
 31
0.0
  0
LINE
  5
208
330
1F
100
AcDbEntity
  8
0
  6
Continuous
 62
     7
370
    25
100
AcDbLine
 10
-60.5770843831
 20
-28.0009199308
 30
0.0
 11
-60.7600608032
 21
-28.5677384354
 31
0.0
  0
LINE
  5
209
330
1F
100
AcDbEntity
  8
0
  6
Continuous
 62
     7
370
    25
100
AcDbLine
 10
-60.7600608032
 20
-28.5677384354
 30
0.0
 11
-59.7784476747
 21
-28.5677384354
 31
0.0
  0
LINE
  5
20A
330
1F
100
AcDbEntity
  8
0
  6
Continuous
 62
     7
370
    25
100
AcDbLine
 10
-58.9159581703
 20
-30.127651396
 30
0.0
 11
-64.6418732249
 21
-49.75522579
 31
0.0
  0
LINE
  5
20B
330
1F
100
AcDbEntity
  8
0
  6
Continuous
 62
     7
370
    25
100
AcDbLine
 10
-46.1764623925
 20
-11.7806356511
 30
0.0
 11
-49.0599157566
 21
-23.2364738598
 31
0.0
  0
LINE
  5
20C
330
1F
100
AcDbEntity
  8
0
  6
Continuous
 62
     7
370
    25
100
AcDbLine
 10
-49.0599157566
 20
-23.2364738598
 30
0.0
 11
-45.0283401323
 21
-23.2364738598
 31
0.0
  0
LINE
  5
20D
330
1F
100
AcDbEntity
  8
0
  6
Continuous
 62
     7
370
    25
100
AcDbLine
 10
-45.0283401323
 20
-23.2364738598
 30
0.0
 11
-43.3903866573
 21
-17.5085547555
 31
0.0
  0
LINE
  5
20E
330
1F
100
AcDbEntity
  8
0
  6
Continuous
 62
     7
370
    25
100
AcDbLine
 10
-40.5538239785
 20
-10.2120874799
 30
0.0
 11
-43.7175048335
 21
-16.693337201
 31
0.0
  0
LINE
  5
20F
330
1F
100
AcDbEntity
  8
0
  6
Continuous
 62
     7
370
    25
100
AcDbLine
 10
-43.7175048335
 20
-16.693337201
 30
0.0
 11
-43.9935069696
 21
-16.693337201
 31
0.0
  0
LINE
  5
210
330
1F
100
AcDbEntity
  8
0
  6
Continuous
 62
     7
370
    25
100
AcDbLine
 10
-43.9935069696
 20
-16.693337201
 30
0.0
 11
-41.7651779177
 21
-8.9008762175
 31
0.0
  0
LINE
  5
211
330
1F
100
AcDbEntity
  8
0
  6
Continuous
 62
     7
370
    25
100
AcDbLine
 10
-42.2922379685
 20
-7.5714334286
 30
0.0
 11
-47.4669986247
 21
-8.6126082761
 31
0.0
  0
LINE
  5
212
330
1F
100
AcDbEntity
  8
0
  6
Continuous
 62
     7
370
    25
100
AcDbLine
 10
-47.4669986247
 20
-8.6126082761
 30
0.0
 11
-47.7030915468
 21
-9.1637160002
 31
0.0
  0
LINE
  5
213
330
1F
100
AcDbEntity
  8
0
  6
Continuous
 62
     7
370
    25
100
AcDbLine
 10
-47.7030915468
 20
-9.1637160002
 30
0.0
 11
-46.6488618454
 21
-9.1637160002
 31
0.0
  0
LINE
  5
214
330
1F
100
AcDbEntity
  8
0
  6
Continuous
 62
     7
370
    25
100
AcDbLine
 10
-50.5169449008
 20
-7.5714334286
 30
0.0
 11
-57.0027741301
 21
-8.3847407879
 31
0.0
  0
LINE
  5
215
330
1F
100
AcDbEntity
  8
0
  6
Continuous
 62
     7
370
    25
100
AcDbLine
 10
-57.0027741301
 20
-8.3847407879
 30
0.0
 11
-57.3996304081
 21
-9.1637160002
 31
0.0
  0
LINE
  5
216
330
1F
100
AcDbEntity
  8
0
  6
Continuous
 62
     7
370
    25
100
AcDbLine
 10
-57.3996304081
 20
-9.1637160002
 30
0.0
 11
-56.2355766442
 21
-9.1637160002
 31
0.0
  0
LINE
  5
217
330
1F
100
AcDbEntity
  8
0
  6
Continuous
 62
     7
370
    25
100
AcDbLine
 10
-55.6805602982
 20
-11.1342402119
 30
0.0
 11
-57.939903533
 21
-19.4687602564
 31
0.0
  0
LINE
  5
218
330
1F
100
AcDbEntity
  8
0
  6
Continuous
 62
     7
370
    25
100
AcDbLine
 10
-52.3712343606
 20
-21.6176973118
 30
0.0
 11
-50.6647329687
 21
-19.2949865152
 31
0.0
  0
LINE
  5
219
330
1F
100
AcDbEntity
  8
0
  6
Continuous
 62
     7
370
    25
100
AcDbLine
 10
-50.6647329687
 20
-19.2949865152
 30
0.0
 11
-51.2747620399
 21
-18.8467966413
 31
0.0
  0
LINE
  5
21A
330
1F
100
AcDbEntity
  8
0
  6
Continuous
 62
     7
370
    25
100
AcDbLine
 10
-51.2747620399
 20
-18.8467966413
 30
0.0
 11
-53.000415239
 21
-21.1955748703
 31
0.0
  0
LINE
  5
21B
330
1F
100
AcDbEntity
  8
0
  6
Continuous
 62
     7
370
    25
100
AcDbLine
 10
-54.1025872854
 20
-20.6827496604
 30
0.0
 11
-50.5169449008
 21
-7.5714334286
 31
0.0
  0
LINE
  5
21C
330
1F
100
AcDbEntity
  8
0
  6
Continuous
 62
     7
370
    25
100
AcDbLine
 10
-94.1762881087
 20
-33.3022867935
 30
0.0
 11
-93.5493601865
 21
-33.3022867935
 31
0.0
  0
LINE
  5
21D
330
1F
100
AcDbEntity
  8
0
  6
Continuous
 62
     7
370
    25
100
AcDbLine
 10
-93.5493601865
 20
-33.3022867935
 30
0.0
 11
-92.08562825
 21
-27.3392382044
 31
0.0
  0
LINE
  5
21E
330
1F
100
AcDbEntity
  8
0
  6
Continuous
 62
     7
370
    25
100
AcDbLine
 10
-92.08562825
 20
-27.3392382044
 30
0.0
 11
-110.8243807783
 21
-27.3392382044
 31
0.0
  0
LINE
  5
21F
330
1F
100
AcDbEntity
  8
0
  6
Continuous
 62
     7
370
    25
100
AcDbLine
 10
-110.8243807783
 20
-27.3392382044
 30
0.0
 11
-110.9868018387
 21
-28.0009199308
 31
0.0
  0
LINE
  5
220
330
1F
100
AcDbEntity
  8
0
  6
Continuous
 62
     7
370
    25
100
AcDbLine
 10
-108.4938632928
 20
-30.0631015541
 30
0.0
 11
-113.7275995734
 21
-48.2490011631
 31
0.0
  0
LINE
  5
221
330
1F
100
AcDbEntity
  8
0
  6
Continuous
 62
     7
370
    25
100
AcDbLine
 10
-116.0284310333
 20
-50.2486849714
 30
0.0
 11
-117.2845462315
 21
-50.2486849714
 31
0.0
  0
LINE
  5
222
330
1F
100
AcDbEntity
  8
0
  6
Continuous
 62
     7
370
    25
100
AcDbLine
 10
-117.2845462315
 20
-50.2486849714
 30
0.0
 11
-117.547022478
 21
-51.0307052046
 31
0.0
  0
LINE
  5
223
330
1F
100
AcDbEntity
  8
0
  6
Continuous
 62
     7
370
    25
100
AcDbLine
 10
-117.547022478
 20
-51.0307052046
 30
0.0
 11
-97.077202995
 21
-51.0307052046
 31
0.0
  0
LINE
  5
224
330
1F
100
AcDbEntity
  8
0
  6
Continuous
 62
     7
370
    25
100
AcDbLine
 10
-97.077202995
 20
-51.0307052046
 30
0.0
 11
-94.8825920353
 21
-44.4920938149
 31
0.0
  0
LINE
  5
225
330
1F
100
AcDbEntity
  8
0
  6
Continuous
 62
     7
370
    25
100
AcDbLine
 10
-94.8825920353
 20
-44.4920938149
 30
0.0
 11
-95.7898719697
 21
-44.4920938149
 31
0.0
  0
LINE
  5
226
330
1F
100
AcDbEntity
  8
0
  6
Continuous
 62
     7
370
    25
100
AcDbLine
 10
-108.3265942981
 20
-47.8445770672
 30
0.0
 11
-105.8410083571
 21
-39.2735910638
 31
0.0
  0
LINE
  5
227
330
1F
100
AcDbEntity
  8
0
  6
Continuous
 62
     7
370
    25
100
AcDbLine
 10
-105.8410083571
 20
-39.2735910638
 30
0.0
 11
-102.8211870188
 21
-39.2735910638
 31
0.0
  0
LINE
  5
228
330
1F
100
AcDbEntity
  8
0
  6
Continuous
 62
     7
370
    25
100
AcDbLine
 10
-100.2412975015
 20
-43.273384532
 30
0.0
 11
-99.4523999098
 21
-43.273384532
 31
0.0
  0
LINE
  5
229
330
1F
100
AcDbEntity
  8
0
  6
Continuous
 62
     7
370
    25
100
AcDbLine
 10
-99.4523999098
 20
-43.273384532
 30
0.0
 11
-96.8597746555
 21
-34.0588498156
 31
0.0
  0
LINE
  5
22A
330
1F
100
AcDbEntity
  8
0
  6
Continuous
 62
     7
370
    25
100
AcDbLine
 10
-96.8597746555
 20
-34.0588498156
 30
0.0
 11
-97.5955687917
 21
-34.0588498156
 31
0.0
  0
LINE
  5
22B
330
1F
100
AcDbEntity
  8
0
  6
Continuous
 62
     7
370
    25
100
AcDbLine
 10
-102.8211870188
 20
-37.7336394076
 30
0.0
 11
-105.4508529653
 21
-37.7336394076
 31
0.0
  0
LINE
  5
22C
330
1F
100
AcDbEntity
  8
0
  6
Continuous
 62
     7
370
    25
100
AcDbLine
 10
-105.4508529653
 20
-37.7336394076
 30
0.0
 11
-102.8211870188
 21
-28.7075375667
 31
0.0
  0
LINE
  5
22D
330
1F
100
AcDbEntity
  8
0
  6
Continuous
 62
     7
370
    25
100
AcDbLine
 10
-102.8211870188
 20
-28.7075375667
 30
0.0
 11
-98.7226199192
 21
-28.7075375667
 31
0.0
  0
LINE
  5
22E
330
1F
100
AcDbEntity
  8
0
  6
Continuous
 62
     7
370
    25
100
AcDbLine
 10
-60.3682575314
 20
-19.531371315
 30
0.0
 11
-60.907730629
 21
-19.1507598018
 31
0.0
  0
LINE
  5
22F
330
1F
100
AcDbEntity
  8
0
  6
Continuous
 62
     7
370
    25
100
AcDbLine
 10
-60.907730629
 20
-19.1507598018
 30
0.0
 11
-62.3360293242
 21
-20.8918629476
 31
0.0
  0
LINE
  5
230
330
1F
100
AcDbEntity
  8
0
  6
Continuous
 62
     7
370
    25
100
AcDbLine
 10
-63.7833624785
 20
-20.9361245889
 30
0.0
 11
-59.954063127
 21
-7.8619739203
 31
0.0
  0
LINE
  5
231
330
1F
100
AcDbEntity
  8
0
  6
Continuous
 62
     7
370
    25
100
AcDbLine
 10
-59.954063127
 20
-7.8619739203
 30
0.0
 11
-63.9523475167
 21
-8.0565806826
 31
0.0
  0
LINE
  5
232
330
1F
100
AcDbEntity
  8
0
  6
Continuous
 62
     7
370
    25
100
AcDbLine
 10
-63.9523475167
 20
-8.0565806826
 30
0.0
 11
-64.5836757758
 21
-10.2120874799
 31
0.0
  0
LINE
  5
233
330
1F
100
AcDbEntity
  8
0
  6
Continuous
 62
     7
370
    25
100
AcDbLine
 10
-57.1740040414
 20
-39.2735910638
 30
0.0
 11
-60.3682575314
 21
-49.75522579
 31
0.0
  0
ARC
  5
234
330
1F
100
AcDbEntity
  8
0
  6
Continuous
 62
     7
370
    25
100
AcDbCircle
 10
0.0
 20
29.75
 30
0.0
 40
2.250000000000004
100
AcDbArc
 50
90.0
 51
270.0
  0
ARC
  5
235
330
1F
100
AcDbEntity
  8
0
  6
Continuous
 62
     7
370
    25
100
AcDbCircle
 10
5.0
 20
29.75
 30
0.0
 40
2.250000000000007
100
AcDbArc
 50
270.0
 51
90.0
  0
ARC
  5
236
330
1F
100
AcDbEntity
  8
0
  6
Continuous
 62
     7
370
    25
100
AcDbCircle
 10
5.0
 20
35.25
 30
0.0
 40
2.250000000000014
100
AcDbArc
 50
270.0
 51
90.0
  0
ARC
  5
237
330
1F
100
AcDbEntity
  8
0
  6
Continuous
 62
     7
370
    25
100
AcDbCircle
 10
0.0
 20
35.25
 30
0.0
 40
2.250000000000014
100
AcDbArc
 50
90.0
 51
270.0
  0
ARC
  5
238
330
1F
100
AcDbEntity
  8
0
  6
Continuous
 62
     7
370
    25
100
AcDbCircle
 10
0.0
 20
15.25
 30
0.0
 40
2.250000000000005
100
AcDbArc
 50
90.0
 51
270.0
  0
ARC
  5
239
330
1F
100
AcDbEntity
  8
0
  6
Continuous
 62
     7
370
    25
100
AcDbCircle
 10
0.0
 20
9.75
 30
0.0
 40
2.249999999999998
100
AcDbArc
 50
90.0
 51
270.0
  0
ARC
  5
23A
330
1F
100
AcDbEntity
  8
0
  6
Continuous
 62
     7
370
    25
100
AcDbCircle
 10
5.0
 20
9.75
 30
0.0
 40
2.25
100
AcDbArc
 50
270.0
 51
90.0
  0
ARC
  5
23B
330
1F
100
AcDbEntity
  8
0
  6
Continuous
 62
     7
370
    25
100
AcDbCircle
 10
5.0
 20
15.25
 30
0.0
 40
2.250000000000005
100
AcDbArc
 50
270.0
 51
90.0
  0
ARC
  5
23C
330
1F
100
AcDbEntity
  8
0
  6
Continuous
 62
     7
370
    25
100
AcDbCircle
 10
-110.0
 20
47.5
 30
0.0
 40
2.25
100
AcDbArc
 50
90.0
 51
0.0
  0
ARC
  5
23D
330
1F
100
AcDbEntity
  8
0
  6
Continuous
 62
     7
370
    25
100
AcDbCircle
 10
-100.0
 20
47.5
 30
0.0
 40
2.250000000000028
100
AcDbArc
 50
180.0
 51
90.0
  0
ARC
  5
23E
330
1F
100
AcDbEntity
  8
0
  6
Continuous
 62
     7
370
    25
100
AcDbCircle
 10
-90.0
 20
47.5
 30
0.0
 40
2.250000000000014
100
AcDbArc
 50
90.0
 51
0.0
  0
ARC
  5
23F
330
1F
100
AcDbEntity
  8
0
  6
Continuous
 62
     7
370
    25
100
AcDbCircle
 10
-80.0
 20
47.5
 30
0.0
 40
2.250000000000014
100
AcDbArc
 50
180.0
 51
90.0
  0
ARC
  5
240
330
1F
100
AcDbEntity
  8
0
  6
Continuous
 62
     7
370
    25
100
AcDbCircle
 10
-70.0
 20
47.5
 30
0.0
 40
2.250000000000028
100
AcDbArc
 50
90.0
 51
0.0
  0
ARC
  5
241
330
1F
100
AcDbEntity
  8
0
  6
Continuous
 62
     7
370
    25
100
AcDbCircle
 10
-60.0
 20
47.5
 30
0.0
 40
2.250000000000007
100
AcDbArc
 50
180.0
 51
90.0
  0
ARC
  5
242
330
1F
100
AcDbEntity
  8
0
  6
Continuous
 62
     7
370
    25
100
AcDbCircle
 10
-50.0
 20
47.5
 30
0.0
 40
2.249999999999993
100
AcDbArc
 50
90.0
 51
0.0
  0
ARC
  5
243
330
1F
100
AcDbEntity
  8
0
  6
Continuous
 62
     7
370
    25
100
AcDbCircle
 10
-40.0
 20
47.5
 30
0.0
 40
2.250000000000007
100
AcDbArc
 50
180.0
 51
90.0
  0
ARC
  5
244
330
1F
100
AcDbEntity
  8
0
  6
Continuous
 62
     7
370
    25
100
AcDbCircle
 10
-30.0
 20
47.5
 30
0.0
 40
2.25
100
AcDbArc
 50
90.0
 51
0.0
  0
ARC
  5
245
330
1F
100
AcDbEntity
  8
0
  6
Continuous
 62
     7
370
    25
100
AcDbCircle
 10
-20.0
 20
47.5
 30
0.0
 40
2.250000000000014
100
AcDbArc
 50
180.0
 51
90.0
  0
ARC
  5
246
330
1F
100
AcDbEntity
  8
0
  6
Continuous
 62
     7
370
    25
100
AcDbCircle
 10
-10.0
 20
47.5
 30
0.0
 40
2.250000000000001
100
AcDbArc
 50
90.0
 51
0.0
  0
ARC
  5
247
330
1F
100
AcDbEntity
  8
0
  6
Continuous
 62
     7
370
    25
100
AcDbCircle
 10
0.0
 20
47.5
 30
0.0
 40
2.250000000000015
100
AcDbArc
 50
180.0
 51
90.0
  0
ARC
  5
248
330
1F
100
AcDbEntity
  8
0
  6
Continuous
 62
     7
370
    25
100
AcDbCircle
 10
10.0
 20
47.5
 30
0.0
 40
2.25
100
AcDbArc
 50
90.0
 51
0.0
  0
ARC
  5
249
330
1F
100
AcDbEntity
  8
0
  6
Continuous
 62
     7
370
    25
100
AcDbCircle
 10
20.0
 20
47.5
 30
0.0
 40
2.250000000000014
100
AcDbArc
 50
180.0
 51
90.0
  0
ARC
  5
24A
330
1F
100
AcDbEntity
  8
0
  6
Continuous
 62
     7
370
    25
100
AcDbCircle
 10
30.0
 20
47.5
 30
0.0
 40
2.249999999999996
100
AcDbArc
 50
90.0
 51
0.0
  0
ARC
  5
24B
330
1F
100
AcDbEntity
  8
0
  6
Continuous
 62
     7
370
    25
100
AcDbCircle
 10
40.0
 20
47.5
 30
0.0
 40
2.250000000000014
100
AcDbArc
 50
180.0
 51
90.0
  0
ARC
  5
24C
330
1F
100
AcDbEntity
  8
0
  6
Continuous
 62
     7
370
    25
100
AcDbCircle
 10
50.0
 20
47.5
 30
0.0
 40
2.249999999999993
100
AcDbArc
 50
90.0
 51
0.0
  0
ARC
  5
24D
330
1F
100
AcDbEntity
  8
0
  6
Continuous
 62
     7
370
    25
100
AcDbCircle
 10
60.0
 20
47.5
 30
0.0
 40
2.250000000000007
100
AcDbArc
 50
180.0
 51
90.0
  0
ARC
  5
24E
330
1F
100
AcDbEntity
  8
0
  6
Continuous
 62
     7
370
    25
100
AcDbCircle
 10
70.0
 20
47.5
 30
0.0
 40
2.25
100
AcDbArc
 50
90.0
 51
0.0
  0
ARC
  5
24F
330
1F
100
AcDbEntity
  8
0
  6
Continuous
 62
     7
370
    25
100
AcDbCircle
 10
80.0
 20
47.5
 30
0.0
 40
2.250000000000014
100
AcDbArc
 50
180.0
 51
90.0
  0
ARC
  5
250
330
1F
100
AcDbEntity
  8
0
  6
Continuous
 62
     7
370
    25
100
AcDbCircle
 10
90.0
 20
47.5
 30
0.0
 40
2.25
100
AcDbArc
 50
90.0
 51
0.0
  0
ARC
  5
251
330
1F
100
AcDbEntity
  8
0
  6
Continuous
 62
     7
370
    25
100
AcDbCircle
 10
100.0
 20
47.5
 30
0.0
 40
2.250000000000043
100
AcDbArc
 50
180.0
 51
90.0
  0
ARC
  5
252
330
1F
100
AcDbEntity
  8
0
  6
Continuous
 62
     7
370
    25
100
AcDbCircle
 10
110.0
 20
47.5
 30
0.0
 40
2.249999999999993
100
AcDbArc
 50
90.0
 51
0.0
  0
ARC
  5
253
330
1F
100
AcDbEntity
  8
0
  6
Continuous
 62
     7
370
    25
100
AcDbCircle
 10
120.0
 20
47.5
 30
0.0
 40
2.250000000000014
100
AcDbArc
 50
180.0
 51
90.0
  0
ARC
  5
254
330
1F
100
AcDbEntity
  8
0
  6
Continuous
 62
     7
370
    25
100
AcDbCircle
 10
130.0
 20
47.5
 30
0.0
 40
2.25
100
AcDbArc
 50
90.0
 51
0.0
  0
ARC
  5
255
330
1F
100
AcDbEntity
  8
0
  6
Continuous
 62
     7
370
    25
100
AcDbCircle
 10
140.0
 20
47.5
 30
0.0
 40
2.250000000000028
100
AcDbArc
 50
180.0
 51
90.0
  0
ARC
  5
256
330
1F
100
AcDbEntity
  8
0
  6
Continuous
 62
     7
370
    25
100
AcDbCircle
 10
150.0
 20
47.5
 30
0.0
 40
2.250000000000028
100
AcDbArc
 50
90.0
 51
0.0
  0
ARC
  5
257
330
1F
100
AcDbEntity
  8
0
  6
Continuous
 62
     7
370
    25
100
AcDbCircle
 10
160.0
 20
47.5
 30
0.0
 40
2.250000000000028
100
AcDbArc
 50
180.0
 51
90.0
  0
ARC
  5
258
330
1F
100
AcDbEntity
  8
0
  6
Continuous
 62
     7
370
    25
100
AcDbCircle
 10
160.0
 20
40.0
 30
0.0
 40
2.250000000000028
100
AcDbArc
 50
0.0
 51
270.0
  0
ARC
  5
259
330
1F
100
AcDbEntity
  8
0
  6
Continuous
 62
     7
370
    25
100
AcDbCircle
 10
160.0
 20
30.0
 30
0.0
 40
2.250000000000028
100
AcDbArc
 50
90.0
 51
0.0
  0
ARC
  5
25A
330
1F
100
AcDbEntity
  8
0
  6
Continuous
 62
     7
370
    25
100
AcDbCircle
 10
160.0
 20
20.0
 30
0.0
 40
2.250000000000004
100
AcDbArc
 50
0.0
 51
270.0
  0
ARC
  5
25B
330
1F
100
AcDbEntity
  8
0
  6
Continuous
 62
     7
370
    25
100
AcDbCircle
 10
160.0
 20
10.0
 30
0.0
 40
2.250000000000012
100
AcDbArc
 50
90.0
 51
0.0
  0
ARC
  5
25C
330
1F
100
AcDbEntity
  8
0
  6
Continuous
 62
     7
370
    25
100
AcDbCircle
 10
-15.0
 20
-77.5
 30
0.0
 40
2.250000000000005
100
AcDbArc
 50
270.0
 51
180.0
  0
ARC
  5
25D
330
1F
100
AcDbEntity
  8
0
  6
Continuous
 62
     7
370
    25
100
AcDbCircle
 10
-25.0
 20
-77.5
 30
0.0
 40
2.25
100
AcDbArc
 50
0.0
 51
270.0
  0
ARC
  5
25E
330
1F
100
AcDbEntity
  8
0
  6
Continuous
 62
     7
370
    25
100
AcDbCircle
 10
-35.0
 20
-77.5
 30
0.0
 40
2.250000000000014
100
AcDbArc
 50
270.0
 51
180.0
  0
ARC
  5
25F
330
1F
100
AcDbEntity
  8
0
  6
Continuous
 62
     7
370
    25
100
AcDbCircle
 10
-45.0
 20
-77.5
 30
0.0
 40
2.25
100
AcDbArc
 50
0.0
 51
270.0
  0
ARC
  5
260
330
1F
100
AcDbEntity
  8
0
  6
Continuous
 62
     7
370
    25
100
AcDbCircle
 10
-55.0
 20
-77.5
 30
0.0
 40
2.25
100
AcDbArc
 50
270.0
 51
180.0
  0
ARC
  5
261
330
1F
100
AcDbEntity
  8
0
  6
Continuous
 62
     7
370
    25
100
AcDbCircle
 10
-65.0
 20
-77.5
 30
0.0
 40
2.25
100
AcDbArc
 50
0.0
 51
270.0
  0
ARC
  5
262
330
1F
100
AcDbEntity
  8
0
  6
Continuous
 62
     7
370
    25
100
AcDbCircle
 10
-75.0
 20
-77.5
 30
0.0
 40
2.249999999999986
100
AcDbArc
 50
270.0
 51
180.0
  0
ARC
  5
263
330
1F
100
AcDbEntity
  8
0
  6
Continuous
 62
     7
370
    25
100
AcDbCircle
 10
-85.0
 20
-77.5
 30
0.0
 40
2.250000000000028
100
AcDbArc
 50
0.0
 51
270.0
  0
ARC
  5
264
330
1F
100
AcDbEntity
  8
0
  6
Continuous
 62
     7
370
    25
100
AcDbCircle
 10
-95.0
 20
-77.5
 30
0.0
 40
2.25
100
AcDbArc
 50
270.0
 51
180.0
  0
ARC
  5
265
330
1F
100
AcDbEntity
  8
0
  6
Continuous
 62
     7
370
    25
100
AcDbCircle
 10
-105.0
 20
-77.5
 30
0.0
 40
2.25
100
AcDbArc
 50
0.0
 51
270.0
  0
ARC
  5
266
330
1F
100
AcDbEntity
  8
0
  6
Continuous
 62
     7
370
    25
100
AcDbCircle
 10
-115.0
 20
-77.5
 30
0.0
 40
2.25
100
AcDbArc
 50
270.0
 51
180.0
  0
ARC
  5
267
330
1F
100
AcDbEntity
  8
0
  6
Continuous
 62
     7
370
    25
100
AcDbCircle
 10
-125.0
 20
-77.5
 30
0.0
 40
2.250000000000014
100
AcDbArc
 50
0.0
 51
270.0
  0
ARC
  5
268
330
1F
100
AcDbEntity
  8
0
  6
Continuous
 62
     7
370
    25
100
AcDbCircle
 10
-120.0
 20
47.5
 30
0.0
 40
2.250000000000021
100
AcDbArc
 50
180.0
 51
90.0
  0
ARC
  5
269
330
1F
100
AcDbEntity
  8
0
  6
Continuous
 62
     7
370
    25
100
AcDbCircle
 10
-34.8161419796
 20
-42.7640997603
 30
0.0
 40
10.54305357601654
100
AcDbArc
 50
171.4154471143
 51
6.424849772
  0
ARC
  5
26A
330
1F
100
AcDbEntity
  8
0
  6
Continuous
 62
     7
370
    25
100
AcDbCircle
 10
-34.8161419796
 20
-42.7640997603
 30
0.0
 40
10.54305357601704
100
AcDbArc
 50
60.51462823
 51
77.4480292446
  0
MTEXT
  5
26C
330
1F
100
AcDbEntity
  8
0
  6
Continuous
 62
     7
100
AcDbMText
 10
-130.0
 20
-83.5195663917
 30
0.0
 40
4.83362
 41
0.0
 71
     1
 72
     1
  1
Produit d'ducation SOLIDWORKS  A titre ducatif uniquement.
  7
SLDTEXTSTYLE0
 73
     1
 44
1.0
  0
ENDSEC
  0
SECTION
  2
OBJECTS
  0
DICTIONARY
  5
C
330
0
100
AcDbDictionary
281
     1
  3
ACAD_GROUP
350
D
  3
ACAD_LAYOUT
350
1A
  3
ACAD_MLINESTYLE
350
17
  3
ACAD_PLOTSETTINGS
350
19
  3
ACAD_PLOTSTYLENAME
350
E
  3
ACAD_SCALELIST
350
47
  3
DWGPROPS
350
26D
  0
DICTIONARY
  5
D
102
{ACAD_REACTORS
330
C
102
}
330
C
100
AcDbDictionary
281
     1
  0
DICTIONARY
  5
1A
102
{ACAD_REACTORS
330
C
102
}
330
C
100
AcDbDictionary
281
     1
  3
Layout1
350
1E
  3
Layout2
350
26
  3
Model
350
22
  0
DICTIONARY
  5
17
102
{ACAD_REACTORS
330
C
102
}
330
C
100
AcDbDictionary
281
     1
  3
Standard
350
18
  0
DICTIONARY
  5
19
102
{ACAD_REACTORS
330
C
102
}
330
C
100
AcDbDictionary
281
     1
  0
ACDBDICTIONARYWDFLT
  5
E
102
{ACAD_REACTORS
330
C
102
}
330
C
100
AcDbDictionary
281
     1
  3
Normal
350
F
100
AcDbDictionaryWithDefault
340
F
  0
DICTIONARY
  5
47
102
{ACAD_REACTORS
330
C
102
}
330
C
100
AcDbDictionary
281
     1
  3
A0
350
48
  3
A1
350
49
  3
A2
350
4A
  3
A3
350
4B
  3
A4
350
4C
  3
A5
350
4D
  3
A6
350
4E
  3
A7
350
4F
  3
A8
350
50
  3
A9
350
51
  3
B0
350
52
  3
B1
350
53
  3
B2
350
54
  3
B3
350
55
  3
B4
350
56
  3
B5
350
57
  3
B6
350
58
  0
XRECORD
  5
26D
102
{ACAD_REACTORS
330
C
102
}
330
C
100
AcDbXrecord
280
     1
  1
DWGPROPS COOKIE
  2

  3

  4

  6

  7

  8
liang
  9

300
=
301
=
302
=
303
=
304
=
305
=
306
=
307
=
308
=
309
=
 40
0.0
 41
2459968.557749352
 42
2459968.557803703
  1

 90
        0
  0
LAYOUT
  5
1E
102
{ACAD_REACTORS
330
1A
102
}
330
1A
100
AcDbPlotSettings
  1

  2
none_device
  4

  6

 40
0.0
 41
0.0
 42
0.0
 43
0.0
 44
0.0
 45
0.0
 46
0.0
 47
0.0
 48
0.0
 49
0.0
140
0.0
141
0.0
142
1.0
143
1.0
 70
   688
 72
     1
 73
     0
 74
     5
  7

 75
    16
147
1.0
148
0.0
149
0.0
100
AcDbLayout
  1
Layout1
 70
     1
 71
     1
 10
0.0
 20
0.0
 11
420.0
 21
297.0
 12
0.0
 22
0.0
 32
0.0
 14
1.0000000000E+20
 24
1.0000000000E+20
 34
1.0000000000E+20
 15
-1.0000000000E+20
 25
-1.0000000000E+20
 35
-1.0000000000E+20
146
0.0
 13
0.0
 23
0.0
 33
0.0
 16
1.0
 26
0.0
 36
0.0
 17
0.0
 27
1.0
 37
0.0
 76
     0
330
1B
  0
LAYOUT
  5
26
102
{ACAD_REACTORS
330
1A
102
}
330
1A
100
AcDbPlotSettings
  1

  2
none_device
  4

  6

 40
0.0
 41
0.0
 42
0.0
 43
0.0
 44
0.0
 45
0.0
 46
0.0
 47
0.0
 48
0.0
 49
0.0
140
0.0
141
0.0
142
1.0
143
1.0
 70
   688
 72
     1
 73
     0
 74
     5
  7

 75
    16
147
1.0
148
0.0
149
0.0
100
AcDbLayout
  1
Layout2
 70
     1
 71
     2
 10
0.0
 20
0.0
 11
0.0
 21
0.0
 12
0.0
 22
0.0
 32
0.0
 14
0.0
 24
0.0
 34
0.0
 15
0.0
 25
0.0
 35
0.0
146
0.0
 13
0.0
 23
0.0
 33
0.0
 16
1.0
 26
0.0
 36
0.0
 17
0.0
 27
1.0
 37
0.0
 76
     0
330
23
  0
LAYOUT
  5
22
102
{ACAD_REACTORS
330
1A
102
}
330
1A
100
AcDbPlotSettings
  1

  2
none_device
  4
ANSI_A_(11.00_x_8.50_Inches)
  6

 40
6.35
 41
19.05
 42
6.35000508
 43
19.05000254
 44
279.4
 45
215.9
 46
116.9411669515
 47
102.9647105944
 48
0.0
 49
0.0
140
0.0
141
0.0
142
0.0369152542
143
1.0
 70
  1696
 72
     0
 73
     0
 74
     0
  7

 75
     0
147
0.0179189148
148
-1300.4909072572
149
0.0
100
AcDbLayout
  1
Model
 70
     1
 71
     0
 10
0.0
 20
0.0
 11
420.0
 21
297.0
 12
0.0
 22
0.0
 32
0.0
 14
-130.0
 24
-82.5
 34
0.0
 15
165.0
 25
52.5
 35
0.0
146
0.0
 13
0.0
 23
0.0
 33
0.0
 16
1.0
 26
0.0
 36
0.0
 17
0.0
 27
1.0
 37
0.0
 76
     0
330
1F
331
29
  0
MLINESTYLE
  5
18
102
{ACAD_REACTORS
330
17
102
}
330
17
100
AcDbMlineStyle
  2
Standard
 70
     0
  3

 62
   256
 51
90.0
 52
90.0
 71
     2
 49
0.5
 62
   256
  6
BYLAYER
 49
-0.5
 62
   256
  6
BYLAYER
  0
ACDBPLACEHOLDER
  5
F
102
{ACAD_REACTORS
330
E
102
}
330
E
  0
SCALE
  5
48
102
{ACAD_REACTORS
330
47
102
}
330
47
100
AcDbScale
 70
     0
300
1:1
140
1.0
141
1.0
290
     1
  0
SCALE
  5
49
102
{ACAD_REACTORS
330
47
102
}
330
47
100
AcDbScale
 70
     0
300
1:2
140
1.0
141
2.0
290
     0
  0
SCALE
  5
4A
102
{ACAD_REACTORS
330
47
102
}
330
47
100
AcDbScale
 70
     0
300
1:4
140
1.0
141
4.0
290
     0
  0
SCALE
  5
4B
102
{ACAD_REACTORS
330
47
102
}
330
47
100
AcDbScale
 70
     0
300
1:5
140
1.0
141
5.0
290
     0
  0
SCALE
  5
4C
102
{ACAD_REACTORS
330
47
102
}
330
47
100
AcDbScale
 70
     0
300
1:8
140
1.0
141
8.0
290
     0
  0
SCALE
  5
4D
102
{ACAD_REACTORS
330
47
102
}
330
47
100
AcDbScale
 70
     0
300
1:10
140
1.0
141
10.0
290
     0
  0
SCALE
  5
4E
102
{ACAD_REACTORS
330
47
102
}
330
47
100
AcDbScale
 70
     0
300
1:16
140
1.0
141
16.0
290
     0
  0
SCALE
  5
4F
102
{ACAD_REACTORS
330
47
102
}
330
47
100
AcDbScale
 70
     0
300
1:20
140
1.0
141
20.0
290
     0
  0
SCALE
  5
50
102
{ACAD_REACTORS
330
47
102
}
330
47
100
AcDbScale
 70
     0
300
1:30
140
1.0
141
30.0
290
     0
  0
SCALE
  5
51
102
{ACAD_REACTORS
330
47
102
}
330
47
100
AcDbScale
 70
     0
300
1:40
140
1.0
141
40.0
290
     0
  0
SCALE
  5
52
102
{ACAD_REACTORS
330
47
102
}
330
47
100
AcDbScale
 70
     0
300
1:50
140
1.0
141
50.0
290
     0
  0
SCALE
  5
53
102
{ACAD_REACTORS
330
47
102
}
330
47
100
AcDbScale
 70
     0
300
1:100
140
1.0
141
100.0
290
     0
  0
SCALE
  5
54
102
{ACAD_REACTORS
330
47
102
}
330
47
100
AcDbScale
 70
     0
300
2:1
140
2.0
141
1.0
290
     0
  0
SCALE
  5
55
102
{ACAD_REACTORS
330
47
102
}
330
47
100
AcDbScale
 70
     0
300
4:1
140
4.0
141
1.0
290
     0
  0
SCALE
  5
56
102
{ACAD_REACTORS
330
47
102
}
330
47
100
AcDbScale
 70
     0
300
8:1
140
8.0
141
1.0
290
     0
  0
SCALE
  5
57
102
{ACAD_REACTORS
330
47
102
}
330
47
100
AcDbScale
 70
     0
300
10:1
140
10.0
141
1.0
290
     0
  0
SCALE
  5
58
102
{ACAD_REACTORS
330
47
102
}
330
47
100
AcDbScale
 70
     0
300
100:1
140
100.0
141
1.0
290
     0
  0
ENDSEC
  0
EOF
